<?xml version="1.0" encoding="utf-8"?>
<!-- Generator: Adobe Illustrator 26.0.0, SVG Export Plug-In . SVG Version: 6.00 Build 0)  -->
<svg version="1.1" id="Layer_1" xmlns="http://www.w3.org/2000/svg" xmlns:xlink="http://www.w3.org/1999/xlink" x="0px" y="0px"
	 viewBox="0 0 450 163" style="enable-background:new 0 0 450 163;" xml:space="preserve">
<style type="text/css">
	.st0{fill:none;stroke:#231F20;stroke-width:1.4632;stroke-miterlimit:10;}
	.st1{fill:#121617;}
	.st2{fill:#FBDA2D;}
	.st3{fill:#070C0F;}
	.st4{fill:#FFFFFF;}
	.st5{fill:#EA4135;}
	.st6{fill:#191810;}
	.st7{fill:#101818;}
	.st8{fill:#231F20;}
</style>
<line class="st0" x1="20.5" y1="111.8" x2="422.1" y2="111.8"/>
<g>
	<g>
		<path class="st1" d="M263,30.9h-3.4l-9.1,23.6h4.5l2.2-5.9h8.4l2.3,5.9h4.6L263,30.9z M258.4,45.1l1.7-4.6c0.6-1.8,1-2.9,1.2-3.7
			h0.1c0.2,0.8,0.5,1.9,1.2,3.6l1.6,4.7H258.4z"/>
		<path class="st1" d="M308.3,37.2c-4.8,0-7.6,3.8-7.6,8.9c0,4.6,2.5,8.8,8.6,8.8c2.1,0,4.2-0.5,6-1.6l-1.3-2.9
			c-1.2,0.7-2.6,1.1-4.2,1.1c-2.8,0-4.7-1.7-4.8-4.3h10.8v-1C315.8,40.6,313,37.2,308.3,37.2 M304.9,44.3c0-2,1.2-3.8,3.3-3.8
			c2.2,0,3.2,1.9,3.2,3.8H304.9z"/>
		<path class="st1" d="M381.9,37.2c-4.8,0-7.6,3.8-7.6,8.9c0,4.6,2.5,8.8,8.6,8.8c2.1,0,4.2-0.5,6-1.6l-1.3-2.9
			c-1.2,0.7-2.6,1.1-4.2,1.1c-2.8,0-4.7-1.7-4.8-4.3h10.8v-1C389.4,40.6,386.6,37.2,381.9,37.2 M378.5,44.3c0-2,1.2-3.8,3.3-3.8
			c2.2,0,3.2,1.9,3.2,3.8H378.5z"/>
		<path class="st1" d="M415.8,32.5l-4.2,1.2v3.9h-3V41h3v9.4c0,2.8,1.8,4.5,4.8,4.5c1.7,0,3.7-0.5,4.9-1.3l-1.3-2.9
			c-0.6,0.4-1.6,0.8-2.6,0.8c-1.1,0-1.6-0.6-1.6-2.1V41h0.2v0h1.4c1.9,0,2.4-1,2.7-1.5l0.8-1.7l0-0.1l0-0.1H416v0h-0.2V32.5z"/>
		<path class="st1" d="M293.1,37.2c-4,0-6.4,2.1-6.4,5.1c0,5.6,7.9,4.6,7.9,7.4c0,1.3-1.2,1.8-3,1.8s-3.3-0.6-4.6-1.4l-0.2,0.5
			l-0.8,2.9c1.4,0.8,3.4,1.4,5.8,1.4c3.6,0,6.8-1.5,6.8-5.2c0-5.9-7.9-4.8-7.9-7.5c0-1.1,1-1.5,2.4-1.5c1.5,0,2.8,0.3,4,0.8l0.8-3
			V38C296.7,37.5,295,37.2,293.1,37.2"/>
		<path class="st1" d="M324.2,37.2c-4,0-6.4,2.1-6.4,5.1c0,5.6,7.9,4.6,7.9,7.4c0,1.3-1.2,1.8-3,1.8c-1.6,0-3.2-0.5-4.4-1.3
			l-0.9,3.3c1.4,0.7,3.3,1.3,5.6,1.3c3.6,0,6.8-1.5,6.8-5.2c0-5.9-7.9-4.8-7.9-7.5c0-1.1,1-1.5,2.4-1.5c1.4,0,2.8,0.3,4,0.8l0.8-3.1
			V38C327.7,37.5,326.1,37.2,324.2,37.2"/>
		<path class="st1" d="M338.3,37.2c-4,0-6.4,2.1-6.4,5.1c0,5.6,7.9,4.6,7.9,7.4c0,1.3-1.2,1.8-3,1.8c-1.7,0-3.2-0.5-4.5-1.3
			l-0.9,3.3c1.4,0.7,3.3,1.3,5.6,1.3c3.6,0,6.8-1.5,6.8-5.2c0-5.9-7.9-4.8-7.9-7.5c0-1.1,1-1.5,2.4-1.5c1.4,0,2.7,0.3,3.9,0.7
			l0.8-3.2V38C341.8,37.5,340.1,37.2,338.3,37.2"/>
		<path class="st1" d="M279.1,37.2c-4,0-6.4,2.1-6.4,5.1c0,5.6,7.9,4.6,7.9,7.4c0,1.3-1.2,1.8-3,1.8c-1.7,0-3.3-0.6-4.6-1.4l0,0
			l1.6,4.3c1,0.3,2.1,0.4,3.3,0.4c3.6,0,6.8-1.5,6.8-5.2c0-5.9-7.9-4.8-7.9-7.5c0-1.1,1-1.5,2.4-1.5c1.4,0,2.8,0.3,4,0.8l0.8-3.1V38
			C282.7,37.5,281,37.2,279.1,37.2"/>
		<path class="st1" d="M346.2,36.9L346.2,36.9l-0.1,9.7v7.9h4.2V42.6c1.2-1,2.7-1.7,4-1.7c2.2,0,2.5,1.6,2.5,3.6v10h4.3V43.2l0-0.6
			c1.2-1,2.6-1.7,4-1.7c2.2,0,2.6,1.6,2.6,3.6v10h4.2V43.3c0-4.5-2.6-6.1-5.6-6.1c-1.9,0-4,0.9-6.1,2.6c-0.8-1.7-2.4-2.6-4.5-2.6
			c-2.1,0-4,1-5.7,2.3H350c-0.4-0.9-1.1-1.3-1.5-1.5L346.2,36.9L346.2,36.9z"/>
		<path class="st1" d="M391.8,36.9L391.8,36.9l-0.1,9.7v7.9h4.2V42.7c1.2-1,2.7-1.8,4.1-1.8c2.2,0,2.6,1.7,2.6,3.7v9.8h4.3V43.4
			c0-4.8-2.7-6.1-5.4-6.1c-2.1,0-4,0.9-5.8,2.3h-0.2c-0.4-0.9-1.1-1.3-1.5-1.5L391.8,36.9L391.8,36.9z"/>
		<path class="st1" d="M98.7,30.6c-7.6,0-12.4,5.4-12.4,12.2c0,6.9,4.2,11.8,11.9,11.8c2.3,0,4.7-0.4,7.3-1.8c-0.6-1-1-2.1-1-3.5
			c-1.7,1-3.5,1.6-5.8,1.6c-4.8,0-7.8-3.4-7.8-8.3c0-4.6,2.7-8.5,8-8.5c2.3,0,4.2,0.6,6.1,1.5v-4C103.4,31.1,101.2,30.6,98.7,30.6"
			/>
		<path class="st1" d="M156.6,28.9h-4.2v24.4c1.4,0.7,3.4,1.2,5.5,1.2c5.7,0,10.1-3.4,10.1-9.3c0-5.3-3.6-8.3-8.1-8.3
			c-1.3,0-2.3,0.2-3.3,0.5V28.9z M158.5,51c-0.6,0-1.3-0.1-2-0.3v-9.8c0.5-0.2,1.3-0.5,2.6-0.5c2.8,0,4.4,2.1,4.4,5
			C163.6,48.7,161.6,51,158.5,51"/>
		<path class="st1" d="M206.3,29.1H202v8.2c-0.7-0.1-1.6-0.2-2.3-0.2c-5.3,0-9.2,3.7-9.2,9c0,5.6,4.1,8.6,9.6,8.6
			c2.1,0,4.5-0.4,6.2-1.2V29.1z M200,51.2c-3.1,0-5.2-1.9-5.2-5.2c0-3.5,2.2-5.5,5.1-5.5c0.9,0,1.4,0.1,2,0.2v10.1
			C201.5,51.1,200.6,51.2,200,51.2"/>
		<path class="st1" d="M232.9,37.1c-4.8,0-7.6,3.8-7.6,8.9c0,4.6,2.5,8.8,8.6,8.8c2.1,0,4.2-0.5,6-1.6l-1.3-2.9
			c-1.2,0.7-2.6,1.1-4.2,1.1c-2.8,0-4.7-1.7-4.8-4.3h10.8v-1C240.4,40.5,237.6,37.1,232.9,37.1 M229.6,44.1c0-2,1.2-3.8,3.3-3.8
			c2.2,0,3.2,1.9,3.2,3.8H229.6z"/>
		<path class="st1" d="M113.6,37.1c-2.4,0-4.5,0.6-6.5,1.7l1.4,2.7c1.2-0.6,2.7-1.2,4.4-1.2c2,0,3.2,0.9,3.2,2.8v0.5l-2.9,0.1
			c-1.7,0.1-3.2,0.4-4.3,1c-1.7,0.9-2.9,2.3-2.9,4.6c0,3.2,2.4,5.4,5.6,5.4c2.1,0,3.6-0.9,4.8-2h0.4c0.4,0.5,0.9,0.7,1.2,0.9
			l2.2,1.1l0.1,0l0.1,0v-9.9h0v-1.6C120.4,39.1,118.1,37.1,113.6,37.1 M112.8,51.4c-1.5,0-2.5-0.9-2.5-2.3c0-0.9,0.3-1.5,1-1.9
			c0.6-0.3,1.4-0.5,2.5-0.5l2.2-0.1V50l0,0.1C115.4,50.6,114.3,51.4,112.8,51.4"/>
		<path class="st1" d="M123.6,36.7L123.6,36.7l-0.1,2.6v15h4.2v-7.9v-4c1.2-1,2.7-1.7,4-1.7c2.2,0,2.5,1.6,2.5,3.6v10h4.3V43l0-0.6
			c1.2-1,2.6-1.7,4-1.7c2.2,0,2.6,1.6,2.6,3.6v10h4.2V43.1c0-4.5-2.6-6.1-5.6-6.1c-1.9,0-4,0.9-6.1,2.6c-0.8-1.7-2.4-2.6-4.5-2.6
			c-2.1,0-4,1-5.7,2.3h-0.2c-0.4-0.9-1.1-1.3-1.5-1.5L123.6,36.7L123.6,36.7z"/>
		<path class="st1" d="M179.1,37.1c-1.9,0-3.6,1-4.6,2.2l-0.5-1.9h-3.6v16.9h4.2V42.4c1.3-1.6,2.6-2.1,3.7-2.1c1.5,0,2.6,1,2.6,1
			v-3.9C180.3,37.2,179.7,37.1,179.1,37.1"/>
		<path class="st1" d="M185.6,29.6c-1.5,0-2.6,1.1-2.6,2.6c0,1.4,1.1,2.5,2.6,2.5c1.5,0,2.6-1.1,2.6-2.5
			C188.3,30.7,187.1,29.6,185.6,29.6 M187.8,37.5h-4.3v16.9h4.3V37.5z"/>
		<path class="st1" d="M225.2,36.4H222h-3.3h-0.1v0H216c-4.6,0-6.9,3.1-6.9,6.2c0,2.2,1,4.2,2.8,5.2c-1.4,1-2,2.2-2,3.2
			c0,0.9,0.4,1.7,1.1,2.1c-1.7,0.7-3,2.2-3,4.1c0,2.9,2.9,5,7.8,5c5.8,0,8.9-2.5,8.9-5.6c0-6.3-11.1-3.5-11.1-6.5
			c0-0.4,0.1-0.7,0.4-1.2c0.6,0.2,1.3,0.3,2.1,0.3c4.1,0,7-2.5,7-6.2c0-1.3-0.4-2.6-1.2-3.6h0.1h0.3v0c1.4-0.1,1.8-0.9,2-1.3
			l0.7-1.5V36.4L225.2,36.4z M216.1,45.9c-1.9,0-3-1.5-3-3.1c0-2,1.2-3.1,2.9-3.1c1.9,0,3,1.5,3,3.2
			C219.1,44.8,217.8,45.9,216.1,45.9 M216.4,59.2c-2.8,0-4.6-1-4.6-2.7c0-1.1,0.8-1.8,1.4-2.2c2.3,0.9,7.5,0.4,7.5,2.8
			C220.6,58.3,218.9,59.2,216.4,59.2"/>
	</g>
	<g>
		<path class="st1" d="M87.3,65.8h11.8l-1,2.7h-7.7v7.4h7.6v2.7h-7.6v7.9h8.8v2.7h-12V65.8z"/>
		<path class="st1" d="M102.8,72.4h2.6l0.4,2.1c1.8-1.5,3.7-2.5,5.8-2.5c2.7,0,5.1,1.6,5.1,6v11.3h-3.1V79c0-2.4-0.6-4.2-2.9-4.2
			c-1.7,0-3.3,1-4.8,2.3v12.2h-3.1V72.4z"/>
		<path class="st1" d="M118.9,92.8c0-1.7,1.1-3.3,3.1-4.2c-0.7-0.4-1.2-1.2-1.2-2.1c0-0.9,0.4-2.1,1.9-3.3c-1.7-1-2.7-2.9-2.7-5.1
			c0-3.3,2.5-6,6.4-6c1.5,0,2.6,0.3,3.2,0.6c0.2,0.1,0.2,0.1,0.4,0c0.8-0.8,1.9-1.4,3.7-1.4c0.4,0,0.9,0.1,1,0.1l-0.7,2.3
			c-0.3-0.1-0.7-0.1-1-0.1c-0.5,0-1.1,0.1-1.5,0.4c1.1,1.1,1.7,2.7,1.7,4.2c0,3.7-2.7,6.1-6.6,6.1c-0.8,0-1.5-0.1-2.1-0.3
			c-0.6,0.6-0.8,1.2-0.8,1.7c0,3.2,11.1,0.3,11.1,6.6c0,3.1-3.1,5.3-8.3,5.3C121.9,97.6,118.9,95.8,118.9,92.8z M131.7,92.6
			c0-2.9-5-2.3-7.9-3.2c-0.8,0.5-2,1.4-2,2.8c0,1.9,2,3.1,4.9,3.1C130,95.3,131.7,94.1,131.7,92.6z M130.2,78.1
			c0-2.1-1.4-3.7-3.6-3.7c-2.1,0-3.5,1.4-3.5,3.6c0,2.1,1.3,3.7,3.6,3.7C128.6,81.8,130.2,80.5,130.2,78.1z"/>
		<path class="st1" d="M137.2,64h3.1v21c0,1.3,0.4,1.7,1.2,1.7c0.3,0,0.8-0.1,1.1-0.2l0.6,2.5c-0.8,0.3-1.8,0.5-2.6,0.5
			c-2.3,0-3.5-1.3-3.5-3.5V64z"/>
		<path class="st1" d="M145.2,66.9c0-1.1,0.8-2,2-2c1.2,0,2.1,0.9,2.1,2s-0.9,2-2.1,2C146.1,68.9,145.2,68.1,145.2,66.9z
			 M145.7,72.4h3.1v16.8h-3.1V72.4z"/>
		<path class="st1" d="M152.5,85.7c1.1,0.6,2.5,1.3,4.3,1.3c1.9,0,3.4-0.7,3.4-2.4c0-3.4-7.9-2.3-7.9-7.9c0-2.7,2.1-4.8,5.9-4.8
			c1.7,0,3.2,0.4,4.4,0.8v2.7c-1.2-0.5-2.6-1-4.3-1c-1.6,0-2.9,0.5-2.9,2.1c0,3.4,7.9,2.2,7.9,8c0,3.4-2.9,5-6.4,5
			c-2.3,0-4.3-0.7-5.4-1.5L152.5,85.7z"/>
		<path class="st1" d="M166.3,64h3.1v10.4c1.7-1.4,3.6-2.5,5.7-2.5c2.6,0,5.1,1.6,5.1,6v11.3h-3.1V79c0-2.4-0.6-4.2-2.9-4.2
			c-1.7,0-3.3,1-4.8,2.3v12.2h-3.1V64z"/>
	</g>
	<g>
		<path class="st2" d="M73.1,64c-0.1,2.9-0.5,5.5-1.3,7.8c-0.7,2.2-1.7,4.2-3,5.9c-2.4,3.1-5.2,4.7-7.1,5.7
			c-0.2,0.1-1.3,0.7-6.8,3.4l0.1,0.1h0.1V64.2h18v-0.3H54.9v23.2l0.2-0.1c5.5-2.7,6.6-3.3,6.8-3.4c1.9-1,4.8-2.6,7.2-5.8
			c1.3-1.7,2.3-3.7,3-5.9c0.7-2.3,1.2-5,1.3-7.9L73.1,64z"/>
		<path class="st2" d="M41,64v22.9h0.1l0.1-0.1c-5.4-2.7-6.6-3.3-6.8-3.4c-1.9-1-4.8-2.6-7.1-5.7C26,76,25,74,24.4,71.8
			c-0.7-2.3-1.1-4.9-1.3-7.8L23,64v0.1h18.2v-0.3H22.8l0,0.1c0.1,2.9,0.5,5.5,1.3,7.9c0.7,2.2,1.7,4.2,3,5.9
			c2.4,3.2,5.3,4.7,7.2,5.8c0.2,0.1,1.3,0.7,6.8,3.4l0.2,0.1V64H41z"/>
		<polygon class="st3" points="73.3,31.5 73.3,31.3 54.9,31.3 54.9,50.2 73.4,50.2 73.4,31.3 73.3,31.3 73.3,31.5 73.1,31.5 
			73.1,50 55.2,50 55.2,31.6 73.3,31.6 73.3,31.5 73.1,31.5 		"/>
		<polygon class="st3" points="41.1,31.5 41.1,31.3 22.8,31.3 22.8,50.2 41.3,50.2 41.3,31.3 41.1,31.3 41.1,31.5 41,31.5 41,50 
			23.1,50 23.1,31.6 41.1,31.6 41.1,31.5 41,31.5 		"/>
		<path class="st1" d="M48.1,93.2l-0.6-0.3c-0.8-0.4-13.6-6.8-14.4-7.2c-4.1-2.3-12.8-6.9-12.8-23.4V28.9h55.4v33.4
			c0,16.4-8.6,21.1-12.8,23.4c-0.8,0.4-13.6,6.8-14.4,7.2L48.1,93.2z"/>
		<path class="st4" d="M53.7,51.4V30.1H42.5v21.3H21.6v10.9l0,0.4h20.9V89c3,1.5,5.6,2.8,5.6,2.8l0,0l0,0c0,0,2.6-1.3,5.6-2.8V62.7
			h20.9l0-0.4V51.4H53.7z"/>
		<rect x="21.6" y="30.1" class="st5" width="20.9" height="21.3"/>
		<rect x="53.7" y="30.1" class="st5" width="20.9" height="21.3"/>
		<path class="st5" d="M42.5,62.7H21.6c0.1,15.3,8,19.7,12.2,22c0.4,0.2,4.9,2.5,8.7,4.4V62.7z"/>
		<path class="st5" d="M53.7,62.7V89c3.8-1.9,8.3-4.1,8.7-4.4c4.2-2.3,12-6.7,12.1-22H53.7z"/>
		<path class="st1" d="M60.9,57.2l0.4-0.5l-0.5-0.6l-0.5,0.6l0.4,0.5c0,0.3,0,2.5-1.3,3.3c0,0,0.4,0.1,1,0c0,0,0.1,0.6,0.4,1.3
			c0.3-0.7,0.4-1.3,0.4-1.3c0.6,0.1,1,0,1,0C60.9,59.7,60.9,57.5,60.9,57.2"/>
		<path class="st1" d="M64.3,53.4l0.4-0.5l-0.5-0.6l-0.5,0.6l0.4,0.5c0,0.3,0,2.5-1.3,3.3c0,0,0.4,0.1,1,0c0,0,0.1,0.6,0.4,1.3
			c0.3-0.7,0.4-1.3,0.4-1.3c0.6,0.1,1,0,1,0C64.3,55.9,64.3,53.7,64.3,53.4"/>
		<path class="st1" d="M67.7,57.2l0.4-0.5l-0.5-0.6l-0.5,0.6l0.4,0.5c0,0.3,0,2.5-1.3,3.3c0,0,0.4,0.1,1,0c0,0,0.1,0.6,0.4,1.3
			c0.3-0.7,0.4-1.3,0.4-1.3c0.6,0.1,1,0,1,0C67.7,59.7,67.7,57.5,67.7,57.2"/>
		<path class="st1" d="M71.1,53.4l0.4-0.5L71,52.2l-0.5,0.6l0.4,0.5c0,0.3,0,2.5-1.3,3.3c0,0,0.4,0.1,1,0c0,0,0.1,0.6,0.4,1.3
			c0.3-0.7,0.4-1.3,0.4-1.3c0.6,0.1,1,0,1,0C71.1,55.9,71.1,53.7,71.1,53.4"/>
		<path class="st1" d="M57.5,53.4l0.4-0.5l-0.5-0.6l-0.5,0.6l0.4,0.5c0,0.3,0,2.5-1.3,3.3c0,0,0.4,0.1,1,0c0,0,0.1,0.6,0.4,1.3
			c0.3-0.7,0.4-1.3,0.4-1.3c0.6,0.1,1,0,1,0C57.5,55.9,57.5,53.7,57.5,53.4"/>
		<path class="st1" d="M28.7,57.2l0.4-0.5l-0.5-0.6l-0.5,0.6l0.4,0.5c0,0.3,0,2.5-1.3,3.3c0,0,0.4,0.1,1,0c0,0,0.1,0.6,0.4,1.3
			c0.3-0.7,0.4-1.3,0.4-1.3c0.6,0.1,1,0,1,0C28.7,59.7,28.7,57.5,28.7,57.2"/>
		<path class="st1" d="M32.1,53.4l0.4-0.5L32,52.2l-0.5,0.6l0.4,0.5c0,0.3,0,2.5-1.3,3.3c0,0,0.4,0.1,1,0c0,0,0.1,0.6,0.4,1.3
			c0.3-0.7,0.4-1.3,0.4-1.3c0.6,0.1,1,0,1,0C32.1,55.9,32.1,53.7,32.1,53.4"/>
		<path class="st1" d="M35.5,57.2l0.4-0.5l-0.5-0.6l-0.5,0.6l0.4,0.5c0,0.3,0,2.5-1.3,3.3c0,0,0.4,0.1,1,0c0,0,0.1,0.6,0.4,1.3
			c0.3-0.7,0.4-1.3,0.4-1.3c0.6,0.1,1,0,1,0C35.5,59.7,35.5,57.5,35.5,57.2"/>
		<path class="st1" d="M38.9,53.4l0.4-0.5l-0.5-0.6l-0.5,0.6l0.4,0.5c0,0.3,0,2.5-1.3,3.3c0,0,0.4,0.1,1,0c0,0,0.1,0.6,0.4,1.3
			c0.3-0.7,0.4-1.3,0.4-1.3c0.6,0.1,1,0,1,0C38.9,55.9,38.9,53.7,38.9,53.4"/>
		<path class="st1" d="M25.3,53.4l0.4-0.5l-0.5-0.6l-0.5,0.6l0.4,0.5c0,0.3,0,2.5-1.3,3.3c0,0,0.4,0.1,1,0c0,0,0.1,0.6,0.4,1.3
			c0.3-0.7,0.4-1.3,0.4-1.3c0.6,0.1,1,0,1,0C25.3,55.9,25.3,53.7,25.3,53.4"/>
		<path class="st1" d="M48.2,65.9l0.4-0.5l-0.5-0.6l-0.5,0.6l0.4,0.5c0,0.3,0,2.5-1.3,3.3c0,0,0.4,0.1,1,0c0,0,0.1,0.6,0.4,1.3
			c0.3-0.7,0.4-1.3,0.4-1.3c0.6,0.1,1,0,1,0C48.2,68.4,48.2,66.1,48.2,65.9"/>
		<path class="st1" d="M48.2,77.4l0.4-0.5l-0.5-0.6l-0.5,0.6l0.4,0.5c0,0.3,0,2.5-1.3,3.3c0,0,0.4,0.1,1,0c0,0,0.1,0.6,0.4,1.3
			c0.3-0.7,0.4-1.3,0.4-1.3c0.6,0.1,1,0,1,0C48.2,79.9,48.2,77.7,48.2,77.4"/>
		<path class="st1" d="M51.4,71.7l0.4-0.5l-0.5-0.6l-0.5,0.6l0.4,0.5c0,0.3,0,2.5-1.3,3.3c0,0,0.4,0.1,1,0c0,0,0.1,0.6,0.4,1.3
			c0.3-0.7,0.4-1.3,0.4-1.3c0.6,0.1,1,0,1,0C51.4,74.2,51.4,71.9,51.4,71.7"/>
		<path class="st1" d="M45.1,71.7l0.4-0.5l-0.5-0.6l-0.5,0.6l0.4,0.5c0,0.3,0,2.5-1.3,3.3c0,0,0.4,0.1,1,0c0,0,0.1,0.6,0.4,1.3
			c0.3-0.7,0.4-1.3,0.4-1.3c0.6,0.1,1,0,1,0C45,74.2,45,71.9,45.1,71.7"/>
		<path class="st1" d="M51.4,83.2l0.4-0.5L51.3,82l-0.5,0.6l0.4,0.5c0,0.3,0,2.5-1.3,3.3c0,0,0.4,0.1,1,0c0,0,0.1,0.6,0.4,1.3
			c0.3-0.7,0.4-1.3,0.4-1.3c0.6,0.1,1,0,1,0C51.4,85.7,51.4,83.5,51.4,83.2"/>
		<path class="st1" d="M45.1,83.2l0.4-0.5L44.9,82l-0.5,0.6l0.4,0.5c0,0.3,0,2.5-1.3,3.3c0,0,0.4,0.1,1,0c0,0,0.1,0.6,0.4,1.3
			c0.3-0.7,0.4-1.3,0.4-1.3c0.6,0.1,1,0,1,0C45,85.7,45,83.5,45.1,83.2"/>
		<path class="st1" d="M48.2,39.6l0.4-0.5l-0.5-0.6l-0.5,0.6l0.4,0.5c0,0.3,0,2.5-1.3,3.3c0,0,0.4,0.1,1,0c0,0,0.1,0.6,0.4,1.3
			c0.3-0.7,0.4-1.3,0.4-1.3c0.6,0.1,1,0,1,0C48.2,42.1,48.2,39.9,48.2,39.6"/>
		<path class="st1" d="M51.4,33.8l0.4-0.5l-0.5-0.6l-0.5,0.6l0.4,0.5c0,0.3,0,2.5-1.3,3.3c0,0,0.4,0.1,1,0c0,0,0.1,0.6,0.4,1.3
			c0.3-0.7,0.4-1.3,0.4-1.3c0.6,0.1,1,0,1,0C51.4,36.3,51.4,34.1,51.4,33.8"/>
		<path class="st1" d="M45.1,33.8l0.4-0.5l-0.5-0.6l-0.5,0.6l0.4,0.5c0,0.3,0,2.5-1.3,3.3c0,0,0.4,0.1,1,0c0,0,0.1,0.6,0.4,1.3
			c0.3-0.7,0.4-1.3,0.4-1.3c0.6,0.1,1,0,1,0C45,36.3,45,34.1,45.1,33.8"/>
		<path class="st1" d="M51.4,45.4l0.4-0.5l-0.5-0.6l-0.5,0.6l0.4,0.5c0,0.3,0,2.5-1.3,3.3c0,0,0.4,0.1,1,0c0,0,0.1,0.6,0.4,1.3
			c0.3-0.7,0.4-1.3,0.4-1.3c0.6,0.1,1,0,1,0C51.4,47.9,51.4,45.6,51.4,45.4"/>
		<path class="st1" d="M45.1,45.4l0.4-0.5l-0.5-0.6l-0.5,0.6l0.4,0.5c0,0.3,0,2.5-1.3,3.3c0,0,0.4,0.1,1,0c0,0,0.1,0.6,0.4,1.3
			c0.3-0.7,0.4-1.3,0.4-1.3c0.6,0.1,1,0,1,0C45,47.9,45,45.6,45.1,45.4"/>
		<path class="st1" d="M38,40.6l0.1,0.3l0.1,0.6c0.2,1,0.4,1.3,0.9,1.3c0.3,0,0.5-0.2,0.6-0.4l0.1-0.4l0.2-0.1
			c0.2,0,0.3,0.2,0.3,0.6c0,0.1,0,0.4,0.1,0.9c0,0.3,0.1,0.5,0.1,0.8l-0.1,0.6c0.1,0.3,0.1,0.8,0.1,1.1c0,0.4-0.1,0.8-0.2,1.1
			c0.1,0.3,0.1,0.4,0.1,0.7l-0.1,0.6c-0.1,0.4-0.1,0.5-0.1,0.6l0,0.2l0.1,0.2l-0.1,0.1l-0.4-0.1l-0.4-0.2L39,48.6
			c-0.3,0.3-0.4,0.4-1.3,0.6l-0.4,0.2l-0.2,0.1c-0.2,0-0.2-0.2-0.2-0.8c0-0.4,0-0.7,0.1-1c-0.3-0.1-0.5-0.2-0.6-0.2l-0.3,0l-0.1,0
			l-0.1-0.2l0.1-0.4l0.2-0.4l0.4-0.5l0.5-0.3l0.6-0.1c0.4-0.1,0.6-0.3,0.6-0.5c0-0.3-0.2-0.4-0.6-0.6L37,44.4L36.3,44
			c-0.4-0.2-0.5-0.3-0.6-0.3l-0.2,0.3c0,0.3,0.2,0.5,0.5,0.5l0.2,0l0.2-0.1l0.1,0.1l0,0.1l0,0.3c0,0.3-0.2,0.6-0.6,1.1l-0.2,0.2
			c-0.1,0.6-0.5,1.1-1,1.4l-0.2,0.1l-0.1,0.2L34,48.5l-0.4,0.4l-0.4,0.3l-0.2,0.3l-0.1,0.1c-0.2,0-0.3-0.2-0.4-0.4l-0.3-0.3L32,49
			l-0.2,0h-0.6c-0.3,0-0.8,0.1-1,0.2l-0.2,0.1l-0.1-0.1l0-0.1c0-0.3,0.2-0.9,0.5-1.4c0.2-0.3,0.3-0.4,0.5-0.6
			c-0.1-0.3-0.3-0.5-0.5-0.6L30,46.3l-0.1-0.1c0-0.1,0.1-0.2,0.4-0.4c0.3-0.2,0.7-0.3,1-0.3c0.3,0,0.6,0.1,0.9,0.4
			c0.5,0.4,0.6,0.4,0.8,0.4c0.4,0,0.7-0.3,0.7-0.7c0-0.2-0.1-0.5-0.5-0.9c-0.5-0.6-0.6-1-0.6-1.4c0-0.3,0.1-0.7,0.2-0.8l0.2-0.3
			l0.1-0.2l-0.3-0.2c-0.3,0-0.8,0.2-1.2,0.5l-0.4,0.4l0.1,0.1l0.2,0.1l0,0.1l-0.1,0.1l-0.4,0.5c-0.2,0.2-0.5,0.5-0.7,0.8l-0.2,0.2
			L30,44.9c-0.1,0.2-0.5,0.6-0.8,0.8L29,45.8l-0.1,0.2l-0.2,0.4L28.2,47l-0.5,0.5c-0.2,0.2-0.3,0.4-0.5,1.1
			c-0.1,0.4-0.2,0.6-0.3,0.6l-0.1-0.1c-0.4-0.4-0.7-0.6-0.8-0.6l-0.2,0.1l-0.5,0.2l-0.7,0.1c-0.5,0.1-0.7,0.2-1,0.5l-0.2,0.1
			l-0.1-0.2l0-0.2l0.1-0.5c0.1-0.5,0.2-0.9,0.4-1.2l0.3-0.5l0.1-0.3c0-0.4-0.4-0.8-0.9-0.8l-0.2-0.1l0.3-0.4
			c0.4-0.3,0.8-0.5,1.1-0.5c0.2,0,0.5,0.1,0.8,0.2l0.4,0.2l0.4,0.1c0.4,0,0.8-0.4,1.3-1.2c0.2-0.4,0.3-0.7,0.3-0.9
			c0-0.4-0.2-0.7-0.6-0.7c-0.3,0-0.6,0.1-0.8,0.3l-0.3,0.5l0,0.2l0,0L26,43.9c-0.2,0-0.4-0.2-1.1-1.1c-0.5-0.6-0.6-0.9-0.7-1.5
			c-0.6-0.8-0.7-1.1-0.7-1.6l0-0.4C23.1,38.8,23,38.5,23,38l0.1-0.5c-0.2-0.3-0.3-0.4-0.3-0.7l-0.1-0.4l-0.3-0.7l-0.2-0.3
			c0-0.2,0.1-0.3,0.8-0.4l0-0.4l0.1-0.4l0.1-0.7c0-0.3,0.1-0.5,0.1-0.6c0-0.1,0-0.2-0.1-0.6l-0.2-0.4l-0.1-0.2l0.1-0.1
			c0.2,0,0.6,0.3,1.1,0.7c1,0.8,1.2,1.2,1.4,2.2l0.1,0.4c0.5,0.4,0.7,0.8,0.7,1.3c0,0.4-0.1,0.8-0.4,1.1l-0.4,0.5l-0.2,0.6
			c0,0.3,0.1,0.6,0.3,1.1c0.3,0.5,0.5,0.7,0.8,0.7c0.5,0,0.9-0.8,0.9-1.7v-0.1l0-0.3l0-0.6c0-0.3,0-0.4,0.1-0.5l0-0.4l0-0.3
			l-0.2-0.3l-0.4-0.4c-0.6-0.6-0.9-1.2-0.9-1.6c0-0.5,0.4-0.9,0.9-0.9l0.4,0.1v-0.1c0-0.8,0.2-1.4,0.4-1.4l0.1,0l0.3,0.3l0.4,0.2
			l0.1,0.1l0.2-0.5l0.2-0.3l0.2-0.3l0.1-0.2l0.1-0.1l0.2,0.3c0,0.1,0.1,0.2,0.4,0.4l0.2,0.2l0.1,0.4l0.1,0.1l0.4-0.3l0.3-0.2
			l0.2-0.1l0.1,0.1l0.1,0.3c0.2,0.3,0.3,0.5,0.3,0.6l0,0.2V33c0.6,0.2,0.8,0.5,0.8,1.1c0,0.4-0.2,1-0.7,1.5
			c-0.3,0.4-0.3,0.4-0.3,0.7c0,1.3,0.9,2.1,2.5,2.1l1.2,0c0.8,0,1.2,0.1,1.9,0.3c0.8,0.3,1.1,0.3,1.3,0.3l0.2-0.1l0.1-0.2
			c0-0.2-0.4-0.4-1.9-0.9c-2.9-0.8-4.2-2-4.2-3.9c0-1.5,1.2-2.7,2.8-2.7c0.5,0,1.3,0.1,1.8,0.3l0.7,0.3l0.4,0.1
			c0.2,0,0.4-0.2,0.4-0.6l0.2-0.3c0.2,0,0.5,0.3,0.8,0.7c0.3,0.4,0.5,0.9,0.5,1.2c0,0.4-0.2,0.7-0.6,0.9c-0.4,0.6-0.9,0.9-1.5,0.9
			c-0.5,0-1.2-0.3-2.4-1c-0.4-0.2-0.6-0.3-0.9-0.3c-0.3,0-0.5,0.2-0.5,0.5c0,0.3,0.2,0.4,0.7,0.6c0.8,0.3,1,0.4,1.3,0.7
			c0.9,0.2,1.3,0.3,1.9,0.7c1.6,0.5,2.5,1.6,2.5,2.8c0,1.2-0.8,2-1.9,2C38.5,40.7,38.4,40.7,38,40.6"/>
		<path class="st2" d="M39.7,48.4L39.6,48l0-0.1l0.1-0.3l0-0.2l-0.1-0.5l-0.2-0.3l-0.2-0.3l0-0.1l0.1-0.1l0.2,0.1l0.2,0.1
			c0.1,0,0.2-0.2,0.2-0.5c0-0.3,0-0.5-0.1-0.6l-0.3-0.3l-0.2-0.2l-0.1-0.2l0.1-0.1l0.4,0.1l0.1,0l0.1-0.1l0-0.1l-0.1-0.4l-0.1-0.4
			l-0.1-0.1l0,0l-0.4,0.1l-0.1,0c-0.6,0-1.2-0.5-1.4-1.1L37.3,41c-0.1-0.4-0.4-0.7-0.9-1.1l-0.4-0.2l-0.3,0l-0.1-0.1l0.2-0.1
			l0.6,0.1c0.2,0,0.5,0.1,1,0.2c0.5,0.2,0.9,0.3,1.2,0.3c0.9,0,1.4-0.5,1.4-1.3c0-0.5-0.3-1.2-0.7-1.6l-0.6-0.4l-0.1,0.1l0,0.2l0,0
			l-0.1,0.2L38.2,37c-0.3-0.7-0.9-1.1-1.4-1.1L36.7,36l0.1,0.3l0.1,0.3l0.1,0.2l-0.1,0l-0.3-0.2l-0.3-0.3l-0.2-0.4
			c-0.2-0.3-0.3-0.4-0.7-0.6l-0.4-0.2L34.7,35l-0.1,0.1l0.1,0.2l0.2,0.4l-0.1,0.1c-0.1,0-0.4-0.3-0.7-0.7c-0.2-0.3-0.3-0.7-0.3-1
			c0-0.8,0.6-1.3,1.3-1.3c0.4,0,0.9,0.2,1.3,0.4l0.8,0.5c0.3,0.2,0.7,0.3,1,0.3l0.5-0.1l0.2-0.1l0.1-0.1l0-0.1l-0.1,0l-0.4-0.1
			L38,33.4c-0.5-0.2-0.8-0.4-0.9-0.4c-0.3-0.2-0.5-0.3-0.6-0.3l-0.2-0.2l0.1-0.1l0.2,0.1l0.7,0.2L38,33c0.4,0.1,0.9,0.2,1.2,0.2
			c0.3,0,0.6-0.3,0.6-0.6l-0.3-0.8l-0.1-0.1l-0.1,0.1l0,0.1l0,0.2l-0.4,0.4l-0.3-0.1l-1.2-0.4c-1-0.3-1.4-0.4-1.9-0.4
			c-1.4,0-2.4,0.9-2.4,2.2c0,1.4,1,2.3,3.4,3.2c2.4,0.8,2.7,1,2.7,1.6c0,0.4-0.4,0.7-0.8,0.7l-0.4,0c-0.1,0-0.5-0.1-1.2-0.3
			c-0.7-0.2-1.4-0.2-2.2-0.2c-1.7,0-2.7,0.3-3.5,1.1l-0.5,0.2l-0.1,0l-0.2,0h0l-0.5,0.3c-0.2,0.3-0.3,0.5-0.3,0.5l-0.2,0.1
			c-0.2,0-0.3-0.1-0.4-0.5l-0.4-0.5l-0.4-0.3L28,39.6l0.1-0.2l0.2-0.5l0.2-0.2c0.1,0,0.1,0.1,0.2,0.5l0.1,0.5l0.2,0.4l0.2,0.1
			c0.2,0,0.4-0.4,0.5-0.9c0-0.4,0.1-0.5,0.2-0.5l0.1,0l0.2,0.3l0.2,0.3l0.2,0.1l0,0c0.1,0,0.2-0.1,0.2-0.4l0-0.2l0-0.2l0-0.2
			l0.1-0.2l0.1,0.1l0.2,0.2l0.4,0.2l0.2-0.2l-0.2-0.4l-0.1-0.2c-0.1-0.3-0.3-0.4-0.4-0.4l-0.2,0l-0.2,0.1l-0.1,0l-0.1-0.1
			c0-0.2,0.1-0.4,0.3-0.7c0.1-0.2,0.2-0.7,0.3-1.4c0.1-0.9,0.2-1.5,0.3-1.5l0.1,0.3l0,0.2l0,0.2l0.1,0.3c0.2,0,0.3-0.2,0.5-0.6
			l0.1-0.4l0-0.1l-0.4-0.7l-0.4-0.1l-0.1-0.1V33v-0.2l0-0.2l-0.1-0.2L31,32.2c-0.4,0.2-0.6,0.3-0.7,0.5L30,33L30,32.9l0.1-0.3l0-0.1
			c0-0.4-0.2-0.8-0.6-1l-0.1,0.1l-0.1,0.2L29,32.1l-0.2,0.4l0,0.2l0,0l0,0.1l-0.1,0.2l0,0l-0.1-0.2l-0.2-0.2L28,32.3l-0.2-0.1
			l-0.1,0.2l-0.1,0.3l0,0.3l0,0.3l0,0.1l-0.1,0.2l-0.2-0.1l-0.3-0.1c-0.3,0-0.5,0.2-0.5,0.5c0,0.4,0.1,0.7,0.3,0.9l0.2,0.3l0.2,0.1
			l0-0.4l-0.1-0.3l0-0.1l0.1-0.2c0.1,0,0.2,0.1,0.2,0.4l0.1,0.7l0.1,0.8l0.2,0.7c0.1,0.3,0.2,0.5,0.3,0.6l0.2,0.3l-0.1,0.1l-0.2-0.1
			l-0.2-0.1l-0.1,0c-0.3,0-0.3,0.2-0.3,1.4c0,0.7,0.2,1.7,0.3,2.2l0.4,0.9l0.1,0.4c0,1.3-1.7,3.3-3.6,4.2c-0.7,0.3-0.9,0.7-1,1.4
			l0,0.2c0.3-0.1,0.4-0.2,0.6-0.2c0.5-0.1,0.6-0.2,0.7-0.5l0.1-0.2c0-0.1,0.1-0.1,0.5-0.3l0.3-0.2l0.2-0.2l0.1,0.1l0,0.1l-0.2,0.5
			l0,0.1c0,0.4,0.2,0.7,0.6,0.9c0.1-0.4,0.1-0.5,0.2-0.7l0.3-0.5c0.1-0.2,0.2-0.4,0.2-0.8l0-0.6l0-0.1l0.1-0.1l0.1,0.1l0.1,0.3
			l0.2,0.1c0.2,0,0.4-0.2,0.6-0.6l0.1-0.5l0-0.2l-0.1-0.3l0-0.1l0.2-0.2l0.1,0l0.1,0.4l0.2,0.2l0.4-0.4c0.1-0.2,0.2-0.4,0.2-0.7
			c0-0.4,0-0.5,0.2-0.5l0.1,0l0.1,0.2l0.1,0.1l0.4-0.4l0.1-0.2l-0.2-0.2l-0.2-0.4c0-0.2,0-0.3,0.2-0.6l0.2-0.4
			c0.2-0.4,0.3-0.5,0.4-0.5l0.1,0.2l0,0.1l-0.1,0.2l0.1,0.1l0.3-0.1c0,0,0.2-0.1,0.5-0.2l0.6-0.2L33,41l0.3,0l0.4,0.1l0.3-0.3
			l-0.3-0.5l-0.1-0.2l0-0.1l0.1-0.1c0.1,0,0.4,0.3,0.6,0.7c1.5,2.4,2.1,3,3.1,3.3c1,0.3,1.3,0.6,1.3,1.2c0,0.3-0.2,0.7-0.6,1.3
			c-0.8,1.1-1,1.5-1,2.2l0,0.1l0.2-0.1l0.3-0.1l0.4-0.1l0.3-0.4l0,0l-0.1-0.4l0-0.1l0.2-0.4l0.1,0l0.1,0.1l0.3,0.6
			C39.2,48.1,39.3,48.2,39.7,48.4"/>
		<path class="st2" d="M25.4,35.6l-0.2,0.4l0,0.3c0,0.3,0,0.3,0,0.4l0.2,0.4l0.4-0.5l0.1-0.4l-0.1-0.4L25.4,35.6z"/>
		<path class="st2" d="M24,33l0.2,0.2c0.4,0.4,0.6,1.1,0.6,2c0,0.2,0,0.4-0.1,0.9c0,0.3,0,0.5,0,0.7c0,2.2,0.7,3.9,1.7,3.9
			c0.3,0,0.5-0.1,0.8-0.6l0.2-0.1l0.1,0.1l0,0.4l0,0.3l0,0.4l0.1,0.3l0,0l-0.1,0.2l-0.3,0.1l-0.5,0.2c-0.3,0.2-0.4,0.3-0.5,0.4
			L26,42.9l-0.1,0.1c-0.1,0-0.3-0.2-0.5-0.5c-0.2-0.3-0.3-0.5-0.3-0.6l0.2-0.1h0l0.2,0l0.1,0l0.2,0l0.1-0.1l-0.1-0.1l-0.8-0.3
			c-0.2-0.1-0.5-0.3-0.6-0.6c-0.2-0.4-0.3-0.7-0.3-0.8l0.1-0.2l0.1,0l0.2,0.1l0.1-0.1l-0.1-0.2c-0.7-0.5-1-1-1-1.5l0.1-0.2l0.1,0
			l0.2,0h0l0.2-0.1l-0.1-0.2l-0.3-0.2l-0.2-0.2c0,0-0.1-0.2-0.3-0.6L23,36l-0.2-0.3l-0.1-0.1l0.6-0.1c0.2,0,0.4,0.2,0.6,0.6
			c0.1,0.3,0.2,0.5,0.3,0.5l0-0.2l-0.1-0.5l-0.1-0.4l0-0.2L23.8,35l-0.2-0.2l-0.1-0.4l0.1-0.3c0.2-0.7,0.2-0.9,0.2-1.2l0-0.2L24,33z
			"/>
		<path class="st2" d="M26.1,45.7l-0.5-0.1l-0.3-0.1c-0.3-0.1-0.5-0.2-0.7-0.2c-0.3,0-0.5,0.1-0.7,0.3l0.2,0.1l0.4,0.2l0.3,0.3
			l0.3,0.1C25.3,46.3,25.6,46.2,26.1,45.7"/>
		<path class="st2" d="M32.9,49l0.4-0.5c0.5-0.4,0.7-0.7,0.7-1v-0.2v-0.2l0.2-0.3l0.1,0.1l0.1,0.2l0.1,0.1l0.3-0.2l0.2-0.2l0.1-0.3
			l0-0.2l-0.1-0.3l-0.1-0.3l0.2-0.2l0.1,0.1l0.1,0.2l0.1,0.1l0.2-0.2l0.1-0.3l0.1-0.2L35.6,45l-0.2-0.1c-0.3-0.1-0.5-0.6-0.5-1.1
			l0-0.2l0.1-0.3l0.1-0.3l-0.2-0.5L34.6,42c-0.1-0.3-0.2-0.4-0.2-0.4l-0.1,0l-0.1,0.1L34,41.9l-0.2,0.3l-0.2,0.1l-0.3,0.6
			c0,0.5,0.1,0.6,0.7,1.6c0.2,0.4,0.4,0.8,0.4,1c0,0.7-0.6,1.2-2,1.6l-0.8,0.2c-0.6,0.1-1,0.6-1.1,1.3c0.2-0.1,0.3-0.1,0.8-0.1
			l0.3,0l0,0l0.4-0.2l0.6-0.5l0.3-0.1l0.2-0.1l0.1,0l0.1,0.1L33,47.8c-0.2,0.2-0.3,0.4-0.3,0.7L32.9,49z"/>
		<path class="st2" d="M30.7,46.2l0.5,0.5l0.4,0.2l0.3,0l0.2,0c0.3-0.1,0.4-0.1,0.4-0.2l-0.1-0.1l-0.2-0.2l-0.2-0.2L31.3,46
			C31.1,46,31,46,30.7,46.2"/>
		<path class="st2" d="M36.4,47.2l0.1,0l0.2,0l0.2,0l0.1,0c0.4,0,0.8-0.3,0.8-0.7l-0.3-0.2C36.9,46.3,36.6,46.6,36.4,47.2"/>
		<path class="st6" d="M29.8,34.9l0.2,0.3c0.1,0,0.2-0.2,0.3-0.5c0.2-0.4,0.5-0.8,0.5-1.1l-0.1-0.1l0,0l-0.2,0.2
			c-0.1,0.1-0.3,0.2-0.6,0.3l-0.3,0.3l0,0.1l0.1,0.2L29.8,34.9z"/>
		<path class="st6" d="M28.7,34l0.3,0.2l0.1,0.2l0,0.1l0,0.4c0,0.3-0.3,0.3-0.4,0.3L28.6,35l-0.4-0.4c-0.1-0.1-0.2-0.4-0.3-0.8l0,0
			l0.1-0.1l0.2,0.1L28.7,34z"/>
		<path class="st6" d="M29.4,35.9L29.4,35.9l-0.3,0l-0.2-0.1l-0.3-0.1l-0.3,0.2c0,0.1,0.1,0.4,0.2,0.8l0.2,0.6
			c0.2,0.5,0.4,0.7,0.7,0.7c0.2,0,0.3-0.2,0.4-0.6c0.4-0.9,0.6-1,0.6-1.3l-0.2-0.3l-0.2,0l-0.3,0.2L29.4,35.9z"/>
		<polygon class="st2" points="29.7,36.3 29.4,36.4 29.2,36.4 29.1,36.4 29.1,36.5 29.1,36.9 29.2,37.3 29.5,37.6 29.8,37.3 
			29.8,36.9 29.9,36.5 29.8,36.4 29.7,36.3 		"/>
		<path class="st1" d="M71,40.6l0.1,0.3l0.1,0.6c0.2,1,0.4,1.3,0.9,1.3c0.3,0,0.5-0.2,0.6-0.4l0.1-0.4l0.2-0.1
			c0.2,0,0.3,0.2,0.3,0.6c0,0.2,0,0.5,0.1,0.9c0,0.3,0.1,0.6,0.1,0.8l-0.1,0.5l0,0.2c0.1,0.3,0.1,0.5,0.1,0.6c0,0.8,0,1-0.2,1.3
			c0.1,0.3,0.1,0.4,0.1,0.6c0,0.1,0,0.3-0.1,0.6l-0.1,0.5l0,0.3l0.1,0.2l-0.1,0.1l-0.4-0.1l-0.4-0.2l-0.4-0.3
			c-0.3,0.3-0.4,0.3-0.8,0.4c-0.6,0.2-0.8,0.2-0.9,0.3l-0.2,0.1c-0.1,0-0.2-0.3-0.2-0.7c0-0.6,0-0.9,0.1-1.1
			c-0.3-0.1-0.5-0.2-0.6-0.2l-0.3,0l-0.1,0l-0.1-0.2c0-0.2,0.1-0.5,0.3-0.8c0.2-0.4,0.6-0.7,0.9-0.8l0.6-0.1
			c0.4-0.1,0.6-0.3,0.6-0.5c0-0.3-0.2-0.4-0.6-0.6L70,44.4L69.3,44l-0.4-0.2l-0.2-0.1l-0.3,0.3c0,0.3,0.2,0.5,0.5,0.5l0.2,0l0.2-0.1
			l0.1,0.2c0,0.3-0.2,0.9-0.4,1.1l-0.2,0.3l-0.2,0.2c-0.1,0.5-0.5,1.1-1,1.4l-0.2,0.1l-0.1,0.2L67,48.5l-0.4,0.4l-0.4,0.3l-0.2,0.3
			l-0.1,0.1c-0.2,0-0.3-0.2-0.4-0.4l-0.3-0.3L65,49l-0.2,0h-0.6c-0.3,0-0.8,0.1-1,0.2l-0.2,0.1L62.8,49c0-0.6,0.4-1.4,1-2
			c-0.1-0.3-0.3-0.5-0.5-0.6L63,46.3l-0.1-0.1c0-0.1,0.1-0.2,0.4-0.4c0.5-0.2,0.6-0.3,0.9-0.3c0.3,0,0.6,0.1,0.9,0.4
			c0.5,0.4,0.6,0.4,0.8,0.4c0.4,0,0.7-0.3,0.7-0.7c0-0.2-0.1-0.5-0.5-0.9c-0.5-0.6-0.6-1-0.6-1.5c0-0.3,0.1-0.5,0.4-1l0.1-0.2
			l-0.3-0.2c-0.2,0-0.4,0.1-0.7,0.2c-0.5,0.2-0.8,0.5-0.8,0.6l0.1,0.1l0.2,0.1l0,0.1l-0.1,0.1c0,0-0.2,0.2-0.4,0.5
			c-0.2,0.3-0.5,0.6-0.7,0.8l-0.2,0.2L63,44.9c-0.1,0.2-0.5,0.6-0.8,0.8L62,45.8l-0.2,0.2c-0.2,0.3-0.5,0.7-0.7,0.9l-0.5,0.5
			c-0.1,0.1-0.3,0.6-0.5,1.1c-0.1,0.4-0.2,0.6-0.3,0.6l-0.1-0.1c-0.3-0.4-0.7-0.6-0.8-0.6l-0.2,0.1l-0.5,0.2l-0.6,0.1
			c-0.5,0.1-0.7,0.2-1,0.5l-0.1,0.1l-0.1-0.2l0-0.2c0,0,0-0.2,0.1-0.5c0.1-0.5,0.2-0.9,0.4-1.2l0.3-0.5l0.1-0.3c0-0.4-0.4-0.7-1-0.8
			l-0.2-0.1l0.4-0.4c0.4-0.3,0.8-0.5,1.1-0.5c0.2,0,0.5,0.1,0.8,0.2l0.4,0.2l0.4,0.1c0.4,0,0.8-0.4,1.3-1.2c0.2-0.4,0.3-0.7,0.3-0.9
			c0-0.4-0.2-0.7-0.6-0.7c-0.3,0-0.5,0.1-0.8,0.3l-0.3,0.6l0,0.2l0,0.1L59,43.9c-0.1,0-0.3-0.1-0.6-0.5l-0.5-0.6
			c-0.5-0.6-0.6-0.9-0.7-1.5c-0.6-0.8-0.7-1.2-0.7-1.6l0-0.4C56.1,38.7,56,38.5,56,38l0.1-0.5c-0.2-0.3-0.3-0.4-0.3-0.7l-0.1-0.4
			l-0.3-0.7l-0.2-0.3c0-0.2,0.2-0.3,0.6-0.4l0.1,0l0-0.4l0.1-0.4l0.1-0.7l0.1-0.6c0-0.2,0-0.3-0.1-0.6l-0.2-0.4l-0.1-0.2l0.1-0.1
			l0.2,0.1c0.6,0.3,1.3,0.8,1.7,1.4c0.4,0.4,0.5,0.8,0.6,1.8c0.5,0.4,0.7,0.8,0.7,1.3c0,0.3-0.1,0.7-0.4,1c-0.2,0.3-0.3,0.5-0.4,0.5
			l-0.2,0.6c0,0.3,0.1,0.6,0.3,1c0.3,0.5,0.5,0.7,0.8,0.7c0.5,0,0.9-0.8,0.9-1.7l0-0.2v-0.5l0.1-0.4l0-0.5l0-0.4l0-0.2
			c0-0.2,0-0.2-0.6-0.8c-0.6-0.6-0.9-1.2-0.9-1.7c0-0.5,0.4-0.9,0.9-0.9l0.4,0.1v-0.2l0-0.4l0.1-0.5c0.1-0.4,0.1-0.4,0.2-0.4l0.1,0
			l0.3,0.3l0.4,0.2l0.1,0.1l0.2-0.5l0.2-0.3l0.2-0.3l0.1-0.2l0.1-0.1l0.1,0.3l0.2,0.2l0.2,0.2c0.2,0.2,0.3,0.4,0.4,0.7l0.4-0.3
			l0.3-0.2l0.2-0.1l0.1,0.1l0.1,0.3c0.2,0.4,0.2,0.4,0.2,0.7l0,0.1V33c0.6,0.2,0.8,0.5,0.8,1.1c0,0.5-0.2,1-0.7,1.5
			c-0.3,0.4-0.4,0.5-0.4,0.7c0,1.2,0.9,2,2.5,2l1.2,0c0.8,0,1.2,0.1,1.9,0.3c0.8,0.3,1.1,0.3,1.3,0.3l0.3-0.2c0-0.3-0.4-0.5-1.9-0.9
			c-2.9-0.8-4.2-2-4.2-3.9c0-1.5,1.2-2.6,2.9-2.6c0.5,0,1.3,0.1,1.8,0.3l0.7,0.3l0.4,0.1c0.2,0,0.3-0.2,0.4-0.6l0.2-0.3
			c0.2,0,0.5,0.3,0.8,0.7c0.3,0.4,0.5,0.9,0.5,1.2c0,0.4-0.2,0.7-0.6,0.9c-0.4,0.6-0.9,0.9-1.5,0.9c-0.5,0-1.4-0.3-2.4-1
			c-0.4-0.2-0.6-0.3-0.8-0.3c-0.3,0-0.5,0.2-0.5,0.5c0,0.3,0.2,0.4,0.7,0.6c0.8,0.3,1,0.4,1.3,0.7c0.9,0.2,1.3,0.3,1.9,0.7
			c1.6,0.5,2.5,1.5,2.5,2.8c0,1.2-0.8,2-1.9,2C71.5,40.7,71.4,40.7,71,40.6"/>
		<path class="st2" d="M72.7,48.4l-0.1-0.3l0-0.2c0-0.3,0.1-0.5,0.1-0.7l-0.1-0.4l-0.2-0.3L72.2,46l0.1-0.1l0.1,0l0.2,0.1l0.2,0.1
			c0.1,0,0.2-0.2,0.2-0.5c0-0.5-0.1-0.7-0.4-0.9l-0.2-0.2l-0.1-0.1l0.1-0.1l0.2,0l0.2,0.1l0.1,0l0.1-0.2l0-0.1l-0.1-0.4
			c-0.1-0.4-0.1-0.5-0.2-0.5l0,0l-0.5,0.1l-0.1,0c-0.6,0-1.2-0.5-1.4-1.1L70.3,41c-0.1-0.3-0.4-0.7-0.9-1.1l-0.4-0.2l-0.3,0
			l-0.1-0.1l0.2-0.1c0.4,0,0.9,0.1,1.6,0.3c0.6,0.2,0.9,0.3,1.2,0.3c0.9,0,1.4-0.5,1.4-1.2c0-0.4-0.1-0.9-0.3-1.2
			c-0.2-0.3-0.5-0.5-0.8-0.8l-0.1-0.1l-0.1,0.1l0,0.2v0l-0.1,0.2L71.3,37c-0.3-0.7-0.9-1.1-1.4-1.1L69.7,36l0.1,0.2l0.2,0.3l0,0.2
			l-0.1,0.1l-0.3-0.2l-0.3-0.3l-0.2-0.4c-0.2-0.3-0.4-0.4-0.7-0.6l-0.4-0.2L67.7,35l-0.1,0.1l0.1,0.2l0.2,0.4l-0.1,0.1
			c-0.1,0-0.3-0.2-0.7-0.7c-0.2-0.3-0.3-0.6-0.3-1c0-0.7,0.6-1.3,1.3-1.3c0.4,0,0.9,0.2,1.3,0.4l0.9,0.5c0.3,0.2,0.7,0.3,1,0.3
			c0.1,0,0.2,0,0.5-0.1l0.2-0.1l0.1-0.1l-0.2-0.1c-0.4,0-1.2-0.4-1.8-0.7c-0.3-0.2-0.5-0.3-0.6-0.3l-0.2-0.2l0.1,0l0.1,0l0.8,0.3
			L71,33c0.4,0.1,0.9,0.2,1.2,0.2c0.3,0,0.6-0.2,0.6-0.6l-0.1-0.5l-0.3-0.4L72.2,32l0,0.1l0,0.2l-0.3,0.4l-0.3-0.1l-1.2-0.4
			c-1-0.3-1.4-0.4-1.9-0.4c-1.4,0-2.4,0.9-2.4,2.2c0,1.4,1,2.3,3.5,3.2c2.4,0.8,2.7,1,2.7,1.7c0,0.4-0.3,0.7-0.8,0.7l-0.4,0
			c-0.1,0-0.5-0.1-1.2-0.3c-0.7-0.2-1.4-0.2-2.2-0.2c-1.8,0-2.6,0.3-3.5,1.1l-0.5,0.2l-0.1,0l-0.3,0l-0.5,0.3l-0.3,0.5l-0.2,0.1
			c-0.2,0-0.3-0.1-0.5-0.5l-0.4-0.5l-0.4-0.3l-0.1-0.1l0.1-0.2l0.2-0.2l0.1-0.2l0-0.2l0.1-0.1c0.1,0,0.1,0.1,0.1,0.5l0.1,0.5
			l0.2,0.4l0.2,0.1c0.2,0,0.4-0.4,0.5-0.9c0.1-0.4,0.1-0.5,0.2-0.5c0.1,0,0.1,0,0.3,0.4l0.2,0.3l0.2,0.1h0c0.1,0,0.2-0.1,0.2-0.4
			l0-0.2l0-0.2l0-0.2l0.1-0.2l0.1,0.1l0.2,0.2l0.4,0.2l0.2-0.2l-0.2-0.4l-0.1-0.2c-0.2-0.3-0.2-0.4-0.4-0.4l-0.2,0l-0.2,0.1l-0.1,0
			l-0.1-0.1c0-0.2,0.1-0.4,0.3-0.7c0.1-0.2,0.2-0.7,0.3-1.4l0.1-0.8c0.1-0.5,0.1-0.7,0.2-0.7l0.1,0l0.1,0.3v0.2l0.1,0.5l0.3-0.2
			l0.2-0.4l0.1-0.5c0-0.4-0.2-0.6-0.7-0.7l-0.1-0.1l0-0.2v-0.3l0-0.2l-0.1-0.2l-0.1-0.2l-0.1,0.1c-0.4,0.2-0.5,0.3-0.6,0.4L63.1,33
			L63,32.9l0.1-0.3l0-0.1c0-0.4-0.2-0.8-0.6-1l-0.1,0.1l-0.1,0.2L62,32.1l-0.2,0.5l0,0.1l0,0.1l-0.1,0.2l0,0l-0.1-0.2l-0.2-0.2
			L61,32.3l-0.2-0.1c-0.2,0.4-0.2,0.4-0.2,0.9v0.1l-0.1,0.3l-0.2-0.1l-0.3-0.1c-0.3,0-0.4,0.2-0.4,0.5c0,0.3,0.1,0.5,0.3,0.9
			l0.4,0.4l0.1-0.4l-0.1-0.3l0-0.1l0.1-0.2c0.1,0,0.2,0.1,0.2,0.4l0.1,0.7l0.1,0.8l0.2,0.7c0.1,0.3,0.2,0.5,0.3,0.6l0.2,0.3
			l-0.1,0.1l-0.2-0.1l-0.2-0.1l-0.1,0c-0.3,0-0.4,0.2-0.4,1.4c0,0.7,0.2,1.7,0.3,2.2l0.4,0.9l0.1,0.4c0,1.3-1.7,3.4-3.6,4.2
			c-0.7,0.3-0.9,0.7-1,1.7c0.3-0.1,0.4-0.2,0.6-0.2c0.5-0.1,0.6-0.2,0.7-0.5l0.1-0.2c0-0.1,0.1-0.1,0.5-0.3l0.3-0.2l0.2-0.2l0.1,0.1
			l0,0l-0.2,0.5l0,0.1c0,0.4,0.2,0.7,0.6,0.9l0.1-0.2c0.1-0.3,0.1-0.4,0.2-0.5l0.3-0.5c0.1-0.2,0.1-0.3,0.1-0.8l0-0.6l0-0.1l0.1-0.1
			l0.1,0.1l0.1,0.3l0.2,0.1c0.2,0,0.4-0.2,0.6-0.6l0.1-0.4l-0.1-0.6l0-0.1l0.1-0.1l0.1,0l0.1,0.4l0.2,0.2c0.3,0,0.6-0.6,0.6-1.1
			c0-0.4,0.1-0.5,0.2-0.5l0.1,0l0.1,0.2l0.1,0.1l0.2-0.2l0.2-0.2l0.1-0.2l-0.2-0.2l-0.2-0.4c0-0.3,0.1-0.5,0.4-1.1
			c0.3-0.5,0.3-0.6,0.4-0.6l0.1,0.2l0,0.2l-0.1,0.2l0.1,0.1l0.3-0.1l0.5-0.2c0.3-0.1,0.5-0.2,0.6-0.2L66,41l0.3,0l0.4,0.1l0.3-0.3
			l-0.1-0.3l-0.2-0.2l-0.1-0.2l0-0.1l0.1-0.1c0.1,0,0.4,0.3,0.7,0.7c1.4,2.3,2.1,3,3.1,3.3c1.1,0.3,1.3,0.5,1.3,1.2
			c0,0.3-0.2,0.7-0.6,1.3c-0.7,1-1,1.6-1,2.2l0,0.1l0.2-0.1l0.3-0.1l0.4-0.1l0.3-0.4l0,0l0-0.4l0-0.1l0.2-0.4l0.1,0.1l0.3,0.6
			C72.2,48.1,72.4,48.2,72.7,48.4"/>
		<path class="st2" d="M58.2,36.3l0,0.3l0,0.2c0,0.3,0,0.4,0.2,0.4l0.4-0.5l0.1-0.5l-0.1-0.3l-0.3-0.3
			C58.3,35.6,58.2,35.8,58.2,36.3"/>
		<path class="st2" d="M57,33l0.2,0.2c0.4,0.4,0.6,1.1,0.6,1.8l0,0.3l-0.1,0.8l0,0.7c0,2.3,0.7,3.9,1.7,3.9c0.2,0,0.6-0.2,0.8-0.6
			l0.1-0.1l0.1,0.1l0,0.4l0,0.3l0.1,0.4l0.1,0.3c0,0.2,0,0.2-0.5,0.3l-0.5,0.2c-0.3,0.2-0.4,0.3-0.5,0.4L59,42.9l-0.1,0.1
			c-0.1,0-0.2-0.2-0.4-0.5c-0.2-0.3-0.3-0.5-0.3-0.6l0.2-0.1l0,0l0.2,0l0.2,0l0.1,0l0.1-0.1l-0.1-0.1l-0.8-0.3
			c-0.2-0.1-0.4-0.3-0.6-0.6c-0.2-0.3-0.3-0.6-0.3-0.8l0.1-0.2l0.1,0l0.2,0.1l0.1,0l0.1-0.1l-0.1-0.2c-0.7-0.5-1.1-1-1.1-1.5
			l0.1-0.2l0.1,0l0.2,0l0.2-0.1l-0.2-0.2c-0.4-0.2-0.6-0.3-0.8-1c-0.2-0.5-0.3-0.7-0.5-0.9l0.5-0.1c0.2,0,0.4,0.2,0.6,0.6
			c0.1,0.3,0.2,0.5,0.3,0.5l0-0.2l-0.1-0.5l-0.1-0.4l0-0.2L56.9,35l-0.3-0.6l0-0.3l0.1-0.4c0.1-0.3,0.1-0.6,0.1-0.7l0-0.2L57,33z"/>
		<path class="st2" d="M59.1,45.7c-0.4-0.1-0.4-0.1-0.8-0.3c-0.3-0.1-0.5-0.2-0.7-0.2c-0.3,0-0.5,0.1-0.8,0.3l0.2,0.1l0.4,0.2
			l0.3,0.3l0.3,0.1C58.3,46.3,58.6,46.2,59.1,45.7"/>
		<path class="st2" d="M65.9,49l0.4-0.5c0.5-0.4,0.7-0.7,0.7-1v-0.2v-0.2l0.2-0.3l0.1,0.1l0.1,0.2l0.1,0.1c0.1,0,0.2-0.1,0.4-0.5
			l0.1-0.3l0-0.2l-0.1-0.3l-0.1-0.3l0.2-0.2l0.1,0.1l0.1,0.2l0.1,0.1l0.2-0.2l0.1-0.3l0.1-0.2L68.6,45l-0.2-0.1
			c-0.3-0.1-0.5-0.6-0.5-1.1l0.1-0.2l0.1-0.3l0.1-0.3l-0.2-0.5L67.7,42c-0.1-0.3-0.2-0.4-0.3-0.4l-0.2,0.1L67,41.9l-0.2,0.3
			l-0.2,0.1c-0.1,0.1-0.3,0.4-0.3,0.7c0,0.4,0.1,0.6,0.7,1.6c0.2,0.4,0.4,0.8,0.4,1c0,0.7-0.7,1.3-1.9,1.6c-1.4,0.3-1.7,0.5-1.9,1.5
			c0.2-0.1,0.3-0.1,0.8-0.1l0.3,0l0,0l0.4-0.2l0.6-0.5l0.3-0.1l0.2-0.1l0.1,0l0.1,0.1L66,47.8l-0.3,0.6L65.9,49z"/>
		<path class="st2" d="M63.7,46.2l0.5,0.5l0.4,0.2l0.3,0l0.2,0c0.3-0.1,0.4-0.1,0.4-0.2l-0.1-0.1l-0.2-0.2l-0.2-0.2L64.4,46
			C64.1,46,64,46.1,63.7,46.2"/>
		<path class="st2" d="M69.4,47.2l0.1,0l0.2,0l0.1,0l0.1,0l0.3-0.1l0.3-0.4l0.1-0.2l-0.3-0.2C69.9,46.3,69.6,46.6,69.4,47.2"/>
		<path class="st6" d="M62.8,34.9l0.2,0.3c0.1,0,0.2-0.3,0.4-0.6c0.3-0.4,0.5-0.8,0.5-1l-0.1-0.1l0,0l-0.2,0.2L63,34l-0.3,0.3l0,0.1
			l0.1,0.3L62.8,34.9z"/>
		<path class="st6" d="M61.3,33.6l-0.2-0.1L61,33.7l0,0.1L61,34c0.1,0.3,0.2,0.4,0.2,0.5l0.3,0.4l0.4,0.2l0,0l0.1-0.1l0.1-0.4
			l0.1-0.3l0-0.1l-0.1-0.2L61.8,34L61.3,33.6z"/>
		<path class="st6" d="M62.4,35.9L62.4,35.9l-0.3,0l-0.2-0.1l-0.2-0.1l-0.3,0.3c0,0.1,0.1,0.4,0.2,0.7l0.2,0.6
			c0.2,0.5,0.4,0.7,0.7,0.7c0.2,0,0.4-0.2,0.6-0.6l0.2-0.8l0.3-0.5l-0.4-0.4l-0.1,0l-0.3,0.2L62.4,35.9z"/>
		<polygon class="st2" points="62.7,36.3 62.4,36.4 62.2,36.4 62.1,36.4 62.1,36.5 62.2,36.9 62.2,37.3 62.5,37.6 62.8,37.3 
			62.8,36.9 62.9,36.5 62.8,36.4 62.7,36.3 		"/>
		<path class="st1" d="M38.3,74c0.2,0.4,0.2,0.6,0.2,0.8l0,0.7c0,0.7,0.3,1.1,0.7,1.1l0.4-0.1l0.2-0.2l0.1,0l0.2,0.2l0,0.3
			c0,0.1,0,0.4,0.1,0.8l0.1,0.7c0,0.4,0,0.5-0.2,0.9c0.1,0.3,0.2,0.7,0.2,1.1c0,0.4-0.1,0.6-0.2,0.9c0.1,0.3,0.1,0.4,0.1,0.6
			c0,0.2,0,0.4-0.1,0.7C40,82.9,40,83.2,40,83.4l0,0l-0.1,0.2l-0.2-0.1l-0.3-0.2c-0.1,0-0.2,0.1-0.3,0.6c-0.1,0.2-0.2,0.4-0.4,0.7
			L38.4,85l-0.1,0.4l-0.1,0.1l0,0c-0.3,0-0.6-0.6-1-1.8c-0.1-0.3-0.2-0.5-0.4-0.5l-0.3,0.2l-0.1,0.2l-0.1,0.1
			c-0.1,0-0.4-0.3-0.5-0.6c-0.1-0.3-0.2-0.6-0.2-0.8c0-0.6,0.4-1,1.6-1.7c0.5-0.3,0.7-0.7,0.7-1.4c0-0.5-0.2-0.9-0.6-1.2
			c-0.4-0.3-0.6-0.4-0.8-0.4l-0.3,0.3l0.3,0.3c0.3,0.1,0.4,0.2,0.4,0.3c0,0.1-0.1,0.4-0.3,0.6c-0.2,0.3-0.3,0.4-0.6,0.6
			c-0.1,0.5-0.3,0.8-0.8,1.1c-0.1,0.3-0.2,0.4-0.4,0.7l-0.4,0.5l-0.3,0.5c0,0.3-0.1,0.3-0.2,0.3c-0.1,0-0.4-0.2-0.7-0.6l-0.2-0.6
			c-0.2,0.1-0.2,0.2-0.6,0.2l-0.5,0.1c-0.3,0.1-0.4,0.2-0.4,0.2l-0.1-0.2l0-0.4c0-0.5,0.2-1.2,0.5-1.6c-0.3-0.3-0.6-0.4-0.9-0.5
			l-0.1-0.1l0.2-0.3l0.3-0.4c0.3-0.2,0.7-0.4,1-0.4c0.2,0,0.6,0.1,1,0.2l0.4,0.1l0.3-0.3c0-0.3-0.2-0.8-0.5-1.6
			c-0.2-0.5-0.3-0.9-0.3-1.2c0-0.6,0.3-1.3,0.7-1.4l-0.4-0.1l-0.5,0.2l-0.4,0.4l0.1,0.2l0.2,0.3c0,0.4-0.4,1-0.9,1.4
			c-0.1,0.6-0.4,1-1,1.3c-0.1,0.3-0.1,0.4-0.4,0.8c-0.5,0.6-0.6,0.9-0.7,1.2L30,80.1l-0.4-0.3l-0.3-0.3c-0.1-0.1-0.1-0.2-0.2-0.6
			l-0.3,0l-0.3,0l-0.2,0c-0.4,0-0.8,0.1-1,0.2l-0.2,0.1c-0.1,0-0.2-0.2-0.2-0.5c0-0.6,0.2-1.2,0.6-1.7l-0.3-0.3l-0.1-0.1L27,76.4
			l-0.1-0.1c0-0.1,0.3-0.3,0.6-0.5c0.3-0.2,0.6-0.3,0.9-0.3c0.3,0,0.4,0.1,0.8,0.4l0.5,0.3l0.3-0.2l0.1-0.3c0-0.3-0.4-0.9-0.9-1.2
			c-0.3-0.2-0.7-0.3-1.1-0.3c-0.5,0-0.9,0.2-1.1,0.6l-0.2,0.4l-0.2,0.1c-0.1,0-0.2-0.1-0.6-0.5l-0.5-0.5l-0.3-0.5l-0.1-0.2l-0.2-0.1
			c-0.4-0.2-0.6-0.7-0.8-1.5l-0.1-0.2c-0.4-0.5-0.7-1.2-0.7-1.8l0-0.2c-0.3-0.3-0.3-0.3-0.5-1c-0.1-0.5-0.2-0.7-0.4-0.9l-0.1-0.1
			l0.4-0.2l0.4,0l0.4,0l0-0.5c0-0.3,0-0.5,0.1-0.8l0.1-0.4l0-0.3l-0.1-0.3l0-0.1l0.1-0.1l0.2,0.1c0.3,0.2,0.6,0.3,0.8,0.5
			c0.6,0.5,1.1,1.2,1.1,1.7l0,0.1l0,0.3l0.1,0.3l0.2,0.3l0.3,0.7c0,0.2,0,0.2-0.3,0.7c-0.2,0.3-0.3,0.5-0.3,0.8
			c0,0.3,0.1,0.7,0.4,1.1c0.2,0.4,0.4,0.6,0.7,0.6c0.4,0,0.6-0.3,0.6-1.3c0-0.5,0.1-0.9,0.1-1.3l0-0.2l-0.2-0.3L27,68.2
			c-0.5-0.6-0.7-0.9-0.7-1.3c0-0.5,0.3-0.8,0.8-0.8l0.2,0l0-0.1l0.1-0.5c0.1-0.4,0.3-0.7,0.3-0.7l0.2,0.1l0.3,0.1l0.4,0.2
			c0.1-0.3,0.1-0.4,0.3-0.6c0.2-0.3,0.5-0.5,0.6-0.5l0.3,0.2l0.3,0.4l0.2,0.3l0.1,0.2l0.2-0.1l0.3-0.2l0.3-0.2l0.2-0.1
			c0.1,0,0.1,0.1,0.2,0.7c0.1,0.4,0.1,0.5,0.1,0.8c0.6,0.1,0.8,0.4,0.8,1c0,0.6-0.3,1.1-0.9,1.8l-0.2,0.4c0,1.6,0.5,2.1,2.5,2.3
			c1.2,0.1,1.6,0.2,3,0.6c0.8,0.2,1.2,0.3,1.5,0.3c0.3,0,0.5-0.1,0.5-0.3c0-0.3-0.2-0.4-1.6-0.7c-3.3-0.7-4.6-1.8-4.6-4
			c0-1.5,1.2-2.7,2.7-2.7c0.7,0,1.3,0.2,2.2,0.8c0.9,0.5,1.1,0.6,1.3,0.6c0.2,0,0.3-0.2,0.3-0.5l0.2-0.4l0.5,0.4
			c0.3,0.3,0.4,0.5,0.4,1c0,0.6-0.3,1.1-1,1.2L39.3,68c-0.4,0.4-0.7,0.5-1.3,0.5c-0.5,0-1.1-0.2-1.6-0.5l-0.8-0.6
			C35.3,67.1,35,67,34.7,67c-0.4,0-0.6,0.2-0.6,0.6c0,0.4,0.2,0.6,0.6,0.8l0.8,0.2c0.3,0.1,0.4,0.1,0.8,0.3l0.4,0
			c0.5,0,1,0.1,1.5,0.4l0.3,0.1l0.4,0.1c1,0.3,1.8,1.4,1.8,2.5c0,1.3-0.8,2-2.1,2L38.3,74z"/>
		<path class="st2" d="M38,84.6l0.1-0.2l0.2-0.3c0.2-0.2,0.3-0.5,0.3-0.9l-0.1-0.6l-0.1-0.3l0.2-0.2l0.1,0.1l0.3,0.3l0.4,0.3l0-0.2
			l0-0.3c0-0.4-0.2-0.9-0.4-1.2l-0.2-0.4l0.1-0.1l0.1,0l0.3,0.2l0.2-0.4c0-0.3-0.1-0.7-0.4-1L39,79l0-0.1l0.2-0.1l0.2,0.1l0.1,0.1
			c0.1,0,0.2-0.2,0.2-0.7l0-0.2l0-0.3c0-0.4-0.1-0.4-0.2-0.4h-0.1c-0.9,0-1.3-0.5-1.5-2c-0.2-1.1-0.6-1.8-1-2
			c-0.3-0.1-0.4-0.2-0.4-0.2l0.2-0.1l0.3,0.1c0.7,0.3,1.3,0.4,1.8,0.4c0.8,0,1.5-0.6,1.5-1.4c0-0.6-0.3-1.2-0.8-1.7L38.9,70l0,0
			l-0.1,0l0,0.3l0.1,0.2l0,0.1l-0.1,0.1l-0.1-0.1l-0.3-0.5c-0.3-0.4-0.8-0.7-1.2-0.7L37,69.5l0.1,0.2l0.2,0.3l0,0.1l-0.1,0.1l0,0
			c-0.1,0-0.1,0-0.5-0.5c-0.3-0.4-1-0.7-1.3-0.7L35.2,69l0,0.1l0.1,0.2l0.2,0.3l-0.1,0.1c-0.1,0-0.3-0.1-0.8-0.5c-0.7-0.5-1-1-1-1.6
			c0-0.7,0.5-1.2,1.1-1.2c0.4,0,0.9,0.2,1.2,0.4l0.9,0.7c0.4,0.3,0.9,0.5,1.4,0.5l0.3-0.1l0.1-0.1l-0.2-0.1
			c-0.3-0.1-0.6-0.2-0.7-0.3l-0.9-0.7c-0.3-0.2-0.6-0.4-0.7-0.5c-0.5-0.2-0.6-0.3-0.6-0.4l0.1-0.1l0.2,0l0.5,0.2
			c0.1,0.1,0.4,0.2,0.7,0.4c0.9,0.6,1.4,0.8,2,0.8c0.5,0,0.9-0.4,0.9-0.9l-0.1-0.3l-0.1-0.2l-0.1-0.1l-0.1,0.1l-0.1,0.4l-0.1,0.1
			l-0.1,0.2l-0.3,0.1c-0.3,0-0.6-0.1-1.4-0.7c-0.8-0.5-1.6-0.8-2.2-0.8c-1.3,0-2.3,1-2.3,2.3c0,1.8,1.1,2.6,4.5,3.3
			c1.3,0.3,1.9,0.7,1.9,1.2c0,0.5-0.4,0.9-1.1,0.9l-0.5,0c-0.1,0-0.7-0.2-1.8-0.5c-0.8-0.2-1.6-0.3-2.4-0.3c-1.3,0-2.2,0.4-2.8,1.2
			l-0.2,0.2l-0.1-0.1l-0.2-0.2l-0.6-0.2l-0.4,0.2l-0.2,0.1c-0.1,0-0.3-0.2-0.4-0.5c-0.2-0.4-0.3-0.8-0.3-1.2l0.1-0.3l0.1,0.1
			l0.1,0.5c0.1,0.3,0.2,0.5,0.4,0.5l0.3-0.2l0.1-0.2c0.1-0.3,0.1-0.4,0.2-0.4c0.1,0,0.2,0.1,0.2,0.4l0.1,0.3l0.2,0.3l0.2,0.1
			c0.2,0,0.3-0.3,0.3-0.5l0-0.1l0-0.3l0.1-0.2l0.1,0.1l0.3,0.2l0.3,0.1l0.2-0.1l0.1-0.1l-0.3-0.3c-0.1-0.1-0.2-0.3-0.4-0.7l-0.2-0.2
			l-0.1,0l-0.2,0.1l-0.2,0.1l-0.1,0l-0.1-0.1l0.4-0.4l0.2-0.5c0-0.3,0.1-0.5,0.1-0.5l0.1-0.6c0-0.3,0.2-0.9,0.3-1.2l0.1-0.1l0.1,0.3
			l0,0.1l0,0.2l0.1,0.3l0.2-0.3l0.2-0.4l0.1-0.3c0-0.3-0.2-0.6-0.5-0.6l-0.1,0l-0.1,0l-0.2-0.2l0-0.3l0-0.4l-0.1-0.4l0-0.2L31,65.2
			l-0.2,0.2l-0.3,0.2l-0.2,0.2l-0.1,0.1c-0.1,0-0.2,0-0.2-0.3v-0.1c0-0.2-0.1-0.4-0.5-0.8l-0.1-0.1l-0.1,0.1L29.2,65L29,65.4l0,0.3
			l-0.1,0.2l-0.2-0.1c-0.3-0.3-0.4-0.4-0.8-0.5l0,0.1l-0.1,0.4l0,0.3v0.1l0,0.1l-0.1,0.2l0,0l-0.1-0.1l-0.2-0.1
			c-0.3,0-0.5,0.2-0.5,0.5c0,0.2,0.1,0.4,0.4,0.9l0.4,0.4l0.1-0.3l0-0.2l0-0.3l0.1-0.2c0.2,0,0.3,0.5,0.4,1.1l0.1,0.7l0.2,0.7
			c0.2,0.3,0.3,0.6,0.5,0.7l0.3,0.3L29,70.7l-0.4-0.1l-0.1,0c-0.4,0-0.5,0.2-0.5,0.8c0,0.7,0.5,1.8,1,2.2l0.8,0.7
			c0.4,0.3,0.7,0.9,0.7,1.3c0,0.5-0.6,1-1.5,1.4l-0.6,0.2c-0.5,0.2-0.6,0.5-0.8,1.3l0.5-0.1l0.1,0l0.3,0l0.4-0.3v-0.2l0.2-0.2
			l0.2-0.1l0.2-0.2l0.1,0l0.1,0.1l0,0.2l-0.1,0.6c0,0.4,0.1,0.7,0.3,1l0.1-0.2l0.3-0.5c0.3-0.4,0.5-0.8,0.5-1.1l0-0.1L30.6,77
			l0.1-0.2l0.1-0.1l0.2,0.2l0.1,0.2l0.3-0.4l0.1-0.4l-0.1-0.2l-0.1-0.2l0.1-0.1l0.1,0l0.1,0l0.2,0.1l0.1,0.1l0.2-0.2l0.2-0.5
			l-0.1-0.2c-0.4-0.2-0.6-0.6-0.6-0.9l0.1-0.3l0.2-0.5l0.1-0.4l0.1,0l0.1,0.1l0,0.2l-0.1,0.3l0.2,0.2l0.3-0.1c0.5-0.2,1-0.4,1.2-0.4
			l0.6,0.2l0.2,0.1l0.1-0.1l0-0.1l-0.1-0.2l-0.1-0.2l0.1-0.1c0.3,0,0.7,0.9,1.1,2.3c0.3,1.1,0.4,1.2,1.5,1.8c0.9,0.5,1.2,1,1.2,1.8
			c0,0.8-0.2,1.8-0.7,3.1c-0.1,0.4-0.2,0.7-0.2,0.9c0,0.2,0,0.4,0.2,0.8l0.1,0.4L38,84.6z"/>
		<path class="st2" d="M33.9,82.1c0.1-0.2,0.1-0.3,0.3-0.6c0.3-0.4,0.4-0.7,0.4-0.9v-0.3c0-0.3,0-0.4,0.2-0.4l0.1,0.1l0.1,0.1
			l0.1,0.1l0.2-0.1l0.2-0.6l0-0.2l0-0.2l0.1-0.2l0.2,0.2l0.1,0.1l0.1-0.1l0.1-0.2l0.1-0.2l0-0.1l-0.1-0.2c-0.3-0.2-0.5-0.6-0.5-1.3
			c0-0.5,0-0.8-0.1-1c0,0-0.1-0.3-0.3-0.8l-0.2-0.6l-0.2-0.2c-0.5,0-0.8,0.4-0.8,1c0,0.3,0.1,0.8,0.4,1.4c0.3,0.9,0.4,1.2,0.4,1.5
			c0,0.6-0.3,0.9-1.2,1.3c-1,0.4-1.5,0.9-1.7,1.8l0.2-0.1l0.2-0.1l0.3-0.1l0.5-0.3l0.1-0.2l0.1-0.1l0.2-0.1l0.2-0.1l0,0.1l-0.1,0.2
			l0,0.4C33.6,81.6,33.7,81.8,33.9,82.1"/>
		<path class="st2" d="M24.4,65.7l0,0.2l-0.1,0.5l0,0.4c0,0.3,0.1,0.7,0.2,0.9l0.1,0.4l0,0.1l-0.1,0.1l-0.2-0.1l-0.7-0.3l-0.3,0
			l0.1,0.2l0.3,0.7l0.4,0.6l0.4,0.3l0.1,0.1l0.1,0.1l-0.1,0.1l-0.4,0L24.1,70c0,0.1,0.1,0.2,0.1,0.5l0.2,0.5l0.3,0.3l0.3,0.2
			l0.1,0.2l-0.1,0.1l-0.2,0L24.9,72c0,0.1,0.1,0.4,0.4,0.7c0.3,0.4,0.5,0.5,0.8,0.5h0.3l0.2,0.2l-0.2,0.2L26,73.7l0.1,0.2l0.1,0.2
			l0.3,0.3l0.3-0.2l0.6-0.4c0.6-0.2,0.7-0.2,0.7-0.4l-0.1-0.2c-0.2-0.4-0.3-0.6-0.3-0.9L27.7,72l-0.1,0.1l-0.6,0.4
			c-0.6,0-1.4-1-1.7-2.2c-0.1-0.3-0.1-0.6-0.1-1c0-0.3,0-0.7,0.1-1.1c0.1-0.5,0.2-0.8,0.2-0.9l0-0.2C25.4,66.7,25,66.2,24.4,65.7"/>
		<path class="st2" d="M25.7,68.2c-0.1,0.2-0.2,0.8-0.2,1.2l0.2,0.4l0.1-0.1l0.2-0.4L26,69l0.1-0.3L25.7,68.2z"/>
		<path class="st2" d="M27.6,76.2L27.6,76.2l0.2,0.2c0.3,0.4,0.4,0.4,0.6,0.4l0.7-0.2l0.1-0.1L29,76.3l-0.2-0.2l-0.5-0.3
			C28.1,75.8,27.9,75.9,27.6,76.2"/>
		<path class="st2" d="M31.7,79.4l0.4,0.2l0.3,0.2l0.3,0l0.2,0l0.4-0.1l0.4-0.1l0.2-0.1l-0.2-0.1l-0.3-0.1c-0.4-0.2-0.5-0.2-0.7-0.2
			C32.3,78.9,31.9,79.1,31.7,79.4"/>
		<path class="st2" d="M36.2,82.9c0.1-0.3,0.2-0.3,0.6-0.4c0.5,0,0.9-0.8,0.9-1.4l0-0.1l-0.1,0.1l-0.3,0.2l-0.5,0.2
			c-0.3,0.2-0.6,0.6-0.6,1L36.2,82.9z"/>
		<path class="st6" d="M28.5,67.5l0.2,0.2l0.4,0.3l0.1-0.2l0.1-0.3l0-0.3c0-0.2-0.1-0.3-0.6-0.4l-0.2-0.1l-0.2-0.1l-0.1,0l0,0.1
			l0.1,0.3L28.5,67.5z"/>
		<polygon class="st6" points="30.8,66.7 30.6,66.9 30.2,67 29.9,67.3 29.9,67.6 30.1,68 30.1,68 30.2,67.9 30.4,67.5 30.8,67.1 
			30.9,66.8 31,66.8 30.9,66.7 		"/>
		<path class="st6" d="M30,68.7l0.3-0.1l0.1,0l0.2,0.3c0,0.2-0.2,0.5-0.4,0.9c-0.2,0.4-0.4,0.7-0.6,0.7c-0.3,0-0.6-0.4-1-1.1
			l-0.1-0.5l0.3-0.3l0.2,0.1l0.2,0.1l0.5,0.1L30,68.7z"/>
		<path class="st2" d="M29.6,69.2l-0.2,0l0,0l-0.2,0.2l0.3,0.8l0.1,0.1c0.1,0,0.2-0.2,0.3-0.6l0.1-0.3l0,0l-0.1-0.1l0,0"/>
		<path class="st1" d="M69.1,73.8c0.3,0.4,0.7,0.7,1.1,0.7l0.5-0.1l0.2,0l0.1,0.1l-0.1,0.3l-0.1,0.3l-0.1,0.4l-0.2,0.3L70.3,76
			l-0.1,0.1v0.2v0.1c0,0.4-0.1,0.7-0.5,0.9l-0.1,0.1l0,0.1c-0.1,0.3-0.1,0.5-0.2,0.6l-0.3,0.5c-0.2,0.3-0.4,0.5-0.4,0.7l-0.2,0.2
			L68,79.1l-0.1,0.1l-0.2,0.1l-0.3,0.2l-0.3,0.2L66.9,80L66.8,80c-0.1,0-0.2-0.2-0.3-0.4L66.4,79l-0.1-0.6c0-0.3,0-0.4,0.1-0.6
			c-0.4,0-0.5,0.1-0.6,0.1l-0.2,0l-0.1-0.1l0.1-0.3l0.2-0.6c0.2-0.5,0.8-0.9,1.2-0.9l0.5,0.1l0.3,0.1l0.4-0.3L68,75.7
			c0,0-0.2-0.1-0.6-0.2c-0.3-0.1-0.4-0.2-0.8-0.6c-0.2-0.3-0.3-0.4-0.4-0.4l-0.1,0.1l0,0.2l0,0.1c0,0.5-0.1,1-0.5,1.6l-0.5,0.9
			c-0.2,0.4-0.3,0.8-0.3,1.1c0,0.4,0.2,0.7,0.4,0.7l0.3,0.1l0.1,0.1l0.1,0.1l-0.1,0.2l-0.3,0.4c-0.3,0.4-0.5,0.5-0.9,0.7
			c-0.2,0.5-0.6,0.8-1.2,1L63,81.9c-0.2,0.4-0.7,0.7-1,0.7h-0.1c0,0.3-0.3,0.7-0.6,0.9l-0.4,0.3L60.8,84l-0.3,0.2
			c-0.2,0-0.3-0.2-0.5-0.5l-0.2,0.1L59.6,84c-0.1,0-0.3,0.1-0.6,0.2c-0.4,0.1-0.8,0.3-0.9,0.4l-0.2,0.3l-0.1,0l-0.2-0.3
			c-0.1-0.4-0.2-0.7-0.2-1c0-0.6,0.2-1,0.9-1.7l0-0.2c0-1,0.7-1.6,1.8-1.6l0.2,0l0.6,0l0.1,0c0.3,0,0.6-0.1,1-0.4
			c0.4-0.4,0.6-0.6,0.6-1c0-0.1,0-0.3-0.2-0.7c-0.1-0.3-0.1-0.6-0.1-0.8c0-0.7,0.5-1.6,1.3-2.1l0.3-0.4l0-0.1l-0.2,0.1l-0.4,0.3
			l-0.3,0.1l-0.3,0.1l-0.1,0.2l0,0.2l0,0.1l-0.1,0.2l-0.2,0.4c-0.2,0.4-0.4,0.6-0.7,0.7c-0.2,0.6-0.5,0.9-0.9,0.9
			c-0.3,0.7-0.6,0.9-1.2,1c-0.1,0.3-0.2,0.5-0.5,0.8l-0.2,0.3l-0.2,0.3l-0.4-0.3L57.7,80l-0.2-0.3l-0.2-0.1l-0.1,0l-0.4,0.1L56.2,80
			l-0.2,0.3l-0.1,0.1c-0.2,0-0.3-0.3-0.3-0.9c0-0.5,0.1-0.8,0.3-1.1l0.5-0.7l0.1-0.3l-0.1-0.2L56.1,77l-0.4-0.1l-0.1-0.1l0.1-0.1
			l0.4-0.4c0.4-0.3,0.7-0.4,1-0.4c0.3,0,0.6,0.1,0.9,0.3l0.5,0.3l0.2,0.1c0.2,0,0.4-0.1,0.6-0.5c0.2-0.3,0.2-0.6,0.2-0.8
			c0-0.7-0.5-1.1-1.1-1.1c-0.3,0-0.6,0.1-0.9,0.4l-0.2,0.2l-0.1,0.3l-0.1,0.1c-0.1,0-0.3-0.3-0.5-0.6L56.4,74
			c-0.1-0.3-0.2-0.6-0.2-0.9l0-0.5C56.1,72.3,56,72,56,71.6c0-0.2,0-0.3,0.1-0.6c-0.1-0.2-0.2-0.4-0.2-0.8l0-0.2l0.1-0.2l0-0.2
			c-0.2-0.2-0.2-0.4-0.4-1.2c-0.1-0.4-0.2-0.6-0.2-0.7l-0.1-0.1c0-0.1,0.2-0.2,0.5-0.2l0.2,0L56.1,67l0.1-0.7
			c0.1-0.3,0.1-0.3,0.1-0.4l-0.1-0.5l-0.1-0.4l0-0.2l0.1,0c0.3,0,1,0.4,1.5,0.9c0.5,0.5,0.7,0.9,0.7,1.6l0,0.4
			c0.5,0.4,0.7,0.8,0.7,1.1c0,0.3-0.1,0.5-0.4,0.7c-0.5,0.5-0.6,0.7-0.6,1.3c0,0.9,0.3,1.4,0.8,1.4c0.5,0,0.8-0.5,0.9-1.2l0.1-0.7
			l0.1-0.6l0.1-0.5c0-0.2-0.2-0.5-0.6-1.1c-0.5-0.6-0.7-0.9-0.7-1.3c0-0.5,0.4-0.9,0.9-0.9l0.3,0.1c0-0.3,0-0.4,0.2-0.8
			c0.1-0.3,0.3-0.6,0.4-0.6l0.1,0.1l0.2,0.2l0.2,0.1l0.2,0.2c0.1-0.4,0.2-0.6,0.6-0.9l0.4-0.3l0.1,0.1l0.2,0.3l0.3,0.3
			c0.1,0.1,0.2,0.2,0.2,0.5l0.2-0.1l0.3-0.2l0.2-0.1l0.1-0.1l0.1,0.1l0.1,0.4l0.2,0.5l0.1,0.5l0,0.1l0.1,0c0.3,0,0.6,0.4,0.6,0.9
			c0,0.6-0.5,1.4-1.2,1.9l-0.1,0.5c0,1.4,0.4,1.7,2.5,2c0.5,0.1,1,0.2,1.5,0.3c0.1,0,0.5,0.2,1.4,0.5c0.5,0.2,0.8,0.2,1,0.2l0.4-0.2
			c0-0.2-0.4-0.5-1.4-0.9l-1.5-0.6c-1.6-0.6-2.3-1.6-2.3-3c0-1.6,1.2-2.9,2.9-2.9c0.6,0,1.2,0.1,2.1,0.4c1.1,0.4,1.2,0.4,1.3,0.4
			c0.2,0,0.3-0.1,0.4-0.5c0-0.3,0.1-0.4,0.2-0.4c0.2,0,0.5,0.2,0.6,0.5c0.1,0.3,0.2,0.6,0.2,0.9c0,0.6-0.3,1-0.9,1.1
			c-0.4,0.5-0.8,0.7-1.4,0.7c-0.7,0-1.1-0.1-2.3-0.9C68,67.1,67.8,67,67.5,67c-0.4,0-0.7,0.3-0.7,0.6c0,0.3,0.3,0.5,0.9,0.7
			c0.4,0.1,0.4,0.1,0.6,0.3l0.3,0c0.6,0,1.3,0.3,1.9,0.8c1.1,0.3,2.1,1.5,2.1,2.5c0,1.1-0.9,2.1-2,2.1C70.2,74,69.6,73.9,69.1,73.8"
			/>
		<path class="st2" d="M68.4,78.7l0.1-0.2l0.1-0.2l0.2-0.3c0.2-0.2,0.3-0.5,0.3-0.9L69,76.7l-0.1-0.2l0-0.1l0.1-0.1l0,0l0.2,0.1
			l0.2,0.1l0.2-0.3l0-0.2l-0.2-0.5l-0.1-0.2l0.1-0.1l0.2,0.2l0.1,0.1c0.1,0,0.2-0.1,0.3-0.4l0.1-0.3l-0.1-0.1l-0.1,0l-0.2,0
			c-0.3,0-0.8-0.2-1-0.5l-0.5-0.6l-0.5-0.6l-0.4-0.3l-0.1-0.1l0.2-0.1c0.1,0,0.4,0.1,0.9,0.3c0.5,0.2,1.3,0.4,1.8,0.4
			c0.8,0,1.5-0.7,1.5-1.5c0-0.5-0.2-0.9-0.7-1.5l-0.3-0.2l-0.1,0.1l0.1,0.2l0,0.2l-0.1,0.1c-0.1,0-0.2-0.2-0.3-0.5
			c-0.1-0.4-0.3-0.6-0.9-0.9L69,69.2l-0.1,0.1l0.1,0.2l0.1,0.3v0L69,70c-0.1,0-0.1,0-0.4-0.4c-0.1-0.2-0.5-0.5-0.8-0.6l-0.3-0.1h0
			l-0.1,0.1l0.1,0.2l0,0.1l-0.1,0.1c-0.1,0-0.4-0.3-0.7-0.6c-0.3-0.3-0.5-0.7-0.5-1.1c0-0.7,0.6-1.3,1.4-1.3l0.5,0.1l0.6,0.3
			l0.7,0.5c0.4,0.3,1,0.5,1.3,0.5c0.1,0,0.2,0,0.6-0.1l0.3-0.2l0,0l-0.1,0l-0.4,0c-0.2,0-0.7-0.2-1.1-0.5l-0.8-0.5L68.5,66L68.4,66
			l0.1-0.1l0.2,0l0.7,0.2c0.2,0,0.4,0.2,0.8,0.4c0.7,0.4,1.2,0.6,1.6,0.6c0.4,0,0.7-0.3,0.7-0.7l-0.1-0.5l-0.1-0.2l-0.1-0.1
			l-0.1,0.1l0,0.1l0,0.1c0,0.3-0.1,0.4-0.5,0.4c-0.3,0-0.7-0.1-1.6-0.5c-0.8-0.3-1.4-0.5-1.9-0.5c-1.3,0-2.5,1.1-2.5,2.3
			c0,1.1,0.7,1.9,2.2,2.5l1.5,0.6c1.2,0.5,1.7,0.9,1.7,1.4c0,0.4-0.4,0.7-1,0.7c-0.3,0-0.6-0.1-1.1-0.3c-1.4-0.4-2.3-0.6-3.1-0.6
			c-1.3,0-2.2,0.4-3,1.1l-0.2,0.1l-0.3-0.1l-0.4-0.1l-0.4,0.2l-0.2,0.2l-0.2,0.1l-0.5-0.5l-0.2-0.5l0-0.5l0-0.3l0.1-0.4l0.1-0.3
			l0.1-0.1l0.1,0.3l0,0.1l0,0.1c0,0.5,0.2,1,0.4,1c0.2,0,0.3-0.3,0.5-0.9l0.1-0.2c0.1,0,0.1,0.1,0.2,0.4l0.3,0.6l0.2,0.1
			c0.1,0,0.2-0.2,0.3-0.7l0.2-0.3l0.1,0l0.1,0.2l0.2,0.2l0.2,0.1l0.2-0.1l0.1-0.1l-0.1-0.2c-0.1-0.1-0.2-0.3-0.3-0.6l-0.2-0.4
			l-0.1-0.1l-0.1,0l-0.1,0l-0.4,0.1l-0.1,0l-0.1-0.1l0.1-0.2c0.4-0.4,0.7-1,0.8-1.8c0.1-0.5,0.1-0.7,0.4-1l0.1-0.1l0.1,0.2l-0.1,0.3
			l0,0.2l0,0.1l0,0.1l0.2-0.1l0.2-0.2l0.2-0.7l-0.1-0.4l-0.3-0.2l-0.1,0l-0.1,0l-0.2-0.1l0-0.1l0-0.2l-0.1-0.4l-0.1-0.2l-0.1-0.2
			l-0.1,0.1l-0.3,0.2l-0.2,0.2C62.6,66,62.6,66,62.5,66L62.4,66l0-0.1l0.1-0.4c0-0.3-0.2-0.8-0.5-1c-0.4,0.4-0.6,0.7-0.6,1.1v0.2
			L61.3,66h0l-0.1-0.1L61,65.6l-0.3-0.2l-0.1-0.1l-0.1,0.1c-0.2,0.4-0.2,0.6-0.2,0.8l-0.1,0.3l-0.1,0c-0.3-0.1-0.3-0.2-0.4-0.2
			c-0.3,0-0.5,0.2-0.5,0.6l0.2,0.6c0.2,0.3,0.4,0.6,0.5,0.6l0-0.1v0l0-0.3l0-0.2l0,0l0.1-0.1c0.2,0,0.3,0.5,0.4,1.4
			c0.1,0.8,0.3,1.4,0.7,1.7l0.1,0.2l-0.1,0.1l-0.2-0.1l-0.2-0.1l-0.4,0.4l-0.2,1L60,73.3c0,0.3,0,0.6,0.1,1.1
			c0.1,0.4,0.1,0.7,0.1,0.8c0,1.1-0.7,1.9-1.8,2.2l-1.1,0.3c-0.7,0.2-1.1,0.7-1.1,1.5c0.2-0.1,0.2-0.2,0.5-0.2L57,79l0.3-0.1
			l0.2-0.2l0.3-0.3l0.3-0.2l0.1,0.1L58,78.6l-0.1,0.5c0,0.2,0.1,0.4,0.3,0.7l0.1-0.2l0.3-0.4c0.2-0.3,0.4-0.6,0.4-0.8
			c0-0.3,0-0.4,0.1-0.4l0.1,0.2l0.1,0.1l0.1,0.1l0.1-0.1l0.3-0.2l0.2-0.3l0.1-0.3l0-0.2l0.1-0.1l0.2,0.2l0.1,0.1h0l0.2-0.1l0.4-0.7
			l0-0.3L60.8,76l0,0l0.1-0.1l0.3,0.4l0.2,0.2l0.3-0.3l0.2-0.2l0.1-0.2l-0.1-0.2l-0.1-0.2l0-0.2c0-0.2,0.1-0.5,0.3-0.8l0.2-0.4
			l0.1-0.1l0.1,0.1l0,0.2v0.1v0.1l0.2,0.1l0.2,0l0.4-0.2l0.4-0.2c0.7-0.4,0.9-0.5,1.2-0.5c0.2,0,0.5,0.1,0.8,0.3l0.2,0.1l0.2-0.1
			l0.1-0.1l-0.1-0.2l-0.1-0.3l0.1-0.1l0.1,0.1c0.1,0.1,0.2,0.3,0.4,0.7c0.3,0.6,0.8,1,1.1,1.1l0.8,0.2c0.2,0.1,0.3,0.1,0.3,0.4
			c0,0.6-0.3,1-0.7,1.3l-0.6,0.4c-0.2,0.1-0.4,0.6-0.4,0.9c0,0.2,0.1,0.6,0.1,0.9l0.1-0.1l0.3-0.2l0.3-0.3l0.1-0.4l0.1-0.4l0.2-0.3
			l0.1,0.3l0,0v0.1C68.2,78.2,68.2,78.3,68.4,78.7"/>
		<path class="st2" d="M58,83.7c0-0.8,0.3-1.2,1.5-1.8c2.4-1.2,3.7-2.3,3.7-3.2c0-0.2-0.1-0.4-0.2-1c-0.1-0.3-0.2-0.6-0.2-0.8
			c0-0.4,0.3-1,0.7-1.4l0.3-0.3l0.3-0.6l0-0.1l0-0.1l0.3-0.2l0.2,0l0.1,0l0.2,0.1l0.1,0.1l0.1,0.1l0.1,0.1l0.1-0.1l0.2-0.1l0.1,0.2
			c0,0.4-0.2,0.9-0.6,1.4c-0.7,0.9-0.9,1.4-0.9,2c0,0.5,0.1,0.9,0.4,1.2l0.1,0.1l-0.1,0.2l-0.1,0.1l-0.3,0.3L63.9,80l-0.1-0.2
			l-0.1-0.1l-0.1,0.1L63.6,80v0.3l-0.1,0.4l-0.2,0.3L63.1,81L63,80.9l-0.1-0.4l-0.1-0.1l-0.1,0.2c0,0.4-0.1,0.6-0.2,0.7l-0.2,0.2
			L62,81.8l-0.1-0.1l-0.1-0.3l-0.1-0.1c-0.1,0-0.1,0.1-0.2,0.4c-0.1,0.6-0.2,0.9-0.5,1.2c-0.3,0.2-0.3,0.3-0.4,0.5
			c-0.2-0.2-0.2-0.4-0.2-0.7l0.1-0.3l0.1-0.3l-0.1-0.1l-0.1,0.1l-0.2,0.2c-0.3,0.2-0.4,0.2-0.4,0.6c-0.1,0.5-0.3,0.7-0.8,0.8
			c-0.6,0.1-0.6,0.1-0.9,0.3L58,83.7z"/>
		<path class="st2" d="M56.8,65.5v0.2l0,0.3l0,0.3l-0.1,0.4c0,0.3,0,0.5,0.2,0.9l0.2,0.6l-0.1,0.1l-0.1,0l-0.1-0.2
			c-0.1-0.2-0.2-0.2-0.5-0.2l-0.3,0c0.1,0.3,0.2,0.4,0.2,0.6c0.1,0.6,0.2,0.6,0.5,0.9c0.3,0.3,0.3,0.3,0.3,0.4l-0.1,0.1l-0.1,0
			l-0.1,0l-0.2,0.4l0.1,0.4l0.1,0.2L57,71l0.1,0.2l-0.1,0.2l-0.2-0.1l-0.1,0l-0.1,0.1l0,0.3l0.1,0.5l0.2,0.3l0.3,0.2l0.4,0.2
			l0.1,0.1l-0.1,0.1l-0.2,0l-0.2,0l-0.2,0.1l0,0.3l0.1,0.3c0.1,0.3,0.2,0.5,0.3,0.5l0.1-0.1c0.3-0.2,0.8-0.4,1.1-0.4
			c0.3,0,0.7,0,0.9,0.1l0.2,0l0.1-0.2l0-0.3l0.1-0.5l0.1-0.4v-0.2l-0.1,0.1c-0.3,0.3-0.5,0.4-0.8,0.4c-0.8,0-1.3-0.9-1.3-2.5
			c0-0.7,0.1-1.6,0.3-2.7l0.1-0.5C57.8,66.5,57.5,65.9,56.8,65.5"/>
		<polygon class="st2" points="58.1,68.5 58.1,68.7 58,69 58,69.3 58,69.4 58.2,69.3 58.3,69.1 58.6,68.6 58.5,68.3 58.3,68.1 		"/>
		<path class="st2" d="M56.5,76.7l0.4,0.3c0.2,0.3,0.4,0.4,0.7,0.4l0.3,0l0.2-0.1l0.2-0.1l0.1-0.1L58,76.8l-0.4-0.2l-0.4-0.1
			L56.5,76.7z"/>
		<path class="st2" d="M58.8,81.7c0-0.6,0.6-1,1.2-1c0.3,0,0.5,0.1,0.5,0.2c0,0.1-0.2,0.2-0.5,0.4c0,0-0.2,0.1-0.5,0.3
			c-0.4,0.2-0.5,0.3-0.8,0.4L58.8,81.7z"/>
		<path class="st2" d="M66.1,77.4l0.5-0.1l0.3,0l0.2-0.1l0.2-0.2c0.4-0.2,0.4-0.3,0.4-0.3c0-0.1-0.1-0.1-0.4-0.1
			C66.7,76.5,66.3,76.7,66.1,77.4"/>
		<path class="st6" d="M60.7,66.6l0.2,0.2l0.4,0.2c0.3,0.1,0.4,0.2,0.4,0.3l0,0.2l-0.1,0.2L61.3,68c-0.1,0-0.2-0.2-0.4-0.5l-0.3-0.7
			l0-0.1L60.7,66.6"/>
		<polygon class="st6" points="63.1,66.8 62.7,67 62.3,67.1 62.1,67.3 62.1,67.3 62.2,67.6 62.2,67.9 62.4,68.1 62.4,68.1 62.5,68 
			62.7,67.6 63.1,67.2 63.3,66.9 63.3,66.8 63.2,66.7 		"/>
		<path class="st6" d="M61.3,68.4l0.3,0.2l0.2,0.1l0.4-0.1l0.2-0.1l0.1,0l0.3,0.3c0,0.3-0.2,0.5-0.5,0.9l-0.2,0.4l-0.4,0.3
			c-0.2,0-0.3-0.1-0.6-0.7c-0.2-0.4-0.3-0.7-0.3-0.9l0.2-0.3L61.3,68.4z"/>
		<path class="st2" d="M61.5,69.4l0,0.3l0.3,0.3c0.2,0,0.3-0.2,0.3-0.6l0-0.2L62,69l-0.1,0h-0.1l-0.1,0L61.5,69.4"/>
		<path class="st1" d="M41.6,61.4h1.7v3.6h2v-3.5h5.1v3.5h2v-3.5h1.7v-9.2h-2l-0.1-0.1c-0.2-0.4-0.6-0.5-1-0.5
			c-0.4,0-0.7,0.2-0.9,0.6h-1.4c-0.1-0.4-0.5-0.6-1-0.6c-0.5,0-0.8,0.2-1,0.6h-1.5c-0.3-0.5-0.5-0.6-1-0.6c-0.4,0-0.7,0.2-0.9,0.6
			h-1.9V61.4z"/>
		<rect x="42.4" y="53" class="st5" width="11.2" height="7.7"/>
		<path class="st2" d="M43.5,54.8c-0.3,0-0.5,0.2-0.5,0.5c0,0.3,0.2,0.5,0.5,0.5c0.3,0,0.5-0.2,0.5-0.5C44.1,55,43.8,54.8,43.5,54.8
			"/>
		<path class="st1" d="M43.5,55.9c-0.3,0-0.6-0.3-0.6-0.6c0-0.3,0.3-0.6,0.6-0.6c0.3,0,0.6,0.3,0.6,0.6
			C44.1,55.6,43.9,55.9,43.5,55.9 M43.5,54.8l-0.5,0.5l0.5,0.5l0.5-0.5L43.5,54.8z"/>
		<path class="st2" d="M52.4,54.8c-0.3,0-0.5,0.2-0.5,0.5c0,0.3,0.2,0.5,0.5,0.5c0.3,0,0.5-0.2,0.5-0.5C52.9,55,52.7,54.8,52.4,54.8
			"/>
		<path class="st1" d="M52.4,55.9c-0.3,0-0.6-0.3-0.6-0.6c0-0.3,0.3-0.6,0.6-0.6c0.3,0,0.6,0.3,0.6,0.6C53,55.6,52.7,55.9,52.4,55.9
			 M52.4,54.8l-0.5,0.5l0.5,0.5l0.5-0.5L52.4,54.8z"/>
		<path class="st2" d="M43.5,59c-0.3,0-0.5,0.2-0.5,0.5s0.2,0.5,0.6,0.5c0.3,0,0.5-0.2,0.5-0.5S43.8,59,43.5,59"/>
		<path class="st1" d="M43.5,60.1c-0.3,0-0.6-0.3-0.6-0.6c0-0.3,0.3-0.6,0.6-0.6c0.3,0,0.6,0.3,0.6,0.6
			C44.1,59.8,43.9,60.1,43.5,60.1 M43.5,59l-0.5,0.5c0,0.3,0.2,0.5,0.5,0.5l0.4-0.5L43.5,59z"/>
		<path class="st2" d="M52.4,59c-0.3,0-0.5,0.2-0.5,0.5s0.2,0.5,0.5,0.5c0.3,0,0.5-0.2,0.5-0.5S52.7,59,52.4,59"/>
		<path class="st1" d="M52.4,60.1c-0.3,0-0.6-0.3-0.6-0.6c0-0.3,0.3-0.6,0.6-0.6c0.3,0,0.6,0.3,0.6,0.6C53,59.8,52.7,60.1,52.4,60.1
			 M52.4,59l-0.5,0.5l0.5,0.5l0.5-0.5L52.4,59z"/>
		<path class="st2" d="M45.2,57.3c0.7,0.9,1.6,1.4,2.8,1.4c1,0,1.8-0.4,2.6-1.4c-0.8-0.9-1.6-1.2-2.7-1.2
			C46.8,56.1,45.9,56.5,45.2,57.3"/>
		<path class="st1" d="M45.7,57.3c0.7-0.6,1.4-0.8,2.2-0.8c0.8,0,1.4,0.2,2.1,0.8c-0.7,0.7-1.3,0.9-2.2,0.9
			C47.1,58.3,46.4,57.9,45.7,57.3"/>
		<path class="st2" d="M46.7,57.2c0.4,0.3,0.8,0.4,1.2,0.4c0.5,0,0.9-0.1,1.3-0.4c-0.4-0.2-0.9-0.3-1.3-0.3
			C47.4,56.9,47,57,46.7,57.2"/>
		<rect x="42.2" y="53.4" class="st1" width="11.6" height="0.4"/>
		<path class="st7" d="M42.2,53.4h11.5v0.3H42.2V53.4z M42.2,53.8h11.6v-0.4H42.2V53.8z"/>
		<path class="st2" d="M44,52.9v0.9V54c0,0.3,0.2,0.5,0.5,0.5c0.3,0,0.5-0.2,0.5-0.5v-0.2v-0.9c0-0.4-0.2-0.7-0.4-0.7l-0.2,0.1
			l-0.1,0.1L44,52.5L44,52.7"/>
		<path class="st2" d="M47.5,53.8V54c0,0.3,0.2,0.5,0.5,0.5c0.3,0,0.5-0.2,0.5-0.5v-0.2v-0.9c0-0.4-0.2-0.7-0.4-0.7
			c-0.3,0-0.5,0.3-0.5,0.7"/>
		<path class="st2" d="M50.8,52.9v0.9V54c0,0.3,0.2,0.5,0.5,0.5c0.3,0,0.5-0.2,0.5-0.5v-0.2v-0.9c0-0.4-0.2-0.7-0.4-0.7l-0.2,0.1
			L51,52.4l-0.1,0.1l-0.1,0.2"/>
		<rect x="43.7" y="62.2" class="st2" width="1.1" height="1.4"/>
		<rect x="43.7" y="63.9" class="st2" width="1.1" height="0.4"/>
		<rect x="50.9" y="62.2" class="st2" width="1.1" height="1.4"/>
		<rect x="50.9" y="63.9" class="st2" width="1.1" height="0.4"/>
	</g>
</g>
<g>
	<path class="st8" d="M27.1,123.5h1.7l6.4,16.6h-2.4l-1.6-4.4h-6.4l-1.6,4.4h-2.4L27.1,123.5z M30.4,133.9l-1.6-4.3
		c-0.5-1.4-0.7-2.2-0.9-2.8h-0.1c-0.2,0.6-0.5,1.4-1,2.8l-1.6,4.3H30.4z"/>
	<path class="st8" d="M37.4,138.1c-0.2-0.7-0.3-1.3-0.3-2.3v-7.6h2.2v7.2c0,0.8,0.1,1.3,0.2,1.8c0.3,0.8,0.9,1.2,1.9,1.2
		c1.3,0,2.4-0.7,3-1.5v-8.7h2.2v8.2c0,2,0.1,3.1,0.3,3.7h-2l-0.4-1.3c-1,0.9-2.3,1.6-3.9,1.6C39.6,140.3,38.1,139.8,37.4,138.1z"/>
	<path class="st8" d="M51,137.4V130h-2v-1.8h2v-2.7l2.2-0.7v3.4h3.6l-0.6,1.8h-3v7c0,1.1,0.4,1.5,1.2,1.5c0.8,0,1.4-0.3,1.9-0.6
		l0.7,1.5c-0.8,0.6-2,0.9-3.1,0.9C52.1,140.3,51,139.3,51,137.4z"/>
	<path class="st8" d="M59.2,122.3h2.2v7.4c1.2-1,2.5-1.7,4.1-1.7c1.9,0,3.6,1.1,3.6,4.2v8h-2.2v-7.3c0-1.7-0.4-3-2.1-3
		c-1.2,0-2.4,0.7-3.4,1.6v8.6h-2.2V122.3z"/>
	<path class="st8" d="M71.6,134.1c0-3.5,2.2-6.2,5.7-6.2c3.4,0,5.6,2.7,5.6,6.2c0,3.5-2.2,6.2-5.7,6.2
		C73.9,140.3,71.6,137.6,71.6,134.1z M80.6,134.1c0-2.6-1.3-4.4-3.3-4.4c-2.1,0-3.4,1.8-3.4,4.4c0,2.5,1.3,4.4,3.3,4.4
		C79.4,138.5,80.6,136.7,80.6,134.1z"/>
	<path class="st8" d="M85.4,128.2h1.9l0.3,1.5c1.3-1.3,2.2-1.8,3.3-1.8c0.5,0,1.1,0.1,1.4,0.4l-0.8,2c-0.4-0.2-0.8-0.3-1.2-0.3
		c-0.8,0-1.6,0.5-2.7,1.5v8.7h-2.2V128.2z"/>
	<path class="st8" d="M93.8,124.3c0-0.8,0.6-1.4,1.4-1.4c0.9,0,1.5,0.6,1.5,1.4s-0.6,1.4-1.5,1.4C94.3,125.7,93.8,125.1,93.8,124.3z
		 M94.1,128.2h2.2v11.9h-2.2V128.2z"/>
	<path class="st8" d="M99.4,137.6c0.8,0.5,1.8,0.9,3.1,0.9c1.3,0,2.4-0.5,2.4-1.7c0-2.4-5.6-1.6-5.6-5.6c0-1.9,1.5-3.4,4.2-3.4
		c1.2,0,2.3,0.3,3.1,0.6v1.9c-0.9-0.4-1.8-0.7-3-0.7c-1.1,0-2.1,0.3-2.1,1.5c0,2.4,5.6,1.6,5.6,5.6c0,2.4-2.1,3.5-4.5,3.5
		c-1.7,0-3-0.5-3.9-1.1L99.4,137.6z"/>
	<path class="st8" d="M111.2,134.6c0,2.2,1.4,3.9,3.8,3.9c1.2,0,2.1-0.4,3-0.8l0.7,1.5c-1.1,0.7-2.5,1.1-3.9,1.1
		c-4,0-5.8-2.9-5.8-6.3c0-3.6,2-6.2,5-6.2c3.1,0,4.9,2.4,4.9,6.2v0.6H111.2z M116.6,133c0-1.7-0.8-3.3-2.6-3.3
		c-1.7,0-2.7,1.5-2.8,3.3H116.6z"/>
	<path class="st8" d="M120.8,134.3c0-3.8,2.7-6.4,6.3-6.4c0.6,0,1.3,0.1,1.9,0.2v-5.8h2.2v17.2c-0.9,0.5-2.5,0.8-4,0.8
		C123.6,140.3,120.8,138.3,120.8,134.3z M129,138.2V130c-0.6-0.2-1-0.3-1.7-0.3c-2.3,0-4.1,1.6-4.1,4.5c0,2.6,1.6,4.2,4.2,4.2
		C127.8,138.5,128.5,138.4,129,138.2z"/>
	<path class="st8" d="M140.6,123.5h3.4c1.6,0,2.7,0.3,3.7,0.8c1.6,0.9,2.5,2.4,2.5,4.6c0,1.9-0.8,3.8-2.9,4.7
		c-0.9,0.4-1.9,0.6-3.4,0.6h-1v6h-2.2V123.5z M143.9,132.3c1,0,1.7-0.2,2.3-0.5c1.1-0.6,1.6-1.6,1.6-3c0-1.3-0.5-2.4-1.5-2.9
		c-0.6-0.3-1.3-0.5-2.3-0.5h-1.1v6.9H143.9z"/>
	<path class="st8" d="M153.1,122.3h2.2v14.9c0,0.9,0.3,1.2,0.9,1.2c0.2,0,0.6-0.1,0.8-0.2l0.5,1.7c-0.6,0.2-1.3,0.4-1.8,0.4
		c-1.7,0-2.5-0.9-2.5-2.5V122.3z"/>
	<path class="st8" d="M166.2,138.8c-0.9,0.9-2.1,1.5-3.5,1.5c-2.2,0-3.8-1.4-3.8-3.7c0-1.6,0.8-2.6,2-3.2c0.8-0.4,1.8-0.6,3-0.6
		l2.2-0.1v-0.6c0-1.7-1-2.4-2.5-2.4c-1.4,0-2.4,0.4-3.2,0.9l-0.8-1.5c1.4-0.8,2.9-1.2,4.3-1.2c2.7,0,4.4,1.3,4.4,4.2v4.3
		c0,2,0.1,3.1,0.2,3.7h-1.9L166.2,138.8z M164.1,134.4c-1,0-1.6,0.2-2.1,0.4c-0.6,0.4-0.9,1-0.9,1.7c0,1.2,0.8,2,2.1,2
		c1.4,0,2.4-0.8,2.9-1.4v-2.9L164.1,134.4z"/>
	<path class="st8" d="M172.3,137.4V130h-2v-1.8h2v-2.7l2.2-0.7v3.4h3.6l-0.6,1.8h-3v7c0,1.1,0.4,1.5,1.2,1.5c0.8,0,1.4-0.3,1.9-0.6
		l0.7,1.5c-0.8,0.6-2,0.9-3.1,0.9C173.4,140.3,172.3,139.3,172.3,137.4z"/>
	<path class="st8" d="M180.3,124.3c0-0.8,0.6-1.4,1.4-1.4c0.9,0,1.5,0.6,1.5,1.4s-0.6,1.4-1.5,1.4
		C180.8,125.7,180.3,125.1,180.3,124.3z M180.6,128.2h2.2v11.9h-2.2V128.2z"/>
	<path class="st8" d="M186.1,128.2h1.9l0.3,1.5c1.3-1.1,2.6-1.8,4.1-1.8c1.9,0,3.6,1.1,3.6,4.2v8h-2.2v-7.3c0-1.7-0.4-3-2-3
		c-1.2,0-2.4,0.7-3.4,1.6v8.6h-2.2V128.2z"/>
	<path class="st8" d="M199.4,138.1c-0.2-0.7-0.3-1.3-0.3-2.3v-7.6h2.2v7.2c0,0.8,0.1,1.3,0.2,1.8c0.3,0.8,0.9,1.2,1.9,1.2
		c1.3,0,2.4-0.7,3-1.5v-8.7h2.2v8.2c0,2,0.1,3.1,0.3,3.7h-2l-0.4-1.3c-1,0.9-2.3,1.6-3.9,1.6C201.6,140.3,200.1,139.8,199.4,138.1z"
		/>
	<path class="st8" d="M212.1,128.2h1.9l0.3,1.5c1.2-1,2.6-1.8,4.1-1.8c1.4,0,2.5,0.7,3.1,2c1.4-1.3,2.9-2,4.4-2c2,0,3.7,1.2,3.7,4.2
		v8h-2.2v-7.3c0-1.6-0.4-2.9-2-2.9c-1.2,0-2.3,0.7-3.4,1.6c0,0.2,0,0.4,0,0.6v8h-2.2v-7.3c0-1.7-0.4-2.9-2-2.9
		c-1.2,0-2.3,0.7-3.4,1.6v8.7h-2.2V128.2z"/>
	<path class="st8" d="M250.1,139.1c-1.7,0.9-3.3,1.2-4.9,1.2c-5.1,0-8.1-3.5-8.1-8.4c0-4.8,3.4-8.6,8.4-8.6c1.8,0,3.3,0.4,4.2,0.9
		v2.1c-1.2-0.6-2.5-1.1-4.1-1.1c-3.8,0-6.1,3-6.1,6.6c0,3.9,2.3,6.5,5.9,6.5c1.6,0,2.8-0.5,4-1.1L250.1,139.1z"/>
	<path class="st8" d="M253.9,134.6c0,2.2,1.4,3.9,3.8,3.9c1.2,0,2.1-0.4,3-0.8l0.7,1.5c-1.1,0.7-2.5,1.1-3.9,1.1
		c-4,0-5.8-2.9-5.8-6.3c0-3.6,2-6.2,5-6.2c3.1,0,4.9,2.4,4.9,6.2v0.6H253.9z M259.3,133c0-1.7-0.8-3.3-2.6-3.3
		c-1.7,0-2.7,1.5-2.8,3.3H259.3z"/>
	<path class="st8" d="M264.1,128.2h1.9l0.3,1.5c1.3-1.1,2.6-1.8,4.1-1.8c1.9,0,3.6,1.1,3.6,4.2v8h-2.2v-7.3c0-1.7-0.4-3-2-3
		c-1.2,0-2.4,0.7-3.4,1.6v8.6h-2.2V128.2z"/>
	<path class="st8" d="M278.1,137.4V130h-2v-1.8h2v-2.7l2.2-0.7v3.4h3.6l-0.6,1.8h-3v7c0,1.1,0.4,1.5,1.2,1.5c0.8,0,1.4-0.3,1.9-0.6
		l0.7,1.5c-0.8,0.6-2,0.9-3.1,0.9C279.2,140.3,278.1,139.3,278.1,137.4z"/>
	<path class="st8" d="M286.1,128.2h1.9l0.3,1.5c1.3-1.3,2.2-1.8,3.3-1.8c0.5,0,1.1,0.1,1.4,0.4l-0.8,2c-0.4-0.2-0.8-0.3-1.2-0.3
		c-0.8,0-1.6,0.5-2.7,1.5v8.7h-2.2V128.2z"/>
	<path class="st8" d="M295.9,134.6c0,2.2,1.4,3.9,3.8,3.9c1.2,0,2.1-0.4,3-0.8l0.7,1.5c-1.1,0.7-2.5,1.1-3.9,1.1
		c-4,0-5.8-2.9-5.8-6.3c0-3.6,2-6.2,5-6.2c3.1,0,4.9,2.4,4.9,6.2v0.6H295.9z M301.3,133c0-1.7-0.8-3.3-2.6-3.3
		c-1.7,0-2.7,1.5-2.8,3.3H301.3z"/>
</g>
</svg>
