<svg id="Layer_1" data-name="Layer 1" xmlns="http://www.w3.org/2000/svg" width="344" height="125" viewBox="0 0 450 163.01"><defs><style>.cls-1{fill:none;stroke:#231f20;stroke-miterlimit:10;stroke-width:1.46px;}.cls-2{fill:#131718;}.cls-3{fill:#fcdb2f;}.cls-4{fill:#090d10;}.cls-5{fill:#fff;}.cls-6{fill:#eb4236;}.cls-7{fill:#1a1911;}.cls-8{fill:#111919;}.cls-9{font-size:25.18px;fill:#231f20;font-family:BlissPro-Regular, Bliss Pro;}.cls-10{letter-spacing:-0.03em;}.cls-11{letter-spacing:-0.02em;}.cls-12{letter-spacing:-0.01em;}</style></defs><title>Artboard 1</title><line class="cls-1" x1="20.49" y1="111.77" x2="422.08" y2="111.77"/><path class="cls-2" d="M263,30.91h-3.43l-9.09,23.6H255l2.21-5.88h8.38l2.28,5.88h4.63Zm-4.6,14.22,1.71-4.63c.64-1.82,1-2.85,1.21-3.67h.07c.22.78.54,1.85,1.18,3.63l1.64,4.67Z"/><path class="cls-2" d="M308.28,37.22c-4.81,0-7.59,3.81-7.59,8.88,0,4.56,2.49,8.76,8.62,8.76a11.36,11.36,0,0,0,6-1.56L314,50.37a8.38,8.38,0,0,1-4.24,1.14c-2.82,0-4.67-1.67-4.78-4.27h10.8v-1c0-5.6-2.74-9-7.48-9m-3.35,7.06c0-2,1.17-3.82,3.28-3.82s3.21,1.89,3.24,3.82Z"/><path class="cls-2" d="M381.87,37.22c-4.82,0-7.6,3.81-7.6,8.88,0,4.56,2.5,8.76,8.63,8.76a11.3,11.3,0,0,0,6-1.56l-1.28-2.93a8.41,8.41,0,0,1-4.24,1.14c-2.82,0-4.67-1.67-4.78-4.27h10.8v-1c0-5.6-2.74-9-7.48-9m-3.35,7.06c0-2,1.17-3.82,3.27-3.82S385,42.35,385,44.28Z"/><path class="cls-2" d="M415.83,32.48l-4.24,1.25v3.92h-3V41h3v9.38c0,2.81,1.82,4.52,4.81,4.52a9.62,9.62,0,0,0,4.92-1.31L420,50.62a4.75,4.75,0,0,1-2.57.82c-1.1,0-1.64-.57-1.64-2.14V41h1.55a2.66,2.66,0,0,0,2.71-1.48l.84-1.66,0-.07,0-.06H416v0h-.18Z"/><path class="cls-2" d="M293.14,37.22c-4,0-6.38,2.1-6.38,5.1,0,5.63,7.91,4.56,7.91,7.41,0,1.28-1.24,1.78-3,1.78a8.59,8.59,0,0,1-4.59-1.39l-.19.45-.76,2.87A12.23,12.23,0,0,0,292,54.86c3.64,0,6.84-1.53,6.84-5.24,0-5.88-7.91-4.84-7.91-7.52,0-1.1,1-1.53,2.39-1.53a11.5,11.5,0,0,1,4,.76l.8-3V38a14.71,14.71,0,0,0-5-.82"/><path class="cls-2" d="M324.18,37.22c-4,0-6.38,2.1-6.38,5.1,0,5.63,7.91,4.56,7.91,7.41,0,1.28-1.25,1.78-3,1.78a8.57,8.57,0,0,1-4.42-1.28l-.88,3.34A12.33,12.33,0,0,0,323,54.86c3.63,0,6.84-1.53,6.84-5.24,0-5.88-7.91-4.84-7.91-7.52,0-1.1,1-1.53,2.39-1.53a11.21,11.21,0,0,1,4,.76l.81-3.12V38a14.65,14.65,0,0,0-4.95-.82"/><path class="cls-2" d="M338.26,37.22c-4,0-6.38,2.1-6.38,5.1,0,5.63,7.91,4.56,7.91,7.41,0,1.28-1.25,1.78-3,1.78a8.58,8.58,0,0,1-4.47-1.31l-.88,3.34a12.22,12.22,0,0,0,5.64,1.32c3.63,0,6.84-1.53,6.84-5.24,0-5.88-7.91-4.84-7.91-7.52,0-1.1,1-1.53,2.39-1.53a11.26,11.26,0,0,1,3.93.75l.84-3.21V38a14.65,14.65,0,0,0-4.95-.82"/><path class="cls-2" d="M279.13,37.22c-3.95,0-6.38,2.1-6.38,5.1,0,5.63,7.92,4.56,7.92,7.41,0,1.28-1.25,1.78-3,1.78a8.63,8.63,0,0,1-4.6-1.39v0l1.63,4.3a12.65,12.65,0,0,0,3.27.42c3.63,0,6.84-1.53,6.84-5.24,0-5.88-7.92-4.84-7.92-7.52,0-1.1,1-1.53,2.39-1.53a11.43,11.43,0,0,1,4,.75l.82-3.14V38a14.71,14.71,0,0,0-5-.82"/><path class="cls-2" d="M346.25,36.92l-.09,0V54.51h4.24V42.6a6.76,6.76,0,0,1,4-1.67c2.18,0,2.5,1.64,2.5,3.6v10h4.28V43.24l0-.64a6.56,6.56,0,0,1,4-1.67c2.18,0,2.57,1.57,2.57,3.56v10H372V43.31c0-4.45-2.64-6.09-5.59-6.09a9.77,9.77,0,0,0-6.06,2.6,4.73,4.73,0,0,0-4.5-2.6,9.36,9.36,0,0,0-5.66,2.32H350a3.26,3.26,0,0,0-1.51-1.5L346.33,37Z"/><path class="cls-2" d="M391.78,36.92l-.08,0V54.51h4.24V42.71a6.91,6.91,0,0,1,4.13-1.78c2.18,0,2.61,1.67,2.61,3.74v9.84H407V43.35c0-4.81-2.75-6.13-5.42-6.13a9.41,9.41,0,0,0-5.78,2.32h-.23A3.26,3.26,0,0,0,394,38L391.86,37Z"/><path class="cls-2" d="M98.67,30.64c-7.56,0-12.41,5.42-12.41,12.23S90.43,54.7,98.13,54.7A15.13,15.13,0,0,0,105.39,53a6.46,6.46,0,0,1-1-3.48,11.1,11.1,0,0,1-5.77,1.63c-4.81,0-7.81-3.42-7.81-8.34,0-4.6,2.75-8.52,8-8.52a12.67,12.67,0,0,1,6.06,1.53v-4a15.72,15.72,0,0,0-6.16-1.14"/><path class="cls-2" d="M156.58,28.93h-4.25V53.35a12.08,12.08,0,0,0,5.53,1.17c5.74,0,10.09-3.42,10.09-9.34,0-5.34-3.6-8.3-8.1-8.3a10.76,10.76,0,0,0-3.27.5Zm2,22.06a6.58,6.58,0,0,1-2-.28V40.94a6.19,6.19,0,0,1,2.56-.53c2.78,0,4.42,2.06,4.42,5,0,3.32-2,5.56-5,5.56"/><path class="cls-2" d="M206.31,29.11H202v8.16a12.9,12.9,0,0,0-2.28-.21c-5.35,0-9.24,3.67-9.24,9,0,5.56,4.1,8.62,9.59,8.62a15.25,15.25,0,0,0,6.2-1.24ZM200,51.17A4.81,4.81,0,0,1,194.87,46c0-3.46,2.18-5.46,5.13-5.46a8.48,8.48,0,0,1,2,.25V50.89a6.58,6.58,0,0,1-2,.28"/><path class="cls-2" d="M232.91,37.06c-4.82,0-7.6,3.81-7.6,8.88,0,4.56,2.5,8.76,8.63,8.76a11.22,11.22,0,0,0,5.95-1.57l-1.28-2.92a8.41,8.41,0,0,1-4.24,1.14c-2.82,0-4.67-1.67-4.78-4.28h10.8v-1c0-5.6-2.74-9-7.48-9m-3.35,7.06c0-2,1.17-3.82,3.28-3.82s3.2,1.89,3.24,3.82Z"/><path class="cls-2" d="M113.59,37.06a13.36,13.36,0,0,0-6.53,1.67l1.4,2.75a9.54,9.54,0,0,1,4.41-1.18c2,0,3.25.86,3.25,2.82v.53l-2.89.11a10.54,10.54,0,0,0-4.35,1,4.82,4.82,0,0,0-2.85,4.6,5.26,5.26,0,0,0,5.6,5.38,6.9,6.9,0,0,0,4.84-2h.36a3.74,3.74,0,0,0,1.17.92l2.22,1.11.08,0,.09,0V44.84h0V43.19c0-4.06-2.24-6.13-6.77-6.13m-.75,14.29a2.22,2.22,0,0,1-2.5-2.31,2,2,0,0,1,1-1.93,5.29,5.29,0,0,1,2.46-.53l2.18-.07v3.67a5.24,5.24,0,0,1-3.19,1.17"/><path class="cls-2" d="M123.56,36.69l-.08,0V54.28h4.24V42.37a6.76,6.76,0,0,1,4-1.67c2.18,0,2.5,1.64,2.5,3.6v10h4.28V43l0-.64a6.56,6.56,0,0,1,4-1.67c2.18,0,2.57,1.57,2.57,3.56v10h4.24V43.08c0-4.45-2.64-6.09-5.6-6.09a9.79,9.79,0,0,0-6.06,2.6,4.72,4.72,0,0,0-4.49-2.6,9.46,9.46,0,0,0-5.67,2.31h-.15a3.33,3.33,0,0,0-1.51-1.49l-2.16-1.08Z"/><path class="cls-2" d="M179.14,37.14a6.26,6.26,0,0,0-4.63,2.24L174,37.49h-3.6V54.35h4.24V42.44a4.76,4.76,0,0,1,3.67-2.08,4.24,4.24,0,0,1,2.61,1V37.46a5.42,5.42,0,0,0-1.82-.32"/><path class="cls-2" d="M185.64,29.64a2.55,2.55,0,0,0-2.6,2.57,2.51,2.51,0,0,0,2.6,2.53,2.55,2.55,0,1,0,0-5.1m2.14,7.85H183.5V54.35h4.28Z"/><path class="cls-2" d="M225.16,36.41H216c-4.6,0-6.88,3.11-6.88,6.21a5.9,5.9,0,0,0,2.82,5.24,4.13,4.13,0,0,0-2,3.17,2.39,2.39,0,0,0,1.11,2.1,4.54,4.54,0,0,0-3,4.07c0,2.92,2.89,4.95,7.84,4.95,5.85,0,8.91-2.49,8.91-5.56,0-6.31-11.08-3.49-11.08-6.52a2.32,2.32,0,0,1,.42-1.25,7.05,7.05,0,0,0,2.07.28c4.1,0,7-2.45,7-6.23a5.88,5.88,0,0,0-1.19-3.58h.49v0a2.26,2.26,0,0,0,2-1.27l.73-1.47,0-.06Zm-9.08,9.49a2.93,2.93,0,0,1-3-3.14A2.83,2.83,0,0,1,216,39.62a3,3,0,0,1,3,3.17,2.84,2.84,0,0,1-3,3.11m.28,13.26c-2.82,0-4.6-1-4.6-2.71a2.82,2.82,0,0,1,1.36-2.21c2.28.89,7.52.39,7.52,2.81,0,1.25-1.71,2.11-4.28,2.11"/><path class="cls-2" d="M87.28,65.79H99.11l-1,2.7H90.44v7.42h7.64v2.7H90.44V86.5h8.81v2.7h-12Z"/><path class="cls-2" d="M102.84,72.39h2.63l.39,2.06A9.23,9.23,0,0,1,111.69,72c2.67,0,5.12,1.56,5.12,6V89.2h-3.13V79c0-2.38-.57-4.23-2.88-4.23A7.82,7.82,0,0,0,106,77V89.2h-3.13Z"/><path class="cls-2" d="M118.94,92.75A4.71,4.71,0,0,1,122,88.52a2.35,2.35,0,0,1-1.17-2.09,4.37,4.37,0,0,1,1.88-3.27A5.85,5.85,0,0,1,120,78a6,6,0,0,1,6.4-6,7.51,7.51,0,0,1,3.23.64c.18.11.25.11.39,0a4.83,4.83,0,0,1,3.66-1.39,5.65,5.65,0,0,1,1,.11L134,73.67a5.14,5.14,0,0,0-1-.1,2.69,2.69,0,0,0-1.49.39,5.94,5.94,0,0,1,1.74,4.23c0,3.65-2.7,6.11-6.64,6.11a6.69,6.69,0,0,1-2.14-.32,2.56,2.56,0,0,0-.78,1.7c0,3.23,11.09.32,11.09,6.61,0,3.13-3.06,5.33-8.35,5.33C121.85,97.62,118.94,95.77,118.94,92.75Zm12.76-.14c0-2.88-5-2.31-7.89-3.23a3.56,3.56,0,0,0-2,2.84c0,1.92,2,3,4.94,3C130,95.27,131.7,94.1,131.7,92.61Zm-1.53-14.46a3.46,3.46,0,0,0-3.55-3.66,3.34,3.34,0,0,0-3.52,3.62,3.43,3.43,0,0,0,3.55,3.7A3.36,3.36,0,0,0,130.17,78.15Z"/><path class="cls-2" d="M137.17,64h3.13V85c0,1.28.39,1.67,1.24,1.67a3.78,3.78,0,0,0,1.07-.22l.63,2.45a7.27,7.27,0,0,1-2.59.5c-2.34,0-3.48-1.28-3.48-3.52Z"/><path class="cls-2" d="M145.24,66.92a1.94,1.94,0,0,1,2-2,2,2,0,0,1,2.07,2,2,2,0,0,1-2.07,2A2,2,0,0,1,145.24,66.92Zm.42,5.47h3.13V89.2h-3.13Z"/><path class="cls-2" d="M152.48,85.72A8.38,8.38,0,0,0,156.82,87c1.88,0,3.41-.68,3.41-2.42,0-3.41-7.89-2.27-7.89-7.85,0-2.67,2.1-4.76,5.9-4.76a12.57,12.57,0,0,1,4.41.81v2.7a10.42,10.42,0,0,0-4.27-1c-1.56,0-2.95.46-2.95,2.06,0,3.41,7.89,2.2,7.89,8,0,3.44-2.91,5-6.4,5a10.27,10.27,0,0,1-5.43-1.49Z"/><path class="cls-2" d="M166.27,64h3.13V74.42A8.87,8.87,0,0,1,175.12,72c2.63,0,5.11,1.56,5.11,6V89.2h-3.12V79c0-2.38-.61-4.23-2.92-4.23A7.63,7.63,0,0,0,169.4,77V89.2h-3.13Z"/><path class="cls-3" d="M73.11,64a30.3,30.3,0,0,1-1.26,7.79,19.15,19.15,0,0,1-2.95,5.85,20.67,20.67,0,0,1-7.14,5.72L55,86.77l.06.13h.14V64.17h18V63.9H54.93V87.12l.2-.1c5.46-2.72,6.59-3.29,6.76-3.39a20.94,20.94,0,0,0,7.23-5.79,19.75,19.75,0,0,0,3-5.94A30.92,30.92,0,0,0,73.39,64Z"/><path class="cls-3" d="M41,64V86.9h.14l.06-.13c-5.45-2.71-6.59-3.29-6.75-3.38a20.65,20.65,0,0,1-7.13-5.72,19.17,19.17,0,0,1-3-5.85A29.89,29.89,0,0,1,23.1,64H23v.14H41.13V63.9H22.81V64a30.49,30.49,0,0,0,1.27,7.86,19.3,19.3,0,0,0,3,5.94,20.93,20.93,0,0,0,7.22,5.79c.18.1,1.31.67,6.76,3.39l.2.1V64Z"/><polygon class="cls-4" points="73.28 31.45 73.28 31.32 54.93 31.32 54.93 50.23 73.42 50.23 73.42 31.32 73.28 31.32 73.28 31.45 73.14 31.45 73.14 49.96 55.21 49.96 55.21 31.59 73.28 31.59 73.28 31.45 73.14 31.45 73.28 31.45"/><polygon class="cls-4" points="41.13 31.45 41.13 31.32 22.78 31.32 22.78 50.23 41.27 50.23 41.27 31.32 41.13 31.32 41.13 31.45 41 31.45 41 49.96 23.06 49.96 23.06 31.59 41.13 31.59 41.13 31.45 41 31.45 41.13 31.45"/><path class="cls-2" d="M48.1,93.21l-.55-.3c-.82-.4-13.62-6.77-14.38-7.18C29,83.48,20.39,78.79,20.39,62.35V28.93H75.81V62.35c0,16.44-8.63,21.13-12.78,23.38-.76.42-13.64,6.82-14.38,7.18Z"/><path class="cls-5" d="M53.74,51.43V30.13H42.46v21.3H21.59V62.7H42.46V89l5.64,2.81h0l5.64-2.8V62.7H74.61V51.43Z"/><rect class="cls-6" x="21.59" y="30.12" width="20.87" height="21.3"/><rect class="cls-6" x="53.74" y="30.13" width="20.87" height="21.3"/><path class="cls-6" d="M42.46,62.7H21.59c.12,15.27,8,19.7,12.15,22,.43.23,4.89,2.45,8.72,4.37Z"/><path class="cls-6" d="M53.74,62.7V89.05c3.84-1.92,8.29-4.14,8.72-4.37,4.2-2.28,12-6.71,12.15-22Z"/><path class="cls-2" d="M60.91,57.23l.43-.51-.54-.65-.55.65.43.51c0,.26,0,2.52-1.31,3.32a3,3,0,0,0,1,0,7.23,7.23,0,0,0,.39,1.26,6.67,6.67,0,0,0,.38-1.26,3,3,0,0,0,1,0c-1.33-.8-1.32-3.06-1.31-3.32"/><path class="cls-2" d="M64.31,53.39l.43-.51-.54-.65-.55.65.43.51c0,.26,0,2.52-1.31,3.33a3.2,3.2,0,0,0,1,0A7,7,0,0,0,64.2,58a6.45,6.45,0,0,0,.38-1.26,3.2,3.2,0,0,0,1,0c-1.33-.81-1.32-3.07-1.31-3.33"/><path class="cls-2" d="M67.71,57.23l.43-.51-.54-.65-.55.65.43.51c0,.26,0,2.52-1.31,3.32a3,3,0,0,0,1,0,6.32,6.32,0,0,0,.39,1.26A7.7,7.7,0,0,0,68,60.53a3,3,0,0,0,1,0c-1.33-.8-1.32-3.06-1.31-3.32"/><path class="cls-2" d="M71.11,53.39l.43-.51L71,52.23l-.54.65.43.51c0,.26,0,2.52-1.31,3.33a3.2,3.2,0,0,0,1,0A6.45,6.45,0,0,0,71,58a6.12,6.12,0,0,0,.39-1.26,3.2,3.2,0,0,0,1,0c-1.33-.81-1.32-3.07-1.31-3.33"/><path class="cls-2" d="M57.51,53.39l.43-.51-.54-.65-.55.65.43.51c0,.26,0,2.52-1.31,3.33a3.2,3.2,0,0,0,1,0A7,7,0,0,0,57.4,58a6.45,6.45,0,0,0,.38-1.26,3.18,3.18,0,0,0,1,0c-1.33-.81-1.32-3.07-1.31-3.33"/><path class="cls-2" d="M28.72,57.23l.43-.51-.54-.65-.55.65.44.51c0,.26,0,2.52-1.31,3.32a3,3,0,0,0,1,0,6.67,6.67,0,0,0,.38,1.26A6.67,6.67,0,0,0,29,60.53a3,3,0,0,0,1,0c-1.33-.8-1.31-3.06-1.31-3.32"/><path class="cls-2" d="M32.12,53.39l.43-.51L32,52.23l-.55.65.43.51c0,.26,0,2.52-1.31,3.33a3.25,3.25,0,0,0,1.05,0A6.45,6.45,0,0,0,32,58a6.45,6.45,0,0,0,.38-1.26,3.18,3.18,0,0,0,1,0c-1.33-.81-1.32-3.07-1.31-3.33"/><path class="cls-2" d="M35.52,57.23l.43-.51-.54-.65-.55.65.44.51c0,.26,0,2.52-1.31,3.32a3,3,0,0,0,1,0,7.23,7.23,0,0,0,.39,1.26,6.67,6.67,0,0,0,.38-1.26,3,3,0,0,0,1,0c-1.33-.8-1.31-3.06-1.31-3.32"/><path class="cls-2" d="M38.92,53.39l.43-.51-.54-.65-.55.65.43.51c0,.26,0,2.52-1.3,3.33a3.13,3.13,0,0,0,1,0A7,7,0,0,0,38.81,58a6.45,6.45,0,0,0,.38-1.26,3.18,3.18,0,0,0,1,0c-1.33-.81-1.32-3.07-1.31-3.33"/><path class="cls-2" d="M25.32,53.39l.43-.51-.54-.65-.55.65.44.51c0,.26,0,2.52-1.31,3.33a3.18,3.18,0,0,0,1,0A6.45,6.45,0,0,0,25.21,58a6.45,6.45,0,0,0,.38-1.26,3.18,3.18,0,0,0,1,0c-1.33-.81-1.31-3.07-1.31-3.33"/><path class="cls-2" d="M48.24,65.88l.43-.51-.54-.65-.55.65.44.51c0,.26,0,2.52-1.31,3.32a3,3,0,0,0,1,0,6.67,6.67,0,0,0,.38,1.26,6.67,6.67,0,0,0,.38-1.26,3,3,0,0,0,1,0c-1.33-.8-1.31-3.06-1.31-3.32"/><path class="cls-2" d="M48.24,77.42l.43-.51-.54-.65-.55.65.44.51c0,.26,0,2.52-1.31,3.33a3.18,3.18,0,0,0,1,0A6.45,6.45,0,0,0,48.13,82a6.45,6.45,0,0,0,.38-1.26,3.18,3.18,0,0,0,1,0c-1.33-.81-1.31-3.07-1.31-3.33"/><path class="cls-2" d="M51.39,71.65l.43-.51-.54-.65-.54.65.43.51c0,.26,0,2.52-1.31,3.33a3.18,3.18,0,0,0,1,0,6.45,6.45,0,0,0,.38,1.26A6.45,6.45,0,0,0,51.66,75a3.18,3.18,0,0,0,1,0c-1.33-.81-1.31-3.07-1.31-3.33"/><path class="cls-2" d="M45.05,71.65l.44-.51-.55-.65-.54.65.43.51c0,.26,0,2.52-1.31,3.33a3.18,3.18,0,0,0,1,0,6.45,6.45,0,0,0,.38,1.26A6.45,6.45,0,0,0,45.32,75a3.18,3.18,0,0,0,1,0c-1.33-.81-1.31-3.07-1.31-3.33"/><path class="cls-2" d="M51.39,83.19l.43-.51L51.28,82l-.54.65.43.51c0,.26,0,2.52-1.31,3.33a3.18,3.18,0,0,0,1,0,6.45,6.45,0,0,0,.38,1.26,6.45,6.45,0,0,0,.38-1.26,3.18,3.18,0,0,0,1,0c-1.33-.81-1.31-3.07-1.31-3.33"/><path class="cls-2" d="M45.05,83.19l.44-.51L44.94,82l-.54.65.43.51c0,.26,0,2.52-1.31,3.33a3.18,3.18,0,0,0,1,0,6.45,6.45,0,0,0,.38,1.26,6.45,6.45,0,0,0,.38-1.26,3.18,3.18,0,0,0,1,0c-1.33-.81-1.31-3.07-1.31-3.33"/><path class="cls-2" d="M48.24,39.6l.43-.52-.54-.64-.55.64.44.52c0,.25,0,2.51-1.31,3.32a2.88,2.88,0,0,0,1,0,6.45,6.45,0,0,0,.38,1.26,6.45,6.45,0,0,0,.38-1.26,2.88,2.88,0,0,0,1,0c-1.33-.81-1.31-3.07-1.31-3.32"/><path class="cls-2" d="M51.39,33.82l.43-.51-.54-.64-.54.64.43.51c0,.26,0,2.52-1.31,3.33a3.18,3.18,0,0,0,1,0,6.45,6.45,0,0,0,.38,1.26,6.45,6.45,0,0,0,.38-1.26,3.18,3.18,0,0,0,1,0c-1.33-.81-1.31-3.07-1.31-3.33"/><path class="cls-2" d="M45.05,33.82l.44-.51-.55-.64-.54.64.43.51c0,.26,0,2.52-1.31,3.33a3.18,3.18,0,0,0,1,0,6.45,6.45,0,0,0,.38,1.26,6.45,6.45,0,0,0,.38-1.26,3.18,3.18,0,0,0,1,0c-1.33-.81-1.31-3.07-1.31-3.33"/><path class="cls-2" d="M51.39,45.37l.43-.52-.54-.64-.54.64.43.52c0,.25,0,2.51-1.31,3.32a2.88,2.88,0,0,0,1,0,6.45,6.45,0,0,0,.38,1.26,6.45,6.45,0,0,0,.38-1.26,2.88,2.88,0,0,0,1,0c-1.33-.81-1.31-3.07-1.31-3.32"/><path class="cls-2" d="M45.05,45.37l.44-.52-.55-.64-.54.64.43.52c0,.25,0,2.51-1.31,3.32a2.88,2.88,0,0,0,1,0,6.45,6.45,0,0,0,.38,1.26,6.45,6.45,0,0,0,.38-1.26,2.88,2.88,0,0,0,1,0c-1.33-.81-1.31-3.07-1.31-3.32"/><path class="cls-2" d="M38,40.64l.07.27.14.56c.22,1,.41,1.28.9,1.28a.59.59,0,0,0,.58-.39l.11-.35.17-.13c.19,0,.28.19.29.64a5.47,5.47,0,0,0,.13.86,5.38,5.38,0,0,1,.07.78l-.11.55a7.74,7.74,0,0,1,.11,1.08,2.24,2.24,0,0,1-.22,1.06,2,2,0,0,1,.09.67l0,.59a4.38,4.38,0,0,0-.1.61l0,.24.05.21-.05.09-.36-.14-.39-.21-.4-.32c-.35.31-.45.35-1.35.6l-.39.16-.23.12c-.16,0-.23-.24-.23-.75a4.1,4.1,0,0,1,.11-1,2,2,0,0,0-.63-.15l-.28,0H36l-.1-.17.11-.39.18-.42.42-.51.46-.27.64-.12c.38-.08.61-.28.61-.54s-.18-.43-.56-.56L37,44.38,36.29,44c-.42-.25-.49-.28-.59-.28l-.24.31a.49.49,0,0,0,.49.54l.18,0,.19,0,.12.13v.08l0,.3a2.44,2.44,0,0,1-.57,1.06l-.16.21a2.45,2.45,0,0,1-1,1.4l-.2.14-.14.25-.35.43-.44.4-.36.32-.17.3-.15.09c-.15,0-.3-.16-.39-.44l-.25-.27L32,49l-.25,0h-.64a2.79,2.79,0,0,0-1,.18l-.18.05-.12-.11,0-.14a3.26,3.26,0,0,1,.54-1.41,1.84,1.84,0,0,1,.47-.57.79.79,0,0,0-.49-.6l-.3-.09-.08-.08c0-.1.15-.22.41-.36a2.26,2.26,0,0,1,1-.28,1.43,1.43,0,0,1,.9.37c.48.37.61.44.84.44a.76.76,0,0,0,.74-.71,1.66,1.66,0,0,0-.47-.94,2.16,2.16,0,0,1-.64-1.43,1.81,1.81,0,0,1,.2-.83l.18-.26.06-.18-.32-.2a3.06,3.06,0,0,0-1.25.46l-.35.38.07.14.19.12,0,.07-.07.14-.35.46a6.73,6.73,0,0,1-.75.78l-.17.18-.14.26a2.92,2.92,0,0,1-.78.8l-.25.19-.14.25-.23.37-.43.55-.49.5a2.72,2.72,0,0,0-.5,1.09c-.12.39-.24.62-.3.62l-.14-.1c-.35-.4-.65-.64-.81-.64l-.2.09-.48.18-.65.12a1.36,1.36,0,0,0-1,.53l-.16.12-.09-.2,0-.17.09-.47a3.92,3.92,0,0,1,.35-1.16l.3-.54.09-.29a1,1,0,0,0-.94-.83l-.18-.11.34-.42a2.15,2.15,0,0,1,1.11-.46,2.62,2.62,0,0,1,.8.21l.39.16.39.09c.42,0,.81-.37,1.31-1.22a1.84,1.84,0,0,0,.31-.91c0-.44-.21-.72-.56-.72a1.13,1.13,0,0,0-.76.34l-.27.54v.25l-.16.25c-.17,0-.41-.24-1.1-1.08a2.05,2.05,0,0,1-.66-1.52c-.6-.76-.75-1.09-.75-1.63l0-.37A1.68,1.68,0,0,1,23,38l.13-.46a1.89,1.89,0,0,1-.34-.69l-.08-.38-.29-.65-.17-.34c0-.21.14-.29.76-.44l0-.39.05-.43.13-.65a3.26,3.26,0,0,0,.07-.57,2,2,0,0,0-.12-.56l-.16-.41-.11-.24.12-.1a2.9,2.9,0,0,1,1.12.68,2.79,2.79,0,0,1,1.36,2.19l.05.36a1.57,1.57,0,0,1,.75,1.25,2.18,2.18,0,0,1-.36,1.13l-.35.55-.16.59a2.07,2.07,0,0,0,.34,1.06c.27.47.5.67.78.67.47,0,.88-.81.88-1.73V38l0-.58c0-.27.05-.45.06-.51v-.71l-.18-.33-.39-.43A2.76,2.76,0,0,1,26,33.84a.89.89,0,0,1,.9-.94l.38.06v-.12c0-.78.15-1.35.37-1.35l.08,0,.32.29.39.24.11.11.23-.5.25-.33.17-.27.09-.16.15-.13.15.26c0,.12.07.15.38.42l.21.23.14.36,0,.14.36-.32.26-.16.2-.09.08.11.14.26a1.39,1.39,0,0,1,.26.64V33a1,1,0,0,1,.8,1.11,2.47,2.47,0,0,1-.69,1.51c-.31.36-.34.43-.34.68,0,1.31.91,2.07,2.52,2.1h1.18a6,6,0,0,1,1.93.32,4.43,4.43,0,0,0,1.33.34l.23-.07.1-.16c0-.25-.43-.45-1.86-.85-2.91-.83-4.15-2-4.15-3.94a2.72,2.72,0,0,1,2.85-2.65,6,6,0,0,1,1.76.31l.73.26.38.08c.25,0,.37-.21.38-.63l.2-.3c.21,0,.52.26.81.66a2.3,2.3,0,0,1,.48,1.16,1,1,0,0,1-.62.93,1.75,1.75,0,0,1-1.55.88,5.76,5.76,0,0,1-2.43-1,1.75,1.75,0,0,0-.86-.32.46.46,0,0,0-.51.46c0,.25.2.42.71.6a2.55,2.55,0,0,1,1.26.69,3.63,3.63,0,0,1,1.86.74c1.55.5,2.51,1.55,2.51,2.77a1.9,1.9,0,0,1-1.91,2,3.25,3.25,0,0,1-.83-.11"/><path class="cls-3" d="M39.71,48.39,39.64,48v-.13l.06-.29,0-.23-.13-.53-.21-.28-.18-.34,0-.15.12-.13.23.11.17.06c.11,0,.17-.17.17-.48s0-.53-.11-.61l-.27-.3-.23-.2-.09-.15.15-.13.39.09.08,0,.1-.15v-.07l-.06-.37-.1-.39-.14-.14h0l-.44.09H39a1.58,1.58,0,0,1-1.39-1.11L37.3,41a2.34,2.34,0,0,0-.85-1.09l-.35-.19-.32,0-.1-.09.22-.11.59.05a5,5,0,0,1,.95.25,3.82,3.82,0,0,0,1.19.26A1.24,1.24,0,0,0,40,38.79a2.21,2.21,0,0,0-.72-1.56l-.59-.39-.08.09v.25l-.13.15-.3-.35a1.7,1.7,0,0,0-1.42-1.11l-.16.09.09.26.14.32.06.16-.07,0-.31-.17-.26-.28-.23-.35a1.55,1.55,0,0,0-.72-.62l-.43-.23L34.71,35l-.09.09.06.19.19.36-.1.1c-.13,0-.42-.28-.67-.65a1.82,1.82,0,0,1-.32-1,1.28,1.28,0,0,1,1.31-1.32,2.74,2.74,0,0,1,1.33.44l.83.51a2.17,2.17,0,0,0,1,.32l.51-.09.22-.09.08-.09L39,33.71l-.1,0-.39-.07L38,33.42a8.91,8.91,0,0,1-.89-.44,3.05,3.05,0,0,0-.58-.33l-.23-.17.08-.08.18.07.66.25L38,33a4.81,4.81,0,0,0,1.18.25.58.58,0,0,0,.58-.59l-.31-.77-.12-.09-.11.14,0,.14,0,.21-.35.41-.28,0-1.15-.37a6,6,0,0,0-1.89-.41A2.28,2.28,0,0,0,33.16,34c0,1.4,1,2.31,3.43,3.15s2.75,1,2.75,1.65a.75.75,0,0,1-.77.67l-.42,0L37,39.19a9.21,9.21,0,0,0-2.2-.25,4.54,4.54,0,0,0-3.54,1.12l-.51.23h-.12l-.25,0h0l-.5.32-.3.48-.2.1c-.16,0-.26-.12-.44-.54l-.37-.54-.35-.32-.09-.13.07-.17.25-.46.15-.24c.11,0,.14.11.15.51l.14.48.2.42.16.09c.18,0,.41-.43.47-.88s.09-.5.17-.5l.08,0,.16.31.23.27.21.13h0c.14,0,.19-.1.23-.43l0-.18,0-.25,0-.17.11-.18.13.07.18.18.35.18.24-.16-.17-.41-.12-.23c-.14-.27-.25-.37-.39-.37h-.18l-.21.09-.11,0-.08-.06a1.62,1.62,0,0,1,.3-.73A3.36,3.36,0,0,0,31,35.65c.06-.92.18-1.52.31-1.52l.12.27v.42l.08.29c.15,0,.33-.22.47-.59l.09-.36,0-.08-.35-.66-.35-.1-.13-.08v-.43l0-.22-.07-.17-.09-.2a2,2,0,0,0-.71.53l-.28.26-.09-.1.05-.28v-.1a1.22,1.22,0,0,0-.61-1l-.11.14-.12.18L29,32.1l-.18.35,0,.2v.1l-.08.18-.05,0-.12-.18-.2-.21-.3-.19-.16-.13-.07.16-.08.29,0,.28,0,.3v.05l-.13.22-.21-.09-.25-.08a.44.44,0,0,0-.45.49,1.53,1.53,0,0,0,.28.93l.23.3.18.11.05-.37-.05-.3,0-.14.11-.18c.1,0,.16.11.22.4l.14.66.15.83.21.71a4,4,0,0,0,.3.62l.22.34-.08.08-.16-.05-.21-.07-.14,0c-.28,0-.34.24-.34,1.42a7.11,7.11,0,0,0,.34,2.17l.37.94.09.44c0,1.29-1.71,3.31-3.59,4.25a1.45,1.45,0,0,0-1,1.45l0,.23a2.26,2.26,0,0,1,.6-.25c.53-.14.63-.2.71-.46l.07-.23c0-.09.07-.12.48-.34l.28-.22.21-.23.07,0,0,.07-.17.5,0,.13a1,1,0,0,0,.59.87,1.6,1.6,0,0,1,.23-.74l.32-.5a1.28,1.28,0,0,0,.17-.75l-.05-.56v-.14l.13-.14.11,0,.08.34.17.12c.17,0,.39-.22.62-.61l.13-.47,0-.24-.06-.27v0l.16-.19.07,0,.11.41.23.23.44-.45a1.53,1.53,0,0,0,.16-.72c0-.38,0-.48.18-.48l.09,0,.07.23.12.14.41-.44.05-.17-.16-.24-.19-.41a1,1,0,0,1,.19-.62l.23-.42c.23-.44.31-.55.39-.55l.13.15,0,.15-.07.21.13.13.31-.11a4.23,4.23,0,0,1,.5-.19l.58-.21L33,41l.31,0,.41.07.3-.3-.28-.53-.09-.17,0-.07.09-.07c.12,0,.4.3.65.7,1.52,2.39,2.07,3,3.1,3.29s1.31.56,1.31,1.17a2.32,2.32,0,0,1-.55,1.27,3.44,3.44,0,0,0-1,2.22v.13l.2-.09.28-.12.44-.09.25-.36v0l0-.39v0l.17-.37.09,0,.14.11.28.6c.11.25.25.36.62.53"/><path class="cls-3" d="M25.44,35.57l-.21.35,0,.33a2.91,2.91,0,0,0,0,.43l.17.44.38-.46.08-.41-.08-.4Z"/><path class="cls-3" d="M24,33l.25.25a2.79,2.79,0,0,1,.6,2c0,.21,0,.35,0,.92a7.06,7.06,0,0,0,0,.73c0,2.19.71,3.85,1.66,3.85.29,0,.49-.14.76-.57l.16-.13.09.15,0,.39,0,.33,0,.38.05.33v0l-.12.16-.32.06-.5.19a1.38,1.38,0,0,0-.45.36l-.2.41-.11.08c-.1,0-.27-.18-.46-.49a1.74,1.74,0,0,1-.26-.58l.16-.08h0l.23,0,.14,0h.16l.11-.13-.07-.1-.8-.34a1.29,1.29,0,0,1-.6-.58,2.42,2.42,0,0,1-.32-.8l.14-.18.13,0,.22.07.13-.11-.14-.19a2.14,2.14,0,0,1-1.05-1.52l.11-.2.13,0,.23,0h0l.15-.13-.15-.17-.28-.16-.25-.24-.3-.57L23,36l-.16-.3-.1-.14.55-.14c.24,0,.39.15.57.58.1.27.22.46.29.46l0-.21-.07-.53-.05-.39,0-.25-.21-.1-.16-.18-.14-.4.05-.32A4.86,4.86,0,0,0,23.82,33v-.15Z"/><path class="cls-3" d="M26.1,45.74l-.51-.13-.34-.14a1.81,1.81,0,0,0-.67-.18,1.05,1.05,0,0,0-.74.31l.16.12.35.25.34.26.29.11a1.64,1.64,0,0,0,1.12-.6"/><path class="cls-3" d="M32.91,49l.36-.46c.49-.43.72-.74.72-1v-.39l.16-.3.11,0,.09.21.15.08.25-.2.18-.25.13-.34,0-.21-.12-.28-.08-.28.16-.18.13,0,.14.18.13.06.19-.15.14-.28,0-.16L35.6,45l-.23-.11a1.28,1.28,0,0,1-.53-1.13l0-.19.12-.3,0-.29-.17-.55L34.65,42c-.11-.28-.16-.36-.25-.36l-.09,0-.12.07-.2.1-.23.29-.24.12-.29.65c0,.46.05.59.66,1.63a2.32,2.32,0,0,1,.36,1c0,.73-.65,1.25-2,1.56l-.81.19a1.42,1.42,0,0,0-1.08,1.26,1.32,1.32,0,0,1,.79-.15h.3l.42-.23.58-.5.28-.12.23-.13.07,0,.1.08-.17.3a.92.92,0,0,0-.28.68Z"/><path class="cls-3" d="M30.68,46.22l.54.47.36.25.25,0,.16,0c.3-.06.39-.1.39-.17l-.09-.15-.19-.18-.19-.17-.59-.2a1.1,1.1,0,0,0-.64.22"/><path class="cls-3" d="M36.42,47.17l.1,0h.4a.77.77,0,0,0,.77-.68l-.31-.19c-.48,0-.78.27-1,.88"/><path class="cls-7" d="M29.82,35l.19.3c.07,0,.16-.2.34-.51a3.13,3.13,0,0,0,.49-1.07l-.08-.13h0l-.2.17a1.51,1.51,0,0,1-.6.32l-.27.3,0,.14.09.25Z"/><path class="cls-7" d="M28.74,34l.3.15.13.18,0,.11v.37a.3.3,0,0,1-.35.32l-.17-.2-.38-.44a1.57,1.57,0,0,1-.27-.79v0l.11-.13.19.09Z"/><path class="cls-7" d="M29.43,35.88h-.3l-.22-.13-.25-.07-.26.22a2.53,2.53,0,0,0,.23.79l.23.57c.2.49.4.7.66.7s.26-.22.42-.61c.35-.89.55-1,.55-1.34l-.24-.27-.17,0-.28.18Z"/><polygon class="cls-3" points="29.69 36.33 29.41 36.38 29.18 36.38 29.09 36.43 29.06 36.52 29.14 36.94 29.22 37.32 29.48 37.6 29.78 37.26 29.82 36.87 29.85 36.47 29.8 36.36 29.71 36.32 29.69 36.33"/><path class="cls-2" d="M71,40.64l.07.27.14.56c.22,1,.41,1.28.9,1.28a.6.6,0,0,0,.59-.39l.1-.35.17-.13c.19,0,.3.21.31.64a8.58,8.58,0,0,0,.11.86,5,5,0,0,1,.07.82l-.11.51,0,.21a3.45,3.45,0,0,1,.07.65,2.11,2.11,0,0,1-.22,1.28,2.09,2.09,0,0,1,.1.64,5.28,5.28,0,0,1-.06.62l-.07.53,0,.32.07.21-.07.09-.36-.14-.38-.21-.41-.32a1.42,1.42,0,0,1-.8.44,3.28,3.28,0,0,0-.92.32l-.24.12c-.14,0-.24-.27-.24-.65A3,3,0,0,1,70,47.73a2.4,2.4,0,0,0-.65-.15l-.25,0H69l-.08-.17a2.16,2.16,0,0,1,.28-.81,1.63,1.63,0,0,1,.87-.78l.63-.12c.38-.08.61-.28.61-.54s-.17-.42-.55-.56L70,44.38,69.3,44l-.38-.23-.2-.05-.25.3a.53.53,0,0,0,.51.55l.18,0,.17,0,.14.19a2.25,2.25,0,0,1-.41,1.12l-.21.26-.16.21a2.37,2.37,0,0,1-1,1.4l-.19.14-.15.25-.35.43-.44.4-.36.32-.17.3-.14.09c-.16,0-.3-.16-.39-.44l-.26-.27L65,49l-.25,0H64.1a2.82,2.82,0,0,0-1,.18l-.18.05L62.79,49a3.22,3.22,0,0,1,1-2,.79.79,0,0,0-.48-.6L63,46.32l-.05-.08c0-.12.12-.23.4-.36a1.86,1.86,0,0,1,.93-.28,1.39,1.39,0,0,1,.93.37c.48.37.61.44.84.44a.76.76,0,0,0,.74-.71,1.64,1.64,0,0,0-.47-.94,2.26,2.26,0,0,1-.63-1.5,1.7,1.7,0,0,1,.37-1l.07-.19-.34-.19a1.88,1.88,0,0,0-.74.22c-.53.24-.85.47-.85.61l.09.15.18.12,0,.07-.08.14-.35.46a4,4,0,0,1-.74.78l-.18.18-.14.26a3,3,0,0,1-.76.8l-.25.19-.16.25a5.62,5.62,0,0,1-.65.92l-.48.5a3.64,3.64,0,0,0-.52,1.09c-.14.43-.23.62-.3.62l-.14-.1c-.34-.4-.65-.64-.8-.64l-.21.09-.47.18-.64.12a1.35,1.35,0,0,0-1,.53l-.14.12-.11-.21,0-.16s0-.17.09-.47a4.13,4.13,0,0,1,.35-1.16l.32-.54.09-.29c0-.41-.38-.74-1-.83l-.18-.13.36-.4a2.08,2.08,0,0,1,1.08-.46,2.34,2.34,0,0,1,.81.21l.39.16.39.09c.42,0,.82-.37,1.31-1.22a1.88,1.88,0,0,0,.32-.91c0-.45-.21-.72-.56-.72a1,1,0,0,0-.75.34l-.3.56v.28l-.15.2c-.13,0-.29-.13-.6-.49L58,42.78a2,2,0,0,1-.68-1.52,2.59,2.59,0,0,1-.74-1.63l0-.37A1.53,1.53,0,0,1,56,38l.1-.47a1.7,1.7,0,0,1-.33-.69l-.09-.38-.28-.65-.18-.33c0-.18.17-.3.62-.41l.14,0,0-.39.06-.43.12-.65.07-.58a1.62,1.62,0,0,0-.11-.55L56,32.06l-.11-.23.14-.11.18.06a6.79,6.79,0,0,1,1.72,1.36A2.68,2.68,0,0,1,58.5,35a1.5,1.5,0,0,1,.74,1.34,1.87,1.87,0,0,1-.35,1l-.36.55-.16.6a2.09,2.09,0,0,0,.34,1.05c.26.47.5.67.78.67.46,0,.88-.8.88-1.68v-.66l.06-.42,0-.51,0-.43,0-.24c0-.17,0-.22-.58-.8A2.64,2.64,0,0,1,59,33.77a.89.89,0,0,1,.9-.87l.38.06v-.21l0-.37.1-.46c.09-.37.13-.43.25-.43l.09,0,.32.29.39.24.1.11.23-.5.25-.33.18-.27.1-.16.15-.13.14.26.16.23.23.19a1.27,1.27,0,0,1,.38.73l.36-.32.28-.16.19-.09.08.11.14.26c.23.37.25.42.25.67V33a1,1,0,0,1,.8,1.1,2.39,2.39,0,0,1-.67,1.52c-.3.36-.35.47-.35.75,0,1.25.94,2,2.53,2h1.16a5.88,5.88,0,0,1,1.93.32,4.68,4.68,0,0,0,1.34.34l.33-.22c0-.26-.43-.46-1.86-.86-2.92-.82-4.16-2-4.16-3.94a2.72,2.72,0,0,1,2.86-2.64,6.07,6.07,0,0,1,1.76.3l.72.26.38.08c.25,0,.35-.16.38-.63l.22-.3c.19,0,.55.3.81.66A2.32,2.32,0,0,1,73.34,33a1,1,0,0,1-.62.9,1.73,1.73,0,0,1-1.54.88,5.92,5.92,0,0,1-2.44-1,1.57,1.57,0,0,0-.85-.32.46.46,0,0,0-.52.46c0,.26.19.42.71.6.84.3,1,.4,1.26.69A3.63,3.63,0,0,1,71.2,36c1.61.52,2.51,1.52,2.51,2.8a1.88,1.88,0,0,1-1.88,2,3.35,3.35,0,0,1-.86-.11"/><path class="cls-3" d="M72.72,48.39l0-.32,0-.24a5.24,5.24,0,0,0,0-.69l-.13-.36-.21-.28L72.21,46l.09-.14.08,0,.16.09.18.06c.11,0,.16-.17.16-.5a1,1,0,0,0-.35-.89l-.25-.2-.07-.14.13-.14.2,0,.2.05.07,0,.09-.15v-.07l-.06-.37c0-.38-.12-.53-.23-.53h0l-.46.09H72a1.63,1.63,0,0,1-1.37-1.11L70.33,41a2.38,2.38,0,0,0-.85-1.09l-.37-.19-.32,0-.09-.09.19-.11a5,5,0,0,1,1.57.3,3.82,3.82,0,0,0,1.18.26c.88,0,1.42-.46,1.42-1.23a2.38,2.38,0,0,0-.34-1.17,2.86,2.86,0,0,0-.83-.78l-.14,0-.09.09,0,.23v0l-.12.15L71.25,37a1.67,1.67,0,0,0-1.39-1.11l-.19.12.1.23.16.32,0,.15-.08.05-.3-.17-.27-.28-.23-.35a1.64,1.64,0,0,0-.7-.62l-.45-.23L67.72,35l-.09.08.08.2.17.35-.09.11c-.13,0-.35-.22-.66-.65a1.72,1.72,0,0,1-.34-1,1.31,1.31,0,0,1,1.32-1.32,2.67,2.67,0,0,1,1.32.44l.85.51a2.09,2.09,0,0,0,1,.32,1.7,1.7,0,0,0,.5-.09l.23-.09.06-.1-.15-.11A5,5,0,0,1,70.14,33a3.41,3.41,0,0,0-.59-.33l-.24-.19.08,0h.1l.77.29L71,33a4.7,4.7,0,0,0,1.19.25.54.54,0,0,0,.57-.57l-.11-.49-.31-.39-.11.19v.09l0,.23-.33.39-.29,0-1.15-.37a5.53,5.53,0,0,0-1.88-.41A2.27,2.27,0,0,0,66.17,34c0,1.41,1,2.29,3.45,3.15s2.73,1,2.73,1.66a.71.71,0,0,1-.77.66l-.42,0L70,39.19a8.62,8.62,0,0,0-2.2-.25,4.4,4.4,0,0,0-3.51,1.12l-.54.23h-.12l-.28,0-.5.32-.28.48-.2.1c-.19,0-.28-.12-.46-.54l-.35-.54-.37-.32-.09-.13.09-.17.16-.24L61.4,39v-.16l.13-.08c.12,0,.14.08.14.51l.14.48.2.42.16.09c.18,0,.41-.43.47-.88s.09-.5.17-.5.11,0,.26.35l.21.27.21.13h0c.15,0,.2-.1.23-.43l0-.18,0-.25,0-.17.1-.18.14.07.17.18.36.18.24-.18-.17-.39-.13-.23c-.15-.3-.23-.37-.37-.37h-.18l-.23.09-.14,0,0-.07a1.56,1.56,0,0,1,.3-.72,4.11,4.11,0,0,0,.3-1.39l.09-.83c0-.51.11-.69.21-.69l.07,0,.06.26v.22l.06.46.29-.24.18-.35.09-.46c0-.41-.18-.59-.73-.74l-.11-.06v-.45l0-.22-.07-.17-.09-.2-.14.09a2,2,0,0,0-.57.44l-.28.26L63,32.93l.07-.3v-.06a1.32,1.32,0,0,0-.61-1l-.12.14-.13.18L62,32.1l-.2.52v.12l-.09.19,0,0-.14-.18-.18-.21L61,32.33l-.16-.13a1.49,1.49,0,0,0-.18.89v.15l-.14.26-.21-.09-.27-.08a.47.47,0,0,0-.44.52,1.55,1.55,0,0,0,.28.9l.41.42,0-.38,0-.3v-.14l.1-.18c.1,0,.16.11.23.4l.14.66.14.83.21.71a4,4,0,0,0,.3.62l.22.34-.08.08-.16-.05-.21-.07-.13,0c-.29,0-.35.23-.35,1.41a7.12,7.12,0,0,0,.34,2.18l.37.94.09.44c0,1.29-1.75,3.36-3.59,4.25-.72.34-.93.7-1,1.68a3,3,0,0,1,.62-.25c.52-.14.63-.22.7-.46l.08-.23c0-.1.09-.15.46-.34l.28-.22.21-.23.08.09v0l-.19.5,0,.13a1,1,0,0,0,.58.87l.06-.21a2,2,0,0,1,.17-.53l.34-.5c.12-.18.15-.29.15-.75l0-.56,0-.14.13-.14.11,0,.06.34.17.12c.17,0,.39-.21.62-.61l.13-.43-.06-.55v-.1l.13-.14.09,0,.12.41.23.23c.27,0,.56-.56.58-1.15,0-.38.07-.51.18-.51l.09,0,.07.23.13.14.24-.21.16-.23,0-.19-.16-.22-.19-.37a2.26,2.26,0,0,1,.43-1.08c.28-.5.32-.56.39-.56l.12.16,0,.15-.07.21.14.13.32-.11.48-.19.6-.21L66,41l.31,0,.41.07.29-.28-.11-.31-.16-.24-.11-.16,0-.08.1-.07c.14,0,.41.29.66.7,1.39,2.26,2.06,3,3.08,3.29s1.31.54,1.31,1.18a2.37,2.37,0,0,1-.55,1.26,3.68,3.68,0,0,0-1,2.21v.14l.2-.09.28-.12.44-.09.25-.37v0l0-.39v-.06l.24-.4.14.11.28.6a1,1,0,0,0,.62.53"/><path class="cls-3" d="M58.21,36.25l0,.29v.17c0,.29,0,.41.15.41l.39-.46.09-.48-.09-.33-.26-.29c-.16,0-.23.2-.26.69"/><path class="cls-3" d="M57,33l.25.25A2.75,2.75,0,0,1,57.85,35v.29l-.05.84,0,.69c0,2.31.67,3.89,1.66,3.89a1,1,0,0,0,.76-.57l.15-.13.09.15,0,.39,0,.33.06.38.05.34c0,.18,0,.2-.46.26l-.49.19a1.52,1.52,0,0,0-.46.36l-.2.41-.11.08c-.11,0-.24-.15-.44-.49a1.64,1.64,0,0,1-.26-.58l.16-.08h0l.21,0,.16,0h.15l.1-.14-.07-.09-.8-.34a1.51,1.51,0,0,1-.58-.58,1.86,1.86,0,0,1-.32-.78l.14-.2.13,0,.2.07.1,0,.05-.08-.14-.18A2.16,2.16,0,0,1,56.64,38l.1-.2h.13l.25,0,.16-.13-.16-.17c-.45-.22-.55-.34-.84-1a3.66,3.66,0,0,0-.51-.92l.55-.14c.24,0,.4.15.57.58.1.27.22.46.29.46l0-.21-.07-.53,0-.39,0-.25-.19-.1-.3-.58,0-.32.11-.41a3.24,3.24,0,0,0,.12-.75v-.15Z"/><path class="cls-3" d="M59.11,45.74a2.63,2.63,0,0,1-.84-.27,1.6,1.6,0,0,0-.67-.18,1.08,1.08,0,0,0-.75.31l.16.12.35.25.34.26.3.11a1.64,1.64,0,0,0,1.11-.6"/><path class="cls-3" d="M65.93,49l.35-.46c.5-.43.72-.74.72-1v-.39l.16-.3.11,0,.09.21.15.08c.13,0,.22-.09.43-.45l.13-.35,0-.2-.12-.28-.07-.28.15-.18.13,0,.14.18.09.06.23-.15.14-.28.06-.16L68.63,45l-.24-.11a1.25,1.25,0,0,1-.54-1.09l.06-.23.11-.3,0-.3-.18-.54L67.68,42c-.11-.26-.16-.35-.25-.35l-.23.09-.18.1-.24.29-.25.12a.86.86,0,0,0-.29.66c0,.38.08.59.66,1.62a2.32,2.32,0,0,1,.36,1c0,.72-.74,1.31-1.94,1.56-1.43.29-1.74.53-1.91,1.45a1.32,1.32,0,0,1,.79-.15h.3l.42-.23.58-.5.28-.12.23-.13.08,0,.09.08-.17.3-.27.58Z"/><path class="cls-3" d="M63.7,46.22l.53.47.36.25.26,0,.16,0c.3-.06.39-.1.39-.18l-.08-.14-.21-.18-.19-.17-.56-.2a1.18,1.18,0,0,0-.66.22"/><path class="cls-3" d="M69.43,47.17l.1,0H70l.35-.08.33-.41.07-.19-.3-.19c-.49,0-.78.27-1,.88"/><path class="cls-7" d="M62.83,35l.19.3c.08,0,.2-.26.38-.57a2.76,2.76,0,0,0,.46-1l-.09-.13h0l-.19.18L63,34l-.29.3,0,.15.14.3Z"/><path class="cls-7" d="M61.27,33.64l-.19-.09-.11.12v.06L61,34a1.29,1.29,0,0,0,.24.49l.26.45.39.24h0l.09-.07.06-.35.09-.32v-.08l-.14-.2-.3-.16Z"/><path class="cls-7" d="M62.44,35.88h-.3l-.21-.13-.25-.07-.26.27a2.63,2.63,0,0,0,.22.74l.24.57c.19.49.39.7.66.7s.41-.19.55-.56l.2-.8.33-.52-.42-.4-.11,0-.26.18Z"/><polygon class="cls-3" points="62.71 36.33 62.42 36.38 62.21 36.38 62.12 36.43 62.07 36.52 62.16 36.94 62.23 37.32 62.45 37.6 62.8 37.26 62.83 36.87 62.87 36.47 62.81 36.36 62.72 36.32 62.71 36.33"/><path class="cls-2" d="M38.29,74a2.54,2.54,0,0,1,.23.84l0,.74c0,.74.27,1.11.74,1.11l.39-.12.19-.19.08,0,.19.23,0,.29a4.5,4.5,0,0,0,.07.81l.06.72a1.91,1.91,0,0,1-.16.86,3.45,3.45,0,0,1,.19,1.07,1.44,1.44,0,0,1-.21.86,2.39,2.39,0,0,1,.09.6,5.08,5.08,0,0,1-.07.67,3.16,3.16,0,0,0-.07.85v.05l-.11.16-.21-.14-.26-.19c-.12,0-.16.07-.34.6a2.43,2.43,0,0,1-.43.65l-.32.52-.1.37-.11.09h0c-.29,0-.63-.63-1-1.81-.1-.33-.22-.48-.4-.48l-.31.2-.1.25-.1.07c-.14,0-.35-.26-.49-.59a2.22,2.22,0,0,1-.17-.81c0-.56.41-1,1.64-1.66A1.38,1.38,0,0,0,38,79.25,1.34,1.34,0,0,0,37.34,78a1.39,1.39,0,0,0-.79-.39l-.3.25.33.35c.27.09.39.19.39.31a1.74,1.74,0,0,1-.3.64,1.7,1.7,0,0,1-.57.59,1.61,1.61,0,0,1-.85,1.15,2,2,0,0,1-.35.65l-.38.48-.26.55c0,.27-.07.32-.17.32s-.43-.25-.72-.62l-.23-.59a.88.88,0,0,1-.6.22l-.48.12a1.39,1.39,0,0,1-.4.18l-.11-.16,0-.39a2.77,2.77,0,0,1,.53-1.58,1.74,1.74,0,0,0-.86-.46l-.13-.06.16-.33.32-.35a1.79,1.79,0,0,1,1-.37,3.07,3.07,0,0,1,1,.25l.42.09.3-.35a4.86,4.86,0,0,0-.51-1.64,3.23,3.23,0,0,1-.35-1.16,1.72,1.72,0,0,1,.65-1.44l-.39-.1-.55.17-.41.38.15.16.16.26a2,2,0,0,1-.87,1.4,1.55,1.55,0,0,1-1,1.25,1.7,1.7,0,0,1-.39.82,3,3,0,0,0-.65,1.22l-.15.27-.4-.31-.28-.33a1.57,1.57,0,0,1-.2-.57l-.25,0h-.44a2.22,2.22,0,0,0-1,.22l-.15.07c-.11,0-.2-.24-.2-.54A2.77,2.77,0,0,1,27.7,77l-.34-.32-.14-.13-.2-.1-.1-.12c0-.09.25-.34.56-.54a1.61,1.61,0,0,1,.86-.32c.29,0,.44.08.8.39l.55.32.25-.16.09-.26a1.87,1.87,0,0,0-.85-1.2,1.92,1.92,0,0,0-1.05-.34,1.18,1.18,0,0,0-1.11.64l-.19.4-.17.15c-.11,0-.17,0-.57-.52l-.46-.53-.29-.46-.09-.23-.17-.14A2.25,2.25,0,0,1,24.32,72l-.06-.23A2.94,2.94,0,0,1,23.57,70l0-.24c-.25-.25-.28-.31-.48-1a2.41,2.41,0,0,0-.41-.92l-.07-.14.41-.21.36,0,.35,0,0-.48a3.46,3.46,0,0,1,.09-.81l.05-.37,0-.31-.06-.26,0-.15.1-.09.23.08a4.21,4.21,0,0,1,.76.46A2.7,2.7,0,0,1,26,67.24v.14l0,.26.12.28.2.27.28.69c0,.17,0,.24-.32.65a1.38,1.38,0,0,0-.3.79,2.36,2.36,0,0,0,.36,1.12c.2.37.44.57.67.57.4,0,.57-.35.63-1.29,0-.49.08-.94.15-1.34v-.25l-.17-.34L27,68.17c-.5-.59-.65-.89-.65-1.32a.77.77,0,0,1,.78-.82l.21,0v-.14l.09-.48c.11-.38.25-.67.32-.67l.18.09.31.12.36.18a1.38,1.38,0,0,1,.28-.62c.23-.3.49-.53.58-.53l.29.21.33.35.2.34.07.16.21-.13.28-.16.34-.15.18-.1c.06,0,.1.11.23.7a3.81,3.81,0,0,1,.12.78.88.88,0,0,1,.83,1,2.67,2.67,0,0,1-.88,1.78l-.21.43c0,1.56.55,2,2.51,2.26a12.37,12.37,0,0,1,3,.64,6.42,6.42,0,0,0,1.48.32c.34,0,.53-.12.53-.34s-.24-.43-1.65-.73c-3.28-.69-4.57-1.81-4.57-4a2.64,2.64,0,0,1,2.7-2.7,4.33,4.33,0,0,1,2.24.76c.89.52,1.08.61,1.28.61s.33-.16.33-.54l.23-.37.55.37a1.31,1.31,0,0,1,.41,1,1.2,1.2,0,0,1-1,1.24l-.16.18a1.44,1.44,0,0,1-1.26.55A2.91,2.91,0,0,1,36.49,68l-.85-.6a1.59,1.59,0,0,0-.89-.37.53.53,0,0,0-.58.58.8.8,0,0,0,.62.77l.8.24a4.84,4.84,0,0,1,.76.32l.39,0a3.36,3.36,0,0,1,1.5.37l.32.14.44.12A2.72,2.72,0,0,1,40.82,72a1.92,1.92,0,0,1-2.12,2Z"/><path class="cls-3" d="M38,84.56l.11-.22.25-.26a1.39,1.39,0,0,0,.32-.92l-.1-.57-.07-.31.17-.22.14.09.26.3.43.26v-.24l0-.29a2,2,0,0,0-.39-1.2l-.2-.35L39,80.5l.08,0,.3.18.16-.45a1.67,1.67,0,0,0-.36-1L39,79l0-.1.15-.13.22.09.13.05c.14,0,.19-.2.19-.72V78l0-.32c0-.37-.06-.44-.22-.44h-.14c-.86,0-1.26-.55-1.48-2-.16-1.06-.56-1.82-1-2-.29-.1-.39-.16-.39-.24l.17-.09.33.08a4.84,4.84,0,0,0,1.82.43A1.45,1.45,0,0,0,40.19,72a2.39,2.39,0,0,0-.8-1.71L39,70h0l-.09,0,0,.25.07.18,0,.08-.09.06-.13-.07-.31-.48a1.73,1.73,0,0,0-1.22-.69l-.24.17.11.2.16.29,0,.07-.07.07h0c-.08,0-.12,0-.51-.48a2.26,2.26,0,0,0-1.3-.71l-.13.06,0,.07.13.19.19.27-.1.07c-.1,0-.32-.15-.75-.48a2,2,0,0,1-1-1.57,1.15,1.15,0,0,1,1.11-1.22,2.2,2.2,0,0,1,1.19.42l.86.66a2.33,2.33,0,0,0,1.4.46l.3-.07.13-.12-.16-.08a1.86,1.86,0,0,1-.75-.32l-.88-.67a6.63,6.63,0,0,0-.69-.48c-.47-.24-.56-.3-.56-.35l.1-.06.16,0,.46.2a5.35,5.35,0,0,1,.74.44,3.52,3.52,0,0,0,2,.83.88.88,0,0,0,.92-.88l-.08-.31-.09-.17-.1-.09-.05.07-.06.37-.05.13-.13.17-.32.13c-.27,0-.58-.15-1.41-.68a4.4,4.4,0,0,0-2.19-.81,2.29,2.29,0,0,0-2.3,2.3c0,1.77,1.08,2.57,4.47,3.31,1.29.28,1.86.66,1.86,1.23s-.42.86-1.09.86l-.48,0c-.12,0-.73-.19-1.83-.5A9.2,9.2,0,0,0,33.77,72a3.19,3.19,0,0,0-2.84,1.25l-.19.16-.14-.07-.25-.19-.64-.24-.37.15-.18.12c-.1,0-.28-.22-.42-.51a2.79,2.79,0,0,1-.3-1.2l.13-.3.13.14.15.51c.07.29.23.51.36.51l.25-.21.15-.25c.11-.32.13-.37.22-.37s.16.07.23.39l.11.3.21.32.19.09c.15,0,.3-.26.3-.54V72l0-.33.09-.16.12.08.31.25.25.09.17-.09.07-.14-.25-.32a2.17,2.17,0,0,1-.35-.7l-.17-.24-.11,0-.23.09-.16.07h-.06l-.14-.12.36-.42.23-.48c0-.3.06-.53.12-.53l.06-.62a6,6,0,0,1,.26-1.22l.05-.11.11.28v.27l.1.34.25-.3.15-.41.08-.33a.53.53,0,0,0-.5-.59l-.12,0-.11,0-.19-.22v-.61l-.07-.37,0-.18-.16.09-.2.16-.28.23-.23.19-.13.06c-.14,0-.15,0-.15-.31v-.07c0-.23-.1-.4-.46-.83l-.09-.1-.07.12-.2.32-.19.5,0,.31-.08.17-.16-.13a1.34,1.34,0,0,0-.77-.51l0,.12-.11.37v.59l-.1.16h0l-.11-.09-.21-.06c-.33,0-.54.18-.54.47s.07.36.4.86l.38.4.08-.26,0-.21-.05-.27.09-.15c.16,0,.32.46.39,1.09l.07.66.21.71a1.87,1.87,0,0,0,.46.65l.28.3-.1.11-.36-.13-.14,0c-.36,0-.48.2-.48.81A3.38,3.38,0,0,0,29,73.64l.81.65a1.9,1.9,0,0,1,.73,1.28c0,.51-.57,1-1.54,1.38l-.58.21c-.46.16-.64.46-.82,1.31l.49-.09h.34l.41-.35v-.16l.16-.16.25-.12.19-.16.1,0,.1.11,0,.16-.09.61a1.46,1.46,0,0,0,.29,1l.05-.23.3-.47a2.32,2.32,0,0,0,.46-1.08v-.07l0-.41.08-.2.13,0,.18.18.12.16.26-.36.09-.37-.05-.23-.06-.2.08-.12.09,0,.1,0,.16.11.14.06.25-.2.25-.51-.12-.15a1.24,1.24,0,0,1-.59-.94l.05-.26.18-.48.14-.37.05,0,.1.14,0,.2-.07.34.18.19.3-.07a3.52,3.52,0,0,1,1.21-.35l.64.23.17.07.1-.07,0-.09-.1-.23-.13-.25.1-.09c.28,0,.71.87,1.13,2.27.32,1.1.41,1.21,1.46,1.8A1.91,1.91,0,0,1,38.44,79a10.22,10.22,0,0,1-.68,3.15,3.11,3.11,0,0,0-.21.94,2.94,2.94,0,0,0,.18.84l.12.41Z"/><path class="cls-3" d="M33.89,82.08a3.14,3.14,0,0,1,.33-.61,1.67,1.67,0,0,0,.39-.86v-.28c0-.27,0-.39.16-.39l.09,0,.09.14.12.07.2-.15.21-.63,0-.19,0-.2.15-.15.15.15.14.15.15-.11.14-.21.11-.16,0-.09-.13-.16a1.46,1.46,0,0,1-.5-1.26,5.1,5.1,0,0,0-.08-1l-.32-.76-.22-.64-.22-.21a.88.88,0,0,0-.84,1A4.31,4.31,0,0,0,34.37,77a4.47,4.47,0,0,1,.43,1.47c0,.65-.26.93-1.16,1.25A2.21,2.21,0,0,0,32,81.55l.17-.08.25-.08.28-.07.48-.34.07-.25.11-.12.16-.07.16-.07,0,.07-.07.23,0,.41a1.23,1.23,0,0,0,.3.9"/><path class="cls-3" d="M24.39,65.71l0,.2-.07.46,0,.36a3.18,3.18,0,0,0,.15.93l.12.4v.08l-.07.12-.18-.11-.65-.26-.3,0,.09.2.26.65.37.57.39.27.11.1,0,.12-.07.06-.35,0-.1.07a2.67,2.67,0,0,0,.15.53l.18.51.3.28.32.23.15.2-.07.1-.17,0L24.9,72a1.49,1.49,0,0,0,.35.69c.28.38.47.5.78.5h.27l.2.16-.17.16-.32.21.09.19.14.2.34.27.26-.17.57-.38c.61-.16.75-.22.75-.37l-.08-.2a1.68,1.68,0,0,1-.26-.87L27.68,72l-.14.14-.62.38c-.62,0-1.35-1-1.72-2.23a3.83,3.83,0,0,1-.13-1,5.29,5.29,0,0,1,.13-1.08c.12-.52.18-.81.19-.87l0-.24a2.12,2.12,0,0,0-1-1.44"/><path class="cls-3" d="M25.66,68.17a3.14,3.14,0,0,0-.25,1.15l.16.37.09-.08.2-.36L26,69l.12-.26Z"/><path class="cls-3" d="M27.61,76.15l.08.09.15.14c.34.36.39.39.56.39l.66-.18.12-.12L29,76.28l-.19-.18-.47-.26a1.33,1.33,0,0,0-.73.31"/><path class="cls-3" d="M31.71,79.35l.36.18.28.18.28,0,.21,0,.38-.14.35-.13.16-.14-.2-.09-.26-.09c-.44-.17-.5-.2-.66-.2a1.2,1.2,0,0,0-.9.43"/><path class="cls-3" d="M36.19,82.91c.11-.28.2-.33.6-.35s.88-.84.88-1.39l0-.11-.12.06-.26.16-.51.23a1.19,1.19,0,0,0-.65,1Z"/><path class="cls-7" d="M28.55,67.53l.17.25.38.28.12-.15.07-.27,0-.3c0-.23-.11-.32-.59-.44l-.25-.09-.21-.11-.07,0,0,.08.09.26Z"/><polygon class="cls-7" points="30.84 66.7 30.56 66.9 30.21 67 29.87 67.25 29.91 67.6 30.1 68.04 30.12 68.04 30.21 67.94 30.44 67.53 30.83 67.11 30.95 66.81 30.95 66.78 30.88 66.7 30.84 66.7"/><path class="cls-7" d="M30,68.74l.28-.14.14,0,.24.29a2.29,2.29,0,0,1-.38.86c-.23.42-.41.71-.59.71s-.62-.41-1-1.08l-.13-.49.28-.34.21,0,.16.11.45.14Z"/><path class="cls-3" d="M29.57,69.16l-.2,0h0l-.17.19.32.76.13.08c.12,0,.2-.22.26-.57l.05-.27v0l-.13-.14h0"/><path class="cls-2" d="M69.08,73.78a1.51,1.51,0,0,0,1.09.67l.48-.07.23,0,.13.11-.09.33-.11.32-.07.37-.18.32-.25.23-.07.07v.24a1,1,0,0,1-.47.91l-.13.09,0,.14a4.5,4.5,0,0,1-.18.62l-.34.49a3.35,3.35,0,0,0-.44.73l-.24.23L68,79.07l-.09.11-.21.14-.34.23-.28.21-.19.19-.1.06c-.09,0-.19-.15-.27-.45L66.37,79l-.07-.57a1.27,1.27,0,0,1,.12-.63,2.34,2.34,0,0,0-.64.12l-.15,0-.09-.11.07-.26.23-.6a1.49,1.49,0,0,1,1.21-.9l.45.1.27,0,.37-.33L68,75.66s-.25-.08-.64-.2a1.47,1.47,0,0,1-.78-.58c-.24-.28-.34-.36-.42-.36l-.11.12,0,.24V75a3.15,3.15,0,0,1-.5,1.6l-.49.9a2.19,2.19,0,0,0-.34,1.08c0,.36.15.68.35.73l.27.07.09,0,0,.11-.09.16-.32.41a1.5,1.5,0,0,1-.86.65,1.75,1.75,0,0,1-1.19,1L63,81.9a1.45,1.45,0,0,1-1,.71h-.07a1.37,1.37,0,0,1-.62.9l-.41.3-.08.16-.26.25c-.19,0-.34-.18-.45-.51l-.16.1-.34.23a4.07,4.07,0,0,1-.62.18,1.62,1.62,0,0,0-.9.44l-.16.27-.07,0-.23-.28a4.26,4.26,0,0,1-.16-1A2.16,2.16,0,0,1,58.32,82v-.16a1.65,1.65,0,0,1,1.84-1.63h.18l.6,0H61a1.52,1.52,0,0,0,1-.39c.43-.36.55-.58.55-1a2.47,2.47,0,0,0-.17-.71,3.24,3.24,0,0,1-.13-.84,2.9,2.9,0,0,1,1.27-2.14l.33-.4,0-.07-.23.14-.43.26-.28.14-.32.13-.14.16,0,.16,0,.13-.09.2-.24.41a1.5,1.5,0,0,1-.73.71c-.2.58-.48.88-.9.94a1.39,1.39,0,0,1-1.22,1,2.08,2.08,0,0,1-.53.81l-.23.29-.22.26-.4-.26L57.7,80l-.16-.28-.17-.13h-.11l-.39.06-.71.41-.21.31-.09.06c-.16,0-.25-.35-.25-.93a1.77,1.77,0,0,1,.25-1.09l.5-.69.1-.27-.09-.23L56.09,77l-.37,0-.1-.06.06-.12.45-.39a1.87,1.87,0,0,1,1-.37,1.76,1.76,0,0,1,.92.3l.51.34.25.07c.24,0,.42-.14.59-.46a1.74,1.74,0,0,0,.23-.82,1.1,1.1,0,0,0-1.14-1.14,1.54,1.54,0,0,0-.92.35l-.17.19-.14.32-.13.13c-.09,0-.29-.26-.46-.59L56.44,74a3,3,0,0,1-.15-.88l0-.48A1.82,1.82,0,0,1,56.13,71a1.31,1.31,0,0,1-.2-.79L56,70l0-.25,0-.21a2.54,2.54,0,0,1-.39-1.15,2.88,2.88,0,0,0-.23-.75l-.06-.1c0-.1.25-.2.53-.2l.25,0L56.07,67l.13-.7a1.38,1.38,0,0,0,.11-.43l-.08-.54-.14-.36,0-.18.08,0a3,3,0,0,1,1.53.87,1.89,1.89,0,0,1,.69,1.61l0,.39A1.57,1.57,0,0,1,59,68.72a.9.9,0,0,1-.36.72,1.56,1.56,0,0,0-.58,1.34c0,.94.28,1.44.8,1.44s.81-.49.86-1.22l.06-.67.09-.64,0-.46c0-.24-.16-.54-.62-1.08a1.92,1.92,0,0,1-.66-1.34.89.89,0,0,1,.88-1l.35.1a1.63,1.63,0,0,1,.19-.8c.14-.34.28-.58.35-.58l.11.07.23.19.18.13.16.16a1.62,1.62,0,0,1,.55-.9l.38-.32.13.09.21.28.3.34a.83.83,0,0,1,.21.54l.18-.1.28-.16.22-.14.11-.06.08.13.11.4.23.47.09.45v.11h.12c.35,0,.65.41.65.88A2.56,2.56,0,0,1,63.79,69l-.08.47c0,1.41.37,1.7,2.53,2a13.43,13.43,0,0,1,1.45.31l1.4.46a3.5,3.5,0,0,0,1,.23l.41-.22c0-.24-.35-.46-1.44-.88l-1.54-.6a3.05,3.05,0,0,1-2.3-3A2.8,2.8,0,0,1,68.14,65a6.06,6.06,0,0,1,2.09.44,5.33,5.33,0,0,0,1.29.43c.22,0,.34-.15.37-.46s.1-.38.24-.38.46.21.63.54a2.15,2.15,0,0,1,.23.91,1,1,0,0,1-.87,1.08,1.72,1.72,0,0,1-1.43.74c-.7,0-1-.14-2.25-.89a1.54,1.54,0,0,0-.93-.34.67.67,0,0,0-.74.62c0,.32.27.53.85.69a.92.92,0,0,1,.59.3l.29,0a3.14,3.14,0,0,1,1.89.82,3,3,0,0,1,2,2.5,2.1,2.1,0,0,1-2,2.07,6.8,6.8,0,0,1-1.36-.22"/><path class="cls-3" d="M68.44,78.68l.07-.19.07-.25.19-.3a1.42,1.42,0,0,0,.28-.88l-.1-.34,0-.17,0-.08.07,0h0l.18.12.18.14.21-.33,0-.18-.15-.5-.06-.18.1-.11.24.15.13.07c.11,0,.19-.11.27-.39l.08-.27-.07-.09H70.1l-.21,0a1.48,1.48,0,0,1-1-.48l-.5-.6-.46-.59L67.55,73l-.1-.15.17-.11a4.72,4.72,0,0,1,.91.33,5.4,5.4,0,0,0,1.79.39,1.53,1.53,0,0,0,1.54-1.51,2.22,2.22,0,0,0-.7-1.46l-.32-.22-.1.1.05.2,0,.17-.09.12c-.11,0-.23-.18-.32-.5a1.45,1.45,0,0,0-.88-.9l-.56-.2-.06.08.07.21.14.34h0L69,70c-.11,0-.14,0-.4-.43a2.09,2.09,0,0,0-.79-.6l-.3-.07h0l-.12.07.08.16,0,.1-.08.1a1.87,1.87,0,0,1-.7-.57,1.77,1.77,0,0,1-.46-1.06,1.37,1.37,0,0,1,1.37-1.28l.45.09.62.32.73.48a2.92,2.92,0,0,0,1.33.48,2,2,0,0,0,.56-.11l.28-.18h0l-.06,0-.39,0a3.76,3.76,0,0,1-1.09-.5l-.82-.53-.72-.3L68.44,66l.08-.07.2,0,.67.2a5.13,5.13,0,0,1,.82.37,3.83,3.83,0,0,0,1.57.57.67.67,0,0,0,.71-.67l-.07-.5-.11-.23-.08-.07-.08.14V66c0,.32-.13.44-.49.44a5,5,0,0,1-1.59-.48,5,5,0,0,0-1.89-.46,2.49,2.49,0,0,0-2.5,2.33c0,1.07.71,1.89,2.16,2.49l1.51.62c1.24.51,1.7.88,1.7,1.36s-.38.66-1,.66A3.92,3.92,0,0,1,69,72.66,10.65,10.65,0,0,0,65.82,72a3.81,3.81,0,0,0-3,1.15l-.24.13-.26-.1L62,73.09l-.43.23-.18.23-.15.11-.5-.48-.18-.46,0-.49V71.9l.06-.35.05-.3.09-.07.13.28v.19c0,.5.2,1,.42,1s.32-.31.45-.92l.14-.19c.07,0,.11.09.16.35l.27.57.2.14c.14,0,.24-.22.31-.73l.15-.32.08,0,.12.2.2.17.2.07.17-.07.12-.14-.1-.16a1.58,1.58,0,0,1-.32-.58l-.16-.41-.09-.12-.05,0-.11,0-.37.1-.12,0-.08-.08.15-.2a2.64,2.64,0,0,0,.81-1.82,1.89,1.89,0,0,1,.35-1l.12-.1.1.15-.06.25,0,.22v.07l0,.1.2-.07.21-.25.23-.72-.14-.41-.27-.18h-.25l-.17-.1,0-.14,0-.19-.1-.44-.09-.22-.06-.17-.12.09-.26.15-.22.2c-.25.3-.26.32-.37.32l-.1-.07v-.07l.06-.37a1.7,1.7,0,0,0-.5-1,1.59,1.59,0,0,0-.57,1.12v.21l-.08.12h0l-.13-.09L61,65.59l-.28-.23-.14-.13-.08.15a1.9,1.9,0,0,0-.24.85l-.08.3-.12,0c-.27-.15-.29-.16-.41-.16a.52.52,0,0,0-.53.56l.22.59c.16.29.4.56.51.56l0-.11v0l0-.3,0-.23v0l.08-.1c.16,0,.3.47.42,1.4A2.73,2.73,0,0,0,61,70.35l.14.19-.07.06-.23-.09-.19-.06-.41.43-.16,1L60,73.3a4.14,4.14,0,0,0,.11,1.07,4.6,4.6,0,0,1,.12.83,2.27,2.27,0,0,1-1.75,2.22l-1.13.34a1.55,1.55,0,0,0-1.15,1.54.82.82,0,0,1,.51-.21L57,79l.3-.08.2-.2.3-.33.28-.21.07.11-.12.29-.13.46a1.1,1.1,0,0,0,.29.69l.07-.21.26-.37a2,2,0,0,0,.43-.8c0-.28,0-.36.09-.36l.1.16.05.11.11.07.14-.07.28-.25.18-.31.09-.34v-.23l.06-.11.19.2.11.09h0l.16-.08.36-.66,0-.32L60.8,76v0l.09-.11.29.38.16.18.31-.31.16-.23.06-.17-.06-.18-.14-.21,0-.18a1.71,1.71,0,0,1,.26-.83l.23-.44.1-.11.06.09,0,.19v.28l.16.1.18,0,.44-.16.41-.2a2.39,2.39,0,0,1,1.25-.46,2.23,2.23,0,0,1,.84.25l.18.06.15-.09.06-.14-.07-.22-.11-.26.08-.08.13.1c.06.08.19.32.41.7A2.08,2.08,0,0,0,67.5,75l.78.18c.24,0,.3.15.3.45a1.54,1.54,0,0,1-.71,1.32l-.64.41a1.15,1.15,0,0,0-.42.89,4.85,4.85,0,0,0,.12.91l.13-.12.3-.18.27-.27.14-.39.14-.35.2-.28.1.27v.11a1.31,1.31,0,0,0,.23.75"/><path class="cls-3" d="M58,83.73c0-.84.31-1.21,1.53-1.83,2.4-1.22,3.7-2.34,3.7-3.19a3.89,3.89,0,0,0-.22-.95,3.47,3.47,0,0,1-.15-.77,2.15,2.15,0,0,1,.74-1.35l.33-.3.32-.56v-.19l.25-.24.16,0,.12,0,.16.09.09.14.12.14.12.07.13,0,.21-.06.14.15a2.81,2.81,0,0,1-.63,1.42,3.25,3.25,0,0,0-.9,2,2,2,0,0,0,.38,1.2l.08.13-.13.22-.1.14-.33.29L63.91,80l-.07-.19-.1-.09-.08.07-.07.2v.3l-.12.35-.25.27-.11.09L63,80.87l-.1-.35-.09-.09-.12.25a1.22,1.22,0,0,1-.22.74l-.25.23-.22.13-.11-.06-.13-.26-.07-.06c-.07,0-.13.14-.15.41A1.39,1.39,0,0,1,60.94,83a.94.94,0,0,0-.44.5,1.13,1.13,0,0,1-.22-.71l.08-.34.11-.29-.06-.08-.09.07-.23.18a.67.67,0,0,0-.44.6.9.9,0,0,1-.82.79c-.6.13-.63.14-.85.34Z"/><path class="cls-3" d="M56.82,65.48v.44l0,.29-.07.4a1.42,1.42,0,0,0,.25.85l.18.6-.08.11-.09,0-.14-.2c-.11-.15-.22-.19-.5-.19l-.31,0a3.77,3.77,0,0,1,.21.62c.14.57.17.62.48.9s.34.32.34.42l-.12.14h-.18l-.19.37.11.45.13.21L57,71l.08.18-.11.16-.16-.06-.12,0-.12.14,0,.27.1.45.2.34.26.21.36.16,0,.14-.12.13-.18,0h-.18l-.19.14,0,.28.07.28c.08.3.18.46.28.46l.13-.07a2.25,2.25,0,0,1,1.09-.37,3.45,3.45,0,0,1,.86.09l.17,0,.06-.2,0-.32.07-.55.06-.4v-.23l-.15.12a1,1,0,0,1-.8.37c-.81,0-1.28-.91-1.28-2.51a17.3,17.3,0,0,1,.28-2.66l.06-.49a1.94,1.94,0,0,0-1-1.56"/><polygon class="cls-3" points="58.12 68.47 58.09 68.74 58.04 69 58.02 69.27 58.02 69.45 58.18 69.29 58.34 69.14 58.57 68.6 58.51 68.35 58.26 68.1 58.12 68.47"/><path class="cls-3" d="M56.46,76.68l.41.32a.75.75,0,0,0,.7.35l.26,0,.22-.07.18-.06.14-.09L58,76.81l-.43-.25-.4-.11Z"/><path class="cls-3" d="M58.85,81.66a1.16,1.16,0,0,1,1.25-1c.34,0,.54.07.54.19s-.15.21-.48.38l-.51.29c-.36.19-.47.25-.78.39Z"/><path class="cls-3" d="M66.05,77.37l.46-.12h.32l.21-.14.25-.17c.35-.25.37-.26.37-.34s-.14-.14-.44-.14c-.56,0-.9.26-1.17.9"/><path class="cls-7" d="M60.71,66.6l.24.16.36.19c.27.11.37.15.37.26l0,.2-.06.25-.27.3c-.11,0-.24-.18-.44-.53l-.28-.71v-.07l.08-.07"/><polygon class="cls-7" points="63.06 66.77 62.67 66.97 62.3 67.07 62.14 67.27 62.14 67.29 62.16 67.59 62.18 67.89 62.36 68.07 62.39 68.07 62.51 68.01 62.69 67.62 63.09 67.22 63.27 66.92 63.31 66.81 63.21 66.7 63.06 66.77"/><path class="cls-7" d="M61.31,68.42l.26.19.24.07.42-.12.23-.1.14,0,.25.34a1.88,1.88,0,0,1-.46.91l-.2.41-.38.3c-.21,0-.31-.11-.63-.74a2.3,2.3,0,0,1-.31-.94l.23-.32Z"/><path class="cls-3" d="M61.54,69.39l0,.34.25.3c.17,0,.28-.24.35-.62l0-.24L62,69h-.3l-.15.31"/><path class="cls-2" d="M41.62,61.38h1.73v3.56h2V61.42h5.14v3.52h2V61.42h1.74V52.25h-2l-.08-.11a1.1,1.1,0,0,0-.95-.53,1.05,1.05,0,0,0-.94.64H48.92a1,1,0,0,0-1-.64,1.07,1.07,0,0,0-1,.64H45.42a1,1,0,0,0-1-.64,1,1,0,0,0-.95.64H41.62Z"/><rect class="cls-6" x="42.36" y="53" width="11.25" height="7.71"/><path class="cls-3" d="M43.53,54.76a.54.54,0,1,0,.53.54.54.54,0,0,0-.53-.54"/><path class="cls-2" d="M43.53,55.91a.61.61,0,0,1,0-1.22.61.61,0,0,1,0,1.22m0-1.07-.47.46.47.46L44,55.3Z"/><path class="cls-3" d="M52.36,54.76a.54.54,0,1,0,.53.54.54.54,0,0,0-.53-.54"/><path class="cls-2" d="M52.36,55.91a.61.61,0,0,1,0-1.22.61.61,0,0,1,0,1.22m0-1.07-.47.46.47.46.46-.46Z"/><path class="cls-3" d="M43.53,59a.54.54,0,0,0-.54.53.55.55,0,0,0,.56.54.53.53,0,0,0,.51-.54.53.53,0,0,0-.53-.53"/><path class="cls-2" d="M43.55,60.1a.62.62,0,0,1-.63-.61.6.6,0,0,1,.61-.6.61.61,0,0,1,.61.6.6.6,0,0,1-.59.61m0-1.07-.47.46a.47.47,0,0,0,.49.46l.44-.46Z"/><path class="cls-3" d="M52.36,59a.54.54,0,1,0,.53.53.54.54,0,0,0-.53-.53"/><path class="cls-2" d="M52.36,60.1a.61.61,0,1,1,.61-.61.61.61,0,0,1-.61.61m0-1.07-.47.46.47.46.46-.46Z"/><path class="cls-3" d="M45.2,57.33A3.4,3.4,0,0,0,48,58.69a3.18,3.18,0,0,0,2.61-1.36,3.57,3.57,0,0,0-5.39,0"/><path class="cls-2" d="M45.74,57.33a3.31,3.31,0,0,1,2.16-.82,3.18,3.18,0,0,1,2.14.84,2.74,2.74,0,0,1-2.16.91,3,3,0,0,1-2.14-.93"/><path class="cls-3" d="M46.65,57.16a2.24,2.24,0,0,0,1.22.39,2.29,2.29,0,0,0,1.3-.39,3,3,0,0,0-1.28-.31,2.48,2.48,0,0,0-1.24.31"/><rect class="cls-2" x="42.2" y="53.39" width="11.57" height="0.39"/><path class="cls-8" d="M42.22,53.42H53.74v.35H42.22Zm0,.39H53.79v-.44H42.18Z"/><path class="cls-3" d="M44,52.89V54a.46.46,0,0,0,.48.46.43.43,0,0,0,.49-.46V52.91c0-.42-.17-.68-.45-.68l-.21.05-.13.07-.1.15-.08.2"/><path class="cls-3" d="M47.45,53.8V54a.46.46,0,0,0,.48.46.43.43,0,0,0,.49-.46V52.91c0-.42-.18-.68-.45-.68s-.52.26-.52.66"/><path class="cls-3" d="M50.82,52.89V54a.46.46,0,0,0,.48.46.43.43,0,0,0,.49-.46V52.91c0-.42-.17-.68-.45-.68l-.21.05-.13.07-.1.15-.08.2"/><rect class="cls-3" x="43.72" y="62.22" width="1.05" height="1.36"/><rect class="cls-3" x="43.72" y="63.88" width="1.05" height="0.43"/><rect class="cls-3" x="50.9" y="62.22" width="1.05" height="1.36"/><rect class="cls-3" x="50.9" y="63.88" width="1.05" height="0.43"/><text class="cls-9" transform="translate(20.39 140.1)">Authorised Platinum Exam<tspan class="cls-10" x="272.1" y="0"> </tspan><tspan class="cls-11" x="277.01" y="0">C</tspan><tspan x="291.79" y="0">ent</tspan><tspan class="cls-12" x="325.75" y="0">r</tspan><tspan x="333.81" y="0">e</tspan></text></svg>