<svg id="Layer_1" data-name="Layer 1" xmlns="http://www.w3.org/2000/svg" viewBox="0 0 401.69 124.57"><path d="M20.49,111.77H422.08" transform="translate(-20.39 -28.93)" style="fill:none;stroke:#231f20;stroke-miterlimit:10;stroke-width:1.4600000381469727px"/><path d="M263,30.91h-3.43l-9.09,23.6H255l2.21-5.88h8.38l2.28,5.88h4.63Zm-4.6,14.22,1.71-4.63c.64-1.82,1-2.85,1.21-3.67h.07c.22.78.54,1.85,1.18,3.63l1.64,4.67Z" transform="translate(-20.39 -28.93)" style="fill:#131718"/><path d="M308.28,37.22c-4.81,0-7.59,3.81-7.59,8.88,0,4.56,2.49,8.76,8.62,8.76a11.29,11.29,0,0,0,6-1.56L314,50.37a8.42,8.42,0,0,1-4.24,1.14c-2.82,0-4.67-1.67-4.78-4.27h10.8v-1c0-5.6-2.74-9-7.48-9M305,44.3c0-2,1.17-3.82,3.28-3.82s3.21,1.89,3.24,3.82Z" transform="translate(-20.39 -28.93)" style="fill:#131718"/><path d="M381.87,37.22c-4.82,0-7.6,3.81-7.6,8.88,0,4.56,2.5,8.76,8.63,8.76a11.29,11.29,0,0,0,6-1.56l-1.28-2.93a8.42,8.42,0,0,1-4.24,1.14c-2.82,0-4.67-1.67-4.78-4.27h10.8v-1c0-5.6-2.74-9-7.48-9m-3.35,7.06c0-2,1.17-3.82,3.27-3.82s3.16,1.87,3.16,3.8Z" transform="translate(-20.39 -28.93)" style="fill:#131718"/><path d="M415.83,32.48l-4.24,1.25v3.92h-3V41h3v9.38c0,2.81,1.82,4.52,4.81,4.52a9.64,9.64,0,0,0,4.92-1.31l-1.32-3a4.72,4.72,0,0,1-2.57.82c-1.1,0-1.64-.57-1.64-2.14V41h1.55a2.66,2.66,0,0,0,2.71-1.48l.84-1.66v-.13h-5.07Z" transform="translate(-20.39 -28.93)" style="fill:#131718"/><path d="M293.14,37.22c-4,0-6.38,2.1-6.38,5.1,0,5.63,7.91,4.56,7.91,7.41,0,1.28-1.24,1.78-3,1.78a8.61,8.61,0,0,1-4.59-1.39l-.19.45-.76,2.87A12.27,12.27,0,0,0,292,54.86c3.64,0,6.84-1.53,6.84-5.24,0-5.88-7.91-4.84-7.91-7.52,0-1.1,1-1.53,2.39-1.53a11.41,11.41,0,0,1,4,.76l.8-3V38a14.69,14.69,0,0,0-5-.82" transform="translate(-20.39 -28.93)" style="fill:#131718"/><path d="M324.18,37.22c-4,0-6.38,2.1-6.38,5.1,0,5.63,7.91,4.56,7.91,7.41,0,1.28-1.25,1.78-3,1.78a8.64,8.64,0,0,1-4.42-1.28l-.88,3.34A12.33,12.33,0,0,0,323,54.86c3.63,0,6.84-1.53,6.84-5.24,0-5.88-7.91-4.84-7.91-7.52,0-1.1,1-1.53,2.39-1.53a11.19,11.19,0,0,1,4,.76l.81-3.12V38a14.65,14.65,0,0,0-4.95-.82" transform="translate(-20.39 -28.93)" style="fill:#131718"/><path d="M338.26,37.22c-4,0-6.38,2.1-6.38,5.1,0,5.63,7.91,4.56,7.91,7.41,0,1.28-1.25,1.78-3,1.78a8.63,8.63,0,0,1-4.47-1.31l-.88,3.34a12.15,12.15,0,0,0,5.64,1.32c3.63,0,6.84-1.53,6.84-5.24,0-5.88-7.91-4.84-7.91-7.52,0-1.1,1-1.53,2.39-1.53a11.24,11.24,0,0,1,3.93.75l.84-3.21V38a14.65,14.65,0,0,0-4.95-.82" transform="translate(-20.39 -28.93)" style="fill:#131718"/><path d="M279.13,37.22c-3.95,0-6.38,2.1-6.38,5.1,0,5.63,7.92,4.56,7.92,7.41,0,1.28-1.25,1.78-3,1.78a8.65,8.65,0,0,1-4.6-1.39l1.63,4.3a12.92,12.92,0,0,0,3.27.42c3.63,0,6.84-1.53,6.84-5.24,0-5.88-7.92-4.84-7.92-7.52,0-1.1,1-1.53,2.39-1.53a11.4,11.4,0,0,1,4,.75l.82-3.14V38a14.69,14.69,0,0,0-5-.82" transform="translate(-20.39 -28.93)" style="fill:#131718"/><path d="M346.25,36.92h-.09V54.51h4.24V42.6a6.74,6.74,0,0,1,4-1.67c2.18,0,2.5,1.64,2.5,3.6v10h4.28V42.6a6.62,6.62,0,0,1,4-1.67c2.18,0,2.57,1.57,2.57,3.56v10H372V43.31c0-4.45-2.64-6.09-5.59-6.09a9.8,9.8,0,0,0-6.06,2.6,4.73,4.73,0,0,0-4.5-2.6,9.35,9.35,0,0,0-5.66,2.32H350a3.28,3.28,0,0,0-1.51-1.5l-2.16-1Z" transform="translate(-20.39 -28.93)" style="fill:#131718"/><path d="M391.78,36.92h-.08V54.51h4.24V42.71a6.91,6.91,0,0,1,4.13-1.78c2.18,0,2.61,1.67,2.61,3.74v9.84H407V43.35c0-4.81-2.75-6.13-5.42-6.13a9.38,9.38,0,0,0-5.78,2.32h-.23A3.26,3.26,0,0,0,394,38l-2.14-1Z" transform="translate(-20.39 -28.93)" style="fill:#131718"/><path d="M98.67,30.64c-7.56,0-12.41,5.42-12.41,12.23S90.43,54.7,98.13,54.7a15.15,15.15,0,0,0,7.26-1.7,6.41,6.41,0,0,1-1-3.48,11.08,11.08,0,0,1-5.77,1.63c-4.81,0-7.81-3.42-7.81-8.34,0-4.6,2.75-8.52,8-8.52a12.68,12.68,0,0,1,6.06,1.53v-4a15.67,15.67,0,0,0-6.16-1.14" transform="translate(-20.39 -28.93)" style="fill:#131718"/><path d="M156.58,28.93h-4.25V53.35a12.13,12.13,0,0,0,5.53,1.17c5.74,0,10.09-3.42,10.09-9.34,0-5.34-3.6-8.3-8.1-8.3a11,11,0,0,0-3.27.5Zm2,22.06a6.45,6.45,0,0,1-2-.28V40.94a6.12,6.12,0,0,1,2.56-.53c2.78,0,4.42,2.06,4.42,5,0,3.32-2,5.56-5,5.56" transform="translate(-20.39 -28.93)" style="fill:#131718"/><path d="M206.31,29.11H202v8.16a12.48,12.48,0,0,0-2.28-.21c-5.35,0-9.24,3.67-9.24,9,0,5.56,4.1,8.62,9.59,8.62a15.37,15.37,0,0,0,6.2-1.24ZM200,51.17a4.8,4.8,0,0,1-5.13-4.46,4.21,4.21,0,0,1,0-.71c0-3.46,2.18-5.46,5.13-5.46a8.43,8.43,0,0,1,2,.25v10.1a6.45,6.45,0,0,1-2,.28" transform="translate(-20.39 -28.93)" style="fill:#131718"/><path d="M232.91,37.06c-4.82,0-7.6,3.81-7.6,8.88,0,4.56,2.5,8.76,8.63,8.76a11.22,11.22,0,0,0,5.95-1.57l-1.28-2.92a8.42,8.42,0,0,1-4.24,1.14c-2.82,0-4.67-1.67-4.78-4.28h10.8v-1c0-5.6-2.74-9-7.48-9m-3.35,7.06c0-2,1.17-3.82,3.28-3.82s3.2,1.89,3.24,3.82Z" transform="translate(-20.39 -28.93)" style="fill:#131718"/><path d="M113.59,37.06a13.33,13.33,0,0,0-6.53,1.67l1.4,2.75a9.59,9.59,0,0,1,4.41-1.18c2,0,3.25.86,3.25,2.82v.53l-2.89.11a10.57,10.57,0,0,0-4.35,1,4.83,4.83,0,0,0-2.85,4.6,5.26,5.26,0,0,0,5.13,5.39h.47a6.88,6.88,0,0,0,4.84-2h.36a3.76,3.76,0,0,0,1.17.92l2.22,1.11h.17V43.19c0-4.06-2.24-6.13-6.77-6.13m-.75,14.29a2.21,2.21,0,0,1-2.48-1.92,1.7,1.7,0,0,1,0-.39,2,2,0,0,1,1-1.93,5.38,5.38,0,0,1,2.46-.53l2.18-.07v3.67a5.23,5.23,0,0,1-3.19,1.17" transform="translate(-20.39 -28.93)" style="fill:#131718"/><path d="M123.56,36.69h-.08V54.28h4.24V42.37a6.74,6.74,0,0,1,4-1.67c2.18,0,2.5,1.64,2.5,3.6v10h4.28V42.36a6.62,6.62,0,0,1,4-1.67c2.18,0,2.57,1.57,2.57,3.56v10h4.24V43.08c0-4.45-2.64-6.09-5.6-6.09a9.8,9.8,0,0,0-6.06,2.6,4.71,4.71,0,0,0-4.49-2.6,9.45,9.45,0,0,0-5.67,2.31h-.15a3.35,3.35,0,0,0-1.51-1.49l-2.16-1.08Z" transform="translate(-20.39 -28.93)" style="fill:#131718"/><path d="M179.14,37.14a6.25,6.25,0,0,0-4.63,2.24L174,37.49h-3.6V54.35h4.24V42.44a4.74,4.74,0,0,1,3.67-2.08,4.23,4.23,0,0,1,2.61,1v-3.9a5.37,5.37,0,0,0-1.82-.32" transform="translate(-20.39 -28.93)" style="fill:#131718"/><path d="M185.64,29.64a2.55,2.55,0,0,0-2.6,2.5v.07a2.51,2.51,0,0,0,2.49,2.53h.11a2.55,2.55,0,1,0,0-5.1m2.14,7.85H183.5V54.35h4.28Z" transform="translate(-20.39 -28.93)" style="fill:#131718"/><path d="M225.16,36.41H216c-4.6,0-6.88,3.11-6.88,6.21a5.9,5.9,0,0,0,2.82,5.24,4.11,4.11,0,0,0-2,3.17,2.37,2.37,0,0,0,1.11,2.1,4.54,4.54,0,0,0-3,4.07c0,2.92,2.89,4.95,7.84,4.95,5.85,0,8.91-2.49,8.91-5.56,0-6.31-11.08-3.49-11.08-6.52a2.34,2.34,0,0,1,.42-1.25,6.9,6.9,0,0,0,2.07.28c4.1,0,7-2.45,7-6.23A5.86,5.86,0,0,0,222,39.29h.49a2.25,2.25,0,0,0,2-1.27l.73-1.47v-.06Zm-9.08,9.49a2.94,2.94,0,0,1-3-2.85,2.81,2.81,0,0,1,0-.29,2.83,2.83,0,0,1,2.5-3.12,2,2,0,0,1,.42,0,3,3,0,0,1,3,3v.17a2.84,2.84,0,0,1-2.55,3.1,2.26,2.26,0,0,1-.45,0m.28,13.26c-2.82,0-4.6-1-4.6-2.71A2.82,2.82,0,0,1,213,54.24c2.28.89,7.52.39,7.52,2.81,0,1.25-1.71,2.11-4.28,2.11" transform="translate(-20.39 -28.93)" style="fill:#131718"/><path d="M87.28,65.79H99.11l-1,2.7H90.44v7.42h7.64v2.7H90.44V86.5h8.81v2.7h-12Z" transform="translate(-20.39 -28.93)" style="fill:#131718"/><path d="M102.84,72.39h2.63l.39,2.06A9.19,9.19,0,0,1,111.69,72c2.67,0,5.12,1.56,5.12,6V89.2h-3.13V79c0-2.38-.57-4.23-2.88-4.23A7.79,7.79,0,0,0,106,77V89.2h-3.13Z" transform="translate(-20.39 -28.93)" style="fill:#131718"/><path d="M118.94,92.75A4.7,4.7,0,0,1,122,88.52a2.35,2.35,0,0,1-1.17-2.09,4.37,4.37,0,0,1,1.88-3.27A5.85,5.85,0,0,1,120,78a6,6,0,0,1,6-6h.41a7.49,7.49,0,0,1,3.23.64c.18.11.25.11.39,0a4.85,4.85,0,0,1,3.66-1.39,5.57,5.57,0,0,1,1,.11L134,73.67a4.78,4.78,0,0,0-1-.1,2.71,2.71,0,0,0-1.49.39,5.93,5.93,0,0,1,1.74,4.23c0,3.65-2.7,6.11-6.64,6.11a6.73,6.73,0,0,1-2.14-.32,2.57,2.57,0,0,0-.78,1.7c0,3.23,11.09.32,11.09,6.61,0,3.13-3.06,5.33-8.35,5.33-4.58,0-7.49-1.85-7.49-4.87Zm12.76-.14c0-2.88-5-2.31-7.89-3.23a3.58,3.58,0,0,0-2,2.84c0,1.92,2,3,4.94,3C130,95.27,131.7,94.1,131.7,92.61Zm-1.53-14.46a3.47,3.47,0,0,0-3.25-3.66h-.3a3.34,3.34,0,0,0-3.53,3.14,3.85,3.85,0,0,0,0,.48,3.43,3.43,0,0,0,3.15,3.69,2.67,2.67,0,0,0,.4,0,3.36,3.36,0,0,0,3.53-3.18A3.85,3.85,0,0,0,130.17,78.15Z" transform="translate(-20.39 -28.93)" style="fill:#131718"/><path d="M137.17,64h3.13V85c0,1.28.39,1.67,1.24,1.67a3.84,3.84,0,0,0,1.07-.22l.63,2.45a7.4,7.4,0,0,1-2.59.5c-2.34,0-3.48-1.28-3.48-3.52Z" transform="translate(-20.39 -28.93)" style="fill:#131718"/><path d="M145.24,66.92a1.94,1.94,0,0,1,1.88-2h.12a2,2,0,0,1,2.07,1.93v.07a2,2,0,0,1-2,2h-.07A2,2,0,0,1,145.24,66.92Zm.42,5.47h3.13V89.2h-3.13Z" transform="translate(-20.39 -28.93)" style="fill:#131718"/><path d="M152.48,85.72A8.33,8.33,0,0,0,156.82,87c1.88,0,3.41-.68,3.41-2.42,0-3.41-7.89-2.27-7.89-7.85,0-2.67,2.1-4.76,5.9-4.76a12.53,12.53,0,0,1,4.41.81v2.7a10.52,10.52,0,0,0-4.27-1c-1.56,0-2.95.46-2.95,2.06,0,3.41,7.89,2.2,7.89,8,0,3.44-2.91,5-6.4,5a10.3,10.3,0,0,1-5.43-1.49Z" transform="translate(-20.39 -28.93)" style="fill:#131718"/><path d="M166.27,64h3.13V74.42A8.85,8.85,0,0,1,175.12,72c2.63,0,5.11,1.56,5.11,6V89.2h-3.12V79c0-2.38-.61-4.23-2.92-4.23A7.64,7.64,0,0,0,169.4,77V89.2h-3.13Z" transform="translate(-20.39 -28.93)" style="fill:#131718"/><path d="M73.11,64a30.26,30.26,0,0,1-1.26,7.79,19.3,19.3,0,0,1-2.95,5.85,20.58,20.58,0,0,1-7.14,5.72L55,86.77l.06.13h.14V64.17h18V63.9H54.93V87.12l.2-.1c5.46-2.72,6.59-3.29,6.76-3.39a21,21,0,0,0,7.23-5.79,19.79,19.79,0,0,0,3-5.94A31.11,31.11,0,0,0,73.39,64Z" transform="translate(-20.39 -28.93)" style="fill:#fcdb2f"/><path d="M41,64V86.9h.14l.06-.13c-5.45-2.71-6.59-3.29-6.75-3.38a20.64,20.64,0,0,1-7.13-5.72,19.2,19.2,0,0,1-3-5.85A30,30,0,0,1,23.1,64H23v.14H41.13V63.9H22.81V64a30.37,30.37,0,0,0,1.27,7.86,19.22,19.22,0,0,0,3,5.94,21,21,0,0,0,7.22,5.79c.18.1,1.31.67,6.76,3.39l.2.1V64Z" transform="translate(-20.39 -28.93)" style="fill:#fcdb2f"/><path d="M73.28,31.45v-.13H54.93V50.23H73.42V31.32h-.14v.13h-.14V50H55.21V31.59H73.28v-.14h0Z" transform="translate(-20.39 -28.93)" style="fill:#090d10"/><path d="M41.13,31.45v-.13H22.78V50.23H41.27V31.32h-.14v.13H41V50H23.06V31.59H41.13v-.14h0Z" transform="translate(-20.39 -28.93)" style="fill:#090d10"/><path d="M48.1,93.21l-.55-.3c-.82-.4-13.62-6.77-14.38-7.18C29,83.48,20.39,78.79,20.39,62.35V28.93H75.81V62.35c0,16.44-8.63,21.13-12.78,23.38-.76.42-13.64,6.82-14.38,7.18Z" transform="translate(-20.39 -28.93)" style="fill:#131718"/><path d="M53.74,51.43V30.13H42.46v21.3H21.59V62.7H42.46V89l5.64,2.81L53.74,89V62.7H74.61V51.43Z" transform="translate(-20.39 -28.93)" style="fill:#fff"/><path d="M21.59,30.12H42.46v21.3H21.59Z" transform="translate(-20.39 -28.93)" style="fill:#eb4236"/><path d="M53.74,30.13H74.61v21.3H53.74Z" transform="translate(-20.39 -28.93)" style="fill:#eb4236"/><path d="M42.46,62.7H21.59c.12,15.27,8,19.7,12.15,22,.43.23,4.89,2.45,8.72,4.37Z" transform="translate(-20.39 -28.93)" style="fill:#eb4236"/><path d="M53.74,62.7V89.05c3.84-1.92,8.29-4.14,8.72-4.37,4.2-2.28,12-6.71,12.15-22Z" transform="translate(-20.39 -28.93)" style="fill:#eb4236"/><path d="M60.91,57.23l.43-.51-.54-.65-.55.65.43.51c0,.26,0,2.52-1.31,3.32a2.8,2.8,0,0,0,1,0,7.06,7.06,0,0,0,.39,1.26,6.3,6.3,0,0,0,.38-1.26,2.8,2.8,0,0,0,1,0c-1.33-.8-1.32-3.06-1.31-3.32" transform="translate(-20.39 -28.93)" style="fill:#131718"/><path d="M64.31,53.39l.43-.51-.54-.65-.55.65.43.51c0,.26,0,2.52-1.31,3.33a3.35,3.35,0,0,0,1,0A7.13,7.13,0,0,0,64.2,58a6.3,6.3,0,0,0,.38-1.26,3.35,3.35,0,0,0,1,0c-1.33-.81-1.32-3.07-1.31-3.33" transform="translate(-20.39 -28.93)" style="fill:#131718"/><path d="M67.71,57.23l.43-.51-.54-.65-.55.65.43.51c0,.26,0,2.52-1.31,3.32a2.8,2.8,0,0,0,1,0,7.06,7.06,0,0,0,.39,1.26A8.05,8.05,0,0,0,68,60.53a2.8,2.8,0,0,0,1,0c-1.33-.8-1.32-3.06-1.31-3.32" transform="translate(-20.39 -28.93)" style="fill:#131718"/><path d="M71.11,53.39l.43-.51L71,52.23l-.54.65.43.51c0,.26,0,2.52-1.31,3.33a3.35,3.35,0,0,0,1,0A6.39,6.39,0,0,0,71,58a5.57,5.57,0,0,0,.39-1.26,3.35,3.35,0,0,0,1,0c-1.33-.81-1.32-3.07-1.31-3.33" transform="translate(-20.39 -28.93)" style="fill:#131718"/><path d="M57.51,53.39l.43-.51-.54-.65-.55.65.43.51c0,.26,0,2.52-1.31,3.33a3.35,3.35,0,0,0,1,0A7.13,7.13,0,0,0,57.4,58a6.3,6.3,0,0,0,.38-1.26,3.35,3.35,0,0,0,1,0c-1.33-.81-1.32-3.07-1.31-3.33" transform="translate(-20.39 -28.93)" style="fill:#131718"/><path d="M28.72,57.23l.43-.51-.54-.65-.55.65.44.51c0,.26,0,2.52-1.31,3.32a2.8,2.8,0,0,0,1,0,6.3,6.3,0,0,0,.38,1.26A6.42,6.42,0,0,0,29,60.53a2.8,2.8,0,0,0,1,0c-1.33-.8-1.31-3.06-1.31-3.32" transform="translate(-20.39 -28.93)" style="fill:#131718"/><path d="M32.12,53.39l.43-.51L32,52.23l-.55.65.43.51c0,.26,0,2.52-1.31,3.33a3.09,3.09,0,0,0,1.05,0A6.29,6.29,0,0,0,32,58a6.3,6.3,0,0,0,.38-1.26,3.35,3.35,0,0,0,1,0c-1.33-.81-1.32-3.07-1.31-3.33" transform="translate(-20.39 -28.93)" style="fill:#131718"/><path d="M35.52,57.23l.43-.51-.54-.65-.55.65.44.51c0,.26,0,2.52-1.31,3.32a2.8,2.8,0,0,0,1,0,7.06,7.06,0,0,0,.39,1.26,6.3,6.3,0,0,0,.38-1.26,2.8,2.8,0,0,0,1,0c-1.33-.8-1.31-3.06-1.31-3.32" transform="translate(-20.39 -28.93)" style="fill:#131718"/><path d="M38.92,53.39l.43-.51-.54-.65-.55.65.43.51c0,.26,0,2.52-1.3,3.33a3.35,3.35,0,0,0,1,0A7.1,7.1,0,0,0,38.81,58a6.3,6.3,0,0,0,.38-1.26,3.35,3.35,0,0,0,1,0c-1.33-.81-1.32-3.07-1.31-3.33" transform="translate(-20.39 -28.93)" style="fill:#131718"/><path d="M25.32,53.39l.43-.51-.54-.65-.55.65.44.51c0,.26,0,2.52-1.31,3.33a3.35,3.35,0,0,0,1,0A6.39,6.39,0,0,0,25.21,58a6.3,6.3,0,0,0,.38-1.26,3.35,3.35,0,0,0,1,0c-1.33-.81-1.31-3.07-1.31-3.33" transform="translate(-20.39 -28.93)" style="fill:#131718"/><path d="M48.24,65.88l.43-.51-.54-.65-.55.65.44.51c0,.26,0,2.52-1.31,3.32a2.8,2.8,0,0,0,1,0,6.3,6.3,0,0,0,.38,1.26,6.3,6.3,0,0,0,.38-1.26,2.8,2.8,0,0,0,1,0c-1.33-.8-1.31-3.06-1.31-3.32" transform="translate(-20.39 -28.93)" style="fill:#131718"/><path d="M48.24,77.42l.43-.51-.54-.65-.55.65.44.51c0,.26,0,2.52-1.31,3.33a3.35,3.35,0,0,0,1,0A6.8,6.8,0,0,0,48.13,82a6.3,6.3,0,0,0,.38-1.26,3.35,3.35,0,0,0,1,0c-1.33-.81-1.31-3.07-1.31-3.33" transform="translate(-20.39 -28.93)" style="fill:#131718"/><path d="M51.39,71.65l.43-.51-.54-.65-.54.65.43.51c0,.26,0,2.52-1.31,3.33a3.35,3.35,0,0,0,1,0,6.3,6.3,0,0,0,.38,1.26A6.71,6.71,0,0,0,51.66,75a3.35,3.35,0,0,0,1,0c-1.33-.81-1.31-3.07-1.31-3.33" transform="translate(-20.39 -28.93)" style="fill:#131718"/><path d="M45.05,71.65l.44-.51-.55-.65-.54.65.43.51c0,.26,0,2.52-1.31,3.33a3.35,3.35,0,0,0,1,0,6.3,6.3,0,0,0,.38,1.26A6.71,6.71,0,0,0,45.32,75a3.35,3.35,0,0,0,1,0C45,74.19,45,71.93,45,71.67" transform="translate(-20.39 -28.93)" style="fill:#131718"/><path d="M51.39,83.19l.43-.51L51.28,82l-.54.65.43.51c0,.26,0,2.52-1.31,3.33a3.35,3.35,0,0,0,1,0,6.3,6.3,0,0,0,.38,1.26,6.3,6.3,0,0,0,.38-1.26,3.35,3.35,0,0,0,1,0c-1.33-.81-1.31-3.07-1.31-3.33" transform="translate(-20.39 -28.93)" style="fill:#131718"/><path d="M45.05,83.19l.44-.51L44.94,82l-.54.65.43.51c0,.26,0,2.52-1.31,3.33a3.35,3.35,0,0,0,1,0,6.3,6.3,0,0,0,.38,1.26,6.3,6.3,0,0,0,.38-1.26,3.35,3.35,0,0,0,1,0C45,85.68,45,83.42,45,83.16" transform="translate(-20.39 -28.93)" style="fill:#131718"/><path d="M48.24,39.6l.43-.52-.54-.64-.55.64.44.52c0,.25,0,2.51-1.31,3.32a2.8,2.8,0,0,0,1,0,6.3,6.3,0,0,0,.38,1.26,6.3,6.3,0,0,0,.38-1.26,2.8,2.8,0,0,0,1,0c-1.33-.81-1.31-3.07-1.31-3.32" transform="translate(-20.39 -28.93)" style="fill:#131718"/><path d="M51.39,33.82l.43-.51-.54-.64-.54.64.43.51c0,.26,0,2.52-1.31,3.33a3.35,3.35,0,0,0,1,0,6.3,6.3,0,0,0,.38,1.26,6.3,6.3,0,0,0,.38-1.26,3.35,3.35,0,0,0,1,0c-1.33-.81-1.31-3.07-1.31-3.33" transform="translate(-20.39 -28.93)" style="fill:#131718"/><path d="M45.05,33.82l.44-.51-.55-.64-.54.64.43.51c0,.26,0,2.52-1.31,3.33a3.35,3.35,0,0,0,1,0,6.3,6.3,0,0,0,.38,1.26,6.3,6.3,0,0,0,.38-1.26,3.35,3.35,0,0,0,1,0C45,36.34,45,34.08,45,33.82" transform="translate(-20.39 -28.93)" style="fill:#131718"/><path d="M51.39,45.37l.43-.52-.54-.64-.54.64.43.52c0,.25,0,2.51-1.31,3.32a2.8,2.8,0,0,0,1,0A6.3,6.3,0,0,0,51.24,50a6.3,6.3,0,0,0,.38-1.26,2.8,2.8,0,0,0,1,0c-1.33-.81-1.31-3.07-1.31-3.32" transform="translate(-20.39 -28.93)" style="fill:#131718"/><path d="M45.05,45.37l.44-.52-.55-.64-.54.64.43.52c0,.25,0,2.51-1.31,3.32a2.8,2.8,0,0,0,1,0A6.3,6.3,0,0,0,44.9,50a6.3,6.3,0,0,0,.38-1.26,2.8,2.8,0,0,0,1,0C45,47.88,45,45.62,45,45.37" transform="translate(-20.39 -28.93)" style="fill:#131718"/><path d="M38,40.64l.07.27.14.56c.22,1,.41,1.28.9,1.28a.6.6,0,0,0,.58-.39L39.8,42l.17-.13c.19,0,.28.19.29.64a5,5,0,0,0,.13.86,5.14,5.14,0,0,1,.07.78l-.11.55a7.91,7.91,0,0,1,.11,1.08,2.27,2.27,0,0,1-.22,1.06,1.9,1.9,0,0,1,.09.67v.59a4.09,4.09,0,0,0-.1.61V49l.05.21-.05.09-.36-.14-.39-.21-.4-.32c-.35.31-.45.35-1.35.6l-.39.16-.23.12c-.16,0-.23-.24-.23-.75a4.2,4.2,0,0,1,.11-1,2.23,2.23,0,0,0-.63-.15H36l-.1-.17L36,47l.18-.42.42-.51.46-.27.64-.12c.38-.08.61-.28.61-.54s-.18-.43-.56-.56L37,44.38,36.29,44c-.42-.25-.49-.28-.59-.28l-.24.31a.49.49,0,0,0,.44.54h.42l.12.13v.38a2.38,2.38,0,0,1-.57,1.06l-.16.21a2.45,2.45,0,0,1-1,1.4l-.2.14-.14.25-.35.43-.44.4-.36.32-.17.3-.15.09c-.15,0-.3-.16-.39-.44L32.26,49,32,49h-.89a2.85,2.85,0,0,0-1,.18l-.18,0-.12-.11V49a3.24,3.24,0,0,1,.54-1.41,2,2,0,0,1,.47-.57.79.79,0,0,0-.49-.6l-.3-.09L30,46.23c0-.1.15-.22.41-.36a2.21,2.21,0,0,1,1-.28,1.45,1.45,0,0,1,.9.37c.48.37.61.44.84.44a.77.77,0,0,0,.74-.71,1.66,1.66,0,0,0-.47-.94,2.2,2.2,0,0,1-.64-1.43,1.85,1.85,0,0,1,.2-.83l.18-.26.06-.18-.32-.2a3.1,3.1,0,0,0-1.25.46l-.35.38.07.14.19.12V43l-.07.14-.35.46a6.91,6.91,0,0,1-.75.78l-.17.18-.14.26a3,3,0,0,1-.78.8l-.25.19-.14.25-.23.37L28.2,47l-.49.5a2.59,2.59,0,0,0-.5,1.09c-.12.39-.24.62-.3.62l-.14-.1c-.35-.4-.65-.64-.81-.64l-.2.09-.48.18-.65.12a1.37,1.37,0,0,0-1,.53l-.16.12-.09-.2v-.17l.09-.47a4,4,0,0,1,.35-1.16l.3-.54.09-.29a1,1,0,0,0-.94-.83l-.18-.11.34-.42a2.07,2.07,0,0,1,1.11-.46,2.7,2.7,0,0,1,.8.21l.39.16.39.09c.42,0,.81-.37,1.31-1.22a1.84,1.84,0,0,0,.31-.91c0-.44-.21-.72-.56-.72a1.09,1.09,0,0,0-.76.34l-.27.54v.25l-.16.25c-.17,0-.41-.24-1.1-1.08a2.07,2.07,0,0,1-.66-1.52c-.6-.76-.75-1.09-.75-1.63v-.37A1.66,1.66,0,0,1,23,38l.13-.46a1.79,1.79,0,0,1-.34-.69l-.08-.38-.29-.65-.17-.34c0-.21.14-.29.76-.44v-.39l0-.43.13-.65a3.7,3.7,0,0,0,.07-.57,1.81,1.81,0,0,0-.12-.56L23,32l-.11-.24.12-.1a2.94,2.94,0,0,1,1.12.68,2.79,2.79,0,0,1,1.36,2.19l.05.36a1.58,1.58,0,0,1,.75,1.25,2.19,2.19,0,0,1-.36,1.13l-.35.55-.16.59a2,2,0,0,0,.34,1.06c.27.47.5.67.78.67.47,0,.88-.81.88-1.73v-1a2.32,2.32,0,0,1,.06-.51V36.2l-.18-.33-.39-.43a2.79,2.79,0,0,1-.89-1.6.89.89,0,0,1,.84-.94h.06l.38.06v-.12c0-.78.15-1.35.37-1.35h.08l.32.29.39.24.11.11.23-.5L29,31.3,29.2,31l.09-.16.15-.13.15.26c0,.12.07.15.38.42l.21.23.14.36v.14l.36-.32.26-.16.2-.09.08.11.14.26a1.38,1.38,0,0,1,.26.64V33a1,1,0,0,1,.8,1.11,2.46,2.46,0,0,1-.69,1.51c-.31.36-.34.43-.34.68,0,1.31.91,2.07,2.52,2.1h1.18a6,6,0,0,1,1.93.32,4.34,4.34,0,0,0,1.33.34l.23-.07.1-.16c0-.25-.43-.45-1.86-.85-2.91-.83-4.15-2-4.15-3.94a2.72,2.72,0,0,1,2.79-2.65h.06a5.87,5.87,0,0,1,1.76.31L38,32l.38.08c.25,0,.37-.21.38-.63l.2-.3c.21,0,.52.26.81.66a2.34,2.34,0,0,1,.48,1.16,1,1,0,0,1-.62.93,1.76,1.76,0,0,1-1.55.88,5.66,5.66,0,0,1-2.43-1,1.77,1.77,0,0,0-.86-.32.46.46,0,0,0-.51.41v.05c0,.25.2.42.71.6a2.49,2.49,0,0,1,1.26.69,3.61,3.61,0,0,1,1.86.74c1.55.5,2.51,1.55,2.51,2.77a1.9,1.9,0,0,1-1.8,2h-.11a3.32,3.32,0,0,1-.83-.11" transform="translate(-20.39 -28.93)" style="fill:#131718"/><path d="M39.71,48.39,39.64,48v-.13l.06-.29v-.23l-.13-.53-.21-.28-.18-.34v-.15l.12-.13.23.11.17.06c.11,0,.17-.17.17-.48s0-.53-.11-.61l-.27-.3-.23-.2-.09-.15.15-.13.39.09h.08l.1-.15v-.07l-.06-.37-.1-.39-.14-.14-.44.09H39a1.58,1.58,0,0,1-1.39-1.11L37.3,41a2.34,2.34,0,0,0-.85-1.09l-.35-.19h-.32l-.1-.09.22-.11.59,0a5.32,5.32,0,0,1,.95.25,3.73,3.73,0,0,0,1.19.26A1.24,1.24,0,0,0,40,39a1.21,1.21,0,0,0,0-.19,2.2,2.2,0,0,0-.72-1.56l-.59-.39-.08.09v.25l-.13.15-.3-.35a1.7,1.7,0,0,0-1.42-1.11L36.6,36l.09.26.14.32.06.16h-.07l-.31-.17-.26-.28L36,35.9a1.55,1.55,0,0,0-.72-.62l-.43-.23-.16,0-.09.09.06.19.19.36-.1.1c-.13,0-.42-.28-.67-.65a1.85,1.85,0,0,1-.32-1A1.28,1.28,0,0,1,35,32.77h.07a2.77,2.77,0,0,1,1.33.44l.83.51a2.11,2.11,0,0,0,1,.32l.51-.09.22-.09.08-.09L39,33.71h-.1l-.39-.07L38,33.42c-.3-.13-.6-.28-.89-.44a3.33,3.33,0,0,0-.58-.33l-.23-.17.08-.08.18.07.66.25L38,33a4.77,4.77,0,0,0,1.18.25.58.58,0,0,0,.58-.58h0l-.31-.77-.12-.09-.11.14v.35l-.35.41h-.28l-1.15-.37a5.82,5.82,0,0,0-1.89-.41A2.29,2.29,0,0,0,33.16,34c0,1.4,1,2.31,3.43,3.15s2.75,1,2.75,1.65a.75.75,0,0,1-.77.67h-.42L37,39.19a9.06,9.06,0,0,0-2.2-.25,4.54,4.54,0,0,0-3.54,1.12l-.51.23h-.37l-.5.32-.3.48-.2.1c-.16,0-.26-.12-.44-.54l-.37-.54-.35-.32-.09-.13.07-.17.25-.46.15-.24c.11,0,.14.11.15.51l.14.48.2.42.16.09c.18,0,.41-.43.47-.88s.09-.5.17-.5H30l.16.31.23.27.21.13c.14,0,.19-.1.23-.43v-.6l.11-.18.13.07.18.18.35.18.24-.16-.17-.41L31.52,38c-.14-.27-.25-.37-.39-.37H31l-.21.09h-.11l-.08-.06a1.62,1.62,0,0,1,.3-.73A3.28,3.28,0,0,0,31,35.65c.06-.92.18-1.52.31-1.52l.12.27v.42l.08.29c.15,0,.33-.22.47-.59l.09-.36v-.08l-.35-.66-.35-.1-.13-.08v-.65l-.07-.17-.09-.2a2,2,0,0,0-.71.53l-.28.26-.09-.1.05-.28v-.1a1.22,1.22,0,0,0-.61-1l-.11.14-.12.18L29,32.1l-.18.35v.3l-.08.18h0l-.12-.18-.2-.21-.3-.19-.16-.13-.07.16-.08.29v.63l-.13.22-.21-.09-.25-.08a.43.43,0,0,0-.45.43v.06a1.55,1.55,0,0,0,.28.93l.23.3.18.11.05-.37-.05-.3v-.14l.11-.18c.1,0,.16.11.22.4l.14.66.15.83.21.71a3.93,3.93,0,0,0,.3.62l.22.34-.08.08-.16,0-.21-.07h-.14c-.28,0-.34.24-.34,1.42a6.93,6.93,0,0,0,.34,2.17l.37.94.09.44C28.63,44,26.92,46,25,46.93a1.46,1.46,0,0,0-1,1.45v.23a2.24,2.24,0,0,1,.6-.25c.53-.14.63-.2.71-.46l.07-.23c0-.09.07-.12.48-.34l.28-.22.21-.23h.07V47l-.17.5v.13a1,1,0,0,0,.59.87,1.5,1.5,0,0,1,.23-.74l.32-.5a1.32,1.32,0,0,0,.17-.75l-.05-.56v-.14l.13-.14h.11l.08.34.17.12c.17,0,.39-.22.62-.61l.13-.47v-.24l-.06-.27.16-.19H29l.11.41.23.23.44-.45a1.49,1.49,0,0,0,.16-.72c0-.38,0-.48.18-.48h.09l.07.23.12.14.41-.44.05-.17-.16-.24-.19-.41a1,1,0,0,1,.19-.62l.23-.42c.23-.44.31-.55.39-.55l.13.15v.15l-.07.21.13.13.31-.11a4.29,4.29,0,0,1,.5-.19l.58-.21L33,41h.31l.41.07.3-.3-.28-.53-.09-.17V40l.09-.07c.12,0,.4.3.65.7,1.52,2.39,2.07,3,3.1,3.29s1.31.56,1.31,1.17a2.31,2.31,0,0,1-.55,1.27,3.43,3.43,0,0,0-1,2.22v.13l.2-.09.28-.12.44-.09.25-.36v-.39l.17-.37h.09l.14.11.28.6c.11.25.25.36.62.53" transform="translate(-20.39 -28.93)" style="fill:#fcdb2f"/><path d="M25.44,35.57l-.21.35v.33a3.09,3.09,0,0,0,0,.43l.17.44.38-.46.08-.41-.08-.4Z" transform="translate(-20.39 -28.93)" style="fill:#fcdb2f"/><path d="M24,33l.25.25a2.77,2.77,0,0,1,.6,2v.92c0,.24,0,.49,0,.73,0,2.19.71,3.85,1.66,3.85.29,0,.49-.14.76-.57l.16-.13.09.15v1.1l.05.33-.12.16-.32.06-.5.19a1.43,1.43,0,0,0-.45.36l-.2.41-.11.08c-.1,0-.27-.18-.46-.49a1.78,1.78,0,0,1-.26-.58l.16-.08h.53l.11-.13-.07-.1-.8-.34a1.3,1.3,0,0,1-.6-.58,2.63,2.63,0,0,1-.32-.8l.14-.18h.13l.22.07.13-.11-.14-.19a2.14,2.14,0,0,1-1.05-1.52l.11-.2h.36l.15-.13-.15-.17-.28-.16L23.53,37l-.3-.57L23,36l-.16-.3-.1-.14.55-.14c.24,0,.39.15.57.58.1.27.22.46.29.46v-.21l-.07-.53,0-.39v-.25l-.21-.1-.16-.18-.14-.4.05-.32A5,5,0,0,0,23.82,33v-.15Z" transform="translate(-20.39 -28.93)" style="fill:#fcdb2f"/><path d="M26.1,45.74l-.51-.13-.34-.14a2,2,0,0,0-.67-.18,1,1,0,0,0-.74.31l.16.12.35.25.34.26.29.11a1.65,1.65,0,0,0,1.12-.6" transform="translate(-20.39 -28.93)" style="fill:#fcdb2f"/><path d="M32.91,49l.36-.46c.49-.43.72-.74.72-1v-.39l.16-.3h.11l.09.21.15.08.25-.2.18-.25.13-.34v-.21l-.12-.28-.08-.28L35,45.4h.13l.14.18.13.06.19-.15.14-.28v-.16l-.15,0-.23-.11a1.29,1.29,0,0,1-.53-1.13v-.19l.12-.3V43l-.17-.55L34.65,42c-.11-.28-.16-.36-.25-.36h-.09l-.12.07-.2.1-.23.29-.24.12-.29.65c0,.46.05.59.66,1.63a2.24,2.24,0,0,1,.36,1c0,.73-.65,1.25-2,1.56l-.81.19a1.42,1.42,0,0,0-1.08,1.26,1.35,1.35,0,0,1,.79-.15h.3l.42-.23.58-.5.28-.12.23-.13H33l.1.08-.17.3a.91.91,0,0,0-.28.68Z" transform="translate(-20.39 -28.93)" style="fill:#fcdb2f"/><path d="M30.68,46.22l.54.47.36.25H32c.3-.06.39-.1.39-.17l-.09-.15-.19-.18-.19-.17-.59-.2a1.05,1.05,0,0,0-.64.22" transform="translate(-20.39 -28.93)" style="fill:#fcdb2f"/><path d="M36.42,47.17h.5a.78.78,0,0,0,.77-.68l-.31-.19c-.48,0-.78.27-1,.88" transform="translate(-20.39 -28.93)" style="fill:#fcdb2f"/><path d="M29.82,35l.19.3c.07,0,.16-.2.34-.51a3.06,3.06,0,0,0,.49-1.07l-.08-.13-.2.17a1.52,1.52,0,0,1-.6.32l-.27.3v.14l.09.25Z" transform="translate(-20.39 -28.93)" style="fill:#1a1911"/><path d="M28.74,34l.3.15.13.18v.48a.29.29,0,0,1-.27.32h-.08l-.17-.2-.38-.44A1.59,1.59,0,0,1,28,33.7l.11-.13.19.09Z" transform="translate(-20.39 -28.93)" style="fill:#1a1911"/><path d="M29.43,35.88h-.3l-.22-.13-.25-.07-.26.22a2.47,2.47,0,0,0,.23.79l.23.57c.2.49.4.7.66.7s.26-.22.42-.61c.35-.89.55-1,.55-1.34l-.24-.27h-.17l-.28.18Z" transform="translate(-20.39 -28.93)" style="fill:#1a1911"/><path d="M29.69,36.33l-.28.05h-.23l-.09,0,0,.09.08.42.08.38.26.28.3-.34,0-.39,0-.4-.05-.11-.09,0Z" transform="translate(-20.39 -28.93)" style="fill:#fcdb2f"/><path d="M71,40.64l.07.27.14.56c.22,1,.41,1.28.9,1.28a.61.61,0,0,0,.59-.39l.1-.35.17-.13c.19,0,.3.21.31.64a8.08,8.08,0,0,0,.11.86,4.54,4.54,0,0,1,.07.82l-.11.51v.21a3.5,3.5,0,0,1,.07.65,2.1,2.1,0,0,1-.22,1.28,2,2,0,0,1,.1.64c0,.21,0,.41-.06.62l-.07.53V49l.07.21-.07.09-.36-.14-.38-.21L72,48.59a1.39,1.39,0,0,1-.8.44,3.35,3.35,0,0,0-.92.32l-.24.12c-.14,0-.24-.27-.24-.65A2.9,2.9,0,0,1,70,47.73a2.45,2.45,0,0,0-.65-.15H69l-.08-.17a2.11,2.11,0,0,1,.28-.81,1.59,1.59,0,0,1,.87-.78l.63-.12c.38-.08.61-.28.61-.54s-.17-.42-.55-.56L70,44.38,69.3,44l-.38-.23-.2-.05-.25.3a.53.53,0,0,0,.51.55h.35l.14.19a2.28,2.28,0,0,1-.41,1.12l-.21.26-.16.21a2.35,2.35,0,0,1-1,1.4l-.19.14-.15.25-.35.43-.44.4-.36.32-.17.3-.14.09c-.16,0-.3-.16-.39-.44L65.24,49,65,49h-.9a2.85,2.85,0,0,0-1,.18l-.18,0L62.79,49a3.23,3.23,0,0,1,1-2,.8.8,0,0,0-.48-.6L63,46.32l0-.08c0-.12.12-.23.4-.36a1.91,1.91,0,0,1,.93-.28,1.38,1.38,0,0,1,.93.37c.48.37.61.44.84.44a.77.77,0,0,0,.74-.71,1.6,1.6,0,0,0-.47-.94,2.26,2.26,0,0,1-.63-1.5,1.69,1.69,0,0,1,.37-1l.07-.19-.34-.19a1.92,1.92,0,0,0-.74.22c-.53.24-.85.47-.85.61l.09.15.18.12v.07l-.08.14-.35.46a4.2,4.2,0,0,1-.74.78l-.18.18-.14.26a3,3,0,0,1-.76.8l-.25.19-.16.25a5.45,5.45,0,0,1-.65.92l-.48.5a3.65,3.65,0,0,0-.52,1.09c-.14.43-.23.62-.3.62l-.14-.1c-.34-.4-.65-.64-.8-.64l-.21.09-.47.18-.64.12a1.37,1.37,0,0,0-1,.53l-.14.12-.11-.21v-.16a1.83,1.83,0,0,1,.09-.47,4.31,4.31,0,0,1,.35-1.16l.32-.54.09-.29c0-.41-.38-.74-1-.83L56,45.75l.36-.4a2.14,2.14,0,0,1,1.08-.46,2.31,2.31,0,0,1,.81.21l.39.16.39.09c.42,0,.82-.37,1.31-1.22a2,2,0,0,0,.32-.91c0-.45-.21-.72-.56-.72a1,1,0,0,0-.75.34l-.3.56v.28l-.15.2c-.13,0-.29-.13-.6-.49L58,42.78a2,2,0,0,1-.68-1.52,2.64,2.64,0,0,1-.74-1.63v-.37A1.53,1.53,0,0,1,56,38l.1-.47a1.77,1.77,0,0,1-.33-.69l-.09-.38-.28-.65-.18-.33c0-.18.17-.3.62-.41H56v-.39l.06-.43.12-.65.07-.58a1.5,1.5,0,0,0-.11-.55L56,32.06l-.11-.23.14-.11.18.06a7.07,7.07,0,0,1,1.72,1.36A2.66,2.66,0,0,1,58.5,35a1.5,1.5,0,0,1,.74,1.34,1.89,1.89,0,0,1-.35,1l-.36.55-.16.6a2.08,2.08,0,0,0,.34,1c.26.47.5.67.78.67.46,0,.88-.8.88-1.68v-.66l.06-.42V36.27c0-.17,0-.22-.58-.8a2.65,2.65,0,0,1-.85-1.7.88.88,0,0,1,.9-.87l.38.06v-.58l.1-.46c.09-.37.13-.43.25-.43h.09l.32.29.39.24.1.11.23-.5L62,31.3l.18-.27.1-.16.15-.13.14.26.16.23.23.19a1.26,1.26,0,0,1,.38.73l.36-.32.28-.16.19-.09.08.11.14.26c.23.37.25.42.25.67V33a1,1,0,0,1,.8,1.1,2.36,2.36,0,0,1-.67,1.52c-.3.36-.35.47-.35.75,0,1.25.94,2,2.53,2h1.16a6,6,0,0,1,1.93.32,4.8,4.8,0,0,0,1.34.34l.33-.22c0-.26-.43-.46-1.86-.86-2.92-.82-4.16-2-4.16-3.94a2.72,2.72,0,0,1,2.8-2.64h.06a5.86,5.86,0,0,1,1.76.3l.72.26.38.08c.25,0,.35-.16.38-.63l.22-.3c.19,0,.55.3.81.66A2.34,2.34,0,0,1,73.34,33a1,1,0,0,1-.62.9,1.74,1.74,0,0,1-1.54.88,6,6,0,0,1-2.44-1,1.56,1.56,0,0,0-.85-.32.47.47,0,0,0-.52.4v.06c0,.26.19.42.71.6.84.3,1,.4,1.26.69A3.65,3.65,0,0,1,71.2,36c1.61.52,2.51,1.52,2.51,2.8a1.88,1.88,0,0,1-1.76,2h-.12a3.56,3.56,0,0,1-.86-.11" transform="translate(-20.39 -28.93)" style="fill:#131718"/><path d="M72.72,48.39v-.56a4,4,0,0,0,0-.69l-.13-.36-.21-.28-.17-.5.09-.14h.08l.16.09.18.06c.11,0,.16-.17.16-.5a1,1,0,0,0-.35-.89l-.25-.2-.07-.14.13-.14h.2l.2,0h.07L72.9,44V44l-.06-.37c0-.38-.12-.53-.23-.53l-.46.09H72a1.63,1.63,0,0,1-1.37-1.11l-.3-1a2.41,2.41,0,0,0-.85-1.09l-.37-.19h-.32l-.09-.09.19-.11a5.2,5.2,0,0,1,1.57.3,3.73,3.73,0,0,0,1.18.26c.88,0,1.42-.46,1.42-1.23a2.41,2.41,0,0,0-.34-1.17,2.81,2.81,0,0,0-.83-.78h-.14l-.09.09v.23l-.12.15L71.25,37a1.66,1.66,0,0,0-1.39-1.11l-.19.12.1.23.16.32v.15l-.08,0-.3-.17-.27-.28L69.05,36a1.62,1.62,0,0,0-.7-.62l-.45-.23L67.72,35l-.09.08.08.2.17.35-.09.11c-.13,0-.35-.22-.66-.65a1.72,1.72,0,0,1-.34-1,1.31,1.31,0,0,1,1.3-1.32h0a2.7,2.7,0,0,1,1.32.44l.85.51a2.07,2.07,0,0,0,1,.32,1.7,1.7,0,0,0,.5-.09l.23-.09.06-.1-.15-.11A5,5,0,0,1,70.14,33a3.42,3.42,0,0,0-.59-.33l-.24-.19h.18l.77.29L71,33a4.76,4.76,0,0,0,1.19.25.54.54,0,0,0,.57-.51v-.06l-.11-.49-.31-.39-.11.19v.32l-.33.39h-.29l-1.15-.37a5.51,5.51,0,0,0-1.88-.41A2.27,2.27,0,0,0,66.17,34c0,1.41,1,2.29,3.45,3.15s2.73,1,2.73,1.66a.71.71,0,0,1-.76.66h-.43L70,39.19a8.59,8.59,0,0,0-2.2-.25,4.39,4.39,0,0,0-3.51,1.12l-.54.23h-.4l-.5.32-.28.48-.2.1c-.19,0-.28-.12-.46-.54l-.35-.54-.37-.32-.09-.13.09-.17.16-.24,0-.25v-.16l.13-.08c.12,0,.14.08.14.51l.14.48.2.42.16.09c.18,0,.41-.43.47-.88s.09-.5.17-.5.11,0,.26.35l.21.27.21.13c.15,0,.2-.1.23-.43v-.6l.1-.18.14.07.17.18.36.18.24-.18-.17-.39-.13-.23c-.15-.3-.23-.37-.37-.37h-.18l-.23.09h-.14V37.7a1.58,1.58,0,0,1,.3-.72,4.12,4.12,0,0,0,.3-1.39l.09-.83c0-.51.11-.69.21-.69h.07l.06.26v.22l.06.46.29-.24.18-.35.09-.46c0-.41-.18-.59-.73-.74l-.11-.06v-.67l-.07-.17-.09-.2-.14.09a1.89,1.89,0,0,0-.57.44l-.28.26-.17,0,.07-.3v-.06a1.33,1.33,0,0,0-.61-1l-.12.14-.13.18L62,32.1l-.2.52v.12l-.09.19-.14-.18-.18-.21L61,32.33l-.16-.13a1.53,1.53,0,0,0-.18.89v.15l-.14.26-.21-.09L60,33.33a.47.47,0,0,0-.44.5v0a1.6,1.6,0,0,0,.28.9l.41.42v-.82l.1-.18c.1,0,.16.11.23.4l.14.66.14.83.21.71a3.93,3.93,0,0,0,.3.62l.22.34-.08.08-.16-.05-.21-.07h-.13c-.29,0-.35.23-.35,1.41A7,7,0,0,0,61,41.28l.37.94.09.44c0,1.29-1.75,3.36-3.59,4.25-.72.34-.93.7-1,1.68a2.78,2.78,0,0,1,.62-.25c.52-.14.63-.22.7-.46l.08-.23c0-.1.09-.15.46-.34l.28-.22.21-.23.08.09-.19.5v.13a1,1,0,0,0,.58.87l.06-.21a2,2,0,0,1,.17-.53l.34-.5c.12-.18.15-.29.15-.75v-.7l.13-.14h.11l.06.34.17.12c.17,0,.39-.21.62-.61l.13-.43-.06-.55v-.1l.13-.14h.09l.12.41.23.23c.27,0,.56-.56.58-1.15,0-.38.07-.51.18-.51H63l.07.23.13.14.24-.21.16-.23V43l-.16-.22-.19-.37a2.26,2.26,0,0,1,.43-1.08c.28-.5.32-.56.39-.56l.12.16v.15l-.07.21.14.13.32-.11.48-.19.6-.21L66,41h.31l.41.07.29-.28-.11-.31-.16-.24-.11-.16V40l.1-.07c.14,0,.41.29.66.7,1.39,2.26,2.06,3,3.08,3.29s1.31.54,1.31,1.18a2.36,2.36,0,0,1-.55,1.26,3.67,3.67,0,0,0-1,2.21v.14l.2-.09.28-.12.44-.09L71.4,48v-.45l.24-.4.14.11.28.6a1,1,0,0,0,.62.53" transform="translate(-20.39 -28.93)" style="fill:#fcdb2f"/><path d="M58.21,36.25v.46c0,.29,0,.41.15.41l.39-.46.09-.48-.09-.33-.26-.29c-.16,0-.23.2-.26.69" transform="translate(-20.39 -28.93)" style="fill:#fcdb2f"/><path d="M57,33l.25.25a2.71,2.71,0,0,1,.6,1.75v.29l-.05.84v.69c0,2.31.67,3.89,1.66,3.89a1,1,0,0,0,.76-.57l.15-.13.09.15v.72l.06.38,0,.34c0,.18,0,.2-.46.26l-.49.19a1.47,1.47,0,0,0-.46.36l-.2.41-.11.08c-.11,0-.24-.15-.44-.49a1.69,1.69,0,0,1-.26-.58l.16-.08h.52l.1-.14-.07-.09-.8-.34a1.61,1.61,0,0,1-.58-.58,2,2,0,0,1-.32-.78l.14-.2h.13l.2.07h.1l.05-.08-.14-.18a2.15,2.15,0,0,1-1-1.43l.1-.2h.38l.16-.13-.16-.17c-.45-.22-.55-.34-.84-1a3.6,3.6,0,0,0-.51-.92l.55-.14c.24,0,.4.15.57.58.1.27.22.46.29.46v-.21l-.07-.53V35.1l-.19-.1-.3-.58V34.1l.11-.41a3.17,3.17,0,0,0,.12-.75v-.15Z" transform="translate(-20.39 -28.93)" style="fill:#fcdb2f"/><path d="M59.11,45.74a2.51,2.51,0,0,1-.84-.27,1.6,1.6,0,0,0-.67-.18,1.06,1.06,0,0,0-.75.31l.16.12.35.25.34.26.3.11a1.62,1.62,0,0,0,1.11-.6" transform="translate(-20.39 -28.93)" style="fill:#fcdb2f"/><path d="M65.93,49l.35-.46c.5-.43.72-.74.72-1v-.39l.16-.3h.11l.09.21.15.08c.13,0,.22-.09.43-.45l.13-.35v-.2L68,45.86l-.07-.28L68,45.4h.13l.14.18.09.06.23-.15.14-.28.06-.16-.19,0-.24-.11a1.25,1.25,0,0,1-.54-1.09l.06-.23.11-.3V43l-.18-.54L67.68,42c-.11-.26-.16-.35-.25-.35l-.23.09-.18.1-.24.29-.25.12a.88.88,0,0,0-.29.66c0,.38.08.59.66,1.62a2.24,2.24,0,0,1,.36,1c0,.72-.74,1.31-1.94,1.56-1.43.29-1.74.53-1.91,1.45a1.35,1.35,0,0,1,.79-.15h.3l.42-.23.58-.5.28-.12.23-.13h.08l.09.08-.17.3-.27.58Z" transform="translate(-20.39 -28.93)" style="fill:#fcdb2f"/><path d="M63.7,46.22l.53.47.36.25H65c.3-.06.39-.1.39-.18l-.08-.14-.21-.18-.19-.17-.56-.2a1.19,1.19,0,0,0-.66.22" transform="translate(-20.39 -28.93)" style="fill:#fcdb2f"/><path d="M69.43,47.17H70l.35-.08.33-.41.07-.19-.3-.19c-.49,0-.78.27-1,.88" transform="translate(-20.39 -28.93)" style="fill:#fcdb2f"/><path d="M62.83,35l.19.3c.08,0,.2-.26.38-.57a2.68,2.68,0,0,0,.46-1l-.09-.13-.19.18L63,34l-.29.3v.15l.14.3Z" transform="translate(-20.39 -28.93)" style="fill:#1a1911"/><path d="M61.27,33.64l-.19-.09-.11.12v.06L61,34a1.25,1.25,0,0,0,.24.49l.26.45.39.24.09-.07.06-.35.09-.32v-.08l-.14-.2-.3-.16Z" transform="translate(-20.39 -28.93)" style="fill:#1a1911"/><path d="M62.44,35.88h-.3l-.21-.13-.25-.07-.26.27a2.64,2.64,0,0,0,.22.74l.24.57c.19.49.39.7.66.7s.41-.19.55-.56l.2-.8.33-.52-.42-.4h-.11l-.26.18Z" transform="translate(-20.39 -28.93)" style="fill:#1a1911"/><path d="M62.71,36.33l-.29.05h-.21l-.09,0,0,.09.09.42.07.38.22.28.35-.34,0-.39,0-.4-.06-.11-.09,0Z" transform="translate(-20.39 -28.93)" style="fill:#fcdb2f"/><path d="M38.29,74a2.69,2.69,0,0,1,.23.84v.74c0,.74.27,1.11.74,1.11l.39-.12.19-.19h.08l.19.23v.29a4.43,4.43,0,0,0,.07.81l.06.72a1.94,1.94,0,0,1-.16.86,3.54,3.54,0,0,1,.19,1.07,1.45,1.45,0,0,1-.21.86,2.08,2.08,0,0,1,.09.6,5.08,5.08,0,0,1-.07.67,3,3,0,0,0-.07.85v0l-.11.16-.21-.14-.26-.19c-.12,0-.16.07-.34.6a2.37,2.37,0,0,1-.43.65l-.32.52-.1.37-.11.09c-.29,0-.63-.63-1-1.81-.1-.33-.22-.48-.4-.48l-.31.2-.1.25-.1.07c-.14,0-.35-.26-.49-.59a2.26,2.26,0,0,1-.17-.81c0-.56.41-1,1.64-1.66a1.37,1.37,0,0,0,.8-1.37A1.33,1.33,0,0,0,37.34,78a1.38,1.38,0,0,0-.79-.39l-.3.25.33.35c.27.09.39.19.39.31a1.88,1.88,0,0,1-.3.64,1.69,1.69,0,0,1-.57.59,1.6,1.6,0,0,1-.85,1.15,2,2,0,0,1-.35.65l-.38.48-.26.55c0,.27-.07.32-.17.32a1.78,1.78,0,0,1-.72-.62l-.23-.59a.89.89,0,0,1-.6.22l-.48.12a1.44,1.44,0,0,1-.4.18l-.11-.16v-.39a2.8,2.8,0,0,1,.53-1.58,1.81,1.81,0,0,0-.86-.46l-.13-.06.16-.33.32-.35a1.83,1.83,0,0,1,1-.37,3.13,3.13,0,0,1,1,.25l.42.09.3-.35a4.75,4.75,0,0,0-.51-1.64,3.13,3.13,0,0,1-.35-1.16,1.71,1.71,0,0,1,.65-1.44l-.39-.1-.55.17-.41.38.15.16.16.26a2,2,0,0,1-.87,1.4,1.56,1.56,0,0,1-1,1.25,1.69,1.69,0,0,1-.39.82,3,3,0,0,0-.65,1.22l-.15.27-.4-.31-.28-.33a1.69,1.69,0,0,1-.2-.57h-.69a2.15,2.15,0,0,0-1,.22l-.15.07c-.11,0-.2-.24-.2-.54A2.78,2.78,0,0,1,27.7,77l-.34-.32-.14-.13-.2-.1-.1-.12c0-.09.25-.34.56-.54a1.59,1.59,0,0,1,.86-.32c.29,0,.44.08.8.39l.55.32.25-.16.09-.26a1.87,1.87,0,0,0-.85-1.2,2,2,0,0,0-1.05-.34,1.19,1.19,0,0,0-1.11.64l-.19.4-.17.15c-.11,0-.17,0-.57-.52l-.46-.53-.29-.46-.09-.23-.17-.14A2.26,2.26,0,0,1,24.32,72l-.06-.23A3,3,0,0,1,23.57,70v-.24c-.25-.25-.28-.31-.48-1a2.39,2.39,0,0,0-.41-.92l-.07-.14.41-.21h.71V67a3.72,3.72,0,0,1,.09-.81l.05-.37v-.31l-.06-.26v-.15l.1-.09.23.08a4.52,4.52,0,0,1,.76.46A2.72,2.72,0,0,1,26,67.24v.4l.12.28.2.27.28.69c0,.17,0,.24-.32.65a1.35,1.35,0,0,0-.3.79,2.35,2.35,0,0,0,.36,1.12c.2.37.44.57.67.57.4,0,.57-.35.63-1.29a7.61,7.61,0,0,1,.15-1.34v-.25l-.17-.34L27,68.17c-.5-.59-.65-.89-.65-1.32a.77.77,0,0,1,.72-.82h.27v-.14l.09-.48c.11-.38.25-.67.32-.67l.18.09.31.12.36.18a1.4,1.4,0,0,1,.28-.62c.23-.3.49-.53.58-.53l.29.21.33.35.2.34.07.16.21-.13.28-.16.34-.15.18-.1c.06,0,.1.11.23.7a3.51,3.51,0,0,1,.12.78.88.88,0,0,1,.84.92s0,0,0,.08a2.67,2.67,0,0,1-.88,1.78l-.21.43c0,1.56.55,2,2.51,2.26a12.35,12.35,0,0,1,3,.64,6.86,6.86,0,0,0,1.48.32c.34,0,.53-.12.53-.34s-.24-.43-1.65-.73c-3.28-.69-4.57-1.81-4.57-4a2.64,2.64,0,0,1,2.58-2.7h.12a4.3,4.3,0,0,1,2.24.76c.89.52,1.08.61,1.28.61s.33-.16.33-.54l.23-.37.55.37a1.34,1.34,0,0,1,.41,1,1.2,1.2,0,0,1-1,1.24l-.16.18a1.45,1.45,0,0,1-1.26.55A2.84,2.84,0,0,1,36.49,68l-.85-.6a1.61,1.61,0,0,0-.89-.37.53.53,0,0,0-.58.47v.11a.79.79,0,0,0,.62.77l.8.24a4.22,4.22,0,0,1,.76.32h.39a3.39,3.39,0,0,1,1.5.37l.32.14.44.12A2.73,2.73,0,0,1,40.82,72,1.92,1.92,0,0,1,39,74h-.7Z" transform="translate(-20.39 -28.93)" style="fill:#131718"/><path d="M38,84.56l.11-.22.25-.26a1.4,1.4,0,0,0,.32-.92l-.1-.57-.07-.31.17-.22.14.09.26.3.43.26v-.53a2,2,0,0,0-.39-1.2l-.2-.35L39,80.5h.08l.3.18.16-.45a1.68,1.68,0,0,0-.36-1L39,79v-.1l.15-.13.22.09.13,0c.14,0,.19-.2.19-.72v-.51c0-.37-.06-.44-.22-.44h-.14c-.86,0-1.26-.55-1.48-2-.16-1.06-.56-1.82-1-2s-.39-.16-.39-.24l.17-.09L37,73a4.76,4.76,0,0,0,1.82.43A1.46,1.46,0,0,0,40.19,72a2.39,2.39,0,0,0-.8-1.71L39,70h-.09v.25l.07.18v.08l-.09.06-.13-.07L38.45,70a1.73,1.73,0,0,0-1.22-.69L37,69.5l.11.2.16.29v.07l-.07.07c-.08,0-.12,0-.51-.48a2.21,2.21,0,0,0-1.3-.71l-.13.06v.07l.13.19.19.27-.1.07c-.1,0-.32-.15-.75-.48a2,2,0,0,1-1-1.57,1.15,1.15,0,0,1,1.08-1.22h0a2.23,2.23,0,0,1,1.19.42l.86.66a2.35,2.35,0,0,0,1.4.46l.3-.07.13-.12-.16-.08a1.86,1.86,0,0,1-.75-.32l-.88-.67q-.33-.26-.69-.48c-.47-.24-.56-.3-.56-.35l.1-.06h.16l.46.2a5,5,0,0,1,.74.44,3.51,3.51,0,0,0,2,.83.88.88,0,0,0,.92-.84v0L40,66l-.09-.17-.1-.09-.05.07-.06.37-.05.13-.13.17-.32.13c-.27,0-.58-.15-1.41-.68a4.43,4.43,0,0,0-2.19-.81,2.3,2.3,0,0,0-2.3,2.28v0c0,1.77,1.08,2.57,4.47,3.31C39,71,39.6,71.39,39.6,72s-.42.86-1.09.86H38c-.12,0-.73-.19-1.83-.5A9.48,9.48,0,0,0,33.77,72a3.2,3.2,0,0,0-2.84,1.25l-.19.16-.14-.07-.25-.19-.64-.24-.37.15-.18.12c-.1,0-.28-.22-.42-.51a2.77,2.77,0,0,1-.3-1.2l.13-.3.13.14.15.51c.07.29.23.51.36.51l.25-.21.15-.25c.11-.32.13-.37.22-.37s.16.07.23.39l.11.3.21.32.19.09c.15,0,.3-.26.3-.54v-.39l.09-.16.12.08.31.25.25.09.17-.09.07-.14-.25-.32a2.09,2.09,0,0,1-.35-.7l-.17-.24H31l-.23.09-.16.07h-.06l-.14-.12.36-.42.23-.48c0-.3.06-.53.12-.53l.06-.62a5.77,5.77,0,0,1,.26-1.22l0-.11.11.28v.27l.1.34.25-.3.15-.41.08-.33a.54.54,0,0,0-.47-.59h-.26l-.19-.22v-.61l-.07-.37V65l-.16.09-.2.16-.28.23-.23.19-.13.06c-.14,0-.15,0-.15-.31v-.07c0-.23-.1-.4-.46-.83l-.09-.1-.07.12-.2.32-.19.5v.31l-.08.17-.16-.13a1.31,1.31,0,0,0-.77-.51v.12l-.11.37v.59l-.1.16-.11-.09-.21-.06c-.33,0-.54.18-.54.47s.07.36.4.86l.38.4.08-.26v-.21l0-.27.09-.15c.16,0,.32.46.39,1.09l.07.66.21.71a1.75,1.75,0,0,0,.46.65l.28.3-.1.11-.36-.13h-.14c-.36,0-.48.2-.48.81A3.38,3.38,0,0,0,29,73.64l.81.65a1.87,1.87,0,0,1,.73,1.28c0,.51-.57,1-1.54,1.38l-.58.21c-.46.16-.64.46-.82,1.31l.49-.09h.34l.41-.35v-.16l.16-.16.25-.12.19-.16h.1l.1.11v.16l-.09.61a1.44,1.44,0,0,0,.29,1l.05-.23.3-.47a2.37,2.37,0,0,0,.46-1.08v-.48l.08-.2h.13L31,77l.12.16.26-.36.09-.37-.05-.23L31.4,76l.08-.12h.19l.16.11.14.06.25-.2.25-.51-.12-.15a1.25,1.25,0,0,1-.59-.94l0-.26.18-.48.14-.37h0l.1.14v.2l-.07.34.18.19.3-.07a3.44,3.44,0,0,1,1.21-.35l.64.23.17.07.1-.07v-.09l-.1-.23-.13-.25.1-.09c.28,0,.71.87,1.13,2.27.32,1.1.41,1.21,1.46,1.8A1.91,1.91,0,0,1,38.44,79a10.32,10.32,0,0,1-.68,3.15,3.05,3.05,0,0,0-.21.94,3,3,0,0,0,.18.84l.12.41Z" transform="translate(-20.39 -28.93)" style="fill:#fcdb2f"/><path d="M33.89,82.08a3.6,3.6,0,0,1,.33-.61,1.62,1.62,0,0,0,.39-.86v-.28c0-.27,0-.39.16-.39h.09l.09.14.12.07.2-.15.21-.63V79l.15-.15.15.15.14.15.15-.11.14-.21.11-.16v-.09l-.13-.16a1.46,1.46,0,0,1-.5-1.26,4.77,4.77,0,0,0-.08-1l-.32-.76-.22-.64-.22-.21a.88.88,0,0,0-.85.91s0,.06,0,.09A4.12,4.12,0,0,0,34.37,77a4.45,4.45,0,0,1,.43,1.47c0,.65-.26.93-1.16,1.25A2.2,2.2,0,0,0,32,81.55l.17-.08.25-.08.28-.07.48-.34.07-.25.11-.12.16-.07.16-.07v.07l-.07.23v.41a1.23,1.23,0,0,0,.3.9" transform="translate(-20.39 -28.93)" style="fill:#fcdb2f"/><path d="M24.39,65.71v.2l-.07.46v.36a2.92,2.92,0,0,0,.15.93l.12.4v.08l-.07.12-.18-.11-.65-.26h-.3l.09.2.26.65.37.57.39.27.11.1v.12l-.07.06h-.35l-.1.07a2.46,2.46,0,0,0,.15.53l.18.51.3.28.32.23.15.2-.07.1H25L24.9,72a1.42,1.42,0,0,0,.35.69c.28.38.47.5.78.5h.27l.2.16-.17.16-.32.21.09.19.14.2.34.27.26-.17.57-.38c.61-.16.75-.22.75-.37l-.08-.2a1.77,1.77,0,0,1-.26-.87L27.68,72l-.14.14-.62.38c-.62,0-1.35-1-1.72-2.23a3.76,3.76,0,0,1-.13-1,5.59,5.59,0,0,1,.13-1.08c.12-.52.18-.81.19-.87V67.1a2.1,2.1,0,0,0-1-1.44" transform="translate(-20.39 -28.93)" style="fill:#fcdb2f"/><path d="M25.66,68.17a3,3,0,0,0-.25,1.15l.16.37.09-.08.2-.36L26,69l.12-.26Z" transform="translate(-20.39 -28.93)" style="fill:#fcdb2f"/><path d="M27.61,76.15l.08.09.15.14c.34.36.39.39.56.39l.66-.18.12-.12L29,76.28l-.19-.18-.47-.26a1.33,1.33,0,0,0-.73.31" transform="translate(-20.39 -28.93)" style="fill:#fcdb2f"/><path d="M31.71,79.35l.36.18.28.18h.49l.38-.14.35-.13.16-.14-.2-.09-.26-.09c-.44-.17-.5-.2-.66-.2a1.2,1.2,0,0,0-.9.43" transform="translate(-20.39 -28.93)" style="fill:#fcdb2f"/><path d="M36.19,82.91c.11-.28.2-.33.6-.35s.88-.84.88-1.39v-.11l-.12.06-.26.16-.51.23a1.18,1.18,0,0,0-.65,1Z" transform="translate(-20.39 -28.93)" style="fill:#fcdb2f"/><path d="M28.55,67.53l.17.25.38.28.12-.15.07-.27v-.3c0-.23-.11-.32-.59-.44l-.25-.09-.21-.11h-.07v.08l.09.26Z" transform="translate(-20.39 -28.93)" style="fill:#1a1911"/><path d="M30.84,66.7l-.28.2-.35.1-.34.25,0,.35.19.44h0l.09-.1.23-.41.39-.42.12-.3v0l-.07-.08Z" transform="translate(-20.39 -28.93)" style="fill:#1a1911"/><path d="M30,68.74l.28-.14h.14l.24.29a2.46,2.46,0,0,1-.38.86c-.23.42-.41.71-.59.71s-.62-.41-1-1.08l-.13-.49.28-.34h.21l.16.11.45.14Z" transform="translate(-20.39 -28.93)" style="fill:#1a1911"/><path d="M29.57,69.16h-.2l-.17.19.32.76.13.08c.12,0,.2-.22.26-.57l.05-.27-.13-.14" transform="translate(-20.39 -28.93)" style="fill:#fcdb2f"/><path d="M69.08,73.78a1.54,1.54,0,0,0,1.09.67l.48-.07h.23l.13.11-.09.33-.11.32-.07.37-.18.32-.25.23-.07.07v.24a1,1,0,0,1-.47.91l-.13.09v.14a6.32,6.32,0,0,1-.18.62l-.34.49a3,3,0,0,0-.44.73l-.24.23L68,79.07l-.09.11-.21.14-.34.23-.28.21-.19.19-.1.06c-.09,0-.19-.15-.27-.45L66.37,79l-.07-.57a1.36,1.36,0,0,1,.12-.63,2.34,2.34,0,0,0-.64.12h-.15l-.09-.11.07-.26.23-.6a1.48,1.48,0,0,1,1.21-.9l.45.1h.27l.37-.33L68,75.66l-.64-.2a1.46,1.46,0,0,1-.78-.58c-.24-.28-.34-.36-.42-.36l-.11.12V75a3.14,3.14,0,0,1-.5,1.6l-.49.9a2.18,2.18,0,0,0-.34,1.08c0,.36.15.68.35.73l.27.07h.09v.11l-.09.16-.32.41a1.48,1.48,0,0,1-.86.65,1.76,1.76,0,0,1-1.19,1l0,.19a1.47,1.47,0,0,1-1,.71h-.07a1.37,1.37,0,0,1-.62.9l-.41.3-.08.16-.26.25c-.19,0-.34-.18-.45-.51l-.16.1-.34.23a3.38,3.38,0,0,1-.62.18,1.63,1.63,0,0,0-.9.44l-.16.27h-.07l-.23-.28a4.26,4.26,0,0,1-.16-1A2.14,2.14,0,0,1,58.32,82v-.16A1.65,1.65,0,0,1,60,80.2h1a1.48,1.48,0,0,0,1-.39,1.14,1.14,0,0,0,.55-1,2.54,2.54,0,0,0-.17-.71,3.42,3.42,0,0,1-.13-.84,2.91,2.91,0,0,1,1.27-2.14l.33-.4v-.07l-.23.14-.43.26-.28.14-.32.13-.14.16v.29l-.09.2-.24.41a1.48,1.48,0,0,1-.73.71c-.2.58-.48.88-.9.94a1.4,1.4,0,0,1-1.22,1,2,2,0,0,1-.53.81l-.23.29-.22.26-.4-.26L57.7,80l-.16-.28-.17-.13h-.11l-.39.06-.71.41-.21.31-.09.06c-.16,0-.25-.35-.25-.93a1.75,1.75,0,0,1,.25-1.09l.5-.69.1-.27-.09-.23L56.09,77h-.37l-.1-.06.06-.12.45-.39a1.83,1.83,0,0,1,1-.37,1.77,1.77,0,0,1,.92.3l.51.34.25.07c.24,0,.42-.14.59-.46a1.8,1.8,0,0,0,.23-.82,1.1,1.1,0,0,0-1.06-1.14h-.08a1.54,1.54,0,0,0-.92.35l-.17.19-.14.32-.13.13c-.09,0-.29-.26-.46-.59L56.44,74a3.25,3.25,0,0,1-.15-.88v-.48A1.83,1.83,0,0,1,56.13,71a1.3,1.3,0,0,1-.2-.79L56,70v-.46a2.63,2.63,0,0,1-.39-1.15,2.83,2.83,0,0,0-.23-.75l-.06-.1c0-.1.25-.2.53-.2h.25l0-.34.13-.7a1.3,1.3,0,0,0,.11-.43l-.08-.54L56.09,65v-.18h.08a3,3,0,0,1,1.53.87,1.88,1.88,0,0,1,.69,1.61v.39A1.57,1.57,0,0,1,59,68.72a.9.9,0,0,1-.36.72,1.56,1.56,0,0,0-.58,1.34c0,.94.28,1.44.8,1.44s.81-.49.86-1.22l.06-.67.09-.64v-.46c0-.24-.16-.54-.62-1.08a1.92,1.92,0,0,1-.66-1.34.89.89,0,0,1,.77-1h.11l.35.1a1.6,1.6,0,0,1,.19-.8c.14-.34.28-.58.35-.58l.11.07.23.19.18.13.16.16a1.63,1.63,0,0,1,.55-.9l.38-.32.13.09.21.28.3.34a.83.83,0,0,1,.21.54L63,65l.28-.16.22-.14.11-.06.08.13.11.4.23.47.09.45v.11h.12c.35,0,.65.41.65.88A2.55,2.55,0,0,1,63.79,69l-.08.47c0,1.41.37,1.7,2.53,2a14.38,14.38,0,0,1,1.45.31l1.4.46a3.46,3.46,0,0,0,1,.23l.41-.22c0-.24-.35-.46-1.44-.88l-1.54-.6a3.05,3.05,0,0,1-2.3-3A2.8,2.8,0,0,1,68.05,65h.09a6,6,0,0,1,2.09.44,5.29,5.29,0,0,0,1.29.43c.22,0,.34-.15.37-.46s.1-.38.24-.38a1,1,0,0,1,.63.54,2.19,2.19,0,0,1,.23.91,1,1,0,0,1-.87,1.08,1.7,1.7,0,0,1-1.43.74c-.7,0-1-.14-2.25-.89a1.56,1.56,0,0,0-.93-.34.67.67,0,0,0-.74.59v0c0,.32.27.53.85.69a.89.89,0,0,1,.59.3h.29a3.12,3.12,0,0,1,1.89.82,3,3,0,0,1,2,2.5,2.09,2.09,0,0,1-2,2.07A6.89,6.89,0,0,1,69,73.85" transform="translate(-20.39 -28.93)" style="fill:#131718"/><path d="M68.44,78.68l.07-.19.07-.25.19-.3a1.38,1.38,0,0,0,.28-.88l-.1-.34v-.25H69l.18.12.18.14.21-.33v-.18l-.15-.5-.06-.18.1-.11.24.15.13.07c.11,0,.19-.11.27-.39L70.2,75l-.07-.09h-.24a1.49,1.49,0,0,1-1-.48l-.5-.6-.46-.59L67.55,73l-.1-.15.17-.11a5,5,0,0,1,.91.33,5.52,5.52,0,0,0,1.79.39A1.53,1.53,0,0,0,71.86,72a2.2,2.2,0,0,0-.7-1.46l-.32-.22-.1.1.05.2v.17l-.09.12c-.11,0-.23-.18-.32-.5a1.43,1.43,0,0,0-.88-.9l-.56-.2-.06.08.07.21.14.34L69,70c-.11,0-.14,0-.4-.43a2,2,0,0,0-.79-.6l-.3-.07-.12.07.08.16v.1l-.08.1a1.86,1.86,0,0,1-.7-.57,1.76,1.76,0,0,1-.46-1.06,1.38,1.38,0,0,1,1.37-1.28l.45.09.62.32.73.48a2.89,2.89,0,0,0,1.33.48,2.14,2.14,0,0,0,.56-.11l.28-.18h-.45A3.86,3.86,0,0,1,70,67l-.82-.53-.72-.3,0-.17.08-.07h.2l.67.2a5,5,0,0,1,.82.37,3.86,3.86,0,0,0,1.57.57.67.67,0,0,0,.71-.63v0l-.07-.5-.11-.23-.08-.07-.08.14V66c0,.32-.13.44-.49.44A5,5,0,0,1,70.07,66a5,5,0,0,0-1.89-.46,2.48,2.48,0,0,0-2.5,2.33c0,1.07.71,1.89,2.16,2.49l1.51.62c1.24.51,1.7.88,1.7,1.36s-.38.66-1,.66a3.83,3.83,0,0,1-1-.3A10.8,10.8,0,0,0,65.82,72a3.79,3.79,0,0,0-3,1.15l-.24.13-.26-.1L62,73.09l-.43.23-.18.23-.15.11-.5-.48-.18-.46V71.9l.06-.35.05-.3.09-.07.13.28v.19c0,.5.2,1,.42,1s.32-.31.45-.92l.14-.19c.07,0,.11.09.16.35l.27.57.2.14c.14,0,.24-.22.31-.73l.15-.32h.08l.12.2.2.17.2.07.17-.07.12-.14-.1-.16a1.51,1.51,0,0,1-.32-.58l-.16-.41-.09-.12h-.16l-.37.1h-.12l-.08-.08.15-.2a2.62,2.62,0,0,0,.81-1.82,1.89,1.89,0,0,1,.35-1l.12-.1.1.15-.06.25v.39l.2-.07.21-.25.23-.72-.14-.41-.27-.18h-.25l-.17-.1v-.33l-.1-.44-.09-.22-.06-.17-.12.09-.26.15-.22.2c-.25.3-.26.32-.37.32l-.1-.07v-.07l.06-.37a1.74,1.74,0,0,0-.5-1,1.57,1.57,0,0,0-.57,1.12v.21l-.08.12-.13-.09L61,65.59l-.28-.23-.14-.13-.08.15a1.81,1.81,0,0,0-.24.85l-.08.3h-.12c-.27-.15-.29-.16-.41-.16a.51.51,0,0,0-.53.51v.05l.22.59c.16.29.4.56.51.56v-.64l.08-.1c.16,0,.3.47.42,1.4A2.74,2.74,0,0,0,61,70.35l.14.19-.07.06-.23-.09-.19-.06-.41.43-.16,1L60,73.3a4.28,4.28,0,0,0,.11,1.07,3.87,3.87,0,0,1,.12.83,2.27,2.27,0,0,1-1.75,2.22l-1.13.34A1.55,1.55,0,0,0,56.2,79.3a.8.8,0,0,1,.51-.21L57,79l.3-.08.2-.2.3-.33.28-.21.07.11-.12.29L57.9,79a1.1,1.1,0,0,0,.29.69l.07-.21.26-.37a2,2,0,0,0,.43-.8c0-.28,0-.36.09-.36l.1.16,0,.11.11.07.14-.07.28-.25.18-.31.09-.34v-.23l.06-.11.19.2.11.09.16-.08.36-.66v-.32L60.8,76l.09-.11.29.38.16.18.31-.31.16-.23.06-.17-.06-.18-.14-.21v-.18a1.65,1.65,0,0,1,.26-.83l.23-.44.1-.11.06.09v.47l.16.1h.18l.44-.16.41-.2a2.36,2.36,0,0,1,1.25-.46,2.27,2.27,0,0,1,.84.25l.18.06.15-.09.06-.14-.07-.22-.11-.26.08-.08.13.1c.06.08.19.32.41.7a2.07,2.07,0,0,0,1.07,1l.78.18c.24,0,.3.15.3.45A1.54,1.54,0,0,1,67.87,77l-.64.41a1.15,1.15,0,0,0-.42.89,4.63,4.63,0,0,0,.12.91l.13-.12.3-.18.27-.27.14-.39.14-.35.2-.28.1.27V78a1.33,1.33,0,0,0,.23.75" transform="translate(-20.39 -28.93)" style="fill:#fcdb2f"/><path d="M58,83.73c0-.84.31-1.21,1.53-1.83,2.4-1.22,3.7-2.34,3.7-3.19a4,4,0,0,0-.22-.95,3.39,3.39,0,0,1-.15-.77,2.15,2.15,0,0,1,.74-1.35l.33-.3.32-.56v-.19l.25-.24h.28l.16.09.09.14.12.14.12.07h.13l.21-.06.14.15a2.78,2.78,0,0,1-.63,1.42,3.27,3.27,0,0,0-.9,2,2,2,0,0,0,.38,1.2l.08.13-.13.22-.1.14-.33.29L63.91,80l-.07-.19-.1-.09-.08.07-.07.2v.3l-.12.35-.25.27-.11.09L63,80.87l-.1-.35-.09-.09-.12.25a1.24,1.24,0,0,1-.22.74l-.25.23-.22.13-.11-.06-.13-.26-.07-.06c-.07,0-.13.14-.15.41a1.38,1.38,0,0,1-.6,1.19,1,1,0,0,0-.44.5,1.15,1.15,0,0,1-.22-.71l.08-.34.11-.29-.06-.08-.09.07-.23.18a.67.67,0,0,0-.44.6.9.9,0,0,1-.82.79c-.6.13-.63.14-.85.34Z" transform="translate(-20.39 -28.93)" style="fill:#fcdb2f"/><path d="M56.82,65.48v.73l-.07.4a1.44,1.44,0,0,0,.25.85l.18.6-.08.11H57l-.14-.2c-.11-.15-.22-.19-.5-.19h-.31a3.48,3.48,0,0,1,.21.62c.14.57.17.62.48.9s.34.32.34.42l-.12.14h-.18l-.19.37.11.45.13.21L57,71l.08.18-.11.16-.16-.06h-.12l-.12.14v.27l.1.45.2.34.26.21.36.16V73l-.12.13H57l-.19.14v.28l.07.28c.08.3.18.46.28.46l.13-.07a2.25,2.25,0,0,1,1.09-.37,3.11,3.11,0,0,1,.86.09h.17l.06-.2v-.32l.07-.55.06-.4v-.23l-.15.12a1,1,0,0,1-.8.37c-.81,0-1.28-.91-1.28-2.51a17,17,0,0,1,.28-2.66l.06-.49a1.94,1.94,0,0,0-1-1.56" transform="translate(-20.39 -28.93)" style="fill:#fcdb2f"/><path d="M58.12,68.47l0,.27L58,69l0,.27v.18l.16-.16.16-.15.23-.54-.06-.25-.25-.25Z" transform="translate(-20.39 -28.93)" style="fill:#fcdb2f"/><path d="M56.46,76.68l.41.32a.76.76,0,0,0,.7.35h.26l.22-.07.18-.06.14-.09L58,76.81l-.43-.25-.4-.11Z" transform="translate(-20.39 -28.93)" style="fill:#fcdb2f"/><path d="M58.85,81.66a1.16,1.16,0,0,1,1.25-1c.34,0,.54.07.54.19s-.15.21-.48.38l-.51.29c-.36.19-.47.25-.78.39Z" transform="translate(-20.39 -28.93)" style="fill:#fcdb2f"/><path d="M66.05,77.37l.46-.12h.32l.21-.14.25-.17c.35-.25.37-.26.37-.34s-.14-.14-.44-.14c-.56,0-.9.26-1.17.9" transform="translate(-20.39 -28.93)" style="fill:#fcdb2f"/><path d="M60.71,66.6l.24.16.36.19c.27.11.37.15.37.26v.2l-.06.25-.27.3c-.11,0-.24-.18-.44-.53l-.28-.71v-.07l.08-.07" transform="translate(-20.39 -28.93)" style="fill:#1a1911"/><path d="M63.06,66.77l-.39.2-.37.1-.16.2v0l0,.3,0,.3.18.18h0l.12-.06.18-.39.4-.4.18-.3,0-.11-.1-.11Z" transform="translate(-20.39 -28.93)" style="fill:#1a1911"/><path d="M61.31,68.42l.26.19.24.07.42-.12.23-.1h.14l.25.34a2,2,0,0,1-.46.91l-.2.41-.38.3c-.21,0-.31-.11-.63-.74a2.27,2.27,0,0,1-.31-.94l.23-.32Z" transform="translate(-20.39 -28.93)" style="fill:#1a1911"/><path d="M61.54,69.39v.34l.25.3c.17,0,.28-.24.35-.62v-.24L62,69h-.3l-.15.31" transform="translate(-20.39 -28.93)" style="fill:#fcdb2f"/><path d="M41.62,61.38h1.73v3.56h2V61.42h5.14v3.52h2V61.42h1.74V52.25h-2l-.08-.11a1.11,1.11,0,0,0-.95-.53,1,1,0,0,0-.94.64H48.92a1,1,0,0,0-1-.64,1.06,1.06,0,0,0-1,.64h-1.5a1.06,1.06,0,0,0-2,0H41.62Z" transform="translate(-20.39 -28.93)" style="fill:#131718"/><path d="M42.36,53H53.61v7.71H42.36Z" transform="translate(-20.39 -28.93)" style="fill:#eb4236"/><path d="M43.53,54.76a.54.54,0,1,0,.53.55h0a.55.55,0,0,0-.53-.54" transform="translate(-20.39 -28.93)" style="fill:#fcdb2f"/><path d="M43.53,55.91a.61.61,0,1,1,.61-.61.61.61,0,0,1-.61.61m0-1.07-.47.46.47.46L44,55.3Z" transform="translate(-20.39 -28.93)" style="fill:#131718"/><path d="M52.36,54.76a.54.54,0,1,0,.53.55h0a.55.55,0,0,0-.53-.54" transform="translate(-20.39 -28.93)" style="fill:#fcdb2f"/><path d="M52.36,55.91A.61.61,0,1,1,53,55.3a.61.61,0,0,1-.61.61h0m0-1.07-.47.46.47.46.46-.46Z" transform="translate(-20.39 -28.93)" style="fill:#131718"/><path d="M43.53,59a.55.55,0,0,0-.54.53.55.55,0,0,0,.56.54h0a.53.53,0,0,0,.51-.54.53.53,0,0,0-.53-.53" transform="translate(-20.39 -28.93)" style="fill:#fcdb2f"/><path d="M43.55,60.1a.62.62,0,0,1-.63-.61h0a.6.6,0,0,1,.6-.6h0a.62.62,0,0,1,.61.6.6.6,0,0,1-.59.61h0m0-1.07-.47.46a.47.47,0,0,0,.48.46h0l.44-.46Z" transform="translate(-20.39 -28.93)" style="fill:#131718"/><path d="M52.36,59a.54.54,0,1,0,.53.55v0a.55.55,0,0,0-.53-.53" transform="translate(-20.39 -28.93)" style="fill:#fcdb2f"/><path d="M52.36,60.1a.61.61,0,1,1,.61-.61.61.61,0,0,1-.61.61h0m0-1.07-.47.46.47.46.46-.46Z" transform="translate(-20.39 -28.93)" style="fill:#131718"/><path d="M45.2,57.33A3.38,3.38,0,0,0,48,58.69a3.2,3.2,0,0,0,2.61-1.36,3.57,3.57,0,0,0-5-.35,3.85,3.85,0,0,0-.35.35" transform="translate(-20.39 -28.93)" style="fill:#fcdb2f"/><path d="M45.74,57.33a3.35,3.35,0,0,1,2.16-.82,3.15,3.15,0,0,1,2.14.84,2.73,2.73,0,0,1-2.16.91,3,3,0,0,1-2.14-.93" transform="translate(-20.39 -28.93)" style="fill:#131718"/><path d="M46.65,57.16a2.21,2.21,0,0,0,1.22.39,2.31,2.31,0,0,0,1.3-.39,3,3,0,0,0-1.28-.31,2.46,2.46,0,0,0-1.24.31" transform="translate(-20.39 -28.93)" style="fill:#fcdb2f"/><path d="M42.2,53.39H53.77v.39H42.2Z" transform="translate(-20.39 -28.93)" style="fill:#131718"/><path d="M42.22,53.42H53.74v.35H42.22Zm0,.39H53.79v-.44H42.18Z" transform="translate(-20.39 -28.93)" style="fill:#111919"/><path d="M44,52.89V54a.47.47,0,0,0,.46.46h0A.44.44,0,0,0,45,54.1V52.91c0-.42-.17-.68-.45-.68l-.21.05-.13.07-.1.15-.08.2" transform="translate(-20.39 -28.93)" style="fill:#fcdb2f"/><path d="M47.45,53.8V54a.47.47,0,0,0,.46.46h0a.44.44,0,0,0,.49-.36V52.91c0-.42-.18-.68-.45-.68a.59.59,0,0,0-.52.66" transform="translate(-20.39 -28.93)" style="fill:#fcdb2f"/><path d="M50.82,52.89V54a.47.47,0,0,0,.46.46h0a.44.44,0,0,0,.49-.36V52.91c0-.42-.17-.68-.45-.68l-.21.05-.13.07-.1.15-.08.2" transform="translate(-20.39 -28.93)" style="fill:#fcdb2f"/><path d="M43.72,62.22h1.05v1.36H43.72Z" transform="translate(-20.39 -28.93)" style="fill:#fcdb2f"/><path d="M43.72,63.88h1.05v.43H43.72Z" transform="translate(-20.39 -28.93)" style="fill:#fcdb2f"/><path d="M50.9,62.22H52v1.36H50.9Z" transform="translate(-20.39 -28.93)" style="fill:#fcdb2f"/><path d="M50.9,63.88H52v.43H50.9Z" transform="translate(-20.39 -28.93)" style="fill:#fcdb2f"/><g style="isolation:isolate"><text transform="translate(0 111.17)" style="isolation:isolate;font-size:21px;fill:#231f20;font-family:Geneva">Authorised Platinum Exam Centre</text><text x="-20.39" y="-28.93" style="isolation:isolate"/><text x="-20.39" y="-28.93" style="isolation:isolate"/><text x="-20.39" y="-28.93" style="isolation:isolate"/><text x="-20.39" y="-28.93" style="isolation:isolate"/></g></svg>