<svg id="Cambridge_logo" data-name="Cambridge logo" xmlns="http://www.w3.org/2000/svg" viewBox="0 0 1415.34 688.76"><g id="Platinum_Exam_Centre" data-name="Platinum Exam Centre"><path d="M34.05,608.62,0,687H10.08l6.72-15.9H54.21L60.93,687H71L37,608.62Zm-13.55,54,15-35.16,15,35.16Z" transform="translate(0 0.18)"/><path d="M120.51,662.49c0,10.31-7.17,18-16.35,18-8,0-13.33-4.92-13.33-13.21V631.69h-9v37.52c0,12,8.07,19.38,19.49,19.38a23.62,23.62,0,0,0,19.15-9.86V687h9V631.69h-9Z" transform="translate(0 0.18)"/><path d="M167.33,680.52c-3.36,0-7.17-1.9-7.17-6.83V639.76H176v-8.07H160.16V616.91l-9,4.26v10.52H140.56v8.07H151.2v33.71c0,9.63,5.71,15.12,14.34,15.12,4.25,0,6.6-.79,10.41-2.8l.67-8.51h-1C172,680,169.68,680.52,167.33,680.52Z" transform="translate(0 0.18)"/><path d="M218.29,630.13c-7.73,0-15.68,4.36-19.6,10.07V606.38h-9V687h9v-30.8c0-10.3,7.61-18,16.8-18,7.95,0,13.77,4.93,13.77,13.21V687h9V649.5C238.22,637.52,230.16,630.13,218.29,630.13Z" transform="translate(0 0.18)"/><path d="M280.11,630.13c-16.24,0-29,12.09-29,29.23s12.77,29.23,29,29.23,29-12.1,29-29.23S296.35,630.13,280.11,630.13Zm0,50.39c-11.42,0-20.05-8.51-20.05-21.16s8.63-21.17,20.05-21.17,20.05,8.51,20.05,21.17S291.53,680.52,280.11,680.52Z" transform="translate(0 0.18)"/><path d="M347.42,630.13c-5.71,0-12,3.13-15.79,9.63v-8.07h-9V687h9V655.44c0-12.66,7.73-17.25,14.45-17.25a12.73,12.73,0,0,1,9.4,3.58h1l-.56-9.07A14.68,14.68,0,0,0,347.42,630.13Z" transform="translate(0 0.18)"/><rect x="368.92" y="631.87" width="8.96" height="55.33"/><path d="M373.4,608.62a6.28,6.28,0,1,0,6.28,6.27A6.26,6.26,0,0,0,373.4,608.62Z" transform="translate(0 0.18)"/><path d="M414.28,655.32c-7.95-2.8-13.1-5.26-13.1-10.52,0-4.93,4.59-6.83,10-6.83A22.92,22.92,0,0,1,426,643.12h.79l-.34-8.74a28.12,28.12,0,0,0-15.12-4.25c-11.2,0-18.25,6.83-18.25,14.89,0,9.41,7.5,13.89,15.45,16.58s12.88,4.81,12.88,10.64c0,4.92-4.14,8.28-11.2,8.28-6.05,0-10.86-2.24-15.79-6h-.67L391.66,683a32.55,32.55,0,0,0,18.48,5.6c11,0,20.27-7.06,20.27-16.8C430.41,662.94,424.25,658.8,414.28,655.32Z" transform="translate(0 0.18)"/><path d="M467.6,630.13c-14.9,0-27.56,12.54-27.56,29.23,0,16.35,12.44,29.23,28.9,29.23,8.51,0,14.9-2.58,21.17-7.28l.33-9.75h-.89c-7.39,6.72-12.88,9-20.72,9-9.07,0-18.82-6.49-19.83-18.81h45.36v-4.48C494.36,640.65,483.05,630.13,467.6,630.13Zm-18.15,24.19c1.91-11.2,10.19-16.8,18.15-16.8,10.3,0,17.47,6.94,18.59,16.8Z" transform="translate(0 0.18)"/><path d="M554.17,639c-3.81-4.81-11.09-8.84-19.6-8.84-16.46,0-29.12,12.54-29.12,29.23s12.66,29.23,28.45,29.23a26.12,26.12,0,0,0,20.27-9.07V687h9V606.38h-9Zm-19.6,41.55c-12.32,0-20.16-9.63-20.16-21.16s7.84-21.17,20.16-21.17,20.16,9.63,20.16,21.17S546.89,680.52,534.57,680.52Z" transform="translate(0 0.18)"/><polygon points="617.11 651.13 650.6 651.13 650.6 642.62 617.11 642.62 617.11 617.31 651.83 617.31 651.83 608.8 607.03 608.8 607.03 687.2 652.28 687.2 652.28 678.68 617.11 678.68 617.11 651.13"/><polygon points="707.27 631.87 697.64 631.87 685.43 651.92 673.11 631.87 663.14 631.87 680.5 658.64 662.02 687.2 671.88 687.2 685.21 665.69 698.65 687.2 708.28 687.2 690.58 658.41 707.27 631.87"/><path d="M761.14,638.64a25.84,25.84,0,0,0-19.37-8.51c-16.47,0-28.9,13.1-28.9,29.23s12.43,29.23,28.9,29.23a25.87,25.87,0,0,0,19.37-8.51V687h9V631.69h-9Zm-19.37,41.88c-12.32,0-19.94-9.63-19.94-21.16s7.62-21.17,19.94-21.17,19.93,9.63,19.93,21.17S754.09,680.52,741.77,680.52Z" transform="translate(0 0.18)"/><path d="M842.68,630.13c-6.61,0-13.67,3.69-17,9.07-2.79-6.27-7.84-9.07-14.22-9.07a18.88,18.88,0,0,0-15.9,8.39v-6.83h-9V687h9V654.43c0-10.08,5-16.24,12.32-16.24,5.71,0,10.86,3.47,10.86,10.86v38h9V651.63c0-8.07,5.38-13.44,11.87-13.44s10.75,3.92,10.75,10.75V687h9V647.71C859.25,637.18,853.88,630.13,842.68,630.13Z" transform="translate(0 0.18)"/><path d="M938.88,615.56c10.08,0,17,3.92,22.85,9.3h1.12l-.67-11.09a39.5,39.5,0,0,0-22.85-6.72c-22.29,0-40.21,17-40.21,40.77s17.59,40.77,39.88,40.77a40.6,40.6,0,0,0,23.18-6.72l.67-11.09h-1.12c-5.82,5.38-12.77,9.3-22.85,9.3-15.79,0-29.67-12.1-29.67-32.26S923.09,615.56,938.88,615.56Z" transform="translate(0 0.18)"/><path d="M1000.6,630.13c-14.9,0-27.56,12.54-27.56,29.23,0,16.35,12.44,29.23,28.9,29.23,8.51,0,14.9-2.58,21.17-7.28l.34-9.75h-.9c-7.39,6.72-12.88,9-20.72,9-9.07,0-18.82-6.49-19.82-18.81h45.36v-4.48C1027.37,640.65,1016.05,630.13,1000.6,630.13Zm-18.15,24.19c1.91-11.2,10.19-16.8,18.15-16.8,10.3,0,17.47,6.94,18.59,16.8Z" transform="translate(0 0.18)"/><path d="M1069.48,630.13a23.61,23.61,0,0,0-19.16,9.85v-8.29h-9V687h9v-30.8c0-10.3,7.17-18,16.36-18,8,0,13.32,4.93,13.32,13.21V687h9V649.5C1089,637.52,1080.9,630.13,1069.48,630.13Z" transform="translate(0 0.18)"/><path d="M1126.15,680.52c-3.36,0-7.17-1.9-7.17-6.83V639.76h15.79v-8.07H1119V616.91l-9,4.26v10.52h-10.64v8.07H1110v33.71c0,9.63,5.71,15.12,14.34,15.12,4.25,0,6.6-.79,10.41-2.8l.67-8.51h-1C1130.85,680,1128.5,680.52,1126.15,680.52Z" transform="translate(0 0.18)"/><path d="M1173.3,630.13c-5.71,0-12,3.13-15.79,9.63v-8.07h-9V687h9V655.44c0-12.66,7.72-17.25,14.45-17.25a12.75,12.75,0,0,1,9.4,3.58h1l-.56-9.07A14.7,14.7,0,0,0,1173.3,630.13Z" transform="translate(0 0.18)"/><path d="M1242.29,657.23c0-16.58-11.31-27.1-26.77-27.1-14.89,0-27.55,12.54-27.55,29.23,0,16.35,12.43,29.23,28.9,29.23,8.51,0,14.89-2.58,21.17-7.28l.33-9.75h-.9c-7.39,6.72-12.87,9-20.71,9-9.08,0-18.82-6.49-19.83-18.81h45.36Zm-44.91-2.91c1.9-11.2,10.19-16.8,18.14-16.8,10.31,0,17.47,6.94,18.6,16.8Z" transform="translate(0 0.18)"/><path d="M29.39,557.39l.74-.74v-4.09l-.74-.75h-3a4,4,0,0,1-3.72-3.72V532.84h5.86c14.79,0,24.83-7.81,24.83-20.27s-10-20.28-24.83-20.28H2.79l-.74.75v4.09l.74.74h3a4,4,0,0,1,3.72,3.72v46.5a4,4,0,0,1-3.72,3.72h-3l-.74.75v4.09l.74.74Zm-6.7-55.8a4,4,0,0,1,3.72-3.72h2c8.46,0,11.81,6.79,11.81,14.7s-3.35,14.69-12.09,14.69h-5.4Z" transform="translate(0 0.18)"/><path d="M82.86,557.39l.75-.74v-4.09l-.75-.75H81.75A4,4,0,0,1,78,548.09V499.92l.93-8.74-.75-.75h-3l-14.51,5.49-.56.74v2.51l.74.75H62a4,4,0,0,1,3.72,3.72v44.45A4,4,0,0,1,62,551.81H60.91l-.74.75v4.09l.74.74Z" transform="translate(0 0.18)"/><path d="M144.71,552.09v-2.51l-.75-.74h-1.11a4,4,0,0,1-3.72-3.72V512.19l-.75-.74h-3.81L130,517.4h-.46a18.72,18.72,0,0,0-15.35-7.25c-12,0-23.43,8.74-23.43,24.74,0,15,9.85,23.81,22,23.81,6.88,0,11.25-2.89,14.69-7.35v6.23l.74.74h3L144,552.84Zm-29.58.47c-8.27,0-11.71-8.19-11.71-18.14s3.44-18.13,11.71-18.13,11.72,8.18,11.72,18.13S123.41,552.56,115.13,552.56Z" transform="translate(0 0.18)"/><path d="M180.7,547.26l-.74.27c-1.31,2.52-3.17,4.1-6.05,4.1s-5.3-1.86-5.3-5.68V517.4h11.72l.74-.74v-4.47l-.74-.74H168.61V499.36l-.75-.74h-1.58l-17.57,16v2l.74.74h6.88v27.72c0,9.67,6.42,13.58,13.49,13.58,8.37,0,11.62-5.4,13.11-10l-.37-.74Z" transform="translate(0 0.18)"/><path d="M201.53,505.13a7.72,7.72,0,1,0-7.72-7.72A7.71,7.71,0,0,0,201.53,505.13Z" transform="translate(0 0.18)"/><path d="M212.41,557.39l.75-.74v-4.09l-.75-.75h-1.12a4,4,0,0,1-3.71-3.72V520.94l.93-8.56-.93-.93h-2.79l-14.51,5.49-.56.74v2.51l.74.75h1.12a4,4,0,0,1,3.72,3.72v23.43a4,4,0,0,1-3.72,3.72h-1.12l-.74.75v4.09l.74.74Z" transform="translate(0 0.18)"/><path d="M249.52,517.59c5,0,8.74,2.79,8.74,8.93v21.57a4,4,0,0,1-3.72,3.72h-1.12l-.74.75v4.09l.74.74h22l.75-.74v-4.09l-.75-.75h-1.11a4,4,0,0,1-3.72-3.72v-22c0-10.69-6.7-15.9-16.37-15.9a18.77,18.77,0,0,0-16,8.28l.93-6.24-.74-.74h-3l-13.58,5.49-.55.74v2.51l.74.75h1.12a4,4,0,0,1,3.72,3.72v23.43a4,4,0,0,1-3.72,3.72H222l-.74.75v4.09l.74.74h21.95l.74-.74v-4.09l-.74-.75h-1.12a4,4,0,0,1-3.72-3.72V529.77C239.1,522.14,243.66,517.59,249.52,517.59Z" transform="translate(0 0.18)"/><path d="M336.47,552.09v-2.51l-.74-.74h-1.12a4,4,0,0,1-3.72-3.72V520.38l.93-8.74-.74-.75h-3L313.59,516l-.55.74v2.51l.74.75h1.12a4,4,0,0,1,3.72,3.72v15.43c0,7.63-4.56,12.19-10.42,12.19-5,0-8.74-2.79-8.74-8.93v-22l.93-8.74-.75-.75h-3L282.16,516l-.56.74v2.51l.75.75h1.11a4,4,0,0,1,3.72,3.72v19.06c0,10.7,6.7,15.91,16.37,15.91a19.39,19.39,0,0,0,15.07-7v5.86l.74.74h3l13.39-5.48Z" transform="translate(0 0.18)"/><path d="M365.21,551.81a4,4,0,0,1-3.72-3.72V529.68c0-7.63,4.46-12.18,9.86-12.18,4.93,0,7.16,3.25,7.16,9v21.57a4,4,0,0,1-3.72,3.72h-1.12l-.74.75v4.09l.74.74h21.95l.74-.74v-4.09l-.74-.75H394.5a4,4,0,0,1-3.72-3.72V529.68c0-7.63,4.37-12.18,9.77-12.18,4.83,0,7.25,3.25,7.25,9v21.57a4,4,0,0,1-3.72,3.72H403l-.75.75v4.09l.75.74h21.95l.74-.74v-4.09l-.74-.75H423.8a4,4,0,0,1-3.72-3.72V524.75c0-9.21-5.95-14.6-14.79-14.6-6.88,0-11.81,2.79-15.16,7.81-2.14-5.58-7.9-7.81-14.13-7.81-6.05,0-12.37,3.25-15.44,8.28l.93-6.24-.75-.74h-3l-13.58,5.49-.56.74v2.51l.74.75h1.12a4,4,0,0,1,3.72,3.72v23.43a4,4,0,0,1-3.72,3.72h-1.12l-.74.75v4.09l.74.74h21.95l.75-.74v-4.09l-.75-.75Z" transform="translate(0 0.18)"/></g><path id="English" d="M1001.62,238h53.2v10.11h-41.23v30.06h39.76v10.1h-39.76V321h41.76V331.1h-53.73Zm68.09,27.4h10.64v9.84a28.05,28.05,0,0,1,22.75-11.7c13.56,0,23.14,8.77,23.14,23V331.1H1115.6V288.8c0-9.84-6.39-15.69-15.83-15.69-10.91,0-19.42,9.18-19.42,21.41V331.1h-10.64Zm80.73,91.9-.39-10.64h1.72a32.66,32.66,0,0,0,20.88,6.78c12.77,0,22.75-7.45,22.75-22.61V320.72c-5.59,7-14.37,10.38-23.41,10.38-17.69,0-33-12.9-33-33.78s16.09-33.78,33.64-33.78c9.85,0,18.22,4.12,22.75,10V265.4H1206v59.71c0,27.27-13.84,37.91-34.85,37.91A39.23,39.23,0,0,1,1150.44,357.3Zm46-60c0-12.5-8-24.21-23.41-24.21s-23.4,11.71-23.4,24.21,8,24.2,23.4,24.2S1196.46,309.82,1196.46,297.32Zm26.6-62h10.64V331.1h-10.64Zm25.54,10.11a7.45,7.45,0,1,1,7.44,7.45A7.43,7.43,0,0,1,1248.6,245.45Zm2.12,19.95h10.64v65.7h-10.64Zm24.47,60.91,2.53-10.11h.8c5.85,4.52,11.57,7.18,18.75,7.18,8.38,0,13.3-4,13.3-9.84,0-6.91-5.85-9.44-15.29-12.63s-18.36-8.51-18.36-19.69c0-9.57,8.38-17.68,21.68-17.68a33.43,33.43,0,0,1,18,5L1317,279H1316a27.28,27.28,0,0,0-17.68-6.11c-6.39,0-11.84,2.26-11.84,8.11,0,6.25,6.12,9.17,15.56,12.5,11.84,4.12,19.15,9,19.15,19.55,0,11.57-11,19.95-24.07,19.95A38.71,38.71,0,0,1,1275.19,326.31Zm59.32-91h10.64v40.17c4.66-6.79,14.1-12,23.28-12,14.09,0,23.67,8.77,23.67,23V331.1h-10.64V288.8c0-9.84-6.92-15.69-16.36-15.69-10.9,0-19.95,9.18-19.95,21.41V331.1h-10.64Z" transform="translate(0 0.18)"/><path id="Cambridge" d="M1403.66,41.28,1404,69s-3.36.85-4.43,1.14c-1-12.13-3.74-22-23.14-22h-26.06V99.41h22.37c11,0,14-6.14,15.2-16.73h4.45v42.89l-4.44.06c-.69-10.25-3.1-18.22-15.12-18.22h-22.46v45c0,13.09,11.27,13.09,23.21,13.09,21.43,0,31.36-1.34,37.34-23,.88.23,4.4,1,4.4,1l-6,28.9H1312v-4.8h1.86c7.47,0,14.37-1.39,14.37-11.58V57.66c0-10.18-6.9-11.59-14.37-11.59H1312V41.28h91.65m-530.38,0h-58.7v4.79h2.59c4.83,0,13.82,0,13.82,15.19v95.33c0,8.13-7.45,11-13.82,11h-2.59v4.8h57v-4.8H869c-9.28,0-15.84-1.14-15.84-15.94V110.82h14.48l39,61.57H940.2v-4.9C931.35,167,927.14,164,922,156l-32.16-49,.84-.34c11.47-4.65,26-14.1,26-32.75,0-22-14.41-32.67-43.44-32.67m-7.46,5.34c16.78,0,27.93,11.18,27.93,28.47,0,21.31-9,30.4-29.41,30.4h-11.2v-58A87.85,87.85,0,0,1,865.82,46.62ZM1003,41.25H948.19v4.8H950c7.48,0,14.38,1.41,14.38,11.58V156c0,10.17-6.9,11.57-14.38,11.57h-1.84v4.8H1003v-4.8h-1.86c-7.47,0-14.37-1.4-14.37-11.57V57.63c0-10.17,6.9-11.58,14.37-11.58H1003v-4.8M252.85,106.73c0,44.18,27,69.13,69.25,69.13,20.8,0,39.07-8.15,50.9-23.44L369.57,146c-10.5,13.5-24.42,20.81-43.93,20.81-34.72,0-49.06-30.63-49.06-63,0-36.38,17.73-59,46.27-59,27.78,0,36,16.11,40.95,33.71l4.3-.56-1.38-30.35c-13.67-6.38-27.65-9.41-44.41-9.41-18.73,0-35.31,6.35-47.94,17.68-13.62,12.2-21.52,31.34-21.52,50.84m282.73-40.1s47,105.6,47.41,106.66h4L632.28,64.48s4,83.82,4,83.85l.18,9.4c0,8.9-6.4,9.27-15.26,9.81l-.36,0v4.74h54.41v-4.74c-10-.37-15.37-1.29-16.15-11.47l-5.07-87C652.92,50.59,655.54,46,670.28,46h.7V41.18H634.6c-.45,1-42.13,99.38-42.13,99.38s-44.09-98.31-44.53-99.37H510.82V46h1.52c10.42,0,16.62,6.41,15.95,17.72l-5.14,82.9c-.69,12.1-1.6,20.38-16.49,21H505v4.76h44.2v-4.76h-1.12c-12-.46-17.61-2-16.82-20l4.35-81m549.6,105.7c18.18,0,36.14-4.34,49-17.05a69.08,69.08,0,0,0,20.06-48.82c0-19.66-6.65-36.22-19.21-47.92-12.74-11.86-31-17.34-52.78-17.34l-58.62,0v4.8h1.86c7.46,0,14.36,1.4,14.36,11.58V156c0,10.19-6.9,11.58-14.36,11.58h-1.86v4.81Zm-9.75-125.45c36.88,0,54.81,19.79,54.81,63.24,0,28-15.08,56.48-48.21,56.48-14.06,0-19.94-2.24-19.94-16.14V47.5C1065.24,47.17,1072.18,46.88,1075.43,46.88ZM1265.8,165.63c-4.91,2.23-13.21,3.46-21.23,3.28-34.81,0-50.4-32.91-50.4-66.12,0-36.14,18.46-58.6,48.93-58.6,22.57,0,32.62,8.84,38.06,31.38l4.4-.28L1283.47,44a141.43,141.43,0,0,0-41.66-6.49c-34.72,0-71.61,21-71.61,67.21,0,43.41,28,71.47,71.25,71.47a153.79,153.79,0,0,0,46.1-6.93l0-35.78c0-7,3.73-10.75,10.77-10.75h1.53v-4.68h-50.4v4.68H1251c9.69,0,14.8,3.72,14.8,10.75v32.15M745,104.47c20.55,0,32.81,11.43,32.81,31.57,0,17.9-12,31.05-28,31.05-13.3,0-17.39-3.67-17.39-16.48V104.47Zm-.72-58.39c17.25,0,26,8.62,26,27.14,0,16.76-9.95,25.52-28,25.52H732.4V46.08Zm15,54.9c16.09-2.59,34.36-10.28,34.36-31,0-18.76-15-28.67-42.38-28.67l-58.2,0v4.79h2.59c4.82,0,13.81,0,13.81,15.19V156.4c0,8.14-7.45,11.17-13.81,11.17h-2.59v4.75h64.23c24.53,0,43.39-16.49,43.39-37.06A30.37,30.37,0,0,0,792,113.39c-7.39-7.57-16.17-11.2-32.67-12.41M441,41.25,483.73,155c3.16,9,7.8,12.54,14.56,12.54h.4v4.84H447.91v-4.84h1.15c9.87,0,13.74-4.13,10.77-13.22L449.5,125.51H408.18L398.66,152c-4.18,12.4,2.36,15.47,12,15.47h1.74v4.92H372.46l0-4.92h.45c8.07,0,13.52-5,16.61-13,0,0,41.61-113.18,41.61-113.18Zm-30.52,77.82h36.68L428.88,68Z" transform="translate(0 0.18)"/><rect x="2.26" y="434.23" width="1390.15" height="6.68" style="fill:#00bdb6"/><g id="Shield"><path id="Shield_Border" data-name="Shield Border" d="M2.31-.18V124c0,61.06,32.07,78.49,47.48,86.87,2.83,1.53,50.39,25.17,53.44,26.69l2,1.09,2-1.09c2.75-1.37,50.6-25.15,53.43-26.69,15.42-8.38,47.48-25.81,47.48-86.87V-.18Z" transform="translate(0 0.18)"/><path id="White_cross" data-name="White cross" d="M105.27,233.62l21-10.42V125.32h77.55c0-.43,0-.86,0-1.3V83.42H126.22V4.27H84.32V83.42H6.76V124h0c0,.44,0,.87,0,1.3H84.32V223.2Z" transform="translate(0 0.18)" style="fill:#fff"/><g id="Red_quadrants" data-name="Red quadrants"><rect x="6.76" y="4.45" width="77.56" height="79.15" style="fill:#e73337"/><rect x="126.22" y="4.45" width="77.56" height="79.15" style="fill:#e73337"/><path d="M84.32,125.32H6.77c.45,56.74,29.54,73.17,45.15,81.66,1.58.86,18.15,9.12,32.4,16.22Z" transform="translate(0 0.18)" style="fill:#e73337"/><path d="M126.22,125.32V223.2c14.26-7.1,30.83-15.36,32.41-16.22,15.6-8.49,44.7-24.92,45.14-81.66Z" transform="translate(0 0.18)" style="fill:#e73337"/></g><g id="Ermine_tales" data-name="Ermine tales"><path d="M154.09,105.19l1.6-1.91-2-2.4-2,2.4,1.6,1.91c0,1,.09,9.35-4.86,12.35a11.13,11.13,0,0,0,3.86-.11,25.11,25.11,0,0,0,1.43,4.69,25.5,25.5,0,0,0,1.42-4.69,11.13,11.13,0,0,0,3.86.11C154,114.54,154.06,106.15,154.09,105.19Z" transform="translate(0 0.18)"/><path d="M166.72,90.93l1.6-1.9-2-2.4-2,2.4,1.6,1.9c0,1,.09,9.36-4.86,12.35a11.26,11.26,0,0,0,3.86-.1,25.14,25.14,0,0,0,1.43,4.68,25.53,25.53,0,0,0,1.42-4.68,11.26,11.26,0,0,0,3.86.1C166.63,100.29,166.69,91.89,166.72,90.93Z" transform="translate(0 0.18)"/><path d="M179.35,105.19l1.6-1.91-2-2.4-2,2.4,1.61,1.91c0,1,.08,9.35-4.87,12.35a11.13,11.13,0,0,0,3.86-.11,25.11,25.11,0,0,0,1.43,4.69,25.5,25.5,0,0,0,1.42-4.69,11.13,11.13,0,0,0,3.86.11C179.26,114.54,179.32,106.15,179.35,105.19Z" transform="translate(0 0.18)"/><path d="M192,90.93l1.6-1.9-2-2.4-2,2.4,1.61,1.9c0,1,.08,9.36-4.87,12.35a11.26,11.26,0,0,0,3.86-.1,25.14,25.14,0,0,0,1.43,4.68,24.62,24.62,0,0,0,1.42-4.68,11.26,11.26,0,0,0,3.86.1C191.89,100.29,192,91.89,192,90.93Z" transform="translate(0 0.18)"/><path d="M141.46,90.93l1.6-1.9-2-2.4L139,89l1.6,1.9c0,1,.09,9.36-4.86,12.35a11.26,11.26,0,0,0,3.86-.1,24.62,24.62,0,0,0,1.42,4.68,25.14,25.14,0,0,0,1.43-4.68,11.26,11.26,0,0,0,3.86.1C141.37,100.29,141.43,91.89,141.46,90.93Z" transform="translate(0 0.18)"/><path d="M32,105.19l1.6-1.91-2-2.4-2,2.4,1.6,1.91c0,1,.09,9.35-4.86,12.35a11.13,11.13,0,0,0,3.86-.11,25.5,25.5,0,0,0,1.42,4.69A25.11,25.11,0,0,0,33,117.43a11.13,11.13,0,0,0,3.86.11C31.94,114.54,32,106.15,32,105.19Z" transform="translate(0 0.18)"/><path d="M44.66,90.93l1.6-1.9-2-2.4-2,2.4,1.61,1.9c0,1,.08,9.36-4.87,12.35a11.31,11.31,0,0,0,3.87-.1,24.62,24.62,0,0,0,1.42,4.68,25.53,25.53,0,0,0,1.42-4.68,11.26,11.26,0,0,0,3.86.1C44.57,100.29,44.63,91.89,44.66,90.93Z" transform="translate(0 0.18)"/><path d="M57.29,105.19l1.6-1.91-2-2.4-2,2.4,1.61,1.91c0,1,.08,9.35-4.87,12.35a11.13,11.13,0,0,0,3.86-.11,25.11,25.11,0,0,0,1.43,4.69,24.59,24.59,0,0,0,1.42-4.69,11.13,11.13,0,0,0,3.86.11C57.2,114.54,57.27,106.15,57.29,105.19Z" transform="translate(0 0.18)"/><path d="M69.92,90.93l1.6-1.9-2-2.4-2,2.4,1.6,1.9c0,1,.08,9.36-4.87,12.35a11.26,11.26,0,0,0,3.86-.1,25.14,25.14,0,0,0,1.43,4.68,24.62,24.62,0,0,0,1.42-4.68,11.26,11.26,0,0,0,3.86.1C69.83,100.29,69.9,91.89,69.92,90.93Z" transform="translate(0 0.18)"/><path d="M19.4,90.93,21,89l-2-2.4L17,89l1.6,1.9c0,1,.09,9.36-4.86,12.35a11.26,11.26,0,0,0,3.86-.1A25.53,25.53,0,0,0,19,107.86a25.14,25.14,0,0,0,1.43-4.68,11.26,11.26,0,0,0,3.86.1C19.31,100.29,19.37,91.89,19.4,90.93Z" transform="translate(0 0.18)"/><path d="M105.69,137.13l1.61-1.9-2-2.41-2,2.41,1.6,1.9c0,1,.09,9.35-4.86,12.35a11.13,11.13,0,0,0,3.86-.11,24.59,24.59,0,0,0,1.42,4.69,24.59,24.59,0,0,0,1.42-4.69,11.18,11.18,0,0,0,3.87.11C105.61,146.48,105.67,138.09,105.69,137.13Z" transform="translate(0 0.18)"/><path d="M105.69,180l1.61-1.91-2-2.4-2,2.4,1.6,1.91c0,1,.09,9.35-4.86,12.35a11.13,11.13,0,0,0,3.86-.11,24.39,24.39,0,0,0,1.42,4.68,24.39,24.39,0,0,0,1.42-4.68,11.18,11.18,0,0,0,3.87.11C105.61,189.37,105.67,181,105.69,180Z" transform="translate(0 0.18)"/><path d="M117.47,158.57l1.61-1.9-2-2.4-2,2.4,1.6,1.9c0,1,.09,9.36-4.87,12.36a11.5,11.5,0,0,0,3.87-.11,24.62,24.62,0,0,0,1.42,4.68,24.62,24.62,0,0,0,1.42-4.68,11.49,11.49,0,0,0,3.87.11C117.39,167.93,117.45,159.53,117.47,158.57Z" transform="translate(0 0.18)"/><path d="M93.92,158.57l1.6-1.9-2-2.4-2,2.4,1.61,1.9c0,1,.08,9.36-4.87,12.36a11.43,11.43,0,0,0,3.86-.11,25.14,25.14,0,0,0,1.43,4.68,24.62,24.62,0,0,0,1.42-4.68,11.43,11.43,0,0,0,3.86.11C93.83,167.93,93.89,159.53,93.92,158.57Z" transform="translate(0 0.18)"/><path d="M117.47,201.46l1.61-1.9-2-2.41-2,2.41,1.6,1.9c0,1,.09,9.35-4.87,12.35a11.19,11.19,0,0,0,3.87-.11,24.59,24.59,0,0,0,1.42,4.69,24.59,24.59,0,0,0,1.42-4.69,11.18,11.18,0,0,0,3.87.11C117.39,210.81,117.45,202.42,117.47,201.46Z" transform="translate(0 0.18)"/><path d="M93.92,201.46l1.6-1.9-2-2.41-2,2.41,1.61,1.9c0,1,.08,9.35-4.87,12.35a11.13,11.13,0,0,0,3.86-.11,25.11,25.11,0,0,0,1.43,4.69,24.59,24.59,0,0,0,1.42-4.69,11.13,11.13,0,0,0,3.86.11C93.83,210.81,93.89,202.42,93.92,201.46Z" transform="translate(0 0.18)"/><path d="M105.69,37.54l1.61-1.91-2-2.4-2,2.4,1.6,1.91c0,1,.09,9.35-4.86,12.35a11.13,11.13,0,0,0,3.86-.11,24.39,24.39,0,0,0,1.42,4.68,24.39,24.39,0,0,0,1.42-4.68,11.18,11.18,0,0,0,3.87.11C105.61,46.89,105.67,38.5,105.69,37.54Z" transform="translate(0 0.18)"/><path d="M117.47,16.09l1.61-1.9-2-2.4-2,2.4,1.6,1.9c0,1,.09,9.36-4.87,12.36a11.5,11.5,0,0,0,3.87-.11A24.62,24.62,0,0,0,117.05,33a24.62,24.62,0,0,0,1.42-4.68,11.49,11.49,0,0,0,3.87.11C117.39,25.45,117.45,17.05,117.47,16.09Z" transform="translate(0 0.18)"/><path d="M93.92,16.09l1.6-1.9-2-2.4-2,2.4,1.61,1.9c0,1,.08,9.36-4.87,12.36a11.43,11.43,0,0,0,3.86-.11A25.14,25.14,0,0,0,93.5,33a24.62,24.62,0,0,0,1.42-4.68,11.43,11.43,0,0,0,3.86.11C93.83,25.45,93.89,17.05,93.92,16.09Z" transform="translate(0 0.18)"/><path d="M117.47,59l1.61-1.9-2-2.41-2,2.41,1.6,1.9c0,1,.09,9.35-4.87,12.35a11.19,11.19,0,0,0,3.87-.11,24.59,24.59,0,0,0,1.42,4.69,24.59,24.59,0,0,0,1.42-4.69,11.18,11.18,0,0,0,3.87.11C117.39,68.33,117.45,59.94,117.47,59Z" transform="translate(0 0.18)"/><path d="M93.92,59l1.6-1.9-2-2.41-2,2.41L93.08,59c0,1,.08,9.35-4.87,12.35a11.13,11.13,0,0,0,3.86-.11,25.11,25.11,0,0,0,1.43,4.69,24.59,24.59,0,0,0,1.42-4.69,11.13,11.13,0,0,0,3.86.11C93.83,68.33,93.89,59.94,93.92,59Z" transform="translate(0 0.18)"/></g><g id="Lions_guardant" data-name="Lions guardant"><g id="Lion_bottom_right" data-name="Lion bottom right"><path d="M183.2,166.48a5.72,5.72,0,0,0,4.08,2.5,8,8,0,0,0,1.77-.27,3.73,3.73,0,0,1,.87-.13c.33,0,.46.12.46.42a4.54,4.54,0,0,1-.34,1.23,5.87,5.87,0,0,0-.39,1.18l-.26,1.38-.66,1.18-.92.86-.27.27V176a3.55,3.55,0,0,1-1.77,3.39,3.63,3.63,0,0,0-.46.32l-.13.54a16.57,16.57,0,0,1-.66,2.29,14.48,14.48,0,0,1-1.25,1.84,11.71,11.71,0,0,0-1.64,2.7c-.27.66-.48.84-.91.84-.65,0-1.29-.81-1.4-1.76a2.19,2.19,0,0,1-.33.39l-.78.53-1.26.85a10.91,10.91,0,0,0-1,.78l-.73.73a.55.55,0,0,1-.37.2c-.33,0-.68-.56-1-1.65l-.65-2.16a7.31,7.31,0,0,1-.27-2.13,4.53,4.53,0,0,1,.46-2.34,7.86,7.86,0,0,0-2.36.46,2.43,2.43,0,0,1-.57.13c-.22,0-.35-.15-.35-.41a3.81,3.81,0,0,1,.26-1l.85-2.23a5.57,5.57,0,0,1,4.51-3.32,5.76,5.76,0,0,1,1.68.36,3.41,3.41,0,0,0,1,.2,1.31,1.31,0,0,0,1.37-1.25,1,1,0,0,0-.53-.86c-.1,0-.9-.29-2.36-.72-1.11-.33-1.65-.74-2.89-2.18-.91-1-1.26-1.33-1.59-1.33s-.38.16-.38.46l.06.87,0,.41a12,12,0,0,1-1.86,6l-1.84,3.35a8.13,8.13,0,0,0-1.25,4c0,1.33.57,2.5,1.31,2.7l1,.26a.75.75,0,0,1,.33.2.64.64,0,0,1,.2.38,1.18,1.18,0,0,1-.33.61c-.12.13-.51.64-1.19,1.51a5.6,5.6,0,0,1-3.22,2.43,6.35,6.35,0,0,1-4.4,3.81l-.26.46c-.79,1.38-2.53,2.64-3.63,2.64h-.26a5.07,5.07,0,0,1-2.3,3.35c-.89.62-1.39,1-1.51,1.11a2.54,2.54,0,0,0-.32.59c-.3.66-.57.93-.94.93-.7,0-1.28-.66-1.69-1.91-.27.17-.47.3-.59.39a14.15,14.15,0,0,1-1.26.85,14.44,14.44,0,0,1-2.29.66c-1.62.38-3,1.07-3.36,1.65l-.59,1-.27.12c-.32,0-.69-.45-.85-1a16.25,16.25,0,0,1-.59-3.69c0-2.33.77-3.85,3.16-6.23v-.57c0-3.63,2.77-6.09,6.85-6.09l.65,0,2.24.13h.21a5.43,5.43,0,0,0,3.53-1.46c1.61-1.31,2.08-2.12,2.08-3.59a10.23,10.23,0,0,0-.63-2.65,10.61,10.61,0,0,1-.49-3.09c0-2.72,2-6.09,4.7-7.95.69-.49,1.21-1.12,1.21-1.5,0-.15-.08-.27-.18-.27a1.68,1.68,0,0,0-.84.51,7.06,7.06,0,0,1-1.58,1l-1,.53-1.18.46c-.36.14-.55.34-.55.59a1.74,1.74,0,0,0,.16.59,1.73,1.73,0,0,1,.13.48,1.81,1.81,0,0,1-.33.77l-.92,1.51a5.56,5.56,0,0,1-2.7,2.63c-.74,2.16-1.8,3.26-3.35,3.49-1.24,2.5-2.33,3.37-4.53,3.61a8.24,8.24,0,0,1-2,3,6.26,6.26,0,0,0-.86,1.05c-.51.92-.56,1-.8,1a3.24,3.24,0,0,1-1.5-1,3.61,3.61,0,0,1-.59-.79l-.6-1.05c-.19-.34-.39-.5-.63-.5l-.42,0-1.45.2a4.64,4.64,0,0,0-2.63,1.52l-.79,1.18a.39.39,0,0,1-.31.2c-.59,0-1-1.3-1-3.45a6.77,6.77,0,0,1,.94-4.05l1.84-2.56a1.81,1.81,0,0,0,.4-1,1.36,1.36,0,0,0-.33-.85,2.17,2.17,0,0,0-1-.79l-1.39-.19c-.24,0-.35-.1-.35-.2a.81.81,0,0,1,.22-.45,6,6,0,0,1,1.64-1.45,7.18,7.18,0,0,1,3.8-1.39,6.42,6.42,0,0,1,3.44,1.13l1.9,1.24a1.65,1.65,0,0,0,.92.27c.88,0,1.55-.52,2.17-1.71a6.39,6.39,0,0,0,.87-3.05,4.09,4.09,0,0,0-4.22-4.25,5.61,5.61,0,0,0-3.42,1.32,2.1,2.1,0,0,0-.66.72l-.52,1.18c-.12.29-.32.46-.47.46-.33,0-1.08-.95-1.7-2.17a14.71,14.71,0,0,1-.92-2.37,10.78,10.78,0,0,1-.56-3.27l.1-1.78a6.59,6.59,0,0,1-1.19-4.07,7.39,7.39,0,0,1,.46-2.31,4.9,4.9,0,0,1-.72-2.93l.06-.83.2-.91.13-.79c-.63-.83-.81-1.38-1.44-4.27a8.78,8.78,0,0,0-.85-2.76,1,1,0,0,1-.2-.4c0-.38.91-.73,2-.73l.92.07a3,3,0,0,1-.28-1.32,8.23,8.23,0,0,1,.48-2.62,5.18,5.18,0,0,0,.42-1.61,6.18,6.18,0,0,0-.29-2l-.52-1.32a1.85,1.85,0,0,1-.18-.68c0-.13.09-.18.33-.18,1.29,0,3.76,1.4,5.69,3.23a7.06,7.06,0,0,1,2.55,6l-.11,1.44c1.79,1.57,2.57,2.86,2.57,4.27a3.44,3.44,0,0,1-1.33,2.69c-1.77,1.76-2.17,2.68-2.17,4.95,0,3.49,1,5.38,3,5.38,1.7,0,3-1.84,3.21-4.54l.2-2.5a23.07,23.07,0,0,1,.33-2.36,12.63,12.63,0,0,0,.2-1.72c0-.89-.58-2-2.3-4s-2.47-3.32-2.47-5a3.3,3.3,0,0,1,3.29-3.51,2.3,2.3,0,0,1,1.28.37,6.39,6.39,0,0,1,.72-3c.52-1.26,1.06-2.16,1.32-2.16a.73.73,0,0,1,.39.26,6.84,6.84,0,0,0,.86.72l.66.46a6.8,6.8,0,0,1,.59.6,6.3,6.3,0,0,1,2-3.36c.92-.9,1.26-1.18,1.44-1.18s.3.12.46.33l.79,1,1.12,1.26a3.57,3.57,0,0,1,.79,2l.65-.39,1.05-.59a7.62,7.62,0,0,0,.8-.53.87.87,0,0,1,.41-.2c.11,0,.23.19.31.47l.39,1.51.86,1.71a3.33,3.33,0,0,1,.33,1.69v.41h.44c1.29,0,2.41,1.53,2.41,3.29,0,2.35-1.87,5.37-4.3,7a5.4,5.4,0,0,0-.28,1.74c0,5.23,1.38,6.33,9.41,7.53a44.2,44.2,0,0,1,5.39,1.11l5.2,1.71a12.86,12.86,0,0,0,3.89.86c1,0,1.52-.28,1.52-.8,0-.9-1.31-1.7-5.34-3.28l-5.72-2.23c-5.82-2.28-8.56-5.83-8.56-11.05a10.4,10.4,0,0,1,10.66-10.65,21.8,21.8,0,0,1,7.76,1.65c4.15,1.51,4.36,1.57,4.81,1.57.81,0,1.24-.54,1.37-1.7.1-1,.37-1.39.91-1.39.81,0,1.68.75,2.31,2a7.85,7.85,0,0,1,.85,3.41,3.75,3.75,0,0,1-3.22,4,6.39,6.39,0,0,1-5.29,2.73c-2.62,0-3.92-.52-8.38-3.32a5.68,5.68,0,0,0-3.46-1.24,2.47,2.47,0,0,0-2.73,2.29c0,1.2,1,2,3.16,2.57a3.47,3.47,0,0,1,2.17,1.11,4.5,4.5,0,0,1,1.1-.16,11.66,11.66,0,0,1,7,3.06c4.05,1.25,7.65,5.62,7.65,9.29a7.81,7.81,0,0,1-7.44,7.68,26.25,26.25,0,0,1-5.08-.8" transform="translate(0 0.18)"/><path d="M180.84,184.69l.26-.73.26-.92a5.48,5.48,0,0,1,.73-1.11,5.32,5.32,0,0,0,1-3.27,2.66,2.66,0,0,0-.35-1.27,1.56,1.56,0,0,1-.2-.61.56.56,0,0,1,.14-.31.43.43,0,0,1,.27-.19h0a1.16,1.16,0,0,1,.67.46c.28.34.53.53.67.53.3,0,.61-.5.78-1.25a6.12,6.12,0,0,0,.13-.66,6.2,6.2,0,0,0-.59-1.84,1.56,1.56,0,0,1-.19-.66.4.4,0,0,1,.36-.43,1.72,1.72,0,0,1,.88.56.78.78,0,0,0,.5.27c.41,0,.71-.42,1-1.45a5.84,5.84,0,0,0,.26-1c0-.19-.08-.3-.23-.3l-.23,0-.78.08a5.57,5.57,0,0,1-3.69-1.79l-1.84-2.23a25.21,25.21,0,0,1-1.65-2.18l-1.51-1a.72.72,0,0,1-.39-.54c0-.24.25-.41.62-.41a15.51,15.51,0,0,1,3.39,1.21,20.51,20.51,0,0,0,6.66,1.46,5.7,5.7,0,0,0,5.73-5.63c0-1.69-.75-3.25-2.6-5.42a2.35,2.35,0,0,0-1.21-.81.36.36,0,0,0-.37.39,2.1,2.1,0,0,0,.2.74,1.51,1.51,0,0,1,.13.6c0,.3-.11.48-.31.48-.42,0-.85-.68-1.2-1.86-.43-1.47-1.29-2.34-3.29-3.36a7.18,7.18,0,0,0-2.08-.74c-.13,0-.22.12-.22.29a1.47,1.47,0,0,0,.27.78,3.44,3.44,0,0,1,.53,1.25v.06c0,.26-.13.4-.37.4-.42,0-.52-.11-1.48-1.58a7.62,7.62,0,0,0-3-2.23,3.17,3.17,0,0,0-1.12-.27h0c-.24,0-.43.11-.43.26a3.18,3.18,0,0,0,.3.6l.1.37a.34.34,0,0,1-.31.36,7,7,0,0,1-2.58-2.11,6.53,6.53,0,0,1-1.71-3.94,5.08,5.08,0,0,1,5.09-4.74,3.89,3.89,0,0,1,1.68.33l2.3,1.18,2.7,1.78a10.7,10.7,0,0,0,5,1.78,6.94,6.94,0,0,0,2.07-.41c.64-.17,1-.43,1-.66l0-.05-.23-.14-1.45-.12a12.43,12.43,0,0,1-4.07-1.85l-3-2-2.69-1.12c-.21-.08-.34-.21-.34-.35a.29.29,0,0,1,.31-.25s.26.06.75.14l2.5.73a17.93,17.93,0,0,1,3,1.37c2.74,1.46,4.53,2.11,5.84,2.11a2.49,2.49,0,0,0,2.64-2.46,9.36,9.36,0,0,0-.26-1.88,2.5,2.5,0,0,0-.4-.86.51.51,0,0,0-.32-.25c-.19,0-.3.19-.3.53l0,.45,0,.38c0,1.22-.47,1.64-1.81,1.64-1.1,0-2.56-.44-5.91-1.76a18.84,18.84,0,0,0-7-1.71c-4.95,0-9.28,4-9.28,8.64,0,4,2.64,7,8,9.24l5.58,2.3c4.63,1.9,6.32,3.27,6.32,5.06,0,1.5-1.39,2.46-3.56,2.46a14.75,14.75,0,0,1-4.27-.94c-5.23-1.67-8.63-2.36-11.62-2.36-4.88,0-8.35,1.33-11.12,4.26-.37.39-.58.51-.91.51a1.91,1.91,0,0,1-.93-.38,3.18,3.18,0,0,0-1.45-.47,2.41,2.41,0,0,0-1.58.87l-.65.85a.89.89,0,0,1-.58.4c-.48,0-1.32-.81-1.85-1.78a5.89,5.89,0,0,1-.66-1.71,9.42,9.42,0,0,1-.14-1.8l.07-1.22.2-1.31a9,9,0,0,1,.2-1.12.34.34,0,0,1,.31-.26c.34,0,.49.31.49,1v.41l0,.3c0,1.87.75,3.59,1.56,3.59.64,0,1.21-1.15,1.68-3.43.09-.46.28-.72.5-.72s.42.34.62,1.32a5.65,5.65,0,0,0,1,2.1,1.15,1.15,0,0,0,.75.53c.54,0,.89-.81,1.15-2.7.11-.74.33-1.19.58-1.19a.35.35,0,0,1,.28.14,7.54,7.54,0,0,1,.46.72,1.85,1.85,0,0,0,.72.66,2,2,0,0,0,.77.26,1,1,0,0,0,.61-.26c.3-.26.46-.46.46-.54s-.13-.3-.39-.58a6.27,6.27,0,0,1-1.18-2.17c-.28-.72-.47-1.22-.59-1.51a.93.93,0,0,0-.33-.46l-.21,0-.39,0-1.37.39-.43.07a.3.3,0,0,1-.31-.32,1.31,1.31,0,0,1,.54-.73c1.66-1.33,2.65-3.54,3-6.77a6.87,6.87,0,0,1,1.31-3.88c.18-.25.33-.4.42-.4.25,0,.39.2.39.58a2.74,2.74,0,0,1-.21.94,2.13,2.13,0,0,0-.15.79v.25l.14.4.72-.26.79-.92a4.84,4.84,0,0,0,.86-2.69,2.14,2.14,0,0,0-.53-1.52c-.41-.49-.7-.69-1-.69l-.45,0-.46,0c-.43,0-.64-.13-.64-.39l.11-.5.07-.72-.39-1.64-.33-.8-.2-.65-.46.32-1,.59a3.29,3.29,0,0,0-.8.73c-.93,1.13-1,1.19-1.36,1.19s-.38-.09-.38-.25l0-.28a7.09,7.09,0,0,0,.19-1.37,6.25,6.25,0,0,0-1.83-3.82,5.88,5.88,0,0,0-2.11,4.14V137c0,.3-.1.46-.3.46h0a.84.84,0,0,1-.46-.34l-.79-1a8.08,8.08,0,0,0-1-.86c-.12-.1-.3-.25-.52-.46l-.27.52a7,7,0,0,0-.92,3.16c0,.88-.1,1.13-.31,1.13a.9.9,0,0,1-.41-.15c-1-.55-1.09-.59-1.52-.59a1.94,1.94,0,0,0-2,2.09,5.24,5.24,0,0,0,.81,2.19c.6,1.07,1.51,2,1.9,2,.12,0,.14-.08.14-.4v-.14l-.06-1.12-.14-.86v-.11c0-.25.1-.36.3-.36q.9,0,1.56,5.21c.38,3.05,1.22,5.16,2.56,6.38.34.31.53.56.53.71a.24.24,0,0,1-.26.21,2.09,2.09,0,0,1-.86-.33,1.42,1.42,0,0,0-.72-.21,1.88,1.88,0,0,0-1.52,1.59l-.59,3.75-.46,5.26a14.09,14.09,0,0,0,.39,3.94,16.62,16.62,0,0,1,.47,3.11c0,3.94-2.46,7.06-6.52,8.26l-4.2,1.25c-2.62.78-3.91,2.5-4.27,5.72a3,3,0,0,1,1.9-.79l1.25-.19a3.79,3.79,0,0,0,1.12-.33,5.27,5.27,0,0,0,.72-.73l1.12-1.25c.42-.47.8-.74,1-.74a.34.34,0,0,1,.29.38,2.47,2.47,0,0,1-.47,1.09,3.12,3.12,0,0,0-.48,1.69,4,4,0,0,0,1.08,2.58,3.9,3.9,0,0,1,.26-.79,13.32,13.32,0,0,1,1-1.38,7.23,7.23,0,0,0,1.57-3c0-1,.11-1.35.37-1.35s.26.05.36.63a.75.75,0,0,0,.19.39c.16.17.3.27.4.27a1.47,1.47,0,0,0,.53-.27,4.38,4.38,0,0,0,1-.92,4.1,4.1,0,0,0,.66-1.18,4.3,4.3,0,0,0,.34-1.24v-.85c0-.23.09-.41.22-.41s.49.34.7.73.24.33.42.33h0a1,1,0,0,0,.59-.27,3.94,3.94,0,0,0,1.32-2.47l-.07-1.21-.26-1v-.08a.36.36,0,0,1,.32-.38c.29,0,.62.42,1.07,1.38.21.46.4.67.6.67s.56-.24,1.18-1.13l.59-.85a1.14,1.14,0,0,0,.19-.66,1.15,1.15,0,0,0-.19-.65l-.53-.79a1.28,1.28,0,0,1-.13-.66,6.38,6.38,0,0,1,1-3.09,14.63,14.63,0,0,0,.85-1.65c.1-.27.22-.39.36-.39s.23.15.23.33l-.06.72v1.05c.08.24.25.34.56.34a2.17,2.17,0,0,0,.69-.14l1.64-.59a11.54,11.54,0,0,0,1.51-.73c2.57-1.42,3.37-1.72,4.64-1.72a8,8,0,0,1,3.12.93,1.65,1.65,0,0,0,.67.21.8.8,0,0,0,.58-.33.78.78,0,0,0,.19-.5,1.69,1.69,0,0,0-.26-.82,3.06,3.06,0,0,1-.4-1,.27.27,0,0,1,.3-.29.71.71,0,0,1,.49.35c.2.31.7,1.19,1.51,2.63,1.23,2.18,2.83,3.69,4.22,4l2.89.66c.89.2,1.12.55,1.12,1.66a5.74,5.74,0,0,1-2.63,4.91l-2.37,1.52a4.34,4.34,0,0,0-1.58,3.31,18.22,18.22,0,0,0,.46,3.39l.46-.46,1.12-.66,1-1,.52-1.44.52-1.32c.26-.64.56-1.05.77-1.05s.36.36.36,1v.43a4.93,4.93,0,0,0,.86,2.78" transform="translate(0 0.18)" style="fill:#ffe500"/><path d="M141.91,203.44c0-3.13,1.13-4.49,5.66-6.79,8.94-4.53,13.75-8.69,13.75-11.84a14.06,14.06,0,0,0-.79-3.54,11.18,11.18,0,0,1-.57-2.86,8.07,8.07,0,0,1,2.74-5l1.24-1.11a3.39,3.39,0,0,0,1.2-2.08v-.3l0-.39c0-.65.25-.89.93-.92l.6-.06.5-.14a.67.67,0,0,1,.55.33l.33.53.46.52a.66.66,0,0,0,.42.27,1.61,1.61,0,0,0,.5-.19,1.59,1.59,0,0,1,.8-.25c.34,0,.51.18.51.56,0,1.32-.85,3.23-2.36,5.27-2.52,3.41-3.35,5.25-3.35,7.44a7.18,7.18,0,0,0,1.44,4.46,1.13,1.13,0,0,1,.27.48,1.74,1.74,0,0,1-.46.83,6,6,0,0,0-.4.53c-.53.76-.87,1.05-1.22,1.05a.71.71,0,0,1-.62-.53l-.26-.72a.46.46,0,0,0-.37-.33s-.17.1-.29.27a1.18,1.18,0,0,0-.26.72v1.12a2.24,2.24,0,0,1-.46,1.31,5.64,5.64,0,0,1-.92,1,1.29,1.29,0,0,1-.52.34c-.19,0-.38-.21-.47-.53l-.4-1.32a.39.39,0,0,0-.33-.32c-.21,0-.4.37-.46.92a4.72,4.72,0,0,1-.78,2.76l-.92.85a1.64,1.64,0,0,1-.84.48.42.42,0,0,1-.41-.22l-.47-1a.31.31,0,0,0-.29-.2c-.26,0-.46.53-.56,1.52-.23,2.36-.73,3.43-2,4.34a3.62,3.62,0,0,0-1.64,1.84,4.16,4.16,0,0,1-.8-2.62,2.44,2.44,0,0,1,.27-1.25,2.82,2.82,0,0,0,.42-1.09.26.26,0,0,0-.23-.29c-.06,0-.18.09-.33.26a3.58,3.58,0,0,1-.85.66,2.53,2.53,0,0,0-1.64,2.23,3.35,3.35,0,0,1-3,2.95c-2.23.46-2.36.52-3.16,1.26Z" transform="translate(0 0.18)" style="fill:#ffe500"/><path d="M137.65,135.65v1.63a4.13,4.13,0,0,1-.14,1.07,6.72,6.72,0,0,0-.27,1.48,5.34,5.34,0,0,0,.92,3.18,4.92,4.92,0,0,1,.68,2.21c0,.26-.11.42-.29.42a.43.43,0,0,1-.32-.19l-.52-.73c-.43-.58-.82-.73-1.89-.73l-1.14.07a14.35,14.35,0,0,1,.79,2.3c.53,2.15.61,2.31,1.78,3.36s1.28,1.19,1.28,1.57a.5.5,0,0,1-.45.53l-.44-.07-.26,0c-.36,0-.69.66-.69,1.39a4.75,4.75,0,0,0,.42,1.66,3.14,3.14,0,0,0,.46.79l.66.65a1,1,0,0,1,.27.68c0,.32-.19.58-.4.58a1.35,1.35,0,0,1-.59-.21,1.11,1.11,0,0,0-.47-.13c-.29,0-.43.18-.43.54l.11,1,.39,1.7a3.17,3.17,0,0,0,.72,1.26,3.32,3.32,0,0,0,1,.79c.83.35,1.27.56,1.32.59a.64.64,0,0,1,.19.52.45.45,0,0,1-.43.46,6.38,6.38,0,0,1-.68-.13l-.67-.06c-.67,0-.72,0-.72.55a4,4,0,0,0,.14,1l.26,1c.28,1.11.64,1.72,1,1.72a1.13,1.13,0,0,0,.48-.27,8.09,8.09,0,0,1,4.06-1.38,13.17,13.17,0,0,1,3.17.33,2.66,2.66,0,0,0,.63.16c.17,0,.22-.16.23-.75L148,165l.27-2,.19-1.51v-.86l-.53.46a3.86,3.86,0,0,1-3,1.38c-3,0-4.76-3.4-4.76-9.33a62.82,62.82,0,0,1,1-9.87,11.62,11.62,0,0,0,.2-1.82c0-2.16-1.36-4.28-3.75-5.8" transform="translate(0 0.18)" style="fill:#ffe500"/><path d="M142.12,150.37l.59-.58.59-.53a3.07,3.07,0,0,0,.88-2,2.11,2.11,0,0,0-.22-.94c-.23-.49-.67-.93-.93-.93s-.43.54-.52,1.39l-.13,1-.19,1-.07,1Z" transform="translate(0 0.18)" style="fill:#ffe500"/><path d="M136.33,177.26c.68.25.82.36,1.51,1.18a2.86,2.86,0,0,0,2.63,1.32,3.48,3.48,0,0,0,.93-.13l.85-.26.65-.21c.32-.08.53-.22.53-.33s-.51-.57-1.31-1.11a12.39,12.39,0,0,0-1.58-.92,3.37,3.37,0,0,0-1.51-.41,4.88,4.88,0,0,0-2.7.87" transform="translate(0 0.18)" style="fill:#ffe500"/><path d="M145.21,195.76c0-2.12,2.08-3.86,4.63-3.86,1.27,0,2,.25,2,.69s-.56.79-1.78,1.44c-.12.06-.75.4-1.9,1.05a28.7,28.7,0,0,1-2.9,1.44Z" transform="translate(0 0.18)" style="fill:#ffe500"/><path d="M172,179.82c.94-.19,1.25-.43,1.71-.45l1.19.06a3.58,3.58,0,0,0,.78-.53c.21-.16.52-.38.92-.65,1.32-.9,1.39-1,1.39-1.24s-.53-.55-1.64-.55c-2.07,0-3.34,1-4.35,3.36" transform="translate(0 0.18)" style="fill:#ffe500"/><path d="M152.11,139.79l.92.6a9.53,9.53,0,0,0,1.31.71c1,.42,1.39.57,1.39,1a2.74,2.74,0,0,1-.13.75,3.69,3.69,0,0,0-.2.92c-.09.9-.64,1.12-1,1.12s-.91-.68-1.64-2a14.56,14.56,0,0,1-1.05-2.62l0-.26a.25.25,0,0,1,.28-.26Z" transform="translate(0 0.18)"/><path d="M161,142.08l-1.51,1.52a5.83,5.83,0,0,0-.65,1.45.89.89,0,0,1-.47.2h-.09a.67.67,0,0,1-.69-.66l-.07-1.12-.07-1.12v-.06a.68.68,0,0,1,.59-.73l1.39-.39,1.44-.73a2.3,2.3,0,0,1,.63-.26.36.36,0,0,1,.3.38,1.07,1.07,0,0,1-.14.42Z" transform="translate(0 0.18)"/><path d="M154.34,146.56l1,.73a1.77,1.77,0,0,0,.88.22,4.06,4.06,0,0,0,1.55-.42l.86-.39a1.31,1.31,0,0,1,.51-.14c.53,0,.94.55.94,1.25,0,1-.7,2-1.72,3.42l-.71,1.51c-.58.82-1,1.12-1.43,1.12-.78,0-1.16-.44-2.33-2.77a8.31,8.31,0,0,1-1.18-3.48c0-.7.36-1.18.88-1.18a1.21,1.21,0,0,1,.76.13" transform="translate(0 0.18)"/><path d="M155.2,150.18l.07,1.25a1.18,1.18,0,0,0,.95,1.13c.61,0,1-.92,1.28-2.31a7.49,7.49,0,0,0,.15-.91c0-.49-.16-.62-.78-.62h-1.11c-.41,0-.57.32-.57,1.16Z" transform="translate(0 0.18)" style="fill:#ffe500"/></g><g id="Lion_bottom_left" data-name="Lion bottom left"><path d="M68.82,167.46a10.2,10.2,0,0,1,.86,3.1l.13,2.76q.15,4.14,2.76,4.14A2.05,2.05,0,0,0,74,177l.73-.72.29-.09c.46,0,.71.3.71.86l-.08,1.07a15,15,0,0,0,.26,3,17.29,17.29,0,0,1,.2,2.66,7.05,7.05,0,0,1-.59,3.2,12.68,12.68,0,0,1,.72,4,5.3,5.3,0,0,1-.79,3.2,8.84,8.84,0,0,1,.33,2.23,15.8,15.8,0,0,1-.26,2.5,13.39,13.39,0,0,0-.27,3.15v.17c0,.41-.12.62-.38.62a1.2,1.2,0,0,1-.81-.52c-.4-.52-.66-.71-1-.71-.46,0-.6.25-1.28,2.22a8.59,8.59,0,0,1-1.57,2.43,5.61,5.61,0,0,0-1.18,1.91c-.21.79-.35,1.24-.4,1.38a.5.5,0,0,1-.4.32h-.08c-1.08,0-2.32-2.32-3.6-6.71-.35-1.24-.81-1.79-1.48-1.79a1.32,1.32,0,0,0-1.15.74l-.39.92a.4.4,0,0,1-.35.27c-.52,0-1.32-1-1.82-2.18a8.28,8.28,0,0,1-.64-3c0-2.06,1.52-3.6,6.1-6.18,2-1.12,2.76-2.55,2.76-5.12a5,5,0,0,0-2.37-4.54c-1.38-1-2.19-1.45-2.92-1.45a1,1,0,0,0-1.12.94c0,.62.36,1,1.22,1.29s1.45.72,1.45,1.17a6.22,6.22,0,0,1-1.12,2.38,6.14,6.14,0,0,1-2.11,2.18c-.31,1.8-1.16,3-3.15,4.27a7.06,7.06,0,0,1-1.32,2.43l-1.38,1.78a5.75,5.75,0,0,0-1,2c-.15,1-.25,1.18-.63,1.18s-1.59-.93-2.66-2.3a3.22,3.22,0,0,1-.86-2.18,3.28,3.28,0,0,1-2.23.79,5.45,5.45,0,0,0-1.78.47,4.88,4.88,0,0,1-1.52.67c-.27,0-.36-.14-.38-.61l-.07-1.45a10.28,10.28,0,0,1,2-5.85,6.56,6.56,0,0,0-3.22-1.71c-.39,0-.49-.09-.49-.23a2.69,2.69,0,0,1,.62-1.21,10.26,10.26,0,0,1,1.19-1.32,6.54,6.54,0,0,1,3.81-1.38,12.17,12.17,0,0,1,3.74.92,4.38,4.38,0,0,0,1.57.33c.73,0,1.14-.47,1.14-1.29,0-1.2-.59-3.07-1.92-6.07a12.25,12.25,0,0,1-1.3-4.34c0-2.28,1.08-4.64,2.42-5.32a2.72,2.72,0,0,0-1.46-.4,3.7,3.7,0,0,0-2,.66c-1,.57-1.52,1.07-1.52,1.4,0,.13.2.34.53.57.51.36.6.49.6,1,0,1.63-1.34,3.8-3.23,5.21a5.77,5.77,0,0,1-3.55,4.67,6.44,6.44,0,0,1-1.44,3c-1.72,2.4-2.12,3.17-2.43,4.53-.17.71-.33,1-.55,1s-.85-.44-1.49-1.13a11,11,0,0,1-1-1.26,6,6,0,0,1-.72-2.1,2.67,2.67,0,0,1-.95.16l-1,0-.66,0a8.1,8.1,0,0,0-3.75.8,1.42,1.42,0,0,1-.57.26c-.42,0-.77-.89-.77-2a10.49,10.49,0,0,1,2.2-6.48,10.76,10.76,0,0,1-1.25-1.18,2.16,2.16,0,0,0-.53-.47l-.72-.39c-.25-.13-.4-.3-.4-.43,0-.35,1-1.27,2.11-2a5.94,5.94,0,0,1,3.18-1.19c1.08,0,1.65.28,3,1.45.93.81,1.56,1.18,2,1.18a1.24,1.24,0,0,0,.93-.59,1.69,1.69,0,0,0,.34-1c0-1.26-1.5-3.38-3.16-4.48a7.23,7.23,0,0,0-3.92-1.25,4.42,4.42,0,0,0-4.1,2.37l-.73,1.52c-.17.35-.38.53-.62.53-.42,0-.64-.19-2.14-1.91l-1.7-2a5.47,5.47,0,0,1-1.06-1.7,3.5,3.5,0,0,0-.33-.86,3.75,3.75,0,0,0-.65-.53c-1.32-.93-2.28-2.78-2.83-5.45,0-.19-.1-.48-.2-.86a10.84,10.84,0,0,1-2.57-6.53,2.84,2.84,0,0,1,.15-.9c-.94-.94-1-1.17-1.78-3.69a9.22,9.22,0,0,0-1.52-3.4,1.19,1.19,0,0,1-.26-.52c0-.35.55-.64,1.51-.8a6,6,0,0,1,1.32-.15l1.31.08-.08-1.8a12.47,12.47,0,0,1,.35-3,8.39,8.39,0,0,0,.19-1.37c0-.11,0-.49-.13-1.13a6.41,6.41,0,0,0-.19-1,1.72,1.72,0,0,1-.15-.56c0-.21.15-.32.4-.32a2.33,2.33,0,0,1,.86.28A16.45,16.45,0,0,1,18.93,136c2.26,1.77,4.05,4.5,4.05,6.19l0,.52c-.09.58-.13.91-.13,1a2,2,0,0,0,.46,1.07l.72,1a5,5,0,0,1,1.06,2.57c0,.62-.13.89-1.19,2.42a5.06,5.06,0,0,0-1.12,2.94,8.85,8.85,0,0,0,1.32,4.16c.77,1.37,1.67,2.12,2.52,2.12,1.47,0,2.11-1.3,2.34-4.82.12-1.82.3-3.47.53-5l.06-.9c0-.41-.12-.64-.65-1.28l-2-2.29c-1.88-2.19-2.44-3.32-2.44-4.9a2.84,2.84,0,0,1,2.9-3.06l.79.07v-.51a7.18,7.18,0,0,1,.34-1.79c.41-1.41.93-2.49,1.2-2.49a1.65,1.65,0,0,1,.64.33,9.46,9.46,0,0,0,1.19.45,10,10,0,0,1,1.31.65,5.68,5.68,0,0,1,1.05-2.29c.85-1.1,1.81-2,2.15-2s.59.28,1.07.79l1.25,1.31a4.71,4.71,0,0,1,.72,1.25l.27.59.79-.46c.51-.3.86-.5,1-.59l1.25-.59a2,2,0,0,1,.67-.34c.22,0,.35.39.84,2.57a15.44,15.44,0,0,1,.46,2.9c2.1.29,3.09,1.5,3.09,3.75s-1,4.22-3.29,6.62a2,2,0,0,0-.76,1.59c0,5.81,2,7.65,9.31,8.41a46.74,46.74,0,0,1,11.17,2.37,22,22,0,0,0,5.5,1.2c1.24,0,1.94-.45,1.94-1.25,0-1.22-.88-1.6-6.12-2.71-12.18-2.57-17-6.73-17-14.76a9.78,9.78,0,0,1,10-10c2.52,0,4.77.77,8.34,2.83,3.3,1.92,4,2.24,4.75,2.24s1.23-.57,1.23-2c0-.92.28-1.37.85-1.37a3.4,3.4,0,0,1,2,1.38A4.75,4.75,0,0,1,77,139.58c0,2.38-1.26,3.93-3.74,4.62l-.59.65a5.39,5.39,0,0,1-4.7,2A10.93,10.93,0,0,1,62.12,145L59,142.75a5.81,5.81,0,0,0-3.31-1.38,2,2,0,0,0-2.15,2.15,3,3,0,0,0,2.31,2.84l3,.93a15.31,15.31,0,0,1,2.82,1.18,9,9,0,0,1,1.47-.14,12.45,12.45,0,0,1,5.56,1.38,6.75,6.75,0,0,0,1.19.53l1.64.46c3.74,1.05,6.78,5.22,6.78,9.3,0,4.65-3,7.54-7.89,7.54Z" transform="translate(0 0.18)"/><path d="M67.7,206.52l.4-.8.92-1a4.89,4.89,0,0,0,1.2-3.4,7.08,7.08,0,0,0-.35-2.13,5.56,5.56,0,0,1-.27-1.16c0-.41.31-.81.63-.81a.83.83,0,0,1,.5.33l1,1.12a2.32,2.32,0,0,0,1.58,1l.07-.92.06-1.08A7.7,7.7,0,0,0,72,193.23c-.53-.66-.76-1.07-.76-1.31s.17-.46.35-.46a.54.54,0,0,1,.27.13c.64.47,1,.67,1.14.67s.6-.8.6-1.66a6.13,6.13,0,0,0-1.34-3.68c-.42-.51-.68-.83-.79-1a.65.65,0,0,1-.13-.38.51.51,0,0,1,.57-.48,1.32,1.32,0,0,1,.81.33,1,1,0,0,0,.51.2c.51,0,.69-.72.69-2.68l0-.81-.06-1.18c-.08-1.39-.2-1.64-.79-1.64h-.52c-3.21,0-4.7-2-5.53-7.5-.6-4-2.07-6.76-3.88-7.36-1.08-.36-1.47-.6-1.47-.88s.3-.37.63-.37a4.59,4.59,0,0,1,1.24.33,18.34,18.34,0,0,0,6.75,1.58,5.42,5.42,0,0,0,5.64-5.26,9,9,0,0,0-3-6.38,3.78,3.78,0,0,0-1.65-1h-.12l-.34.11.14.95.26.66.07.27a.28.28,0,0,1-.31.25.59.59,0,0,1-.48-.26l-1.19-1.78a6.23,6.23,0,0,0-4.51-2.57c-.54,0-.88.24-.88.62a1.4,1.4,0,0,0,.4.77,2.27,2.27,0,0,1,.59,1l-.07.26c-.07.15-.16.25-.26.27h-.07c-.31,0-.47-.14-1.9-1.77-1.17-1.34-3.56-2.65-4.85-2.65a.68.68,0,0,0-.48.21.43.43,0,0,0-.13.25,1.19,1.19,0,0,0,.46.74,2.19,2.19,0,0,1,.73,1c0,.13-.17.25-.37.25-.37,0-1.22-.54-2.79-1.78-2.46-1.92-3.55-3.75-3.55-5.85a4.3,4.3,0,0,1,4.14-4.54,8.23,8.23,0,0,1,4.41,1.58l3.22,2.43a8.5,8.5,0,0,0,5.17,1.72,2.55,2.55,0,0,0,1.14-.27c.28-.14.46-.32.46-.44s-.25-.2-.6-.29a7.29,7.29,0,0,1-2.76-1.18L63.5,140a21.9,21.9,0,0,0-2.57-1.78c-1.73-.91-2.07-1.12-2.07-1.32s.17-.19.38-.19a1.41,1.41,0,0,1,.57.13l1.72.73a20.61,20.61,0,0,1,2.76,1.64c3.52,2.35,5.3,3.1,7.37,3.1A3.25,3.25,0,0,0,75.08,139a2.56,2.56,0,0,0-.28-1.14l-.33-.65c-.11-.24-.33-.41-.39-.33l-.2.26-.19,1.38a3.52,3.52,0,0,1-.2.46,2.35,2.35,0,0,1-.46.66,1.49,1.49,0,0,1-1.21.46c-1,0-2.16-.54-5.23-2.5s-5.92-3-8.15-3a8.53,8.53,0,0,0-8.55,8.53c0,6.58,4,9.56,16.63,12.31,4.8,1,6.9,2.44,6.9,4.58,0,1.95-1.57,3.17-4.07,3.17a9.25,9.25,0,0,1-1.78-.13q-.63-.13-6.77-1.84A33.74,33.74,0,0,0,52,160c-5,0-8.29,1.47-10.55,4.65-.27.38-.53.6-.7.6a1.06,1.06,0,0,1-.55-.27l-.92-.73a4.53,4.53,0,0,0-2.36-.9,2.05,2.05,0,0,0-1.39.58,1.63,1.63,0,0,1-.67.45c-.37,0-1-.82-1.56-1.9A10.47,10.47,0,0,1,32.2,158c0-.66.21-1.12.5-1.12s.4.18.49.53l.53,1.9c.29,1.07.89,1.91,1.34,1.91.2,0,.56-.29,1-.79a3.21,3.21,0,0,0,.53-.92c.41-1.2.51-1.38.83-1.38s.58.24.84,1.44a4.19,4.19,0,0,0,.43,1.13,5.86,5.86,0,0,0,.79,1.18.93.93,0,0,0,.68.34c.58,0,1.11-1,1.11-2v-.28l-.08-1.22c0-.47.07-.62.34-.62s.27.09.45.32a3.5,3.5,0,0,0,1.12.92,2.23,2.23,0,0,0,.94.33,1,1,0,0,0,.64-.33.74.74,0,0,0,.28-.51c0-.2-.24-.49-.94-1.19A8.43,8.43,0,0,1,42.66,155c-.19-.52-.44-.87-.62-.87a2,2,0,0,0-.43.14l-.86.33-.59.26-.22,0a.48.48,0,0,1-.51-.45c0-.26.6-1,1.32-1.56a2.44,2.44,0,0,0,.86-1.78c0-1.1.24-2,.46-2l.2-2.3a23.74,23.74,0,0,1,1-4.53c.08-.24.19-.4.26-.4s.35.5.35,1l0,.34,0,.67c0,.83.14,1.26.4,1.26s.61-.41.89-1.14l.59-1.51a3.3,3.3,0,0,0,.27-1.23,2,2,0,0,0-1.83-2.2l-.48.08a2.1,2.1,0,0,1-.46.13.76.76,0,0,1-.64-.83l.05-.94-.06-1.32-.26-1.38-.07-.66-.59.33-.73.59-1.05.85-.85.73a.77.77,0,0,1-.49.2c-.5,0-.57-.14-.57-1.16v-.26c0-.82-.35-1.47-1.7-3l-.34-.4-.25.47-.73,1.18-.72,1.84L34,136.7c0,.34-.16.6-.29.6s-.36-.17-.62-.47a5.08,5.08,0,0,0-2.83-1.9l-.13.45c-.24.78-.37,1.24-.39,1.39L29.71,138V139c0,.36-.13.58-.35.58h-.05l-.39-.33a1.2,1.2,0,0,0-.8-.2c-1.22,0-2,.66-2,1.71,0,.79.27,1.37,1.48,3.22.54.82,1.16,1.46,1.41,1.46s.29-.43.29-.93l-.12-.8a3.36,3.36,0,0,1-.19-1c0-.37.11-.57.31-.57.6,0,1.21,1.71,1.46,4.08L31,148.6a8.15,8.15,0,0,0,.79,2.63,6.79,6.79,0,0,0,1.71,2.43c.63.44,1,.88,1,1.12a.39.39,0,0,1-.35.39l-1.33-.46-.55-.08c-1.31,0-1.75.75-1.75,3A12.55,12.55,0,0,0,34.44,166l3,2.44a7,7,0,0,1,2.7,4.73c0,1.93-2.11,3.81-5.72,5.13l-2.17.78c-1.68.62-2.36,1.7-3,4.87a5.28,5.28,0,0,1,1.81-.34h.29l1,0a1.36,1.36,0,0,0,1.52-1.27v-.59c0-.18.25-.42.59-.6.59-.28.9-.43.92-.45l.73-.59a.54.54,0,0,1,.36-.15.39.39,0,0,1,.36.41,1.92,1.92,0,0,1-.13.59,6.35,6.35,0,0,0-.35,2.26,5.56,5.56,0,0,0,1.07,3.66,5,5,0,0,1,.2-.86,10.36,10.36,0,0,1,1.12-1.77,8.74,8.74,0,0,0,1.72-4l0-.28-.19-1.51a1,1,0,0,1,.32-.72.7.7,0,0,1,.45-.19c.28,0,.46.16.68.65s.34.59.46.59.69-.6,1-1.31a3.74,3.74,0,0,0,.33-1.39,2.35,2.35,0,0,0-.2-.85,2.4,2.4,0,0,1-.21-.75c0-.17.06-.25.28-.43a.57.57,0,0,1,.33-.14A.77.77,0,0,1,44,174l.59.39a1,1,0,0,0,.53.21,1.42,1.42,0,0,0,.92-.74A5.46,5.46,0,0,0,47,172c0-.17-.11-.3-.47-.55A4.74,4.74,0,0,1,44.37,168a2.8,2.8,0,0,1,.19-1l.66-1.78c.33-.89.51-1.36.53-1.38l.19-.07c.22,0,.36.18.36.5a2.07,2.07,0,0,1-.16.75,4.28,4.28,0,0,0-.27,1.25.64.64,0,0,0,.68.73,2.87,2.87,0,0,0,1.1-.26,13.25,13.25,0,0,1,4.52-1.33,3.65,3.65,0,0,1,2.39.86,1.12,1.12,0,0,0,.6.27.54.54,0,0,0,.38-.27.55.55,0,0,0,.14-.33,1.47,1.47,0,0,0-.4-.85,1.54,1.54,0,0,1-.47-.93.33.33,0,0,1,.36-.34c1,0,2.65,3.26,4.19,8.44,1.21,4.08,1.55,4.49,5.45,6.7,3.3,1.87,4.56,3.71,4.56,6.72s-.82,6.73-2.52,11.69a8.19,8.19,0,0,0-.13,6.64c.24.84.39,1.35.46,1.51a8.44,8.44,0,0,0,.52,1" transform="translate(0 0.18)" style="fill:#ffe500"/><path d="M52.45,197.31a11.19,11.19,0,0,1,1.25-2.24c1.07-1.6,1.45-2.45,1.45-3.21V190.8c0-1,.18-1.45.57-1.45a.42.42,0,0,1,.35.21l.33.52a.54.54,0,0,0,.46.27,1.21,1.21,0,0,0,.74-.55,4.57,4.57,0,0,0,.77-2.35l-.07-.73-.06-.74c0-.39.16-.57.54-.57s.36.11.58.6c.14.31.33.52.5.52a.75.75,0,0,0,.55-.39l.52-.79.4-.6.1-.31c0-.18-.14-.35-.5-.61-1.22-.87-1.75-2.22-1.83-4.67a21.68,21.68,0,0,0-.33-3.61c0-.13-.43-1.07-1.19-2.82a17.76,17.76,0,0,1-.79-2.37c-.16-.61-.34-.79-.82-.79a3.28,3.28,0,0,0-3.14,3.54,16.65,16.65,0,0,0,1.4,5.33c1.26,3.2,1.6,4.33,1.6,5.46,0,2.42-1,3.47-4.3,4.67-3.76,1.35-5.53,3.29-6.18,6.77l.66-.27c.42-.17.73-.27.92-.33l1-.26a2.39,2.39,0,0,0,1.78-1.25l.26-.91a.64.64,0,0,1,.4-.46l.59-.27.59-.26.13.26-.26.86a5.72,5.72,0,0,0-.14,1.53,4.67,4.67,0,0,0,1.12,3.33" transform="translate(0 0.18)" style="fill:#ffe500"/><path d="M17.15,136.5a4.21,4.21,0,0,1,.14.74,13.39,13.39,0,0,1-.27,1.7l-.12,1.33a10.7,10.7,0,0,0,.58,3.47,4.92,4.92,0,0,1,.42,1.5l0,.27c-.06.28-.16.47-.26.47a1.42,1.42,0,0,1-.67-.41,3.68,3.68,0,0,0-2.42-1,6.25,6.25,0,0,0-1.12.14l.32.72,1,2.44L16.1,150l1.44,1a1.48,1.48,0,0,1,.4.39.87.87,0,0,1,.2.43.25.25,0,0,1-.26.23l-1.32.06c-.2,0-.36.13-.36.28a10.06,10.06,0,0,0,.56,2l.66,1.9,1.12,1.05,1.18.86a1.15,1.15,0,0,1,.56.75c0,.18-.12.36-.24.37l-.65.06c-.22,0-.34.21-.34.53a5.84,5.84,0,0,0,1.32,2.56c1,1.39,1.74,1.84,2.9,1.84h1c.47,0,.76.23.76.61s-.2.49-.63.58c-.91.19-1.18.37-1.18.79a1.41,1.41,0,0,0,.33.72l.53.73c.43.6.93,1,1.24,1a1.59,1.59,0,0,0,1-.6,4.22,4.22,0,0,1,2.13-1.45c2.29-.58,2.76-.81,2.76-1.34a1.62,1.62,0,0,0-.26-.76,6,6,0,0,1-1-3.22c0-.82-.22-1.39-.52-1.39-.12,0-.32.2-.54.53a2.94,2.94,0,0,1-2.3,1.39c-2.27,0-5-3.56-6.37-8.29a12.88,12.88,0,0,1-.49-3.54,18.29,18.29,0,0,1,.49-4c.43-1.93.68-3,.72-3.22l.08-.89c0-1.63-1.5-3.73-3.83-5.36" transform="translate(0 0.18)" style="fill:#ffe500"/><path d="M21.89,145.64a11.51,11.51,0,0,0-.93,4.28c0,.77.25,1.38.57,1.38.11,0,.24-.13.36-.33l.72-1.32c.12-.22.24-.45.47-.8a2.4,2.4,0,0,0,.46-1,2.94,2.94,0,0,0-1.65-2.23" transform="translate(0 0.18)" style="fill:#ffe500"/><path d="M29.12,175.29l.33.33.52.52c1.28,1.33,1.48,1.46,2.09,1.46a7.17,7.17,0,0,0,2.45-.67c.28-.14.46-.32.46-.45s-.24-.35-.66-.73l-.72-.66a3.76,3.76,0,0,0-1.75-1,5,5,0,0,0-2.72,1.16" transform="translate(0 0.18)" style="fill:#ffe500"/><path d="M44.37,187.19a6.35,6.35,0,0,1,1.32.66c.59.38.93.6,1,.65a2.9,2.9,0,0,0,1.05.13,2.15,2.15,0,0,0,.79-.13L50,188l1.31-.46c.36-.13.6-.33.6-.51s-.3-.24-.73-.35a8.17,8.17,0,0,1-1-.33c-1.61-.65-1.85-.74-2.42-.74a4.37,4.37,0,0,0-3.36,1.6" transform="translate(0 0.18)" style="fill:#ffe500"/><path d="M61,200.4c.44-1.05.74-1.23,2.23-1.32,1.69-.09,3.3-3.11,3.3-5.16,0-.2-.07-.37-.16-.37a1.13,1.13,0,0,0-.44.22,9.8,9.8,0,0,1-1,.58L63,195.2a4.49,4.49,0,0,0-2.39,3.61A4.63,4.63,0,0,0,61,200.4" transform="translate(0 0.18)" style="fill:#ffe500"/><path d="M32.6,143.27l.66.93a6.29,6.29,0,0,0,1.42,1c.2,0,.31-.14.42-.56l.26-1,.07-1.09c0-.87-.38-1.2-2.17-1.66-.45-.12-.63-.1-.92-.33a1.81,1.81,0,0,0-.79-.4c-.15,0-.27.08-.27.18l.07.29.33,1Z" transform="translate(0 0.18)"/><path d="M39.64,143.27l-.86,1.52-.33.36h-.06c-.35,0-.71-.8-.73-1.63l-.13-1.31c.11-.54.43-.78,1.25-.92a4,4,0,0,0,1.32-.39c.62-.45,1-.69,1-.73l.11,0a.3.3,0,0,1,.3.33l0,.09-.46,1.12Z" transform="translate(0 0.18)"/><path d="M37.92,147.75l1.06-.53a1.15,1.15,0,0,1,.5-.14c.51,0,.89.38.89,1.07s-.59,1.76-1.39,3.21S37.45,154,36.78,154c-.94,0-2.28-1.51-3.59-4a4.42,4.42,0,0,1-.5-1.83c0-.83.37-1.27,1.06-1.27a1.33,1.33,0,0,1,.76.21l.59.39a3.08,3.08,0,0,0,1.67.53,2.59,2.59,0,0,0,1.15-.26" transform="translate(0 0.18)"/><path d="M37.2,149.19s.61.13.61.54l0,.19-.19,1c-.22,1.31-.52,2.12-1,2.12a.61.61,0,0,1-.5-.28A6.17,6.17,0,0,1,35,149.9q0-.72.63-.72h.11l.73.13Z" transform="translate(0 0.18)" style="fill:#ffe500"/></g><g id="Lion_top_right" data-name="Lion top right"><path d="M190.23,43.35l.27,1c.24.89.41,1.59.53,2.1.83,3.76,1.52,4.74,3.35,4.74a2.18,2.18,0,0,0,2.17-1.45l.39-1.31a.62.62,0,0,1,.63-.48c.72,0,1.1.79,1.15,2.38a31,31,0,0,0,.39,3.22,19.19,19.19,0,0,1,.27,3,4.62,4.62,0,0,1-.4,1.89l.13.79a13.57,13.57,0,0,1,.28,2.41c0,2.83-.14,3.66-.8,4.76a8.33,8.33,0,0,1,.34,2.35,20.27,20.27,0,0,1-.21,2.31l-.27,2,.07,1.18a3.16,3.16,0,0,1,.26.79.3.3,0,0,1-.26.33l-1.31-.53-1.45-.79a6.73,6.73,0,0,1-1.51-1.18,5.25,5.25,0,0,1-3,1.64,13.08,13.08,0,0,0-3.42,1.19,2.11,2.11,0,0,1-.91.46c-.51,0-.86-1-.86-2.44a10.74,10.74,0,0,1,.46-4,8.51,8.51,0,0,0-2.39-.59,5.16,5.16,0,0,0-1,.13l-.29,0c-.19,0-.3-.24-.3-.63a7.83,7.83,0,0,1,1.06-3,5.91,5.91,0,0,1,3.22-2.9l2.37-.45c1.4-.28,2.23-1,2.23-2s-.61-1.57-2-2.08l-2.76-1A14.08,14.08,0,0,1,184.06,56c-.7-.43-1.18-.71-1.45-.86a1.5,1.5,0,0,0-.71-.2c-.59,0-.94.43-.94,1.13a2,2,0,0,0,1.91,2,1.85,1.85,0,0,0,.66-.13,2.09,2.09,0,0,1,.61-.2c.3,0,.51.29.51.7a8.3,8.3,0,0,1-1.51,4.16l-.79,1-.59.79a8.8,8.8,0,0,1-3.55,5.19,4.25,4.25,0,0,0-.73.53c0,.06-.22.37-.52.92a12,12,0,0,1-1.32,1.58A12.45,12.45,0,0,1,174,74.12a6.13,6.13,0,0,0-1.31,1.18L172,76.42a.59.59,0,0,1-.52.34c-.58,0-1.12-.61-1.45-1.65-.24-.77-.46-1-1-1a4.72,4.72,0,0,0-1.15.2l-.91.12h-2.31a10.42,10.42,0,0,0-3.68.67,1.77,1.77,0,0,1-.68.2c-.34,0-.51-.34-.51-1,0-2.08,1.6-5.25,3.69-7.29a2.79,2.79,0,0,0-1.78-2.23l-1.18-.33a.38.38,0,0,1-.2-.32c0-.42.47-.83,1.52-1.33,1.86-.88,2.41-1.05,3.45-1.05a5.32,5.32,0,0,1,3.45,1.38c1.78,1.39,2.27,1.65,3.13,1.65a2.84,2.84,0,0,0,2.74-2.63c0-.91-.5-1.92-1.73-3.49-1.75-2.24-2.37-3.7-2.37-5.59,0-1.27.25-2,1.38-3.81a1.56,1.56,0,0,0,.28-.7c0-.36-.6-.69-1.26-.69a7,7,0,0,0-2.76.8c-2,.91-3.16,1.75-3.16,2.27a.72.72,0,0,0,.33.56l.66.46a.33.33,0,0,1,.14.27,1,1,0,0,1-.28.51c-.13.15-.57.72-1.31,1.71a15.07,15.07,0,0,1-2.76,2.89,2.63,2.63,0,0,0-.66.67l-.52,1a11.27,11.27,0,0,1-2.83,3,6.9,6.9,0,0,0-.92.72,5.72,5.72,0,0,0-.59.92A19.9,19.9,0,0,1,153.89,67l-1.78,1.84a13.3,13.3,0,0,0-1.9,4.07c-.55,1.6-.89,2.31-1.14,2.31s-.29-.14-.51-.4c-1.27-1.46-2.42-2.37-3-2.37a2.15,2.15,0,0,0-.77.33,5.25,5.25,0,0,1-1.77.66l-2.37.46c-2,.39-2.77.81-3.68,2-.23.29-.42.46-.52.46s-.41-.34-.41-.8l.07-.58c0-.06.13-.65.34-1.77a14.44,14.44,0,0,1,1.31-4.27l1.19-2a2.24,2.24,0,0,0,.33-1.06c0-1.52-1.42-2.75-3.56-3.09-.43-.06-.66-.22-.66-.47s.52-.88,1.32-1.5a7.58,7.58,0,0,1,4-1.71,8.61,8.61,0,0,1,3,.79l1.45.59a3.78,3.78,0,0,0,1.46.34c1.54,0,3-1.39,4.85-4.54a6.86,6.86,0,0,0,1.18-3.38c0-1.67-.77-2.67-2.07-2.67a3.92,3.92,0,0,0-2.79,1.24,3.19,3.19,0,0,0-1.09,2.1l0,.67,0,.35c0,.53-.18.77-.57.77s-1.08-.48-2.21-1.85l-1.84-2.16c-2-2.34-2.42-3.28-2.5-5.66-2.23-2.84-2.78-4.42-2.78-6.07l.08-1.35c-1.6-1.92-1.91-2.66-1.91-4.55a2.92,2.92,0,0,1,.4-1.76,6.76,6.76,0,0,1-1.25-2.56L133.57,28a7,7,0,0,0-1-2.43c-.59-.85-.66-1-.66-1.22,0-.69.66-1.13,2.31-1.54l.52-.13a11.23,11.23,0,0,1-.13-1.46,8.56,8.56,0,0,1,.2-1.57l.46-2.43a13.79,13.79,0,0,0,.27-2.16,6.43,6.43,0,0,0-.41-2,5.63,5.63,0,0,0-.65-1.51,1.77,1.77,0,0,1-.4-.87c0-.22.23-.39.52-.39a1.59,1.59,0,0,1,.67.21,25.74,25.74,0,0,1,6.37,5.06c1.49,1.65,2,3,2.3,6.71,2,1.5,2.77,2.86,2.77,5a7,7,0,0,1-1.32,3.88c-.8,1.23-1.24,1.91-1.31,2a4.38,4.38,0,0,0-.6,2.23,7.67,7.67,0,0,0,1.25,3.88c1,1.74,1.86,2.5,2.91,2.5,1.72,0,3.28-3,3.28-6.26V33l.2-1.57.13-1.91.13-1.58.05-.88c0-.65-.13-.83-2.15-3-2.24-2.39-3.29-4.4-3.29-6.28a3.33,3.33,0,0,1,3.34-3.24,4.73,4.73,0,0,1,1.39.25V14l.07-1.39.39-1.7c.32-1.37.46-1.62.93-1.62l.32.11,1.19,1.05,1.44.92.4.39a2.67,2.67,0,0,1,.85-1.84c.34-.43.65-.85.92-1.25l.66-1,.39-.6c.27-.39.38-.49.55-.49s.3.22.51,1a1.83,1.83,0,0,0,.59.85l.86.72a4.79,4.79,0,0,1,1.44,2.7,4,4,0,0,1,1.31-1.19l1.06-.59a2.62,2.62,0,0,1,.69-.33c.07,0,.18.16.29.39a7.77,7.77,0,0,0,.53,1c.85,1.36.92,1.56.92,2.48V15c2.13.58,3,1.73,3,4.09,0,1.77-.81,3.59-2.5,5.63-1.13,1.35-1.32,1.77-1.32,2.79,0,4.64,3.5,7.45,9.4,7.53l4.34.07A21.15,21.15,0,0,1,187,36.25c3,1,4,1.26,5,1.26.67,0,1.22-.38,1.22-.83,0-1-1.59-1.68-6.9-3.19-10.83-3.05-15.45-7.44-15.45-14.61,0-5.56,4.63-9.85,10.63-9.85A23,23,0,0,1,188,10.15l2.7,1a4.15,4.15,0,0,0,1.41.28c.93,0,1.28-.58,1.42-2.32.06-.77.3-1.11.8-1.11.69,0,2,1.08,3,2.43a8.7,8.7,0,0,1,1.72,4.41c0,1.4-.73,2.46-2.31,3.35A6.4,6.4,0,0,1,191,21.46c-1.88,0-5.06-1.26-9.06-3.61-1.58-.92-2.28-1.18-3.15-1.18a1.71,1.71,0,0,0-1.94,1.7c0,1,.7,1.55,2.65,2.24,3.11,1.11,3.78,1.47,4.67,2.56,3.35.59,4.81,1.17,6.9,2.76,6,1.93,9.34,5.63,9.34,10.38,0,4.32-2.92,7.44-7,7.44a12.75,12.75,0,0,1-3.2-.4" transform="translate(0 0.18)"/><path d="M196.75,72.15a4.45,4.45,0,0,1-.21-1.21l.08-.9a18,18,0,0,0,.21-2.55,2,2,0,0,0-.48-1.32l-.79-1.06a2.9,2.9,0,0,1-.72-1.79c0-.38.09-.51.35-.51l.31.07.59.33a1.41,1.41,0,0,0,.65.22c.4,0,.6-.62.6-1.85,0-1.71-.32-2.53-1.32-3.3l-.91-.73a.69.69,0,0,1-.27-.53.46.46,0,0,1,.48-.52,3.69,3.69,0,0,1,.77.13l.72.2.28.06c.23,0,.33-.17.33-.55l0-.23-.19-1.39c-.21-1.43-.45-2-.87-2l-.12,0-1.71.32-.29,0a6,6,0,0,1-5.1-4.1l-1.25-4.27a8.78,8.78,0,0,0-3.16-4,3,3,0,0,0-1.38-.71l-1.18-.14c-.21,0-.36-.16-.36-.32s.23-.4.72-.4a18.63,18.63,0,0,1,5.82,1.11,14.3,14.3,0,0,0,4.4,1c3.29,0,5.27-1.72,5.27-4.56a8.92,8.92,0,0,0-1.25-4.36,10.4,10.4,0,0,0-3.1-2.89,1.08,1.08,0,0,0-.51-.21.34.34,0,0,0-.34.34l.07.85v.08c0,.32-.19.58-.42.58s-.74-.42-1.16-1.31c-1.21-2.57-3.16-4.12-5.17-4.12-.44,0-.69.15-.69.42a1.9,1.9,0,0,0,.34.87,7.2,7.2,0,0,1,.59,1.18,1.93,1.93,0,0,1,.16.57c0,.12-.11.18-.3.18a1.86,1.86,0,0,1-1.11-.61l-1-1.06-.85-1.31a6.21,6.21,0,0,0-2.63-2.3L179,22.71a1.9,1.9,0,0,0-.84-.26.27.27,0,0,0-.3.3,1.46,1.46,0,0,0,.29.75,3.39,3.39,0,0,1,.61,1.31.36.36,0,0,1-.33.4c-.46,0-1.28-.83-2.44-2.43a6.19,6.19,0,0,1-1.26-3.69,4.84,4.84,0,0,1,4.88-4.93,10.09,10.09,0,0,1,4.92,1.65l3.15,1.91a8.21,8.21,0,0,0,3.61,1.18,6,6,0,0,0,1.85-.33,3.51,3.51,0,0,0,.86-.33.48.48,0,0,0,.24-.38c0-.26-.16-.37-.58-.4a18.68,18.68,0,0,1-6.5-2.57A18.41,18.41,0,0,0,185,13.64c-.54-.19-.9-.47-.9-.7s.11-.15.28-.15l.38.06,2.87,1.05,2.76,1a17.28,17.28,0,0,0,4.42.92,2,2,0,0,0,2.11-2.11,4.18,4.18,0,0,0-.42-1.83c-.4-.79-.92-1.45-1.14-1.45s-.4.26-.4.7l0,.35.08.85c0,.88-.48,1.46-1.24,1.46a3.51,3.51,0,0,1-1.07-.21l-4.28-1.37c-3.71-1.2-5.15-1.52-7-1.52-5.16,0-9.06,3.49-9.06,8.13,0,5.24,3.6,8.53,12.82,11.72,9,3.11,10.12,3.82,10.12,6.18a2.67,2.67,0,0,1-2.86,2.44A8.68,8.68,0,0,1,191,39c-.39-.08-1.87-.43-4.47-1.05a32,32,0,0,0-8.17-.93c-6.52,0-9.66,1-13.06,4.15a2.34,2.34,0,0,1-2,.86h-.44l-1-.07a2.07,2.07,0,0,0-1.86,1.19l-1.05,1.77a.85.85,0,0,1-.75.4c-.68,0-1-.45-1.68-2a5.16,5.16,0,0,0-1.32-2l-1.38-1.18c-.2-.18-.33-.35-.33-.48a1.34,1.34,0,0,1,.33-.63,6.32,6.32,0,0,0,.59-.92,2.27,2.27,0,0,0,.33-.8l.07-.59a.46.46,0,0,1,.47-.32c.43,0,.51.29.52,1.9a4.86,4.86,0,0,0,.52,1.78l.72,1.58a.65.65,0,0,0,.6.33c.68,0,1.54-1.6,1.77-3.29.19-1.4.34-1.85.63-1.85s.39.17.95,1.32a3.14,3.14,0,0,0,.79,1,1.86,1.86,0,0,0,.79.46h.07c.54,0,.72-.34.85-1.58l.06-.66-.13-.92-.09-.64c0-.42.15-.67.39-.67a.76.76,0,0,1,.49.26l.66.66a1.9,1.9,0,0,0,1.32.66c.57,0,.92-.25.92-.65s-.08-.49-.66-1.46c-.06-.09-.21-.38-.46-.85-.59-1.11-.86-1.39-1.37-1.39l-.67.07-.86.33a2.18,2.18,0,0,1-.52.15c-.11,0-.2-.12-.2-.27A6,6,0,0,1,163.42,30c.45-.71.83-2.48,1.11-5.16l.34-3.09c.2-1.9.4-2.57.79-2.57a.26.26,0,0,1,.26.14l.19,1v.79a3.59,3.59,0,0,0,.23,1.74c.28,0,.69-.33,1.09-.89a4.72,4.72,0,0,0,.65-1.31,6.19,6.19,0,0,0,.34-1.72c0-1.52-.64-2.18-2.7-2.75a.71.71,0,0,1-.39-.2l-.07-.59V14.24l-.14-.8-.25-.65-.34-.73-.52.33A7,7,0,0,0,161.9,14c-.6.76-.8,1-1.05,1a.3.3,0,0,1-.32-.29l.26-1.12,0-.19a4.89,4.89,0,0,0-2.26-3.88l-.46.52-.46.66-.79.92a3.16,3.16,0,0,0-.73,2V14c0,.52-.08.7-.33.7l-.14-.06-.53-.66-.65-.79-1.19-.72L152.7,12a5.52,5.52,0,0,0-.66,3.29v.55c0,.6-.2,1-.52,1a2.15,2.15,0,0,1-.8-.33,2,2,0,0,0-1-.27,1.75,1.75,0,0,0-1.65,1.92,5.68,5.68,0,0,0,1.05,3.34c.52.86,1.2,1.55,1.51,1.55a7.67,7.67,0,0,0,.2-1.41l-.2-1.12,0-.5c0-.43.15-.69.4-.69s.59.41.83,1.52l.52,2.43.53,3.09a12.34,12.34,0,0,0,.79,2.63,14,14,0,0,0,1.11,2.3c.73.94.82,1.06.82,1.27a.32.32,0,0,1-.29.31,1.45,1.45,0,0,1-.59-.2,2.62,2.62,0,0,0-.79-.26l-.48-.08c-1.09,0-1.31.88-1.31,5.25a27.07,27.07,0,0,0,1.26,8.11l1.38,3.48a4.42,4.42,0,0,1,.34,1.64c0,4.8-6.5,12.48-13.35,15.78-2.66,1.28-3.45,2.62-3.68,6.25a11.68,11.68,0,0,1,2.3-.92c1.94-.55,2.35-.82,2.63-1.72l.26-.85c.12-.37.36-.55,1.71-1.25a2.63,2.63,0,0,0,1.05-.85c.35-.57.61-.85.78-.85s.29.13.29.34v.11l-.73,1.87-.08.47a3.6,3.6,0,0,0,2.19,3.25c.09-.35.15-.61.19-.79a7,7,0,0,1,.66-2l1.25-1.84c.45-.67.53-1.11.53-2.8l-.07-2.07,0-.53c0-.34.16-.52.46-.52s.42.08.43.2l.2,1.25a.62.62,0,0,0,.64.46c.64,0,1.45-.81,2.32-2.3a3,3,0,0,0,.47-1.57,15.3,15.3,0,0,0-.21-2l0-.39a.48.48,0,0,1,.5-.54c.17,0,.3.06.32.13l.46,1.52c.16.5.5.85.86.85,1,0,2.06-2.06,2.17-4.27.06-1.39.23-1.87.66-1.87.16,0,.29.06.32.16l.26.85c.1.32.29.52.47.52s.5-.29.92-.78a6.58,6.58,0,0,0,.59-.86,1.38,1.38,0,0,0,.19-.69c0-.33-.06-.42-.59-.82a1.67,1.67,0,0,1-.72-1.38c0-1,.4-2,1.57-4,1.08-1.84,1.22-2.06,1.48-2.06a.51.51,0,0,1,.44.56,1.34,1.34,0,0,1-.14.58,2.54,2.54,0,0,0-.27.79.5.5,0,0,0,.52.46,2.76,2.76,0,0,0,1.2-.39,14.48,14.48,0,0,1,1.77-.73c1.22-.44,2-.7,2.24-.78a4.54,4.54,0,0,1,1.35-.21,5.09,5.09,0,0,1,1.15.14,8.91,8.91,0,0,0,1.51.27,1,1,0,0,0,1.06-1,2.73,2.73,0,0,0-.41-1.14c-.33-.55-.53-.86-.58-.92-.3-.3-.41-.47-.41-.59l.07-.27a.44.44,0,0,1,.37-.26c.52,0,1.54,1.06,2.46,2.57,5.15,8.42,7.65,11.08,11.44,12.23,3.95,1.19,4.88,2,4.88,4.38,0,1.25-.66,2.76-2.06,4.68-2.62,3.65-3.55,5.79-3.55,8.21v.54a6.74,6.74,0,0,0,.72-.33,6,6,0,0,1,1.05-.46l1.64-.33a1.37,1.37,0,0,0,.93-1.38V70.7L192,69.26l0-.23c0-.82.4-1.49.89-1.49a.65.65,0,0,1,.5.4l1.06,2.23c.42.92.93,1.35,2.3,2" transform="translate(0 0.18)" style="fill:#ffe500"/><path d="M142.84,27.05l-.06,1.05,0,.64c0,1.07.16,1.53.56,1.53s1.12-.81,1.43-1.71a6.53,6.53,0,0,0,.34-1.78,3.34,3.34,0,0,0-.34-1.24c-.3-.72-.6-1.06-1-1.06-.56,0-.82.73-.94,2.57" transform="translate(0 0.18)" style="fill:#ffe500"/><path d="M138.31,14.89l.92.92c1.34,1.34,2.26,4.08,2.26,6.73l0,1.09-.19,3.09-.07,2.59c0,8.58,2.5,14.44,6.17,14.44a4,4,0,0,0,2.84-2.11c.17-.27.39-.47.52-.47s.31.18.33.54l.13,1.45.13,1.24c.07.59.13,1.05.2,1.39a8,8,0,0,1,.2,1.29c0,.66-.14.73-1.71.94a4.6,4.6,0,0,0-1.84.73,6.33,6.33,0,0,0-1.71,1.31l-.72,1.52a.53.53,0,0,1-.42.32c-.39,0-.9-.58-1.63-1.84a6.46,6.46,0,0,1-1-2.14c0-.21.16-.3.57-.3h.13l.79.07.59-.07.53-.06a.5.5,0,0,0,.4-.48.41.41,0,0,0-.27-.37l-3-1.25a5.48,5.48,0,0,1-2.16-2.17,6.75,6.75,0,0,1-1.2-2.86c0-.47.2-.77.51-.77a1,1,0,0,1,.48.15,2.6,2.6,0,0,0,.77.26.66.66,0,0,0,.36-.13.46.46,0,0,0,.19-.32c0-.19-.19-.43-.52-.67-2.46-1.75-3.95-3.86-3.95-5.61,0-.51.12-.75.37-.75l.48,0a7.32,7.32,0,0,0,.93.13c.36,0,.6-.2.6-.51s-.24-.43-.6-.61c-1.64-.81-2.05-1.28-3.09-3.61a15,15,0,0,0-1.91-3.42,4.16,4.16,0,0,1,2-.54c.9,0,1.47.59,2.1,2.18.4,1,.84,1.68,1.09,1.68s.17-.21.17-.76a7.48,7.48,0,0,0-.27-2,4.27,4.27,0,0,1-.2-1.45l-.13-.92-.73-.39a2.47,2.47,0,0,1-1.11-2.16,5.17,5.17,0,0,1,.13-1.19c0-.08.15-.58.4-1.52a12.87,12.87,0,0,0,.46-2.78v-.56Z" transform="translate(0 0.18)" style="fill:#ffe500"/><path d="M146.19,62.29a9.71,9.71,0,0,1-3.15-1,6.06,6.06,0,0,0-2.47-.66,4.06,4.06,0,0,0-2.79,1.12l.59.46,1.32.92,1.25,1a1.8,1.8,0,0,0,1.1.39c1.29,0,2.38-.58,4.15-2.23" transform="translate(0 0.18)" style="fill:#ffe500"/><path d="M171.5,74.25a3.86,3.86,0,0,1,1.32-1.71c1.84-1.58,2.69-2.75,2.69-3.68V67.41c0-.84.14-1.12.58-1.12a.43.43,0,0,1,.41.2l.33.79a.56.56,0,0,0,.55.29c.47,0,.81-.34,1.62-1.67a2.51,2.51,0,0,0,.48-1.3,1.87,1.87,0,0,0-.16-.74c0-.12-.2-.47-.46-1a3.42,3.42,0,0,1-.27-1c0-.43.22-.68.59-.68a.6.6,0,0,1,.48.2l.52.66c.12.14.15.23.35.23a1.1,1.1,0,0,0,.83-.56l.53-1.05a1.58,1.58,0,0,0,.2-.6c0-.22-.21-.45-.53-.58l-.92-.4c-1.08-.46-2-2.32-2-4.08a3.09,3.09,0,0,1,.19-.85l.4-1.12a3.32,3.32,0,0,0,.2-1.09,3.65,3.65,0,0,0-.66-2,13.45,13.45,0,0,1-.79-1.38c-.38-1-.61-1.3-.93-1.3a1.64,1.64,0,0,0-.84.31l-.66.4L174.66,49l-.93.45a3.19,3.19,0,0,0-1.07,2.46c0,1.42.31,2.19,2.46,6a8.28,8.28,0,0,1,1.33,3.74c0,2.67-2.73,4.88-7.18,5.78-5.33,1.1-6.49,2-7.1,5.4a4.85,4.85,0,0,1,2.91-.55h1.12c.88,0,1-.06,1.56-.86a4.84,4.84,0,0,1,2.17-1.83l1-.47.85-.46.26-.07c.24,0,.37.1.37.28a2.36,2.36,0,0,1-.63,1.11,3.8,3.8,0,0,0-1,2.17,3.12,3.12,0,0,0,.67,2.1" transform="translate(0 0.18)" style="fill:#ffe500"/><path d="M163.22,64.06a7.41,7.41,0,0,1,2,1.78c.63.85.72.92,1.34.92a4.26,4.26,0,0,0,1-.14l.59-.13c1.12-.21,1.46-.37,1.46-.67a.7.7,0,0,0-.27-.51l-.79-.66-.72-.66a3.58,3.58,0,0,0-2.08-.73,4.52,4.52,0,0,0-2.46.8" transform="translate(0 0.18)" style="fill:#ffe500"/><path d="M184.52,67.61l.39-.07.66-.06.53.06.35,0a2,2,0,0,0,1.29-.29A5.46,5.46,0,0,0,189,65.77a1.56,1.56,0,0,0,.26-.75c0-.44-.41-.7-1.12-.7-1.81,0-2.92,1-3.61,3.29" transform="translate(0 0.18)" style="fill:#ffe500"/><path d="M160,22.19c.07.61.39,1.11.71,1.11s.72-.94,1.4-2.09c.93-1.59,1.7-2.91,1.7-3.75,0-.28-.14-.49-.32-.49l-.07,0-.73.66a7.41,7.41,0,0,1-2.16,1.19c-.84.29-1.09.55-1.09,1.11l.1.53.54,1.14Z" transform="translate(0 0.18)"/><path d="M154.22,17.33a1.47,1.47,0,0,0-.74-.34c-.28,0-.39.14-.39.48v.18a6.69,6.69,0,0,0,.26,1.12,5.82,5.82,0,0,0,.86,1.84l1,1.66a3.33,3.33,0,0,0,1.42.9h.05a.34.34,0,0,0,.35-.27l.2-1.31.33-1.19,0-.28a.88.88,0,0,0-.49-.77L156,18.77Z" transform="translate(0 0.18)"/><path d="M158.55,25.67h-.35l-.76-.07-.8-.47a1.83,1.83,0,0,0-.92-.26.9.9,0,0,0-1,1,9.17,9.17,0,0,0,.83,2.74c.24.55.52,1.25.86,2.1.72,1.84,1.47,2.63,2.46,2.63s1.54-.7,2.07-2.1l.73-3c.35-.92,1.22-1.31,1.22-1.95a1.68,1.68,0,0,0-1.56-1.48l-.39.07-1,.67Z" transform="translate(0 0.18)"/><path d="M158.49,27.51h-.79a.41.41,0,0,0-.33.2,1.28,1.28,0,0,0-.2.33l.33,1.58.26,1.37c.15.76.28,1.06.84,1.06a1.26,1.26,0,0,0,1.27-1.25l.13-1.45c.09-1,.13-1.46.13-1.5a.56.56,0,0,0-.19-.4.53.53,0,0,0-.34-.15h-.06Z" transform="translate(0 0.18)" style="fill:#ffe500"/></g><g id="Lion_top_left" data-name="Lion top left"><path d="M67.57,43.35l.27,1c.23.89.41,1.59.52,2.1.83,3.76,1.53,4.74,3.35,4.74a2.18,2.18,0,0,0,2.17-1.45l.4-1.31a.63.63,0,0,1,.63-.49c.71,0,1,.74,1.07,2.39a30.94,30.94,0,0,0,.47,3.22,17,17,0,0,1,.26,2.87,4.77,4.77,0,0,1-.39,2.06,28.54,28.54,0,0,1,.39,4,8.29,8.29,0,0,1-.79,3.93,8,8,0,0,1,.34,2.47,11.76,11.76,0,0,1-.21,2.19,17.63,17.63,0,0,0-.35,2.28,2.73,2.73,0,0,0,.16.88,3.32,3.32,0,0,1,.19.79c0,.18-.08.33-.19.33l-1.32-.53-1.44-.79a6.73,6.73,0,0,1-1.52-1.18c-1.27,1.15-1.65,1.32-5,2.24a4.45,4.45,0,0,0-1.45.59,2.1,2.1,0,0,1-.87.46c-.57,0-.84-.91-.84-2.79a14.82,14.82,0,0,1,.4-3.66,7.47,7.47,0,0,0-2.35-.59c-.1,0-.44,0-1,.13l-.24,0c-.19,0-.36-.29-.36-.63a5,5,0,0,1,.41-1.43l.65-1.57a5.53,5.53,0,0,1,1.58-1.9,4.24,4.24,0,0,1,1.71-1l2.37-.45c1.4-.28,2.24-1,2.24-2s-.63-1.58-2-2.08l-2.82-1A15,15,0,0,1,61.39,56c-1.57-.93-1.83-1.06-2.2-1.06-.57,0-.89.43-.89,1.17a1.84,1.84,0,0,0,1.84,2A1.89,1.89,0,0,0,60.8,58a2.24,2.24,0,0,1,.68-.2c.29,0,.46.17.46.5l0,.29-.13,1.11c-.12,1-.73,2.12-2.11,4l-.58.79a9.08,9.08,0,0,1-3.55,5.19,6.32,6.32,0,0,0-.73.53,8.75,8.75,0,0,0-.53.92A10.83,10.83,0,0,1,53,72.61a13.16,13.16,0,0,1-1.65,1.51A6.41,6.41,0,0,0,50,75.3l-.66,1.12a.63.63,0,0,1-.53.33c-.58,0-1.11-.61-1.44-1.64-.24-.77-.46-1-1-1a4.65,4.65,0,0,0-1.15.2l-.92.12H42a10.46,10.46,0,0,0-3.61.67,1.87,1.87,0,0,1-.68.2c-.17,0-.27-.08-.44-.4a.92.92,0,0,1-.15-.53,12.44,12.44,0,0,1,2-5.26A7,7,0,0,1,40.88,67,2.94,2.94,0,0,0,39,64.79l-1.12-.33a.36.36,0,0,1-.26-.32c0-.34.53-.81,1.52-1.33a8.23,8.23,0,0,1,3.61-1.05,5.36,5.36,0,0,1,3.35,1.38c1.79,1.39,2.26,1.65,3.13,1.65A2.85,2.85,0,0,0,52,62.15c0-.9-.48-1.86-1.74-3.48-1.83-2.37-2.38-3.6-2.38-5.34a6.79,6.79,0,0,1,.74-3.08l.66-1a1.2,1.2,0,0,0,.22-.63c0-.44-.51-.76-1.19-.76a11.1,11.1,0,0,0-4.62,1.72c-.79.48-1.33,1-1.33,1.4a.62.62,0,0,0,.28.51l.72.46a.3.3,0,0,1,.14.27,1.25,1.25,0,0,1-.27.51l-1.32,1.71a21.47,21.47,0,0,1-2.75,2.89,4.22,4.22,0,0,0-.66.67s-.19.33-.52,1a10.46,10.46,0,0,1-2.9,3,5.79,5.79,0,0,0-.92.72,6.13,6.13,0,0,0-.53.92A14.81,14.81,0,0,1,32.8,65a16.24,16.24,0,0,1-1.58,2l-1.84,1.84c-.57.56-1.07,1.67-1.84,4.07-.46,1.46-.89,2.31-1.13,2.31s-.29-.14-.51-.4c-1.31-1.49-2.43-2.37-3-2.37a1.83,1.83,0,0,0-.73.33,5.12,5.12,0,0,1-1.78.66l-2.43.46a5.16,5.16,0,0,0-3.61,2c-.26.29-.46.46-.58.46s-.35-.33-.35-.76l.07-.62.33-1.77a14.6,14.6,0,0,1,1.32-4.27l1.11-2a2.29,2.29,0,0,0,.33-1.07c0-1.52-1.56-2.9-3.48-3.08-.49,0-.67-.15-.67-.43s.53-1,1.26-1.54a8,8,0,0,1,4.14-1.71,9,9,0,0,1,3,.79l1.45.59a3.74,3.74,0,0,0,1.46.34c1.53,0,3-1.39,4.84-4.54a6.86,6.86,0,0,0,1.19-3.37c0-1.66-.79-2.68-2.09-2.68a4.22,4.22,0,0,0-2.84,1.24,3,3,0,0,0-1,2l0,.73v.16c0,.62-.2,1-.57,1-.63,0-1.52-.88-4.1-4C17.2,49,16.77,48,16.69,45.65c-2.23-2.84-2.78-4-2.78-6.07L14,38.23c-1.55-1.86-2-2.87-2-4.58a3.33,3.33,0,0,1,.47-1.73,6.61,6.61,0,0,1-1.25-2.56L10.91,28a7.27,7.27,0,0,0-1.05-2.43c-.6-.85-.66-1-.66-1.26,0-.76.52-1.06,2.83-1.63a10,10,0,0,1-.14-1.46,8.56,8.56,0,0,1,.2-1.57l.46-2.43a12.77,12.77,0,0,0,.28-2.11,6.76,6.76,0,0,0-.48-2.1,6.62,6.62,0,0,0-.59-1.51,2.73,2.73,0,0,1-.4-.9c0-.23.17-.36.46-.36.65,0,2.37,1,4.15,2.51,3.77,3.12,4.55,4.37,5.06,8.15,0,.29.1.73.2,1.32A5.86,5.86,0,0,1,24,26.85a8.16,8.16,0,0,1-1.32,4.21l-1.31,2a4,4,0,0,0-.59,2.17A7.55,7.55,0,0,0,22,39.21c1,1.77,1.86,2.5,2.92,2.5,1.74,0,3.26-3,3.26-6.44V33.62a15.67,15.67,0,0,1,.14-2.16c.12-1,.18-1.66.19-1.91L28.59,28l0-1a1.92,1.92,0,0,0-.68-1.26l-1.44-1.58c-2.09-2.28-3.24-4.42-3.24-6a3.35,3.35,0,0,1,3.35-3.5,4.79,4.79,0,0,1,1.4.25v-.44c0-2.9.59-5.05,1.39-5.05l.31.11,1.19,1.05,1.44.92.4.39c0-.81,0-.9.86-1.84.2-.23.5-.64.92-1.25s.55-.81.65-1,.22-.37.33-.6.35-.49.55-.49.33.24.57,1c.15.44.26.57,1.39,1.57a4.75,4.75,0,0,1,.78.86,8.7,8.7,0,0,1,.53,1.31c0,.12.1.29.2.53a3.86,3.86,0,0,1,1.31-1.19l1-.59a2.19,2.19,0,0,1,.72-.34c.09,0,.21.16.33.4s.28.56.52,1a5,5,0,0,1,.94,2.38l0,.65V15c2.16.67,3,1.79,3,4.11,0,1.68-.88,3.6-2.57,5.61-1.13,1.35-1.26,1.62-1.26,2.55,0,4.87,3.38,7.69,9.34,7.77l4.4.07a21.07,21.07,0,0,1,7.17,1.18c3.13,1,4,1.26,4.94,1.26a1.53,1.53,0,0,0,.85-.27.8.8,0,0,0,.39-.59c0-.92-1.62-1.66-6.9-3.16-10.84-3.07-15.45-7.43-15.45-14.61C48.18,13.33,52.8,9,58.77,9a23.31,23.31,0,0,1,6.57,1.12l2.69,1a4.16,4.16,0,0,0,1.42.28c.91,0,1.38-.76,1.41-2.32,0-.83.21-1.11.75-1.11.76,0,1.93.94,3,2.43a8.53,8.53,0,0,1,1.78,4.32c0,1.49-.71,2.53-2.31,3.44a6.43,6.43,0,0,1-5.73,3.28c-1.9,0-4.6-1.07-9.06-3.61a6.52,6.52,0,0,0-3.17-1.18,1.71,1.71,0,0,0-1.92,1.7c0,.95.74,1.57,2.66,2.24,2.84,1,3.54,1.38,4.67,2.56,3.34.59,4.8,1.17,6.9,2.76,5.77,1.84,9.35,5.77,9.35,10.28s-3,7.54-7.1,7.54a12.54,12.54,0,0,1-3.11-.4" transform="translate(0 0.18)"/><path d="M74.08,72.15a7.1,7.1,0,0,1-.24-1.59l0-.52.2-1.05.07-.85a3.36,3.36,0,0,0-.46-2l-.79-1.06a4.77,4.77,0,0,1-.66-1.25,1.73,1.73,0,0,1-.13-.55.45.45,0,0,1,.47-.49c.18,0,.25,0,.84.39a1.38,1.38,0,0,0,.65.22c.39,0,.6-.63.6-1.75a3.89,3.89,0,0,0-.39-2.29l-1-1.11-.85-.73a.88.88,0,0,1-.35-.57.49.49,0,0,1,.53-.48,5.48,5.48,0,0,1,1.46.33l.3.06c.27,0,.37-.15.37-.54v-.24l-.2-1.39-.39-1.44c-.13-.47-.2-.54-.5-.54l-.16,0-1.64.32-.27,0A5.83,5.83,0,0,1,66.46,49l-1.32-4.27a8.72,8.72,0,0,0-3.16-4A2.84,2.84,0,0,0,60.67,40l-1.18-.14c-.22,0-.36-.15-.36-.33s.25-.39.82-.39l2.17.19a17.23,17.23,0,0,1,3.54.92,13.89,13.89,0,0,0,4.42,1c3.28,0,5.25-1.78,5.25-4.75a8.31,8.31,0,0,0-2.69-5.82,6.19,6.19,0,0,0-2.17-1.45.35.35,0,0,0-.34.35l.07.84v.08a.52.52,0,0,1-.45.58c-.34,0-.71-.43-1.14-1.31-1.24-2.59-3.21-4.13-5.26-4.13-.34,0-.58.15-.58.35a3.26,3.26,0,0,0,.32,1l.53,1.18a2.63,2.63,0,0,1,.21.61c0,.07-.13.14-.28.14a1.91,1.91,0,0,1-1.12-.61l-1-1.06-.85-1.31a6,6,0,0,0-2.7-2.3l-1.58-.86a1.73,1.73,0,0,0-.82-.26.31.31,0,0,0-.35.34,1.39,1.39,0,0,0,.25.71,3.6,3.6,0,0,1,.68,1.32.38.38,0,0,1-.34.39c-.51,0-1.57-1-2.51-2.43a6.74,6.74,0,0,1-1.18-3.69,4.76,4.76,0,0,1,4.85-4.93,10,10,0,0,1,4.94,1.65l3.09,1.91a8.27,8.27,0,0,0,3.6,1.18,9.15,9.15,0,0,0,1.93-.33,3.21,3.21,0,0,0,.78-.33c.18-.11.31-.25.31-.37a.28.28,0,0,0-.18-.28L71,17.46l-1.45-.27a8.75,8.75,0,0,1-1.77-.66,34.94,34.94,0,0,1-3.29-1.64,12.82,12.82,0,0,0-2.16-1.25c-.54-.18-.87-.42-.87-.62a.25.25,0,0,1,.29-.29,1.35,1.35,0,0,1,.7.25,5.14,5.14,0,0,0,2.44.92l2.82,1a17.44,17.44,0,0,0,4.38.92,2.16,2.16,0,0,0,2.15-2.17,5.8,5.8,0,0,0-1.13-2.89c-.16-.21-.32-.34-.45-.34s-.41.19-.41.53l.06.53.11.79a1.42,1.42,0,0,1-1.31,1.52,3.46,3.46,0,0,1-1-.21L65.8,12.2c-3.58-1.16-5.24-1.52-7-1.52-5.12,0-9,3.52-9,8.13,0,5.23,3.67,8.61,12.75,11.72S72.7,34.35,72.7,36.65a2.77,2.77,0,0,1-2.83,2.5A9.08,9.08,0,0,1,68.29,39L63.83,38A33.26,33.26,0,0,0,55.64,37c-6.45,0-10,1.13-13.12,4.15a2.14,2.14,0,0,1-1.92.86h-.44L39.24,42h-.12a2.07,2.07,0,0,0-1.85,1.19l-1.12,1.77a.94.94,0,0,1-.75.4c-.59,0-.94-.45-1.61-2a5.73,5.73,0,0,0-1.38-2l-1.32-1.18a.79.79,0,0,1-.33-.5A1.23,1.23,0,0,1,31,39a4.84,4.84,0,0,0,.92-1.72c.18-.87.2-.91.56-.91s.53.4.56,1.9a4.91,4.91,0,0,0,.53,1.78l.72,1.58a.64.64,0,0,0,.6.33c.68,0,1.54-1.6,1.77-3.29.19-1.41.34-1.85.63-1.85a.34.34,0,0,1,.29.14c.06.09.27.49.59,1.18a3.34,3.34,0,0,0,1.64,1.45h.08c.54,0,.72-.35.84-1.59l.07-.66-.13-.92-.1-.64c0-.42.15-.67.39-.67a.78.78,0,0,1,.5.26l.65.66a1.92,1.92,0,0,0,1.3.65c.55,0,.89-.22.89-.58a3.49,3.49,0,0,0-.61-1.52l-.46-.85c-.53-1-1-1.39-1.44-1.39l-.66.07-.79.33a1.92,1.92,0,0,1-.51.15c-.13,0-.21-.11-.21-.26A6,6,0,0,1,40.75,30c.52-.83.88-2.61,1-5.16.23-3.44.69-5.66,1.17-5.66.32,0,.45.28.45,1l0,.9,0,.63c0,.62.13,1.11.29,1.11.57,0,1.24-.84,1.77-2.2a4.12,4.12,0,0,0,.34-1.34L45.68,19l-1.31-2.43-1.32-.39a.72.72,0,0,1-.46-.3v-1.6l-.13-.8-.26-.65-.33-.73a7.62,7.62,0,0,0-2.63,2c-.51.69-.81,1-1.06,1a.34.34,0,0,1-.32-.35,5.66,5.66,0,0,1,.2-1.07l0-.37a4.53,4.53,0,0,0-2.28-3.7l-.39.52-.46.66-.79.92a3.85,3.85,0,0,0-.66,1.32,2.46,2.46,0,0,0-.13.75V14c0,.55-.06.69-.31.69l-.16-.07L32.47,14l-.72-.79-1.12-.72L30,12c-.12.26-.21.46-.26.59a3.15,3.15,0,0,0-.33,1.05l-.07,1-.07,1.12V16c0,.58-.14.8-.49.8a2.42,2.42,0,0,1-.77-.33,1.87,1.87,0,0,0-.95-.27A1.64,1.64,0,0,0,25.43,18a5.74,5.74,0,0,0,1.06,3.44l.85,1.12c.24.3.67.56.69.39l.17-1.37L28,20.48l0-.5c0-.43.15-.69.39-.69s.59.41.83,1.52l.52,2.43.53,3.09A12.34,12.34,0,0,0,31,29a13.71,13.71,0,0,0,1.12,2.3c.73.94.81,1.06.81,1.27a.31.31,0,0,1-.28.31,1.48,1.48,0,0,1-.6-.2,2.56,2.56,0,0,0-.78-.26l-.52-.08c-1.06,0-1.27.91-1.27,5.3a26.88,26.88,0,0,0,1.26,8.06l1.38,3.48a4.39,4.39,0,0,1,.33,1.63c0,4.8-6.36,12.32-13.34,15.79-2.6,1.29-3.43,2.52-3.62,5.39l-.06.86a8.22,8.22,0,0,1,2.23-.92c2-.52,2.34-.76,2.63-1.72l.26-.85c.1-.32.27-.44,1.78-1.25a2.65,2.65,0,0,0,1-.85c.33-.56.61-.85.78-.85s.26.08.26.21l-.06.24-.65,1.87-.08.47a3.58,3.58,0,0,0,2.18,3.25,5.86,5.86,0,0,1,.86-2.76l1.18-1.84A5,5,0,0,0,28.49,65a12.46,12.46,0,0,0-.16-2l0-.52a.46.46,0,0,1,.47-.53c.22,0,.41.08.43.2l.27,1.25a.62.62,0,0,0,.64.46c.63,0,1.45-.82,2.32-2.3a3.57,3.57,0,0,0,.48-1.74l-.09-.89-.2-1,0-.2c0-.43.24-.73.58-.73.16,0,.28.06.3.13l.39,1.52a1,1,0,0,0,.85.85c.44,0,1.2-.76,1.65-1.64a6,6,0,0,0,.59-2.69c0-1.41.14-1.81.66-1.81.16,0,.3.06.32.16l.27.85c.1.32.29.52.47.52s1-.79,1.5-1.64a1.22,1.22,0,0,0,.2-.61c0-.28-.19-.56-.59-.9-.69-.57-.73-.65-.73-1.51a3.93,3.93,0,0,1,.73-2.3c.32-.56.6-1.09.85-1.58.83-1.63,1.13-2,1.43-2a.56.56,0,0,1,.48.58,1.14,1.14,0,0,1-.14.54,2.34,2.34,0,0,0-.26.78.48.48,0,0,0,.49.47,2.67,2.67,0,0,0,1.16-.39,18.29,18.29,0,0,1,1.83-.73l2.18-.78a3.84,3.84,0,0,1,1.31-.2,5.08,5.08,0,0,1,1.18.13,10.1,10.1,0,0,0,1.52.27,1.15,1.15,0,0,0,1.12-1.1,4.06,4.06,0,0,0-1.06-2,1.16,1.16,0,0,1-.34-.6L51.6,41a.44.44,0,0,1,.35-.26c.44,0,1.48,1.11,2.41,2.57C60,52.2,62.05,54.36,65.87,55.52s4.87,2.08,4.87,4.37c0,1.26-.64,2.72-2,4.69-2.86,4-3.55,5.63-3.55,8.27v.48a6.21,6.21,0,0,0,.73-.33,5.66,5.66,0,0,1,1-.46l1.64-.33a1.4,1.4,0,0,0,.93-1.34V70.7l-.2-1.44v-.2a1.9,1.9,0,0,1,.6-1.38.56.56,0,0,1,.35-.14.66.66,0,0,1,.51.4l1,2.23a3.79,3.79,0,0,0,2.3,2" transform="translate(0 0.18)" style="fill:#ffe500"/><path d="M21.08,24.49c-.48,0-.72.41-.77,1.31l-.13,1.25A10.62,10.62,0,0,0,20,28.64c0,.94.28,1.64.66,1.64s1.08-.81,1.41-1.72a4.46,4.46,0,0,0,.3-1.54,4.53,4.53,0,0,0-.3-1.48c-.24-.67-.61-1.05-1-1.05" transform="translate(0 0.18)" style="fill:#ffe500"/><path d="M15.64,14.89l.92.92c1.5,1.5,2.24,4,2.24,7.52,0,.78,0,1.3-.2,3.39-.09,1.1-.13,2-.13,2.71,0,8.15,2.65,14.32,6.15,14.32,1.11,0,1.82-.53,2.86-2.11.16-.25.43-.47.59-.47s.31.17.32.54l.14,1.45.13,1.24.13,1.39L29,47l0,.16a.54.54,0,0,1-.47.62l-1.19.2a5,5,0,0,0-1.84.73,5.42,5.42,0,0,0-1.71,1.31l-.72,1.52a.51.51,0,0,1-.41.32c-.38,0-1-.66-1.7-1.84a6.29,6.29,0,0,1-1-2.15c0-.21.16-.29.58-.29h.12l.86.07.52-.07.59-.06a.46.46,0,0,0,.4-.46.43.43,0,0,0-.26-.39l-3-1.25a4.63,4.63,0,0,1-2.23-2.17,8.92,8.92,0,0,1-1.2-2.95c0-.41.21-.68.54-.68a1.09,1.09,0,0,1,.46.15,2.63,2.63,0,0,0,.83.26.47.47,0,0,0,.49-.41,1.26,1.26,0,0,0-.53-.71c-2.47-1.8-3.89-3.85-3.89-5.63,0-.5.12-.73.38-.73l.48,0,.85.13h0a.53.53,0,0,0,.57-.51c0-.18-.22-.43-.54-.61l-1.05-.59a2.79,2.79,0,0,1-.92-.92C14,30,13.65,29.27,13,28l-.92-1.78c-.34-.66-.54-1-.59-1.11a4.73,4.73,0,0,0-.4-.53,4.19,4.19,0,0,1,2.05-.54c.9,0,1.46.59,2.1,2.18.4,1,.84,1.68,1.08,1.68s.17-.21.17-.77a7.35,7.35,0,0,0-.27-2,4.51,4.51,0,0,1-.2-1.45l-.13-.92-.78-.39a1.79,1.79,0,0,1-.6-.66A2.81,2.81,0,0,1,14,20.3a5,5,0,0,1,.2-1.2,18.48,18.48,0,0,0,.86-4.3v-.56Z" transform="translate(0 0.18)" style="fill:#ffe500"/><path d="M23.53,62.29a7.35,7.35,0,0,1-1.91-.47l-1.25-.52a6.66,6.66,0,0,0-2.51-.66,4,4,0,0,0-2.74,1.12l.59.46,1.31.92,1.25,1a1.77,1.77,0,0,0,1.08.39c1.29,0,2.41-.6,4.18-2.23" transform="translate(0 0.18)" style="fill:#ffe500"/><path d="M48.84,74.25a3.72,3.72,0,0,1,1.32-1.71C52,71,52.85,69.79,52.85,68.86V67.41c0-.84.14-1.12.58-1.12a.45.45,0,0,1,.41.2l.32.79a.59.59,0,0,0,.56.3c.25,0,.63-.3,1-.76l.65-.92a2.13,2.13,0,0,0,.48-1.28,2,2,0,0,0-.15-.76c0-.13-.2-.47-.46-1a3.15,3.15,0,0,1-.27-1c0-.43.22-.68.59-.68a.59.59,0,0,1,.47.2l.53.66a.64.64,0,0,0,.5.23.89.89,0,0,0,.68-.56l.52-1.05a1.54,1.54,0,0,0,.21-.59c0-.2-.21-.42-.6-.59L58,59c-1.13-.52-2-2.33-2-4.22a2,2,0,0,1,.13-.71L56.59,53a2.55,2.55,0,0,0,.2-1.05,3.71,3.71,0,0,0-.66-2c-.52-.81-.81-1.27-.85-1.38-.39-1-.59-1.33-.91-1.33l-.34.08-.46.26-.72.4L52,49l-.92.45A3.09,3.09,0,0,0,50,51.82c0,1.7.2,2.18,2.45,6.07a8.15,8.15,0,0,1,1.34,3.75q0,4-7.25,5.77l-3,.73c-2.22.53-3.54,2.06-4,4.67a4.88,4.88,0,0,1,2.92-.55h1.12c.87,0,1-.06,1.55-.86a5,5,0,0,1,2.17-1.83l1.05-.47.86-.46.26-.07c.23,0,.36.1.36.28A2.17,2.17,0,0,1,49.17,70a3.45,3.45,0,0,0-1.05,2.54,2.43,2.43,0,0,0,.72,1.73" transform="translate(0 0.18)" style="fill:#ffe500"/><path d="M40.55,64.06a7.46,7.46,0,0,1,2,1.78c.63.85.72.92,1.34.92a4.26,4.26,0,0,0,1-.14l.59-.13c1.08-.21,1.45-.36,1.45-.63a.84.84,0,0,0-.33-.55l-.72-.66L45.09,64a3.55,3.55,0,0,0-2.16-.73,4.19,4.19,0,0,0-2.38.8" transform="translate(0 0.18)" style="fill:#ffe500"/><path d="M61.85,67.61l.4-.07.59-.06.59.06.29,0A2.87,2.87,0,0,0,66.59,65c0-.45-.42-.7-1.16-.7-1.77,0-2.89,1-3.58,3.29" transform="translate(0 0.18)" style="fill:#ffe500"/><path d="M37.34,22.19c.07.61.39,1.11.71,1.11s.59-.72,1.28-1.88c.92-1.58,1.82-3.12,1.82-4,0-.28-.14-.49-.33-.49l-.07,0-.72.66a5.84,5.84,0,0,1-2.24,1.18c-.74.28-1,.58-1,1.12l.1.53.32.92Z" transform="translate(0 0.18)"/><path d="M33.33,18.77l1.11.59a.74.74,0,0,1,.47.64l-.07.41a4.3,4.3,0,0,0-.05,1.4A1.11,1.11,0,0,1,33.48,23c-.21,0-.1-.13-.61-.72l-1.45-1.64a6.13,6.13,0,0,1-1-3v-.17c0-.36.12-.49.4-.49a1.44,1.44,0,0,1,.73.34Z" transform="translate(0 0.18)"/><path d="M35.88,25.67h-.35l-.76-.07L34,25.14a1.91,1.91,0,0,0-.94-.26c-.59,0-1,.33-1,.82a9.42,9.42,0,0,0,.87,2.93l.86,2.1c.75,1.85,1.47,2.63,2.44,2.63s1-.84,1.56-2.3c1.31-3.3,2.05-3.79,2.05-5,0-.8-.18-1-.91-1l-.61-.15-1,.67Z" transform="translate(0 0.18)"/><path d="M35.82,27.51H35a.38.38,0,0,0-.33.2l-.13.33.33,1.58L35.1,31c.14.76.42,1.06,1,1.06s1-.44,1.11-1.25l.14-1.45q.12-1.44.12-1.5a.56.56,0,0,0-.19-.4.52.52,0,0,0-.33-.15h-.06Z" transform="translate(0 0.18)" style="fill:#ffe500"/></g></g><path d="M121.56,86.48a3.85,3.85,0,0,0-7.12,0h-5.61a3.84,3.84,0,0,0-7.11,0H96.1a3.84,3.84,0,0,0-7.11,0H81.72v34.07h6.45v13.06h7.56V120.55h19.09v13.06h7.55V120.55h6.44V86.48Z" transform="translate(0 0.18)"/><rect x="89.57" y="123.71" width="3.91" height="5.03" style="fill:#ffe500"/><rect x="89.57" y="129.88" width="3.91" height="1.59" style="fill:#ffe500"/><rect x="116.22" y="123.71" width="3.91" height="5.03" style="fill:#ffe500"/><rect x="116.22" y="129.88" width="3.91" height="1.59" style="fill:#ffe500"/><rect x="84.35" y="89.45" width="41.82" height="1.55" style="fill:#e73337"/><polygon points="84.37 118.1 126.17 118.1 126.17 92.47 84.35 92.47 84.37 118.1" style="fill:#e73337"/><path d="M90.75,88.2a1.8,1.8,0,1,1,3.59,0v4.71a1.8,1.8,0,0,1-3.59,0Z" transform="translate(0 0.18)" style="fill:#ffe500"/><path d="M103.48,88.2a1.79,1.79,0,1,1,3.58,0v4.71a1.79,1.79,0,0,1-3.58,0Z" transform="translate(0 0.18)" style="fill:#ffe500"/><path d="M116.21,88.2a1.79,1.79,0,1,1,3.58,0v4.71a1.79,1.79,0,0,1-3.58,0Z" transform="translate(0 0.18)" style="fill:#ffe500"/><path d="M95.25,105.37a12.55,12.55,0,0,0,10.3,5c3.9,0,6.57-1.39,9.72-5-3.14-3.22-6.06-4.57-9.91-4.57a13,13,0,0,0-10.11,4.57" transform="translate(0 0.18)" style="fill:#ffe500"/><path d="M105.26,102.32a12.33,12.33,0,0,0-8,3.05,11.12,11.12,0,0,0,8,3.45,10.15,10.15,0,0,0,8-3.38C110.37,103.18,108.19,102.32,105.26,102.32Zm-.1,3.85a8,8,0,0,1-4.53-1.46,9.55,9.55,0,0,1,4.6-1.13,11,11,0,0,1,4.74,1.13A8.15,8.15,0,0,1,105.16,106.17Z" transform="translate(0 0.18)"/><path d="M121.68,115.65a2.26,2.26,0,1,1,2.26-2.25A2.26,2.26,0,0,1,121.68,115.65Z" transform="translate(0 0.18)"/><path d="M121.68,111.68a1.72,1.72,0,1,0,1.72,1.72A1.72,1.72,0,0,0,121.68,111.68Z" transform="translate(0 0.18)" style="fill:#ffe500"/><path d="M88.94,115.65a2.29,2.29,0,0,1-2.33-2.25,2.26,2.26,0,1,1,4.52,0A2.23,2.23,0,0,1,88.94,115.65Z" transform="translate(0 0.18)"/><path d="M88.86,111.68a1.73,1.73,0,0,0-1.72,1.72,1.76,1.76,0,0,0,1.8,1.71,1.68,1.68,0,0,0,1.65-1.71A1.73,1.73,0,0,0,88.86,111.68Z" transform="translate(0 0.18)" style="fill:#ffe500"/><path d="M88.86,100.07a2.26,2.26,0,1,1,2.27-2.26A2.26,2.26,0,0,1,88.86,100.07Z" transform="translate(0 0.18)"/><path d="M88.86,96.1a1.72,1.72,0,1,0,1.73,1.71A1.72,1.72,0,0,0,88.86,96.1Z" transform="translate(0 0.18)" style="fill:#ffe500"/><path d="M121.68,100.07a2.26,2.26,0,1,1,2.26-2.26A2.26,2.26,0,0,1,121.68,100.07Z" transform="translate(0 0.18)"/><path d="M121.68,96.1a1.72,1.72,0,1,0,1.72,1.71A1.71,1.71,0,0,0,121.68,96.1Z" transform="translate(0 0.18)" style="fill:#ffe500"/></g></svg>