<svg id="Capa_1" data-name="Capa 1" xmlns="http://www.w3.org/2000/svg" width="236" height="125" viewBox="0 0 271.87 108.35"><defs><style>.cls-1{fill:#1d1d1b;}.cls-2{fill:#009640;}.cls-3{fill:#fff;}.cls-4{fill:#211452;}.cls-5{fill:#8c254f;}</style></defs><path class="cls-1" d="M189.55,57.4v0l0-.05S189.54,57.37,189.55,57.4Z" transform="translate(-20.63 -22.13)"/><path class="cls-2" d="M189.55,57.4v0l0-.05S189.54,57.37,189.55,57.4Z" transform="translate(-20.63 -22.13)"/><path class="cls-3" d="M186.83,28.28c2.15,1.8,3.17,2.13,2.37,4.15s-2.83,4.42-3.17,5.92a6.77,6.77,0,0,0,0,2.84s-3.28-3.71-5-3.71-5.1,1.46-5.1,1.46-5.43-2.91-5.55-6.06.16-6.21,3.43-7.76c3.82-1.81,4.5-1.81,4.5-1.81S184.68,26.49,186.83,28.28ZM173.28,50.79c-3.37-.11-8.48-.66-11.34-1.91C157.64,47,148.11,34.5,160,25.06c6.29-4.95,16.17-2.13,16.17-2.13s-8.4,1.82-7.18,9.54c1.46,9.31,8.89,7.19,12.85,12.83,4.83,5.17,5.12,7.06,5.12,7.06A111.61,111.61,0,0,0,173.28,50.79Z" transform="translate(-20.63 -22.13)"/><path class="cls-4" d="M188.73,103a10.56,10.56,0,0,0,1.13-3.5,2.69,2.69,0,0,0-2.62-2.49c-1.44-.13-3.14,1.31-3.14,1.31s-.66-3-1.58-7.77.14-12.54-.39-13.46-1.44.53-2.1.79-.65-.79-.65-.79a20.75,20.75,0,0,0,1.83-1.31,36.56,36.56,0,0,0,6.16-6.94c2.63-3.68,1.91-12.87.79-14.29s-2.49-1.31-6.56-1.84c-2.69-.35-8.74-.35-13.76-.92l.14.92s.52,1.44.26,8.79S166,74.32,161.42,77.13c-6.32,3.87-7,6.5-8.52,9.7-3,6.42,1.59,16.39,1.59,16.39h20.78A29.82,29.82,0,0,0,174,90.59c-2.21-7.25-11.4-9.52-12.58-9.74s-.52-1.1-.52-1.1,5.76-.26,11.4,5.9C177,90.9,176.25,103,176.25,103Z" transform="translate(-20.63 -22.13)"/><path class="cls-4" d="M186.83,28.28c2.15,1.8,3.17,2.13,2.37,4.15s-2.83,4.42-3.17,5.92a6.77,6.77,0,0,0,0,2.84s-3.28-3.71-5-3.71-5.1,1.46-5.1,1.46-5.43-2.91-5.55-6.06.16-6.21,3.43-7.76c3.82-1.81,4.5-1.81,4.5-1.81S184.68,26.49,186.83,28.28Z" transform="translate(-20.63 -22.13)"/><path class="cls-4" d="M173.28,50.79c-3.37-.11-8.48-.66-11.34-1.91C157.64,47,148.11,34.5,160,25.06c6.29-4.95,16.17-2.13,16.17-2.13s-8.4,1.82-7.18,9.54c1.46,9.31,8.89,7.19,12.85,12.83,4.83,5.17,5.12,7.06,5.12,7.06A111.61,111.61,0,0,0,173.28,50.79Z" transform="translate(-20.63 -22.13)"/><path class="cls-4" d="M162.66,58.11c-9.27-10-22.61,11.68-19.92,26.08,2.65,14.2,6.58,18.12,10.9,19-.27-.57-.53-1.13-.77-1.67-.89-.72-8.92-7.6-9.42-22.24,0,0,.86-16.35,10.69-21.6a5.88,5.88,0,0,1,5.84-.42,8.72,8.72,0,0,0-2,8.33,9.57,9.57,0,0,0,1.62,3.65S166.66,62.41,162.66,58.11Z" transform="translate(-20.63 -22.13)"/><polygon class="cls-4" points="23.15 57.82 1.72 78.81 1.72 53.76 0 53.76 0 80.8 0.58 80.8 0.58 80.8 2.16 80.8 24.36 59.05 23.15 57.82"/><path class="cls-4" d="M47.32,84.49V82.78H49v1.71Zm0,18.44V85.85H49v17.08Z" transform="translate(-20.63 -22.13)"/><path class="cls-4" d="M59.61,85.85a8.26,8.26,0,0,1,3.28.67,8.94,8.94,0,0,1,2.71,1.81,8.37,8.37,0,0,1,2.55,6.06H66.44a6.65,6.65,0,0,0-.54-2.65,7,7,0,0,0-1.48-2.16,6.78,6.78,0,0,0-2.16-1.47,6.66,6.66,0,0,0-5.3,0,7,7,0,0,0-3.63,3.63,6.49,6.49,0,0,0-.55,2.65v8.54H51.07V94.39A8.6,8.6,0,0,1,51.74,91a8.48,8.48,0,0,1,7.87-5.19Z" transform="translate(-20.63 -22.13)"/><path class="cls-4" d="M87.27,94.56v8.37a8.25,8.25,0,0,1-.66,3.28,9.12,9.12,0,0,1-1.81,2.71,8.51,8.51,0,0,1-2.72,1.87,8.38,8.38,0,0,1-3.34.68,8,8,0,0,1-3.28-.68,9,9,0,0,1-4.58-4.58,7.93,7.93,0,0,1-.68-3.28h1.71a6.61,6.61,0,0,0,.54,2.65,6.88,6.88,0,0,0,3.64,3.63,6.42,6.42,0,0,0,2.65.55,6.6,6.6,0,0,0,2.71-.55,7.08,7.08,0,0,0,2.17-1.46,6.51,6.51,0,0,0,1.43-2.17,6.77,6.77,0,0,0,.52-2.65V99.51A9,9,0,0,1,82.66,102a8.51,8.51,0,0,1-7.2.27,8.8,8.8,0,0,1-2.72-1.81,8.47,8.47,0,0,1-1.86-2.69,8.64,8.64,0,0,1,0-6.72,8.44,8.44,0,0,1,1.86-2.71,9,9,0,0,1,2.72-1.81,8.19,8.19,0,0,1,3.28-.67,8.63,8.63,0,0,1,6.06,2.48,8.52,8.52,0,0,1,2.47,6.06Zm-8.53,6.66a6.76,6.76,0,0,0,2.71-.54,7.29,7.29,0,0,0,2.17-1.47A6.51,6.51,0,0,0,85.05,97a6.73,6.73,0,0,0,.52-2.65,6.81,6.81,0,0,0-.52-2.65,6.37,6.37,0,0,0-1.43-2.16,6.94,6.94,0,0,0-2.17-1.47,6.6,6.6,0,0,0-2.71-.55,6.42,6.42,0,0,0-2.65.55,7,7,0,0,0-3.64,3.63,6.65,6.65,0,0,0-.54,2.65A6.58,6.58,0,0,0,72.45,97a6.94,6.94,0,0,0,1.47,2.17,7.17,7.17,0,0,0,2.17,1.47A6.58,6.58,0,0,0,78.74,101.22Z" transform="translate(-20.63 -22.13)"/><path class="cls-4" d="M89.32,84.49V82.78H91v1.71Zm0,18.44V85.85H91v17.08Z" transform="translate(-20.63 -22.13)"/><path class="cls-4" d="M101.62,85.85a7.86,7.86,0,0,1,3.27.69,8.78,8.78,0,0,1,2.72,1.86,9.09,9.09,0,0,1,1.86,2.71,8.1,8.1,0,0,1,.68,3.28v8.54h-1.71V94.39a6.65,6.65,0,0,0-.54-2.65,7,7,0,0,0-1.47-2.16,6.82,6.82,0,0,0-2.17-1.47,6.64,6.64,0,0,0-5.29,0,7,7,0,0,0-3.64,3.63,6.65,6.65,0,0,0-.55,2.65v8.54h-1.7V94.39a8.25,8.25,0,0,1,.66-3.28,9.12,9.12,0,0,1,1.81-2.71,8.35,8.35,0,0,1,2.7-1.86A8.23,8.23,0,0,1,101.62,85.85Z" transform="translate(-20.63 -22.13)"/><path class="cls-4" d="M112.2,84.49V82.78h1.71v1.71Zm0,18.44V85.85h1.71v17.08Z" transform="translate(-20.63 -22.13)"/><path class="cls-4" d="M124.49,85.85a8.56,8.56,0,0,1,3.35.67,8.37,8.37,0,0,1,2.71,1.81A8.5,8.5,0,0,1,132.37,91a8.59,8.59,0,0,1,.66,3.35v8.54h-1.71V99.51a8.58,8.58,0,0,1-3,2.48,8.19,8.19,0,0,1-3.86.94,8.53,8.53,0,0,1-6.06-2.48,8.67,8.67,0,0,1-1.81-2.69,8.88,8.88,0,0,1,0-6.72,8.64,8.64,0,0,1,1.81-2.71,8.53,8.53,0,0,1,6.06-2.48Zm0,15.37a6.58,6.58,0,0,0,2.65-.54A6.94,6.94,0,0,0,130.78,97a6.58,6.58,0,0,0,.54-2.65,6.65,6.65,0,0,0-.54-2.65,7.12,7.12,0,0,0-1.47-2.16,6.94,6.94,0,0,0-2.17-1.47,6.64,6.64,0,0,0-5.29,0,7,7,0,0,0-3.64,3.63,6.65,6.65,0,0,0-.55,2.65,6.58,6.58,0,0,0,.55,2.65,6.94,6.94,0,0,0,1.47,2.17,7.17,7.17,0,0,0,2.17,1.47A6.56,6.56,0,0,0,124.49,101.22Z" transform="translate(-20.63 -22.13)"/><polygon class="cls-4" points="182.87 79.08 182.87 53.76 181.15 53.76 181.15 80.8 181.18 80.8 182.87 80.8 193.34 80.8 193.34 79.08 182.87 79.08"/><path class="cls-4" d="M235.12,85.85v17.08a8.5,8.5,0,0,1-8.54,8.54,8.38,8.38,0,0,1-3.37-.67,8.5,8.5,0,0,1-2.69-1.81,8.53,8.53,0,0,1-2.48-6.06h1.71a6.61,6.61,0,0,0,.54,2.65,7.29,7.29,0,0,0,1.47,2.17,7.08,7.08,0,0,0,2.17,1.46,6.42,6.42,0,0,0,2.65.55,6.49,6.49,0,0,0,2.65-.55,6.9,6.9,0,0,0,3.63-3.63,6.45,6.45,0,0,0,.55-2.65V99.51a8.77,8.77,0,0,1-3,2.48,8.22,8.22,0,0,1-3.86.94,8.39,8.39,0,0,1-3.37-.68,8.5,8.5,0,0,1-2.69-1.87,8.64,8.64,0,0,1-1.81-2.71,8.05,8.05,0,0,1-.67-3.28V85.85h1.71v8.54a6.58,6.58,0,0,0,.54,2.65,6.94,6.94,0,0,0,3.64,3.64,6.58,6.58,0,0,0,2.65.54,6.65,6.65,0,0,0,2.65-.54,7.12,7.12,0,0,0,2.16-1.47A6.94,6.94,0,0,0,232.86,97a6.42,6.42,0,0,0,.55-2.65V85.85Z" transform="translate(-20.63 -22.13)"/><path class="cls-4" d="M245.7,85.85a8.22,8.22,0,0,1,3.28.67,9,9,0,0,1,2.72,1.81A8.61,8.61,0,0,1,253.56,91a8.64,8.64,0,0,1,0,6.72,8.63,8.63,0,0,1-1.86,2.69,8.8,8.8,0,0,1-2.72,1.81,8.05,8.05,0,0,1-3.28.67,8.53,8.53,0,0,1-6.06-2.48,8.67,8.67,0,0,1-1.81-2.69,8.88,8.88,0,0,1,0-6.72,8.64,8.64,0,0,1,1.81-2.71,8.53,8.53,0,0,1,6.06-2.48Zm0,15.37a6.58,6.58,0,0,0,2.65-.54,7.17,7.17,0,0,0,2.17-1.47A7.29,7.29,0,0,0,252,97a6.58,6.58,0,0,0,.54-2.65,6.65,6.65,0,0,0-.54-2.65,7.12,7.12,0,0,0-1.47-2.16,6.82,6.82,0,0,0-2.17-1.47,6.64,6.64,0,0,0-5.29,0,7,7,0,0,0-3.64,3.63,6.65,6.65,0,0,0-.55,2.65,6.58,6.58,0,0,0,.55,2.65,6.94,6.94,0,0,0,1.47,2.17,7.17,7.17,0,0,0,2.17,1.47A6.56,6.56,0,0,0,245.7,101.22Z" transform="translate(-20.63 -22.13)"/><path class="cls-4" d="M264.83,85.85a7.94,7.94,0,0,1,3.28.69,8.73,8.73,0,0,1,2.71,1.86,8.94,8.94,0,0,1,1.87,2.71,8.1,8.1,0,0,1,.68,3.28v8.54h-1.71V94.39a6.49,6.49,0,0,0-.55-2.65,7,7,0,0,0-3.63-3.63,6.49,6.49,0,0,0-2.65-.55,6.42,6.42,0,0,0-2.65.55A6.94,6.94,0,0,0,260,89.58a7.12,7.12,0,0,0-1.47,2.16,6.65,6.65,0,0,0-.54,2.65v8.54h-1.71V94.39a8.09,8.09,0,0,1,.67-3.28,8.76,8.76,0,0,1,1.81-2.71,8.31,8.31,0,0,1,2.69-1.86A8.23,8.23,0,0,1,264.83,85.85Z" transform="translate(-20.63 -22.13)"/><path class="cls-4" d="M278,88.36a2.72,2.72,0,0,0-.89,2.1,3,3,0,0,0,3.08,3.08h7.68a4.44,4.44,0,0,1,1.79.36,4.64,4.64,0,0,1,1.47,1,4.55,4.55,0,0,1,1.35,3.26,4.83,4.83,0,0,1-1.35,3.35,5,5,0,0,1-1.47,1,4.15,4.15,0,0,1-1.79.39H275.42v-1.71h12.46a2.72,2.72,0,0,0,2-.89,3,3,0,0,0,.87-2.18,2.71,2.71,0,0,0-.87-2.1,2.86,2.86,0,0,0-2-.8H280.2a4.62,4.62,0,0,1-1.9-.4,5.07,5.07,0,0,1-1.52-1,4.81,4.81,0,0,1-1-1.52,4.92,4.92,0,0,1-.35-1.83,4.44,4.44,0,0,1,1.36-3.26,4.76,4.76,0,0,1,1.52-1,5,5,0,0,1,1.9-.36h12.29v1.71H280.2A3.16,3.16,0,0,0,278,88.36Z" transform="translate(-20.63 -22.13)"/><path class="cls-5" d="M66.64,128.94v1.18H59.13V116.8h7.41V118H60.41v4.52h4.82v1.18H60.41v5.26Z" transform="translate(-20.63 -22.13)"/><path class="cls-5" d="M80.42,123.28l-4.13-6.5h1.53l3.46,5.51,3.34-5.51h1.52L82,123.47l4.23,6.65H84.73l-3.55-5.66-3.46,5.66H76.21Z" transform="translate(-20.63 -22.13)"/><path class="cls-5" d="M95.1,130.12l5.45-13.73L106,130.12h-1.36l-1.11-2.77h-6l-1.1,2.77Zm2.91-4h5.08l-2.54-6.38Z" transform="translate(-20.63 -22.13)"/><path class="cls-5" d="M115.1,130.12l1.44-13.73,5.46,8.37,5.55-8.36,1.35,13.72h-1.3l-1-10.06-4.65,7-4.57-7-1,10.06Z" transform="translate(-20.63 -22.13)"/><path class="cls-5" d="M161.6,128.69a6.69,6.69,0,0,1-4.51,1.61c-3.73,0-6.49-2.89-6.49-6.85s2.76-6.85,6.49-6.85a6.71,6.71,0,0,1,4.48,1.57l-.77,1a5.55,5.55,0,0,0-3.71-1.36c-3,0-5.18,2.41-5.18,5.64s2.18,5.64,5.18,5.64a5.52,5.52,0,0,0,3.74-1.38Z" transform="translate(-20.63 -22.13)"/><path class="cls-5" d="M178.68,128.94v1.18h-7.5V116.8h7.4V118h-6.13v4.52h4.82v1.18h-4.82v5.26Z" transform="translate(-20.63 -22.13)"/><path class="cls-5" d="M199.43,116.78v13.7l-9.08-10.77v10.41h-1.27V116.39l9.08,10.71V116.78Z" transform="translate(-20.63 -22.13)"/><path class="cls-5" d="M218.34,118h-3.92v12.16h-1.28V118h-4v-1.18h9.17Z" transform="translate(-20.63 -22.13)"/><path class="cls-5" d="M234.71,130.12l-3.59-5.7h-1.93v5.7h-1.28V116.78h4.21a3.82,3.82,0,0,1,.48,7.6l3.59,5.74Zm-2.59-6.88a2.64,2.64,0,0,0,0-5.28h-2.93v5.28Z" transform="translate(-20.63 -22.13)"/><path class="cls-5" d="M253.43,128.94v1.18h-7.5V116.8h7.4V118H247.2v4.52H252v1.18H247.2v5.26Z" transform="translate(-20.63 -22.13)"/></svg>